<?xml version="1.0" encoding="UTF-8"?>
<svg width="20px" height="20px" viewBox="0 0 20 20" version="1.1" xmlns="http://www.w3.org/2000/svg" xmlns:xlink="http://www.w3.org/1999/xlink">
    <title>check-circle</title>
    <g id="check-circle" stroke="none" stroke-width="1" fill="none" fill-rule="evenodd">
        <path d="M10,0 C15.5228475,0 20,4.4771525 20,10 C20,15.5228475 15.5228475,20 10,20 C4.4771525,20 0,15.5228475 0,10 C0,4.4771525 4.4771525,0 10,0 Z M15.7552083,5.15896672 C15.4792083,5.15896672 15.2292083,5.2707998 15.0482083,5.45153005 L8.08854167,12.4008246 L4.46220833,8.77989568 C4.28120833,8.59916542 4.03154167,8.48733234 3.75520833,8.48733234 C3.202875,8.48733234 2.75520833,8.93433184 2.75520833,9.48584203 C2.75520833,9.76176354 2.86720833,10.011391 3.04820833,10.1921212 L7.38154167,14.5189965 C7.56254167,14.6993939 7.81254167,14.811227 8.08854167,14.811227 C8.364875,14.811227 8.614875,14.6993939 8.79554167,14.5189965 L16.4625417,6.86375559 L16.5469522,6.76782315 C16.6774306,6.59899335 16.7552083,6.38713363 16.7552083,6.1574764 C16.7552083,5.60596622 16.3075417,5.15896672 15.7552083,5.15896672 Z" fill="#112E51"></path>
    </g>
</svg>