<?xml version="1.0" encoding="UTF-8"?>
<svg width="34px" height="34px" viewBox="0 0 34 34" version="1.1" xmlns="http://www.w3.org/2000/svg" xmlns:xlink="http://www.w3.org/1999/xlink">
    <title>Frame</title>
    <defs>
        <path d="M17,0 C26.3888407,0 34,7.61115925 34,17 C34,26.3888407 26.3888407,34 17,34 C7.61115925,34 0,26.3888407 0,17 C0,7.61115925 7.61115925,0 17,0 Z" id="path-1"></path>
    </defs>
    <g id="Frame" stroke="none" fill="none" xlink:href="#path-1" fill-rule="evenodd">
        <circle id="Oval" fill="#FFFFFF" cx="17" cy="17" r="17"></circle>
        <path d="M19.578228,14.1829417 L19.7098737,14.1959759 C20.6967814,14.3422456 21.4511612,15.1932404 21.4511612,16.2165014 C21.4511612,16.3435056 21.4375228,16.4656623 21.416091,16.5863648 L19.743924,25.0554138 C19.5656505,25.8780327 18.7186075,26.5959459 17.7619702,26.5959459 L16.0547331,26.5959459 C15.0976087,26.5959459 14.2510528,25.8780327 14.0727793,25.0554138 L12.3918448,16.5863648 C12.370413,16.4656623 12.365055,16.3435056 12.365055,16.2165014 C12.365055,15.1677225 13.1568471,14.3005939 14.1792812,14.1864967 C14.9176962,14.7767789 15.8551592,15.1287774 16.8752322,15.1287774 L17.0844556,15.1238217 C18.0262777,15.0791073 18.8890459,14.7341211 19.578228,14.1829417 Z M8.32184515,13.2403998 C9.06074927,13.8290043 9.99821222,14.1810028 11.0182852,14.1810028 L11.2275087,14.1760471 C11.4134111,14.1672211 11.5962336,14.1466962 11.7752489,14.1151958 C11.2222095,14.758007 10.8880743,15.5950859 10.8880743,16.5089956 C10.8880743,16.7410367 10.9013025,16.9434944 10.9403071,17.163166 L12.5128211,25.0878179 C12.5437229,25.230521 12.5835563,25.3700966 12.6316562,25.5060103 C12.405235,25.5975732 12.1589913,25.6481714 11.9050233,25.6481714 L10.1977861,25.6481714 C9.24066174,25.6481714 8.39410591,24.9302582 8.21583235,24.1076392 L6.53489785,15.6385903 C6.51346606,15.5178878 6.50810811,15.395731 6.50810811,15.2687268 C6.50810811,14.2450251 7.26248791,13.3943909 8.24939556,13.2481905 Z M25.4355872,13.2348374 L25.5668207,13.2482014 C26.5537283,13.394471 27.3081081,14.2454658 27.3081081,15.2687268 C27.3081081,15.395731 27.2944697,15.5178878 27.2730379,15.6385903 L25.6008709,24.1076392 C25.4225974,24.9302582 24.5755545,25.6481714 23.6189172,25.6481714 L21.91168,25.6481714 C21.658694,25.6481714 21.4134327,25.5980148 21.1861953,25.5090253 C21.2319716,25.3809539 21.2687945,25.2508495 21.2975536,25.1181443 L22.8619241,17.1966152 C22.9069736,16.9447693 22.9281419,16.7309412 22.9281419,16.5089956 C22.9281419,15.6008452 22.5980698,14.7684432 22.0504921,14.1257028 C22.2723156,14.1627842 22.5001095,14.1810028 22.7321791,14.1810028 L22.9414026,14.1760471 C23.8834124,14.1313238 24.7463369,13.7862089 25.4355872,13.2348374 Z M16.8752322,8.45095407 C18.2001809,8.45095407 19.2742641,9.51988333 19.2742641,10.8384744 C19.2742641,12.1570655 18.2001809,13.2259947 16.8752322,13.2259947 C15.5502834,13.2259947 14.4762002,12.1570655 14.4762002,10.8384744 C14.4762002,9.51988333 15.5502834,8.45095407 16.8752322,8.45095407 Z M11.0182852,7.49594595 C12.343234,7.49594595 13.4173172,8.5648752 13.4173172,9.88346627 C13.4173172,11.2020573 12.343234,12.2709866 11.0182852,12.2709866 C9.69333647,12.2709866 8.61925328,11.2020573 8.61925328,9.88346627 C8.61925328,8.5648752 9.69333647,7.49594595 11.0182852,7.49594595 Z M22.7321791,7.49594595 C24.0571278,7.49594595 25.131211,8.5648752 25.131211,9.88346627 C25.131211,11.2020573 24.0571278,12.2709866 22.7321791,12.2709866 C21.4072303,12.2709866 20.3331472,11.2020573 20.3331472,9.88346627 C20.3331472,8.5648752 21.4072303,7.49594595 22.7321791,7.49594595 Z" id="committee" fill="#5B616B"></path>
    </g>
</svg>