<svg
   id="committee-icon"
   viewBox="0 0 24 24"
   xmlns="http://www.w3.org/2000/svg"
   xmlns:svg="http://www.w3.org/2000/svg">
   <circle
      fill="#ffffff"
      cx="12"
      cy="12"
      r="12" />
   <path
      d="m 14.096953,9.7515686 0.103387,0.010231 c 0.775057,0.1148718 1.367503,0.7831934 1.367503,1.5868014 0,0.09975 -0.0107,0.195677 -0.02753,0.290469 l -1.31322,6.651088 C 14.087082,18.936196 13.421868,19.5 12.670581,19.5 h -1.34076 c -0.75167,0 -1.4165043,-0.563804 -1.55651,-1.209842 L 8.4531973,11.63907 c -0.01683,-0.09479 -0.021038,-0.190724 -0.021038,-0.290469 0,-0.823647 0.6218264,-1.5046388 1.4247851,-1.5942438 0.5799066,0.4635728 1.3161326,0.7400108 2.1172376,0.7400108 l 0.164312,-0.004 c 0.739651,-0.03511 1.417218,-0.306041 1.958461,-0.738904 z M 5.25686,9.0113524 c 0.5802914,0.4622545 1.3165188,0.7386935 2.1176234,0.7386935 l 0.1643119,-0.00396 C 7.6847918,9.7391709 7.82837,9.7230422 7.9689578,9.6983044 7.534634,10.20313 7.2722234,10.860519 7.2722234,11.578249 c 0,0.182234 0.010388,0.34123 0.041019,0.513746 l 1.234959,6.223552 c 0.024265,0.11207 0.055548,0.221685 0.093326,0.328424 -0.1778183,0.07191 -0.3712037,0.111647 -0.570655,0.111647 H 6.7301093 c -0.7516683,0 -1.416503,-0.563805 -1.5565085,-1.209841 l -1.3201036,-6.65103 c -0.016832,-0.0948 -0.021038,-0.190731 -0.021038,-0.29047 0,-0.8039548 0.5924451,-1.4719922 1.3675034,-1.5868089 z m 13.440115,-0.00439 0.103063,0.010493 c 0.775058,0.1148638 1.367503,0.7831846 1.367503,1.5867916 0,0.09974 -0.01069,0.195675 -0.02754,0.290469 l -1.313222,6.651088 c -0.140005,0.646035 -0.805223,1.20984 -1.556507,1.20984 h -1.340759 c -0.198679,0 -0.391293,-0.0394 -0.569755,-0.109276 0.03595,-0.100578 0.06485,-0.202756 0.08746,-0.306974 l 1.228564,-6.221099 c 0.03535,-0.197786 0.05199,-0.365714 0.05199,-0.540015 0,-0.713208 -0.259219,-1.366925 -0.689253,-1.8716948 0.174207,0.029123 0.353101,0.043429 0.535357,0.043429 l 0.164309,-0.00396 C 17.477989,9.7109447 18.155679,9.43991 18.696976,9.0068952 Z M 11.974181,5.2500063 c 1.040536,0 1.884057,0.8394734 1.884057,1.8750163 0,1.0355436 -0.843521,1.8750171 -1.884057,1.8750171 -1.040536,0 -1.884057,-0.8394735 -1.884057,-1.8750171 0,-1.0355429 0.843521,-1.8750163 1.884057,-1.8750163 z M 7.3744834,4.5 c 1.0405361,0 1.8840571,0.8394731 1.8840571,1.8750161 0,1.0355428 -0.843521,1.8750168 -1.8840571,1.8750168 -1.0405357,0 -1.8840567,-0.839474 -1.8840567,-1.8750168 C 5.4904267,5.3394731 6.3339477,4.5 7.3744834,4.5 Z m 9.1993966,0 c 1.040536,0 1.884056,0.8394731 1.884056,1.8750161 0,1.0355428 -0.84352,1.8750168 -1.884056,1.8750168 -1.040535,0 -1.884057,-0.839474 -1.884057,-1.8750168 C 14.689823,5.3394731 15.533345,4.5 16.57388,4.5 Z"
      fill="#5b616b" />

</svg>