<?xml version="1.0" encoding="UTF-8"?>
<svg id="Layer_1" data-name="Layer 1" xmlns="http://www.w3.org/2000/svg" viewBox="0 0 3000 2356.67">
  <defs>
    <style>
      .cls-1 {
        fill: #e077b4;
      }

      .cls-2 {
        fill: #102751;
      }

      .cls-3 {
        fill: #6298e6;
      }

      .cls-4 {
        fill: #5788cd;
      }

      .cls-5 {
        fill: #fff;
      }

      .cls-6 {
        fill: #f183c2;
      }

      .cls-7 {
        fill: #e8f6ff;
      }

      .cls-8 {
        fill: #fc8082;
      }

      .cls-9 {
        fill: #baddf3;
      }
    </style>
  </defs>
  <rect class="cls-5" width="3000" height="2356.67"/>
  <g>
    <g>
      <rect class="cls-7" x="1052.39" y="408.34" width="782.18" height="442.38" rx="6.02" ry="6.02"/>
      <path class="cls-3" d="M1420.3,631.4c0,80.19-65.02,145.21-145.21,145.21-34.66,0-66.47-12.15-91.42-32.43-32.8-26.6-53.79-67.25-53.79-112.78,0-80.14,65.02-145.17,145.21-145.17.58,0,1.2,0,1.78.04-.25,64.36-1.78,145.13-1.78,145.13l131.87-60.73c5.83,12.56,9.87,26.07,11.9,40.24.95,6.69,1.45,13.55,1.45,20.49Z"/>
      <g>
        <rect class="cls-3" x="1497.03" y="486.41" width="29.42" height="29.42" rx="2.94" ry="2.94"/>
        <rect class="cls-3" x="1569.44" y="486.41" width="184.42" height="29.42" rx="2.94" ry="2.94"/>
      </g>
      <g>
        <rect class="cls-3" x="1497.03" y="580.74" width="29.42" height="29.42" rx="2.94" ry="2.94"/>
        <rect class="cls-3" x="1569.44" y="580.74" width="184.42" height="29.42" rx="2.94" ry="2.94"/>
      </g>
      <g>
        <rect class="cls-3" x="1497.03" y="676.49" width="29.42" height="29.42" rx="2.94" ry="2.94"/>
        <rect class="cls-3" x="1569.44" y="676.49" width="184.42" height="29.42" rx="2.94" ry="2.94"/>
      </g>
    </g>
    <g>
      <path class="cls-2" d="M944.2,1947.11v60.6h126.1s-15.15-24.79-41.31-27.54c-26.16-2.75-21.74-38.56-21.74-38.56l-63.05,5.5Z"/>
      <path class="cls-2" d="M703.04,1947.11v60.6h126.1s-15.15-24.79-41.31-27.54c-26.16-2.75-21.74-38.56-21.74-38.56l-63.05,5.5Z"/>
      <path class="cls-4" d="M847.51,1239.32s84.4,289.18,86.47,305.7c2.07,16.52,10.33,406.92,10.33,406.92l62.95,1.31s63.05-385.51,63.05-428.88-80.56-529.82-80.56-529.82h-107.41l-34.83,244.77Z"/>
      <path class="cls-3" d="M739.82,987.32s-97.08,169.38-61.97,378c35.11,208.62,27.16,586.62,27.16,586.62h57.53s73.67-291.24,76.08-361.47c2.41-70.23,74.7-603.15,74.7-603.15h-173.51Z"/>
      <path class="cls-8" d="M897.38,633.77s114.06-6.89,162.6,231.68l191.09-31.85s26.82-30.12,39.22-24.95c12.39,5.16-24.79,51.64-24.79,51.64,0,0-189,93.98-238.57,86.75-49.57-7.23-103.81-162.15-103.81-162.15l-25.73-151.12Z"/>
      <path class="cls-9" d="M802.81,626.88l-110.51,36.84,35.71,335.99s105.79,33.05,261.74-5.16c0,0,27.88-160.08-15.49-261.29-43.38-101.21-87.79-102.59-87.79-102.59l-83.66-3.79Z"/>
      <polygon class="cls-5" points="910.1 1084.68 772.04 1084.68 862.84 889.95 1000.9 889.95 910.1 1084.68"/>
      <path class="cls-8" d="M717.78,667.84c28.29,14.83,27.65,89.87-46.55,190.74-5.56,7.56-4.23,17.32,1.96,24.62l118.56,111.34s49.33,18.45,53.41,18.41c4.08-.04,11.01,17.04-59.91,11.54-59.43-4.62-182.45-85.63-220.74-111.75-6.96-4.75-9.92-13.5-7.23-21.48,18.6-55.06,92.77-258.92,160.49-223.42Z"/>
      <path class="cls-2" d="M794.07,384.31s28.37-46.27,91.02-38.69c55.38,6.69,77.8,86.75,33.39,113.95-44.41,27.2-140.82,42.23-140.82,42.23,0,0-4.12,106.84-106.02,148.15-101.9,41.31-158.36-36.49-157.67-90.2.69-53.7,31.67-99.49,90.2-100.18,58.52-.69,47.1-64.31,96.39-96.74,52.33-34.43,93.5,21.48,93.5,21.48Z"/>
      <path class="cls-8" d="M918.49,459.57s20.66,89.85-25.3,120.84c-45.96,30.98-89.85-9.81-94.5-60.42,0,0-21.84,1.55-21.17-22.72.88-31.91,45.96-20.14,75.39-22.2,29.43-2.07,51.64-4.13,65.58-15.49Z"/>
      <path class="cls-8" d="M801.48,535.73l-10.72,94.94s59.21,46.13,95.7,0v-61.28l-84.99-33.66Z"/>
    </g>
    <g>
      <circle class="cls-2" cx="2080.62" cy="662.52" r="67.61" transform="translate(957.8 2535.26) rotate(-76.72)"/>
      <polygon class="cls-8" points="1990.33 1516.82 2013.6 1964.11 2067.54 1964.11 2134.75 1412.74 1990.33 1516.82"/>
      <polygon class="cls-8" points="2189.06 1553.03 2302.58 1969.39 2355.38 1969.39 2325.96 1519.09 2189.06 1553.03"/>
      <path class="cls-2" d="M2409.68,2011.89h-108.02v-47.78h53.94c.64,9.27,6.19,16.97,20.14,20.55,21.85,5.61,33.94,27.23,33.94,27.23Z"/>
      <path class="cls-2" d="M1959.52,2011.89h108.02v-47.78h-53.94c-.64,9.27-6.19,16.97-20.14,20.55-21.85,5.61-33.94,27.23-33.94,27.23Z"/>
      <path class="cls-2" d="M2030.29,977.52s-73.16,326.6-48.27,733.9h373.36l-25.36-507.12c-2.65-53-20.61-104.1-51.71-147.1l-43.99-60.83-204.03-18.86Z"/>
      <path class="cls-2" d="M2032.55,379.39c-19.19,27.12-15.95,75.43,32.06,93.15,64.44,23.8,113.91,184.45,115.4,185.45,1.5,1,126.33,47.65,170.84-60.43,39.22-95.23-39.56-142.63-75.8-157.27-36.17-14.61-71.03-31.49-108.61-63.36-35.36-29.98-107.86-34.32-133.88,2.45Z"/>
      <g>
        <path class="cls-8" d="M1895.88,818.64c-8.63,3.31-1.74,6.36-7.23-1.03-20.24-27.27-93.21-65.99-125.64-127.21-16.07-30.28-29.08-58.79-34.7-79.69-13.63-50.98-6.24-63.83-.54-57.71,3.06,3.26,33.05,49.28,33.05,49.28l57.13,56.14,77.93,95.25c8.26,6.44,26.07,6.4,34.08,0,107.12-85.68,174.24-115.16,191.71-84.88,41.85,72.58-166.35,127.05-225.79,149.85Z"/>
        <path class="cls-1" d="M1884.22,854.36c-8.63,3.31-18.34.41-23.84-6.98-20.24-27.26-64.94-95.76-97.37-156.98l54.94-31.97,69.98,68.7c8.26,6.44,19,7.48,27.02,1.07,107.12-85.68,189.25-89.69,206.72-59.41,41.85,72.58-178.01,162.77-237.46,185.57Z"/>
      </g>
      <path class="cls-6" d="M2109.86,651.3s-166.22-16.18-83.63,345.87c0,0,98.34,35.41,208.08-.79l70.15-220.62-28.29-112.01-87.12-16.97-79.2,4.53Z"/>
      <path class="cls-8" d="M2454.39,853.42c-19.17,25.57-38.02,106.57-84.7,153.99-27.39,27.84-54.94,51.31-77.13,60.85-71.59,30.82-70.44,10.66-66.22,9.25,4.26-1.4,48.87-38.01,48.87-38.01l33.13-62.34,64.69-92.1c3.84-9.75-3.03-33.1-11.5-38.97-112.57-78.33-133.76-119.41-109.68-144.82,57.67-60.73,158.17,94.3,196.92,144.82,5.62,7.31,11.15-.08,5.62,7.31Z"/>
      <path class="cls-6" d="M2481.88,874.35c-19.17,25.57-65.52,85.64-112.2,133.06l-61.35-30.24,50.44-95.02c3.84-9.75,1.78-20.37-6.69-26.23-112.57-78.33-139.8-155.91-115.71-181.32,57.67-60.73,206.68,124.39,245.43,174.91,5.62,7.31,5.62,17.43.08,24.83Z"/>
      <polygon class="cls-5" points="2093.56 652.46 2105.19 763.9 2189.06 646.78 2093.56 652.46"/>
      <path class="cls-8" d="M2064.61,472.54s-17.27,125.02,49.91,129.55c67.19,4.53,63.79-67.88,63.79-67.88,0,0,21.41-2.26,21.21-25.17-.21-24.21-27.26-11.95-52.89-26.87-22.35-13.01-52.04-6.79-82.03-9.62Z"/>
      <path class="cls-8" d="M2094.59,585.11l-1.02,67.35s9.28,24.62,47.75,21.23c38.47-3.39,47.75-26.91,47.75-26.91l-17.54-92.78-76.94,31.11Z"/>
      <polygon class="cls-5" points="2301.74 989.58 2357.16 1019.81 2369.68 1007.42 2308.34 977.18 2301.74 989.58"/>
      <polygon class="cls-5" points="1761.43 687.4 1813.22 653.77 1824.86 665.2 1769.8 702.98 1761.43 687.4"/>
    </g>
  </g>
</svg>