<svg xmlns="http://www.w3.org/2000/svg" xmlns:xlink="http://www.w3.org/1999/xlink" width="10.944" height="9.15" viewBox="0 0 10.944 9.15">
  <defs>
    <clipPath id="clip-path">
      <path id="arrow-left-border" d="M-3,8.15V1A1,1,0,0,1-2,0,1,1,0,0,1-1,1V8.15a1,1,0,0,1-1,1A1,1,0,0,1-3,8.15Zm9.66.815L.419,5.276a.852.852,0,0,1,0-1.467L6.652.124A.851.851,0,0,1,7.946.851V8.232a.851.851,0,0,1-1.284.734Z" transform="translate(4 5)"/>
    </clipPath>
  </defs>
  <g id="Mask_Group_52" data-name="Mask Group 52" transform="translate(-1.002 -5)" clip-path="url(#clip-path)">
    <g id="Icon_color" data-name="Icon color" transform="translate(0 0.003)">
      <rect id="Rectangle" width="20" height="20" fill="#212121"/>
    </g>
  </g>
</svg>
