<?xml version="1.0" encoding="utf-8"?>
<!-- Generator: Adobe Illustrator 28.2.0, SVG Export Plug-In . SVG Version: 6.00 Build 0)  -->
<svg version="1.1" id="Layer_1" xmlns="http://www.w3.org/2000/svg" xmlns:xlink="http://www.w3.org/1999/xlink" x="0px" y="0px"
	 viewBox="0 0 96 96" style="enable-background:new 0 0 96 96;" xml:space="preserve">
<style type="text/css">
	.st0{fill:#102F51;}
	.st1{fill:#FFFFFF;}
</style>
<circle class="st0" cx="48.13" cy="48.19" r="47"/>
<path class="st1" d="M72.4,64.93c2.04,2.04,2.04,5.34,0,7.38c-2.04,2.04-5.34,2.04-7.38,0L53.37,60.65c-3.2,1.9-6.86,2.9-10.58,2.9
	c-11.52,0-20.86-9.34-20.86-20.86s9.34-20.86,20.86-20.86s20.86,9.34,20.86,20.86l0,0c0,3.72-1,7.38-2.9,10.58L72.4,64.93
	L72.4,64.93z M42.79,27.05c-8.64,0-15.65,7.01-15.65,15.65s7.01,15.65,15.65,15.65c8.64,0,15.64-7.01,15.64-15.65
	C58.43,34.05,51.43,27.05,42.79,27.05L42.79,27.05z"/>
</svg>
