<?xml version="1.0" encoding="UTF-8"?>
<svg id="Layer_1" data-name="Layer 1" xmlns="http://www.w3.org/2000/svg" viewBox="0 0 36.24 48">
  <defs>
    <style>
      .cls-1 {
        fill: #787878;
      }
    </style>
  </defs>
  <path id="Path_106" data-name="Path 106" class="cls-1" d="m18.12,48c2.68-.05,4.81-2.26,4.77-4.94h-9.55c-.04,2.68,2.09,4.89,4.77,4.94Zm14.33-14.81v-12.34c0-7.58-3.92-13.92-10.74-15.6v-1.68c0-1.97-1.6-3.58-3.58-3.58s-3.58,1.6-3.58,3.58v1.68c-6.85,1.68-10.74,8-10.74,15.6v12.34l-3.08,3.18c-.97.97-.96,2.54,0,3.5.44.44,1.04.7,1.67.72h31.43c1.37-.03,2.45-1.17,2.42-2.53-.02-.63-.27-1.24-.72-1.69l-3.08-3.18Z"/>
</svg>