<?xml version="1.0" encoding="UTF-8"?>
<svg id="Layer_2" data-name="Layer 2" xmlns="http://www.w3.org/2000/svg" viewBox="0 0 32 32">
  <defs>
    <style>
      .cls-1 {
        fill: #fff;
      }

      .cls-2 {
        fill: #112e51;
      }
    </style>
  </defs>
  <g id="Layer_1-2" data-name="Layer 1">
    <g>
      <g>
        <path class="cls-1" d="M16,31c-8.27,0-15-6.73-15-15S7.73,1,16,1s15,6.73,15,15-6.73,15-15,15Z"/>
        <path class="cls-2" d="M16,2c7.72,0,14,6.28,14,14s-6.28,14-14,14S2,23.72,2,16,8.28,2,16,2M16,0C7.16,0,0,7.16,0,16s7.16,16,16,16,16-7.16,16-16S24.84,0,16,0h0Z"/>
      </g>
      <circle class="cls-2" cx="16" cy="16" r="12"/>
      <path class="cls-1" d="M15.92,9.8h1.78v13.06h-2.36v-10.24c-.35.16-.7.28-1.04.37-.34.09-.68.13-1.02.13v-2.26c.45-.05.89-.15,1.32-.31.43-.16.87-.41,1.32-.75Z"/>
    </g>
  </g>
</svg>