<?xml version="1.0" encoding="UTF-8"?>
<svg id="Layer_2" data-name="Layer 2" xmlns="http://www.w3.org/2000/svg" viewBox="0 0 12.61 12.56">
  <defs>
    <style>
      .cls-1 {
        isolation: isolate;
      }

      .cls-2 {
        fill: #afb1b5;
      }
    </style>
  </defs>
  <g id="Layer_1-2" data-name="Layer 1">
    <g id="Frame">
      <g id="_" data-name="%" class="cls-1">
        <g class="cls-1">
          <path class="cls-2" d="M2.62,5.77c-.47,0-.9-.1-1.3-.31s-.72-.53-.96-.96c-.24-.43-.36-.98-.36-1.64s.12-1.18.36-1.61c.24-.42.56-.74.96-.94s.83-.31,1.3-.31.93.1,1.33.31.72.52.96.94c.24.42.36.96.36,1.61s-.12,1.21-.36,1.64c-.24.43-.56.75-.96.96s-.85.31-1.33.31ZM.72,12.35L8.96.27h2.86L3.61,12.35H.72ZM2.62,4c.17,0,.31-.08.42-.23.1-.16.16-.46.16-.91,0-.43-.05-.71-.16-.86-.11-.15-.24-.22-.42-.22s-.3.07-.4.22c-.1.15-.14.43-.14.86,0,.45.05.75.14.91.1.16.23.23.4.23ZM9.95,12.56c-.47,0-.9-.1-1.3-.31s-.72-.52-.96-.95c-.24-.43-.36-.97-.36-1.62s.12-1.21.36-1.64c.24-.43.56-.75.96-.95s.83-.31,1.3-.31.91.1,1.31.31c.4.21.73.53.97.95s.37.98.37,1.64-.12,1.2-.37,1.62c-.25.43-.57.75-.97.95-.4.21-.84.31-1.31.31ZM9.95,10.78c.17,0,.3-.07.41-.22.1-.15.15-.44.15-.88s-.05-.74-.15-.9-.24-.24-.41-.24-.3.08-.4.24c-.1.16-.15.46-.15.9s.05.73.15.88c.1.15.23.22.4.22Z"/>
        </g>
      </g>
    </g>
  </g>
</svg>