<?xml version="1.0" encoding="UTF-8"?>
<svg id="Layer_1" data-name="Layer 1" xmlns="http://www.w3.org/2000/svg" viewBox="0 0 32.05 64">
  <defs>
    <style>
      .cls-1 {
        fill: #787878;
      }
    </style>
  </defs>
  <g id="download">
    <path class="cls-1" d="m25.45,20.21c3.97.34,6.91,3.83,6.57,7.79-.02.23-.05.47-.09.7l-5.89,29.87c-.84,3.18-3.7,5.4-6.99,5.44h-6.04c-3.29-.03-6.15-2.26-6.99-5.44L.09,28.7c-.07-.43-.1-.87-.09-1.31,0-3.66,2.75-6.74,6.39-7.16,5.58,4.43,13.49,4.43,19.07-.02h0Zm-9.81-2.54c4.88-.02,8.81-4,8.79-8.88C24.41,3.91,20.44-.02,15.56,0,10.69.02,6.76,3.97,6.77,8.84c.01,4.89,3.99,8.84,8.88,8.83Z"/>
  </g>
</svg>