<?xml version="1.0" encoding="UTF-8"?>
<svg id="Layer_1" data-name="Layer 1" xmlns="http://www.w3.org/2000/svg" viewBox="0 0 3000 2356.67">
  <defs>
    <style>
      .cls-1 {
        fill: #102751;
      }

      .cls-2 {
        fill: #6298e6;
      }

      .cls-3 {
        fill: #5788cd;
      }

      .cls-4 {
        fill: #fff;
      }

      .cls-5 {
        fill: #f183c2;
      }

      .cls-6 {
        fill: #fc8082;
      }

      .cls-7 {
        fill: #baddf3;
      }
    </style>
  </defs>
  <rect class="cls-4" width="3000" height="2356.67"/>
  <g>
    <g>
      <path class="cls-6" d="M1895.02,1294.5s-43.63,14.54-59.38,41.81c-15.75,27.27,3.03,32.72,10.3,24.84,7.27-7.88,41.2-21.81,41.2-21.81l20-26.05-12.12-18.78Z"/>
      <polygon class="cls-3" points="2039.84 1728.34 2143.16 1961.36 2195.13 1961.36 2104.06 1593.82 2058.01 1603.52 2039.84 1728.34"/>
      <path class="cls-1" d="M2086.19,2020.03h111.58l-2.64-58.67h-51.97c-.66,11.39-7.5,20.84-21.91,25.24-22.57,6.89-35.06,33.43-35.06,33.43Z"/>
      <rect class="cls-7" x="2191.97" y="1600.09" width="16.55" height="421.58" transform="translate(4400.48 3621.76) rotate(180)"/>
      <rect class="cls-7" x="2582.12" y="972.89" width="15.25" height="1048.78" transform="translate(5179.5 2994.56) rotate(180)"/>
      <rect class="cls-7" x="2166.12" y="1583.28" width="422.86" height="33.62" transform="translate(4755.1 3200.19) rotate(180)"/>
      <path class="cls-2" d="M2475.42,1453.36l-431.95,43.52s-81.19,7.27-88.47,54.53c-7.27,47.26,23.19,409.95,23.19,409.95h51.97s44.58-343.24,53.07-344.46c8.48-1.21,309.85-16.81,309.85-16.81,0,0,70.21-.46,82.33-47.72,12.12-47.26,0-99.01,0-99.01Z"/>
      <path class="cls-7" d="M2218.91,1065.45s169.25-26.55,256.5,387.9l-211.31,21.29-105.51-212.87s-15.75-94.52,0-146.63l60.32-49.69Z"/>
      <path class="cls-7" d="M2240.4,1101.2c-43.53-17.59-77.32,7.88-149.09,193.29h-196.28l-7.88,44.84s212.12,29.96,243.02,25.11c30.9-4.85,110.84-123.88,117.51-139.63,6.67-15.75,57.83-97.31-7.27-123.61Z"/>
      <g>
        <path class="cls-1" d="M2172.78,1063.99s38.28-15.64,48.08-45.39c9.79-29.76-11.22-45.84-1.8-58.71,9.42-12.87,15.78-41.48-3.33-61.5-17.09-17.91-38.12-4.4-50.13-12.45-12.02-8.05-63.16-28.1-104.94,2.5-46.14,33.8-27.61,63.47,4.01,74.72,31.62,11.25,108.12,100.82,108.12,100.82Z"/>
        <path class="cls-6" d="M2064.66,963.17s8.22,95.78,43.95,119.2c35.73,23.42,68.55-47.57,77.68-54.73,11.26-8.83,11.77-22.07,9.12-32.07-3.46-13.06-12.16-15.46-17.61-8.83-5.46,6.63-23.58,18.24-19.76-27.76,0,0-40.84,14.01-93.39,4.2Z"/>
      </g>
      <polygon class="cls-6" points="2136.69 1078.01 2158.6 1115.14 2218.91 1065.45 2186.47 1023.82 2136.69 1078.01"/>
      <path class="cls-1" d="M1921.23,2020.03h111.58l-2.64-58.67h-51.97c-.66,11.39-7.5,20.84-21.91,25.24-22.57,6.89-35.06,33.43-35.06,33.43Z"/>
    </g>
    <rect class="cls-7" x="791.49" y="1600.65" width="16.55" height="421.58"/>
    <rect class="cls-7" x="402.62" y="973.44" width="15.25" height="1048.78"/>
    <rect class="cls-7" x="411.02" y="1583.84" width="422.86" height="33.62"/>
    <polygon class="cls-3" points="960.13 1654.93 890.26 1966.25 833.88 1966.25 841.24 1583.84 960.13 1654.93"/>
    <path class="cls-1" d="M946.11,2022.23l-111.7-.1,2.69-58.73,52.03.05c.65,11.4,7.49,20.87,21.91,25.29,22.59,6.92,35.07,33.5,35.07,33.5Z"/>
    <path class="cls-1" d="M894.55,974.67s42.69-17.36,38.61-55.77c-4.09-38.41-51.12-57.44-95.6-42.29-33.45,11.4-34.91-10.57-91.61-4.55-49.44,5.25-78.35,52.35-87.34,71.96-8.99,19.61-20.38,62.88-50.59,76.45-62.49,28.06-76.05,105.96-6.51,169.24,61.28,55.77,79.12-1.43,106.9-23.5,27.78-22.06,48.71-150.64,79.3-156,31.46-5.52,106.84-35.55,106.84-35.55Z"/>
    <path class="cls-6" d="M894.55,974.67s-10.41,117.66-58.83,117.67c-57.3,0-53.32-66.8-58.83-71.09-5.52-4.29-15.32-14.1-11.03-33.71,4.29-19.61,23.59-15.01,29.11-8.89,5.52,6.13,81.2,8.27,99.59-3.98Z"/>
    <path class="cls-5" d="M717.03,1058.42s-113.58,13.07-206.73,348.91l103.37,46.58,42.54-5.15s133.99-96.72,142.35-192.6c8.36-95.88-44.73-173.94-44.73-173.94l-36.8-23.81Z"/>
    <path class="cls-2" d="M510.3,1407.34s-111.54,147.08,26.97,186.31,328.49,4.9,349.32,35.55c20.84,30.64,189.98,337.07,189.98,337.07h52.7s-95.6-353-131.15-414.28c-35.55-61.28-227.98-89.48-295.39-95.6-67.41-6.13-192.43-49.03-192.43-49.03Z"/>
    <path class="cls-1" d="M1185.62,2022.23l-111.7-.1,2.69-58.73,52.03.05c.65,11.4,7.49,20.87,21.91,25.29,22.59,6.92,35.07,33.5,35.07,33.5Z"/>
    <rect class="cls-7" x="996.9" y="1407.34" width="16.55" height="614.89"/>
    <rect class="cls-7" x="1403.22" y="1407.34" width="16.55" height="614.89"/>
    <rect class="cls-7" x="996.9" y="1386.15" width="422.86" height="33.62"/>
    <g>
      <rect class="cls-1" x="1073.92" y="1361.64" width="261.48" height="24.51" rx="3.14" ry="3.14"/>
      <rect class="cls-1" x="1239.03" y="1249.76" width="261.48" height="12.26" rx="1.57" ry="1.57" transform="translate(3043.9 449.16) rotate(111.76)"/>
    </g>
    <polygon class="cls-6" points="792.21 984.06 717.03 1058.42 770.26 1113 834.7 1042.08 792.21 984.06"/>
    <path class="cls-5" d="M707.61,1083.61c-38.11,16.08-8.85,82.35,58.7,163.48,67.55,81.13,157.07,106.45,211.32,112.12,24.61,2.57,103.17,6.69,103.17,6.69,0,0,12.69-24.6,6.38-25.65-11.54-1.92-163.56-52.16-192.36-73.73-28.81-21.57-117.11-147.1-130.96-163.63-13.85-16.54-42.44-25.1-56.24-19.27Z"/>
    <path class="cls-6" d="M1087.18,1340.25s31.11.61,41.86,7.47c10.75,6.87,15.43,15.24,8.69,15.55-6.73.31-55.72.17-55.72.17l5.17-23.2Z"/>
    <rect class="cls-7" x="1992.29" y="1407.34" width="16.55" height="614.89" transform="translate(4001.12 3429.56) rotate(180)"/>
    <rect class="cls-7" x="1585.97" y="1407.34" width="16.55" height="614.89" transform="translate(3188.48 3429.56) rotate(180)"/>
    <rect class="cls-7" x="1585.97" y="1386.15" width="422.86" height="33.62" transform="translate(3594.8 2805.92) rotate(180)"/>
    <g>
      <rect class="cls-1" x="1670.33" y="1361.64" width="261.48" height="24.51" rx="3.14" ry="3.14" transform="translate(3602.14 2747.79) rotate(-180)"/>
      <rect class="cls-1" x="1505.22" y="1249.76" width="261.48" height="12.26" rx="1.57" ry="1.57" transform="translate(2196.05 -729.04) rotate(68.24)"/>
    </g>
    <g>
      <g>
        <path class="cls-7" d="M1335.06,334.82c-.23-.04-.47-.04-.7-.08-10.96-1.63-21.79,3.61-27.31,13.18l-13.44,23.12c-3.75,6.42-9.99,10.88-17.18,12.68-4.9,1.19-9.68,2.67-14.37,4.43-7.03,2.64-14.76,2.47-21.53-.77l-23.8-11.46c-10.01-4.77-21.97-2.99-30.1,4.53-.23.2-.47.45-.74.64-8.1,7.58-10.78,19.34-6.75,29.65l9.62,24.84c2.72,6.97,2.3,14.7-.8,21.47-1.01,2.19-1.99,4.43-2.88,6.71-.9,2.28-1.71,4.59-2.46,6.88-2.34,7.07-7.31,13.01-14.05,16.25l-23.97,11.62c-9.98,4.8-16.03,15.23-15.27,26.3.07.32.08.66.11.97.86,11.06,8.36,20.49,18.93,23.83l25.23,7.84c7.16,2.23,12.93,7.38,16.28,14.11,2.23,4.48,4.71,8.82,7.49,13.04,4.03,6.22,5.56,13.74,3.92,20.99l-5.93,26.08c-2.48,10.77,1.87,21.98,11,28.26.19.13.37.29.57.42,9.19,6.25,21.31,6.29,30.48.06l21.72-14.7c6.18-4.19,13.86-5.51,21.23-3.92,5.15,1.15,10.39,1.95,15.61,2.44,7.41.73,14.28,4.21,18.91,10.03l16.58,20.76c6.89,8.61,18.39,12.21,28.96,9.01.16-.03.28-.09.39-.14,10.63-3.22,18.15-12.69,19.04-23.74l2.06-26.53c.56-7.24,4.27-13.82,9.91-18.37,4.35-3.5,8.49-7.33,12.4-11.44,5.11-5.3,12.03-8.52,19.44-8.53l26.52-.04c10.91,0,20.94-6.52,24.93-16.65l.43-1.1c3.99-10.13,1.1-21.74-6.89-29.17l-19.38-18.11c-5.42-5.06-8.29-12.13-8.41-19.49-.06-5.67-.47-11.3-1.27-16.83-1.01-7.22.75-14.52,5.27-20.2l16.58-20.81c6.88-8.69,7.83-20.75,2.25-30.35-.05-.12-.1-.24-.2-.37-5.55-9.54-16.42-14.75-27.33-13.15l-26.28,3.88c-7.35,1.1-14.75-1.03-20.67-5.55-4.15-3.19-8.53-6.18-13.08-8.85-6.47-3.86-11.2-10.06-12.86-17.34l-5.87-25.56c-2.47-10.82-11.36-19.04-22.34-20.73ZM1385.13,542.49c-16.64,42.28-64.39,63.05-106.67,46.41-42.28-16.64-63.05-64.39-46.41-106.67,16.64-42.28,64.39-63.05,106.67-46.41,42.28,16.64,63.05,64.39,46.41,106.67Z"/>
        <circle class="cls-7" cx="1308.68" cy="511.76" r="57.39" transform="translate(21.44 1075.26) rotate(-45)"/>
        <circle class="cls-4" cx="1308.68" cy="511.76" r="23.44" transform="translate(227.37 1409.14) rotate(-61.05)"/>
      </g>
      <g>
        <path class="cls-7" d="M1606.82,585.73c-.28-.05-.57-.05-.85-.1-13.32-1.98-26.49,4.38-33.2,16.02l-16.33,28.1c-4.55,7.8-12.14,13.23-20.88,15.42-5.96,1.45-11.76,3.25-17.46,5.39-8.55,3.21-17.95,3.01-26.17-.94l-28.93-13.93c-12.17-5.8-26.7-3.64-36.58,5.5-.27.25-.57.55-.9.77-9.85,9.21-13.1,23.51-8.2,36.04l11.69,30.19c3.3,8.47,2.8,17.87-.97,26.09-1.22,2.66-2.42,5.39-3.51,8.16-1.09,2.77-2.08,5.58-2.99,8.36-2.85,8.59-8.89,15.81-17.08,19.76l-29.13,14.12c-12.13,5.83-19.49,18.51-18.57,31.96.08.39.1.81.13,1.18,1.05,13.44,10.16,24.91,23.01,28.96l30.67,9.52c8.7,2.72,15.72,8.97,19.79,17.15,2.71,5.45,5.73,10.73,9.1,15.85,4.9,7.56,6.76,16.7,4.77,25.51l-7.21,31.7c-3.02,13.09,2.28,26.72,13.37,34.35.24.15.45.36.69.51,11.17,7.59,25.9,7.65,37.05.07l26.4-17.86c7.52-5.1,16.85-6.69,25.81-4.77,6.26,1.4,12.63,2.37,18.97,2.97,9.01.88,17.36,5.11,22.98,12.19l20.16,25.23c8.38,10.47,22.35,14.84,35.2,10.95.19-.04.34-.1.48-.17,12.92-3.92,22.06-15.42,23.15-28.86l2.5-32.24c.68-8.8,5.19-16.79,12.05-22.33,5.29-4.26,10.32-8.91,15.07-13.91,6.21-6.44,14.62-10.36,23.63-10.36l32.24-.04c13.26,0,25.45-7.93,30.3-20.24l.52-1.33c4.85-12.31,1.34-26.42-8.37-35.46l-23.56-22.01c-6.58-6.15-10.07-14.74-10.22-23.69-.07-6.9-.58-13.73-1.55-20.45-1.23-8.78.91-17.65,6.41-24.55l20.15-25.3c8.37-10.57,9.51-25.22,2.73-36.89-.06-.14-.12-.29-.24-.45-6.75-11.6-19.95-17.92-33.22-15.98l-31.95,4.72c-8.94,1.34-17.93-1.25-25.12-6.75-5.05-3.88-10.37-7.52-15.9-10.76-7.87-4.7-13.61-12.23-15.63-21.08l-7.14-31.07c-3-13.15-13.81-23.15-27.16-25.2ZM1667.69,838.15c-20.23,51.39-78.27,76.64-129.66,56.41-51.39-20.23-76.64-78.27-56.41-129.66,20.23-51.39,78.27-76.64,129.66-56.41,51.39,20.23,76.64,78.27,56.41,129.66Z"/>
        <circle class="cls-7" cx="1574.75" cy="800.8" r="69.76" transform="translate(379.35 2101.62) rotate(-74.37)"/>
      </g>
    </g>
  </g>
</svg>