<?xml version="1.0" encoding="UTF-8"?>
<svg id="Layer_1" data-name="Layer 1" xmlns="http://www.w3.org/2000/svg" viewBox="0 0 3000 2356.67">
  <defs>
    <style>
      .cls-1 {
        fill: #62c9cc;
      }

      .cls-2 {
        fill: #fff1bd;
      }

      .cls-3 {
        fill: #102751;
      }

      .cls-4 {
        fill: #6298e6;
      }

      .cls-5 {
        fill: #a9d1eb;
      }

      .cls-6 {
        fill: #8b65b9;
      }

      .cls-7 {
        fill: #fbd448;
      }

      .cls-8 {
        fill: #5788cd;
      }

      .cls-9 {
        fill: #fff;
      }

      .cls-10 {
        fill: #f183c2;
      }

      .cls-11 {
        fill: #e8f6ff;
      }

      .cls-12 {
        fill: #fc8082;
      }

      .cls-13 {
        fill: #baddf3;
      }
    </style>
  </defs>
  <rect class="cls-9" width="3000" height="2356.67"/>
  <g>
    <g>
      <g>
        <polygon class="cls-12" points="852.98 1733.74 833.35 2111.01 787.85 2111.01 731.16 1645.95 852.98 1733.74"/>
        <polygon class="cls-12" points="685.36 1764.28 589.61 2115.46 545.08 2115.46 569.89 1735.65 685.36 1764.28"/>
        <path class="cls-3" d="M499.27,2151.31h91.11v-40.3h-45.5c-.54,7.82-5.22,14.31-16.99,17.34-18.43,4.73-28.63,22.97-28.63,22.97Z"/>
        <path class="cls-3" d="M878.96,2151.31h-91.11v-40.3h45.5c.54,7.82,5.22,14.31,16.99,17.34,18.43,4.73,28.63,22.97,28.63,22.97Z"/>
        <path class="cls-3" d="M819.27,1278.87s61.71,275.47,40.72,619.02h-314.92l21.39-427.73c2.24-44.7,17.39-87.8,43.62-124.07l37.11-51.31,172.09-15.9Z"/>
      </g>
      <path class="cls-12" d="M740.08,1001.36s59.61,3.27,204.33,43.28l31.58-173.13s2.63-53.94,10.53-51.31c7.89,2.63,7.89,26.17,15.79,32.82,7.89,6.65,11.84,211.89,7.89,238.21-3.95,26.31-28.06,47.34-209.19,9.21l-60.92-99.07Z"/>
      <path class="cls-13" d="M673.68,998.35l-87.72,29.25,28.34,266.69s83.97,26.23,207.75-4.1c0,0,22.13-127.06-12.3-207.4-34.43-80.34-69.68-81.43-69.68-81.43l-66.4-3.01Z"/>
      <path class="cls-3" d="M666.74,805.82s22.52-36.73,72.25-30.71c43.96,5.31,61.76,68.86,26.51,90.45-35.25,21.59-111.77,33.52-111.77,33.52,0,0-3.27,84.8-84.15,117.59-80.88,32.79-125.7-28.97-125.15-71.59.55-42.63,25.14-78.97,71.59-79.52,46.45-.55,37.38-51.04,76.51-76.79,41.53-27.33,74.22,17.05,74.22,17.05Z"/>
      <path class="cls-12" d="M765.49,865.55s16.4,71.32-20.08,95.91c-36.48,24.59-71.32-7.79-75.01-47.96,0,0-17.34,1.23-16.8-18.04.7-25.33,36.48-15.99,59.84-17.62,23.36-1.64,40.99-3.28,52.06-12.3Z"/>
      <path class="cls-12" d="M672.62,926l-8.51,75.36s47,36.62,75.97,0v-48.64l-67.46-26.72Z"/>
      <path class="cls-12" d="M606.18,1030.87c22.46,11.77,21.95,71.34-36.95,151.4-4.42,6-3.36,13.75,1.56,19.54l94.1,88.38s39.16,14.65,42.4,14.62c3.24-.03,8.74,13.53-47.55,9.16-47.17-3.66-144.82-67.97-175.21-88.71-5.52-3.77-7.88-10.71-5.74-17.05,14.76-43.7,73.64-205.52,127.39-177.34Z"/>
    </g>
    <g>
      <path class="cls-7" d="M1094.44,421.7c0,22.08-6.01,42.74-16.44,60.51,0,0,0,.03-.03.03-2.76,4.72-5.84,9.23-9.2,13.48-26.34,42.44-36.03,94.55-36.03,94.55h-115.67c0-21.29-8.37-44.27-17.87-63.53-5.51-11.16-11.39-21.05-16.27-28.66-17.24-20.72-27.6-47.32-27.6-76.38,0-66.02,53.53-119.56,119.56-119.56,58.78,0,107.67,42.44,117.66,98.33,1.23,6.87,1.89,13.98,1.89,21.22Z"/>
      <g>
        <path class="cls-2" d="M978.01,493.73v-.13c-.07,0-1.26.07-3.32.07-.93.03-1.99.07-3.22,0-.53.03-1.1,0-1.69,0l.07-18.1c.03-9.53-2.52-18.63-7.37-26.34-5.21-8.24-16.67-16.27-28.59-15.74-13.78.66-23.98,9.23-26.57,22.42-2.36,12.12,2.42,28.56,18.53,36.03,12.55,5.81,26.17,8.07,36.4,8.87l-.4,89.47h7.51l.4-89.1c1.86.03,3.49.03,4.82,0,2.32,0,3.75-.1,3.98-.13l-.53-7.31ZM962.27,493.27c-9.53-.8-22.02-2.89-33.31-8.1-12.45-5.78-16.14-18.46-14.31-27.8,1.93-9.8,9.23-15.91,19.59-16.41h.93c8.63.03,17.17,6.21,20.96,12.25,4.12,6.51,6.28,14.21,6.24,22.32l-.1,17.73Z"/>
        <path class="cls-2" d="M1042.5,456.5c-2.46-13.18-12.55-21.89-26.37-22.65-11.89-.66-23.45,7.27-28.73,15.48-4.92,7.67-7.57,16.77-7.61,26.27l-.07,18.13h-1.73c-1.26,0-2.39,0-3.32-.07-1.99-.03-3.16-.1-3.22-.1v.1l-.6,7.34c.23.03,1.53.13,3.69.17,1.36.07,3.12.1,5.15.07l-.4,89.04h7.47l.4-89.37c10.26-.7,23.88-2.82,36.5-8.53,16.17-7.34,21.09-23.71,18.83-35.87ZM1020.58,485.56c-11.32,5.11-23.81,7.11-33.38,7.8l.07-17.73c.03-8.07,2.26-15.77,6.44-22.25,3.85-6.01,12.45-12.12,21.09-12.09.3,0,.6,0,.9.03,10.36.56,17.63,6.77,19.46,16.57,1.73,9.33-2.06,21.98-14.58,27.66Z"/>
      </g>
      <path class="cls-8" d="M1032.44,590.27c0,31.79-25.77,57.56-57.56,57.56s-57.56-25.77-57.56-57.56h115.13Z"/>
      <path class="cls-7" d="M974.88,260.17c-4.59,0-8.3-3.72-8.3-8.3v-43.17c0-4.59,3.72-8.3,8.3-8.3s8.3,3.72,8.3,8.3v43.17c0,4.59-3.72,8.3-8.3,8.3Z"/>
      <g>
        <path class="cls-7" d="M1055.23,281.74c-3.97-2.3-5.32-7.38-3.03-11.34l21.62-37.37c2.3-3.97,7.38-5.32,11.34-3.03,3.97,2.3,5.32,7.38,3.03,11.34l-21.62,37.37c-2.3,3.97-7.38,5.32-11.34,3.03Z"/>
        <path class="cls-7" d="M1113.93,340.57c-2.29-3.97-.92-9.05,3.05-11.34l37.42-21.54c3.97-2.29,9.05-.92,11.34,3.05,2.29,3.97.92,9.05-3.05,11.34l-37.42,21.54c-3.97,2.29-9.05.92-11.34-3.05Z"/>
        <path class="cls-7" d="M1135.31,420.4c0-4.59,3.71-8.31,8.29-8.31l43.17-.05c4.59,0,8.31,3.71,8.31,8.29,0,4.59-3.71,8.31-8.29,8.31l-43.17.05c-4.59,0-8.31-3.71-8.31-8.29Z"/>
        <path class="cls-7" d="M1115.17,498.41c2.22-4.01,7.28-5.46,11.29-3.23l37.75,20.94c4.01,2.22,5.46,7.28,3.23,11.29-2.22,4.01-7.28,5.46-11.29,3.23l-37.75-20.94c-4.01-2.22-5.46-7.28-3.23-11.29Z"/>
      </g>
      <g>
        <path class="cls-7" d="M895.18,281.74c3.97-2.3,5.32-7.38,3.03-11.34l-21.62-37.37c-2.3-3.97-7.37-5.32-11.34-3.03-3.97,2.3-5.32,7.38-3.03,11.34l21.62,37.37c2.3,3.97,7.37,5.32,11.34,3.03Z"/>
        <path class="cls-7" d="M836.48,340.57c2.29-3.97.92-9.05-3.05-11.34l-37.42-21.54c-3.97-2.29-9.05-.92-11.34,3.05-2.29,3.97-.92,9.05,3.05,11.34l37.42,21.54c3.97,2.29,9.05.92,11.34-3.05Z"/>
        <path class="cls-7" d="M815.1,420.4c0-4.59-3.71-8.31-8.29-8.31l-43.17-.05c-4.59,0-8.31,3.71-8.31,8.29,0,4.59,3.71,8.31,8.29,8.31l43.17.05c4.59,0,8.31-3.71,8.31-8.29Z"/>
        <path class="cls-7" d="M835.24,498.41c-2.22-4.01-7.28-5.46-11.29-3.23l-37.75,20.94c-4.01,2.22-5.46,7.28-3.23,11.29,2.22,4.01,7.28,5.46,11.29,3.23l37.75-20.94c4.01-2.22,5.46-7.28,3.23-11.29Z"/>
      </g>
    </g>
    <g>
      <polygon class="cls-6" points="1834.86 2156.28 1681.13 1493.01 1539.77 2156.19 1530.08 2154.13 1680.73 1447.38 1844.51 2154.04 1834.86 2156.28"/>
      <polygon class="cls-6" points="1467.73 2156.28 1314.01 1493.01 1172.65 2156.19 1162.96 2154.13 1313.6 1447.38 1477.39 2154.04 1467.73 2156.28"/>
      <polygon class="cls-11" points="1246.85 1695.29 1758.48 1695.29 1630.38 968.78 1118.7 968.49 1246.85 1695.29"/>
      <rect class="cls-6" x="1093.05" y="939.8" width="561.47" height="28.69" transform="translate(2747.58 1908.29) rotate(180)"/>
      <rect class="cls-6" x="1220.52" y="1695.29" width="561.47" height="28.69" transform="translate(3002.51 3419.27) rotate(180)"/>
      <g>
        <polygon class="cls-10" points="1353.03 1595.19 1429.54 1595.19 1368.47 1248.89 1291.97 1248.89 1353.03 1595.19"/>
        <polygon class="cls-1" points="1471.89 1595.19 1548.39 1595.19 1473.23 1168.97 1396.73 1168.97 1471.89 1595.19"/>
        <polygon class="cls-4" points="1590.74 1595.19 1667.24 1595.19 1623.16 1345.2 1546.66 1345.2 1590.74 1595.19"/>
      </g>
    </g>
    <g>
      <path class="cls-12" d="M1955.27,964.54s-18.52-52.25-27.45-54.24c-8.93-1.98-15.36,59.4-2.46,72.3,12.9,12.9,29.91-18.06,29.91-18.06Z"/>
      <path class="cls-3" d="M2484.36,1476.59s-6.86,316.23,0,358.64c6.86,42.41,34.21,256.97,34.21,256.97h-52.03s-86.34-242.01-95.08-298.14c-8.73-56.14-30.04-213.31-30.04-213.31l-33.58-1.25s-67.36,198.34-71.1,224.54c-3.74,26.2-46.54,288.16-46.54,288.16h-52.01s-7.48-286.29-4.99-307.81,57.38-307.81,57.38-307.81l72.35-33.06,221.42,33.06Z"/>
      <path class="cls-3" d="M2409.51,2150.94h111.7l-2.64-58.73h-52.03c-.66,11.4-7.5,20.86-21.93,25.26-22.6,6.9-35.1,33.47-35.1,33.47Z"/>
      <path class="cls-3" d="M2081.15,2150.94h111.7l-2.64-58.73h-52.03c-.66,11.4-7.5,20.86-21.93,25.26-22.6,6.9-35.1,33.47-35.1,33.47Z"/>
      <path class="cls-13" d="M2372.09,1015.35l110.89,26.14c11.66,2.75,19.71,13.39,19.19,25.36l-17.81,409.75h-293.77s-24.33-310.61,0-387.33c24.33-76.72,181.5-73.91,181.5-73.91Z"/>
      <path class="cls-13" d="M2298.28,1021.49s-71.82,10.67-103.57,18.94c-56.59,14.75-148.16,51.11-148.16,51.11l-91.28-127-33.12,14.99s52.51,157.33,88.68,184.77c36.18,27.44,190.49-17.2,190.49-17.2l96.96-125.61Z"/>
      <g>
        <path class="cls-3" d="M2379.55,963.1s35.13-14.35,44.12-41.65c8.98-27.31-10.3-42.06-1.65-53.87,8.65-11.81,14.48-38.06-3.06-56.44-15.68-16.44-34.98-4.04-46.01-11.42-11.03-7.38-54.36-49.59-95.84-17.43-41.48,32.16-26.36,72.64,2.66,82.96,29.02,10.32,99.77,97.86,99.77,97.86Z"/>
        <path class="cls-12" d="M2279.78,865.24s-11.65,95.52,21.14,117.01c32.79,21.49,71.24-33.36,81.54-36.06,10.3-2.7,20.97-17.97,20.66-30.37-.31-12.39-19.9-8.73-24.91-2.64-5.01,6.08-18.06,9.5-6.53-36.08,0,0-43.26,11.34-91.9-11.86Z"/>
      </g>
      <path class="cls-12" d="M2306.81,971.11l-8.53,50.38s7.4,19.19,36.79,17.2c29.38-1.99,51.97-20.87,51.97-20.87l-11.65-87.45-68.57,40.75Z"/>
      <g>
        <g>
          <path class="cls-3" d="M2279.27,1322.99h-182.03c-4.83,0-9.15-3.02-10.8-7.56l-39.23-107.79c-2.73-7.5,2.82-15.42,10.8-15.42h182.03c4.83,0,9.15,3.02,10.8,7.56l39.23,107.79c2.73,7.5-2.82,15.42-10.8,15.42Z"/>
          <rect class="cls-3" x="2088.34" y="1322.99" width="254.32" height="10.96" rx="1.19" ry="1.19"/>
        </g>
        <path class="cls-13" d="M2189.86,1257.6c4.26,11.72-1.78,21.21-13.49,21.21s-24.67-9.5-28.93-21.21c-4.26-11.72,1.78-21.21,13.49-21.21s24.67,9.5,28.93,21.21Z"/>
      </g>
      <path class="cls-12" d="M2329.64,1332.96s-66.8-3.72-57.54,6.2c9.26,9.92,58.87,24.89,67.47,24.89s-9.92-31.09-9.92-31.09Z"/>
      <path class="cls-5" d="M2457.39,1044.19c-39.84,23.27-31.07,86.91,8.62,225.81l-136.37,62.97,8.5,31.09s141.44-12.28,195.02-34.11c53.58-21.83-3.43-230.13-20.29-262.87-16.87-32.74-46.3-28.24-55.47-22.88Z"/>
    </g>
  </g>
</svg>