<?xml version="1.0" encoding="UTF-8"?>
<svg id="Layer_1" data-name="Layer 1" xmlns="http://www.w3.org/2000/svg" viewBox="0 0 3000 2356.67">
  <defs>
    <style>
      .cls-1 {
        fill: #ff4d77;
      }

      .cls-2 {
        fill: #62c9cc;
      }

      .cls-3 {
        fill: #102751;
      }

      .cls-4 {
        fill: #6298e6;
      }

      .cls-5 {
        fill: #fbd448;
      }

      .cls-6 {
        fill: #5788cd;
      }

      .cls-7 {
        fill: #fff;
      }

      .cls-8 {
        fill: #f183c2;
      }

      .cls-9 {
        fill: none;
        stroke: #e6ebff;
        stroke-miterlimit: 10;
        stroke-width: 3px;
      }

      .cls-10 {
        fill: #e6ebff;
      }

      .cls-11 {
        fill: #fc8082;
      }

      .cls-12 {
        fill: #baddf3;
      }
    </style>
  </defs>
  <rect class="cls-7" width="3000" height="2356.67"/>
  <g>
    <path class="cls-12" d="M492.06,787.45c140.1,19.48,317.46,76.08,390.94,178.2,55.43,77.02,72.3,213.4,95.87,290.87,0,0-144.93,42.87-278.03-67.49s-85.49-164.58-211.33-330.98c-29.31-38.76-113.85-86.78,2.55-70.59Z"/>
    <path class="cls-9" d="M432.4,793.9s332.74,75.24,546.47,446.76"/>
    <path class="cls-9" d="M705.61,842.75s28.91,71.38,31.81,113.08"/>
    <path class="cls-9" d="M817.72,1028.36s-164.43,35.87-222.78,21.99"/>
    <path class="cls-9" d="M489.5,858.04s63.36,8.71,106.15,2.95"/>
    <path class="cls-9" d="M737.26,1215.43s81.48,1.96,207.04-30.82"/>
  </g>
  <g>
    <path class="cls-12" d="M2462.04,1565.4c-170.47-32.51-398.84-36.56-524.43,53.18-94.73,67.69-168.02,219.52-225.91,300.26,0,0,151.53,106.86,349.65,31.02,198.12-75.85,164.14-157.6,375.87-301.42,49.32-33.5,166.46-56.02,24.82-83.03Z"/>
    <path class="cls-9" d="M2528.82,1596.38s-416.27-43.55-810.88,304.03"/>
    <path class="cls-9" d="M2192.11,1545.6s-61.69,71.56-81.47,118.88"/>
    <path class="cls-9" d="M1988.76,1717.16s176.95,106.41,250.22,113.26"/>
    <path class="cls-9" d="M2437.21,1648.44s-77.05-14.82-124.51-38.36"/>
    <path class="cls-9" d="M2008.62,1966.21s-95.45-29.8-228.46-117.32"/>
  </g>
  <path class="cls-10" d="M1037.7,1615.11c-.21-.1-.44-.17-.65-.27-10.02-4.57-21.8-2.54-29.71,5.08l-19.19,18.39c-5.34,5.1-12.53,7.65-19.89,7.4-5.01-.21-9.98-.11-14.94.29-7.44.59-14.78-1.69-20.35-6.65l-19.58-17.49c-8.25-7.31-20.16-8.9-29.99-3.94-.27.13-.57.3-.88.4-9.82,5.02-15.61,15.51-14.59,26.47l2.36,26.37c.68,7.4-1.84,14.67-6.66,20.29-1.56,1.81-3.12,3.69-4.6,5.62-1.48,1.93-2.89,3.91-4.24,5.89-4.18,6.11-10.56,10.42-17.88,11.66l-26.09,4.51c-10.85,1.84-19.5,10.14-21.81,20.92-.02.32-.11.66-.16.95-2.22,10.8,2.35,21.87,11.54,27.96l21.95,14.42c6.23,4.1,10.33,10.6,11.67,17.95.9,4.9,2.08,9.72,3.57,14.51,2.14,7.05,1.53,14.65-2.02,21.12l-12.83,23.28c-5.33,9.6-4.25,21.51,2.74,30.01.15.17.28.38.43.55,7.06,8.49,18.62,11.86,29.1,8.43l24.78-8.07c7.06-2.31,14.76-1.45,21.36,2.09,4.6,2.51,9.39,4.72,14.24,6.62,6.88,2.73,12.48,7.94,15.31,14.77l10.14,24.38c4.22,10.12,14.21,16.72,25.18,16.56.16.01.29,0,.41-.02,11.04-.16,20.83-7.13,24.71-17.45l9.26-24.77c2.52-6.76,7.87-12.02,14.51-14.82,5.12-2.15,10.12-4.67,14.99-7.52,6.33-3.66,13.83-4.83,20.91-2.8l25.35,7.25c10.42,3.01,21.79-.48,28.38-9.06l.71-.93c6.59-8.58,7.03-20.46,1.44-29.76l-13.54-22.62c-3.78-6.32-4.58-13.86-2.68-20.93,1.51-5.44,2.65-10.92,3.41-16.42,1.02-7.17,4.7-13.67,10.58-17.84l21.55-15.33c8.96-6.41,13.18-17.67,10.49-28.37-.02-.13-.03-.25-.09-.41-2.68-10.64-11.63-18.6-22.49-20.07l-26.17-3.51c-7.33-.97-13.81-5.04-18.22-10.98-3.09-4.19-6.45-8.25-10.06-12.05-5.12-5.47-7.93-12.69-7.52-20.1l1.41-26.03c.61-11.01-5.62-21.31-15.65-25.95ZM1028.47,1827.24c-27.51,35.81-78.83,42.54-114.64,15.02-35.81-27.51-42.54-78.83-15.02-114.64,27.51-35.81,78.83-42.54,114.64-15.02,35.81,27.51,42.54,78.83,15.02,114.64Z"/>
  <path class="cls-10" d="M457.01,987.81c-.07-.13-.18-.25-.25-.38-3.71-6.1-10.78-9.31-17.8-8.09l-17,2.88c-4.73.79-9.51-.46-13.37-3.27-2.61-1.94-5.32-3.69-8.12-5.29-4.21-2.39-7.32-6.29-8.5-10.98l-4.14-16.52c-1.77-6.93-7.58-12.12-14.66-13.04-.19-.03-.42-.05-.62-.1-7.1-.88-14.03,2.64-17.48,8.89l-8.34,15.02c-2.33,4.22-6.33,7.21-10.97,8.46-1.5.4-3.02.84-4.51,1.34-1.5.5-2.98,1.05-4.42,1.62-4.47,1.76-9.46,1.75-13.85-.25l-15.65-7.08c-6.49-2.96-14.16-1.66-19.33,3.29-.13.17-.3.31-.44.45-5.12,4.99-6.7,12.6-3.99,19.21l6.53,15.73c1.85,4.47,1.68,9.45-.27,13.89-1.3,2.96-2.43,5.98-3.37,9.09-1.42,4.56-4.51,8.42-8.78,10.6l-15.37,7.83c-6.36,3.21-10.12,10-9.46,17.11.02.15,0,.31.03.45.7,7.13,5.68,13.15,12.55,15.13l16.24,4.7c4.63,1.33,8.45,4.6,10.71,8.9,1.56,3.03,3.32,5.95,5.23,8.74,2.7,3.97,3.81,8.81,2.84,13.51l-3.44,16.78c-1.42,6.97,1.54,14.15,7.49,18.06.08.07.16.1.23.14,5.98,3.93,13.78,3.76,19.62-.36l13.99-9.93c3.82-2.71,8.61-3.59,13.19-2.67,3.53.71,7.14,1.18,10.79,1.42,4.73.34,9.19,2.44,12.25,6.11l10.96,13.13c4.5,5.41,11.87,7.68,18.54,5.48l.72-.24c6.66-2.2,11.22-8.43,11.61-15.45l.97-17.08c.27-4.77,2.59-9.11,6.18-12.21,2.79-2.37,5.4-4.9,7.81-7.57,3.16-3.48,7.5-5.62,12.18-5.72l17.15-.38c7.15-.18,13.51-4.69,15.96-11.41.04-.07.07-.15.1-.25,2.44-6.69.53-14.22-4.77-18.96l-12.77-11.42c-3.58-3.19-5.58-7.73-5.78-12.53-.13-3.38-.46-6.78-1.01-10.14-.76-4.8.36-9.7,3.28-13.53l10.24-13.46c4.34-5.69,4.74-13.49,1.05-19.63ZM374.79,1098.33c-27.81,9.2-57.81-5.88-67.02-33.69-9.2-27.81,5.88-57.81,33.69-67.02,27.81-9.2,57.81,5.88,67.02,33.69,9.2,27.81-5.88,57.81-33.69,67.02Z"/>
  <path class="cls-10" d="M2571.05,1806.18c-.07-.13-.18-.25-.25-.38-3.71-6.1-10.78-9.31-17.8-8.09l-17,2.88c-4.73.79-9.51-.46-13.37-3.27-2.61-1.94-5.32-3.69-8.12-5.29-4.21-2.39-7.32-6.29-8.5-10.98l-4.14-16.52c-1.77-6.93-7.58-12.12-14.66-13.04-.19-.03-.42-.05-.62-.1-7.1-.88-14.03,2.64-17.48,8.89l-8.34,15.02c-2.33,4.22-6.33,7.21-10.97,8.46-1.5.4-3.02.84-4.51,1.34-1.5.5-2.98,1.05-4.42,1.62-4.47,1.76-9.46,1.75-13.85-.25l-15.65-7.08c-6.49-2.96-14.16-1.66-19.33,3.29-.13.17-.3.31-.44.45-5.12,4.99-6.7,12.6-3.99,19.21l6.53,15.73c1.85,4.47,1.68,9.45-.27,13.89-1.3,2.96-2.43,5.98-3.37,9.09-1.42,4.56-4.51,8.42-8.78,10.6l-15.37,7.83c-6.36,3.21-10.12,10-9.46,17.11.02.15,0,.31.03.45.7,7.13,5.68,13.15,12.55,15.13l16.24,4.7c4.63,1.33,8.45,4.6,10.71,8.9,1.56,3.03,3.32,5.95,5.23,8.74,2.7,3.97,3.81,8.81,2.84,13.51l-3.44,16.78c-1.42,6.97,1.54,14.15,7.49,18.06.08.07.16.1.23.14,5.98,3.93,13.78,3.76,19.62-.36l13.99-9.93c3.82-2.71,8.61-3.59,13.19-2.67,3.53.71,7.14,1.18,10.79,1.42,4.73.34,9.19,2.44,12.25,6.11l10.97,13.13c4.5,5.41,11.87,7.68,18.54,5.48l.72-.24c6.66-2.2,11.22-8.43,11.61-15.45l.97-17.08c.27-4.77,2.59-9.11,6.18-12.21,2.79-2.37,5.4-4.9,7.81-7.57,3.16-3.48,7.5-5.62,12.18-5.72l17.15-.38c7.15-.18,13.51-4.69,15.97-11.41.04-.07.07-.15.1-.25,2.44-6.69.53-14.22-4.77-18.96l-12.77-11.42c-3.58-3.19-5.58-7.73-5.78-12.53-.13-3.38-.46-6.78-1.01-10.14-.76-4.8.36-9.7,3.28-13.53l10.24-13.46c4.34-5.69,4.75-13.49,1.05-19.63ZM2488.83,1916.69c-27.81,9.2-57.81-5.88-67.02-33.69-9.2-27.81,5.88-57.81,33.69-67.02,27.81-9.2,57.81,5.88,67.02,33.69,9.2,27.81-5.88,57.81-33.69,67.02Z"/>
  <g>
    <rect class="cls-10" x="2524.09" y="1383.07" width="9.47" height="57.35"/>
    <rect class="cls-10" x="2524.09" y="1383.07" width="9.47" height="57.35" transform="translate(3945.77 -1114.16) rotate(90.12)"/>
  </g>
  <g>
    <rect class="cls-12" x="2723.8" y="1688.48" width="9.47" height="57.35"/>
    <rect class="cls-12" x="2723.8" y="1688.48" width="9.47" height="57.35" transform="translate(4451.31 -1007.83) rotate(90.12)"/>
  </g>
  <g>
    <rect class="cls-12" x="1325.66" y="578.16" width="9.47" height="57.35"/>
    <rect class="cls-12" x="1325.66" y="578.16" width="9.47" height="57.35" transform="translate(1939.97 -722.31) rotate(90.12)"/>
  </g>
  <g>
    <rect class="cls-12" x="427.61" y="1883.66" width="9.47" height="57.35"/>
    <rect class="cls-12" x="427.61" y="1883.66" width="9.47" height="57.35" transform="translate(2345.57 1483.93) rotate(90.12)"/>
  </g>
  <g>
    <rect class="cls-4" x="616.8" y="720.87" width="1662.29" height="1059.78" rx="30.79" ry="30.79"/>
    <path class="cls-10" d="M2248.15,768.52v964.47c0,9.21-7.49,16.7-16.71,16.7H664.47c-9.22,0-16.71-7.49-16.71-16.7v-964.47c0-9.21,7.49-16.7,16.71-16.7h1566.97c9.22,0,16.71,7.49,16.71,16.7Z"/>
    <path class="cls-7" d="M2248.15,768.52v157.36H647.75v-157.36c0-9.21,7.49-16.7,16.71-16.7h1566.97c9.22,0,16.71,7.49,16.71,16.7Z"/>
    <rect class="cls-4" x="629.29" y="1666.76" width="1633.88" height="93.52"/>
    <circle class="cls-7" cx="1446.23" cy="1722.8" r="25.46" transform="translate(-562.76 2734.53) rotate(-76.72)"/>
    <rect class="cls-6" x="1278.42" y="1780.64" width="335.63" height="153.33"/>
    <path class="cls-4" d="M1161.81,1884.45h568.84c22.77,0,41.25,18.48,41.25,41.25v45.41h-651.34v-45.41c0-22.77,18.48-41.25,41.25-41.25Z"/>
    <path class="cls-7" d="M1996.54,989.9v583c0,15.92-12.92,28.83-28.85,28.83H873.86c-15.92,0-28.83-12.91-28.83-28.83v-583c0-15.92,12.91-28.85,28.83-28.85h1093.83c15.92,0,28.85,12.92,28.85,28.85Z"/>
    <path class="cls-12" d="M1996.54,989.9v18.6H845.03v-18.6c0-15.92,12.91-28.85,28.83-28.85h1093.83c15.92,0,28.85,12.92,28.85,28.85Z"/>
    <circle class="cls-8" cx="1958.65" cy="984.78" r="8.76"/>
    <circle class="cls-5" cx="1909.12" cy="984.78" r="8.76"/>
    <circle class="cls-1" cx="1858.57" cy="984.78" r="8.76"/>
    <g>
      <rect class="cls-10" x="912.11" y="1063.76" width="230.72" height="267.37" rx="27.27" ry="27.27"/>
      <path class="cls-12" d="M1110.7,1286.32v44.81h-166.46v-44.81c0-25.17,20.41-45.58,45.58-45.58h75.3c25.17,0,45.58,20.41,45.58,45.58Z"/>
      <rect class="cls-12" x="1002.74" y="1192.88" width="49.48" height="59.25"/>
      <g>
        <rect class="cls-12" x="975.95" y="1159.33" width="103.05" height="23.32" rx="5.49" ry="5.49"/>
        <rect class="cls-12" x="985.17" y="1147.39" width="84.61" height="42.31"/>
        <path class="cls-12" d="M1069.78,1189.7c-3.37,23.12-32.1,42.31-42.31,42.31s-42.31-20.3-42.31-43.66,18.94-40.95,42.31-40.95,45.56,20,42.31,42.31Z"/>
        <circle class="cls-12" cx="1027.47" cy="1147.39" r="42.31"/>
        <circle class="cls-12" cx="1027.47" cy="1099.66" r="18.44" transform="translate(-342.61 476.9) rotate(-22.5)"/>
      </g>
    </g>
    <rect class="cls-10" x="1545.69" y="1331.13" width="382.26" height="221.31" rx="14.5" ry="14.5"/>
    <g>
      <path class="cls-10" d="M1917.09,1183.37h-629.94c-4.82,0-8.73-3.91-8.73-8.73h0c0-4.82,3.91-8.73,8.73-8.73h629.94c4.82,0,8.73,3.91,8.73,8.73h0c0,4.82-3.91,8.73-8.73,8.73Z"/>
      <path class="cls-10" d="M1917.09,1132.29h-629.94c-4.82,0-8.73-3.91-8.73-8.73h0c0-4.82,3.91-8.73,8.73-8.73h629.94c4.82,0,8.73,3.91,8.73,8.73h0c0,4.82-3.91,8.73-8.73,8.73Z"/>
      <path class="cls-10" d="M1287.15,1063.76h629.94c4.82,0,8.73,3.91,8.73,8.73h0c0,4.82-3.91,8.73-8.73,8.73h-629.94c-4.82,0-8.73-3.91-8.73-8.73h0c0-4.82,3.91-8.73,8.73-8.73Z"/>
    </g>
    <g>
      <path class="cls-10" d="M1404.29,1551.35h-485.09c-3.71,0-6.73-3.91-6.73-8.73h0c0-4.82,3.01-8.73,6.73-8.73h485.09c3.71,0,6.73,3.91,6.73,8.73h0c0,4.82-3.01,8.73-6.73,8.73Z"/>
      <path class="cls-10" d="M1404.29,1500.28h-485.09c-3.71,0-6.73-3.91-6.73-8.73h0c0-4.82,3.01-8.73,6.73-8.73h485.09c3.71,0,6.73,3.91,6.73,8.73h0c0,4.82-3.01,8.73-6.73,8.73Z"/>
      <path class="cls-10" d="M1404.29,1449.21h-485.09c-3.71,0-6.73-3.91-6.73-8.73h0c0-4.82,3.01-8.73,6.73-8.73h485.09c3.71,0,6.73,3.91,6.73,8.73h0c0,4.82-3.01,8.73-6.73,8.73Z"/>
    </g>
  </g>
  <g>
    <path class="cls-6" d="M891.91,656.91s163.04,49.85,176.51,90.27c13.47,40.42-107.79,206.81-107.79,206.81l-24.25-16.17,59.96-153.6-171.78-121.93,67.35-5.39Z"/>
    <path class="cls-3" d="M969.45,1004.18l-55.42-38.23,21.41-28.24,25.81,17.81c-3.57,5.88-3.42,12.92,2.23,20.04,8.85,11.16,5.96,28.62,5.96,28.62Z"/>
    <path class="cls-11" d="M914.15,581.39s11.15,41.89,32.86,57.02c21.71,15.13,12.84-56.95,12.84-56.95l-45.7-.07Z"/>
    <path class="cls-4" d="M762.58,673.76s-19.87,67.37,193.34,132.04l26.27,175.83h31.54s16.3-171.78.8-211.53c-15.49-39.75-174.48-115.87-174.48-115.87l-77.47,19.54Z"/>
    <path class="cls-2" d="M868.34,448.75c-50.52-6.06-92.29,5.39-104.12,34.63-6.43,15.9-15.12,105.49-1.64,190.37l129.33-16.84,35.72-121.26s10.78-33.01,4.04-47.83c-6.74-14.82-63.32-39.07-63.32-39.07Z"/>
    <path class="cls-3" d="M866.89,430.36s-21.01-22.09-19.43-41.57,13.45-14.95,16.61-28.63c3.16-13.69,12.3-19.54,20.46-20.33s18.16,3.68,27.9,0c9.74-3.68,52.96-2.88,47.37,24.21-4.55,22.06-21.58,18.42-21.58,18.42l-71.32,47.9Z"/>
    <path class="cls-11" d="M938.21,382.47s-1.84,56.32-23.16,62.11c-21.32,5.79-36.58-21.32-40.53-31.05-3.95-9.74-10.88-8.95-10.44-21.84.44-12.9,14.12-6.05,15.18.79,1.05,6.84,6.32,9.21,7.11,4.74.79-4.47-.53-17.37,3.68-20.53,4.21-3.16,29.48,8.16,48.16,5.79Z"/>
    <path class="cls-3" d="M1048.55,1015.08l-67.32,1.15.99-35.42,31.36-.54c.51,6.86,4.74,12.5,13.48,15,13.69,3.92,21.5,19.81,21.5,19.81Z"/>
    <path class="cls-2" d="M920.66,476.71s37.05,12.46,39.19,104.75l-43,11.45-19.54-32.28,23.35-83.93Z"/>
    <path class="cls-11" d="M986.91,496.58s-58.89,91.4-58.33,114.37c.56,22.97,40.14,31.15,55.63-18.03,15.49-49.18,20.88-88.25,21.56-92.29.67-4.04,13.47-7.5,12.8-19.58-.67-12.08-18.22-6.04-31.66,15.54Z"/>
    <path class="cls-3" d="M1008.81,488.56c6.29,23.09,10.11,42.16,8.54,42.59-1.57.43-7.95-17.94-14.24-41.03-6.29-23.09-10.11-42.16-8.54-42.59,1.57-.43,7.95,17.94,14.24,41.03Z"/>
    <polygon class="cls-3" points="975.06 682.87 903.26 667.48 981.43 564.14 1053.23 579.54 975.06 682.87"/>
    <path class="cls-11" d="M776.05,477.72c-17.96,5.47-21.69,60.38,71.13,133.57,2.77,2.19,5.95,3.79,9.34,4.77,10.5,3.03,39.06,10.74,106.13,26.03,0,0,26.27,2.69,30.99-3.37,4.72-6.06-20.88-11.45-30.31-13.47s-82.46-42.57-91.65-48.64c-9.2-6.06-38.4-47.08-51.16-69.25-12.8-22.23-28.97-34.36-44.46-29.64Z"/>
    <path class="cls-2" d="M792.22,564.79l47.49-33.64s-19.72-34.85-40.42-50.11c-20.7-15.26-35.07,2.34-35.07,2.34,0,0-18.49,37.96,28,81.41Z"/>
    <path class="cls-7" d="M852.94,452.81s-6.15,2.68,30.9,61.29l18.73-49.57-49.63-11.71Z"/>
    <path class="cls-11" d="M906.98,443.72l-4.41,20.81c-.78,3.7-2.9,6.97-5.92,9.24-5.61,4.21-24.26,6.99-39.99-8.27-4.43-4.3-5.03-11.24-2.41-16.84l20.68-44.11,32.05,39.17Z"/>
  </g>
  <g>
    <path class="cls-11" d="M1645.56,1286.91s-13.02,63.48,8.14,70.72c21.16,7.24,39.54-27.84,39.54-27.84l4.45-46.22-52.13,3.34Z"/>
    <polygon class="cls-11" points="1662.05 1344.27 1667.1 1390.49 1706.04 1390.49 1712.73 1352.06 1686.4 1329.79 1662.05 1344.27"/>
    <path class="cls-11" d="M1757.63,1398.14s61.46,88.68,60.91,103.72c-.56,15.04-73.51,96.9-73.51,96.9l-12.51-17.82s41.21-69.05,43.01-74.62c1.8-5.57-31.06-44.55-31.06-44.55l13.16-63.62Z"/>
    <path class="cls-3" d="M1667.23,1716.62s-2.95,74.25,18.58,118.06c21.53,43.81,86.13,148.5,86.13,148.5l25.99-13.36s-50.49-163.35-51.97-182.65c-1.48-19.3,7.42-132.16,2.97-178.94-4.45-46.78-16.41-73.51-16.41-73.51l-50.41,7.42-14.87,174.49Z"/>
    <path class="cls-3" d="M1758.45,2018.38l50.91-26.88-11.89-22.52-25.42,13.42c2.01,4.53,1.31,9.54-4.38,14.7-8.9,8.08-9.22,21.28-9.22,21.28Z"/>
    <path class="cls-3" d="M1634.58,1545.11s-45.29,161.12-53.46,230.17c-8.17,69.05,30.44,213.09,30.44,213.09h26.73s9.65-192.31,18.56-213.09c8.91-20.79,56.43-129.94,58.66-152.21,2.23-22.27-12.62-93.55-12.62-93.55l-68.31,15.59Z"/>
    <path class="cls-2" d="M1705.86,1380.28c-27.47-1.48-83.9,8.91-87.61,20.79-3.71,11.88-14.65,54.79,15.32,147.68h104.75s23.97-110.56,21-143.23c-2.97-32.67-53.46-25.24-53.46-25.24Z"/>
    <path class="cls-11" d="M1556.39,1462.24c3.86,3.09,9.49,2.36,12.43-1.61,12.93-17.44,45.47-60.57,54.05-64.57,10.78-5.02,41.4,10.01,6.32,56.23-35.08,46.22-55.75,63.51-65.03,61.63-14.6-2.97-65.28-68.87-75.86-89.47-10.58-20.6-3.34-46.22,0-42.32,3.34,3.9,8.64,27.32,12.81,32.3,8.15,9.72,40.71,36.16,55.27,47.81Z"/>
    <path class="cls-3" d="M1637.55,1257.39c-8.81,15.33-2.23,31.56,12.25,34.15,14.48,2.6,38.61,2.6,39.35,17.08.74,14.48-27.47,59.03,16.89,81.86,44.36,22.83,68.49-19.12,60.7-43.99-7.8-24.87-29.33-28.59-28.59-62.93.74-34.34-29.55-38.05-37.79-32.11-8.24,5.94-19.01.93-27.18-2.32-8.17-3.25-27.1-6.59-35.64,8.26Z"/>
    <path class="cls-3" d="M1581.83,2013.84h57.57v-25.47h-28.75c-.34,4.94-3.3,9.05-10.73,10.95-11.65,2.99-18.09,14.51-18.09,14.51Z"/>
  </g>
  <g>
    <path class="cls-3" d="M637.3,1989.36v29.05h60.46s-7.26-11.88-19.81-13.2c-12.54-1.32-10.42-18.49-10.42-18.49l-30.23,2.63Z"/>
    <path class="cls-3" d="M521.68,1989.36v29.05h60.46s-7.26-11.88-19.81-13.2c-12.54-1.32-10.42-18.49-10.42-18.49l-30.23,2.63Z"/>
    <path class="cls-11" d="M590.94,1650.02s58.36,133.86,59.35,141.78c.99,7.92-12.94,199.88-12.94,199.88l30.18.63s60.26-182.2,60.26-203-68.65-256.64-68.65-256.64h-51.5l-16.7,117.35Z"/>
    <path class="cls-11" d="M539.31,1529.2s-46.54,81.21-29.71,181.23c16.84,100.02,13.02,281.25,13.02,281.25h27.58s35.32-139.63,36.48-173.3c1.16-33.67,35.82-289.17,35.82-289.17h-83.19Z"/>
    <path class="cls-3" d="M533.65,1535.15s-54.51,97.43-17.22,231.14h207.02l-60.09-230.6s-71.9,9.98-129.72-.54Z"/>
    <path class="cls-11" d="M593.67,1361.74s70.79-25.3,134.64,72.41l79.51-48.01s20.18-9.47,22.98-5.11c3.48,5.41-14.11,16.97-14.11,16.97,0,0-65.3,72.81-88.67,78.36-23.37,5.55-74.95-53.88-74.95-53.88l-59.4-60.74Z"/>
    <path class="cls-12" d="M569.52,1356.4l-52.98,17.66,17.12,161.09s50.72,15.84,125.49-2.48c0,0,13.37-76.75-7.43-125.27-20.8-48.52-42.09-49.19-42.09-49.19l-40.11-1.82Z"/>
    <polygon class="cls-7" points="677.92 1530.61 615.42 1552.42 625.76 1449.93 688.26 1428.12 677.92 1530.61"/>
    <path class="cls-11" d="M525.01,1372.3c15.15,2.24,26.71,36.31,9.06,93.69-1.32,4.3.82,8.51,4.78,10.84l71.26,31.67s25.25.56,27.09-.1c1.84-.66,7.67,5.98-25.3,14.69-27.63,7.3-96.11-9.94-117.57-15.72-3.9-1.05-6.62-4.54-6.66-8.58-.28-27.86,1.09-131.86,37.35-126.49Z"/>
    <path class="cls-3" d="M565.32,1240.1s13.6-22.18,43.64-18.55c26.55,3.21,37.3,41.59,16.01,54.63-21.29,13.04-55.27,40.13-55.27,40.13,0,0-5.6,36.92-54.46,56.73-48.86,19.81-82.48-19.46-82.15-45.21.33-25.75,13.33-45.73,41.39-46.06,28.06-.33,18.41-31.75,42.05-47.3,25.09-16.51,48.79,5.63,48.79,5.63Z"/>
    <path class="cls-11" d="M624.97,1276.18s9.9,43.08-12.13,57.93c-22.03,14.85-42.53-.74-44.76-25,0,0-8.96-1.39-8.64-13.03.42-15.3,19.98-11.48,34.09-12.47,14.11-.99,24.76-1.98,31.44-7.43Z"/>
    <path class="cls-11" d="M568.88,1312.7l-5.14,45.52s28.39,22.12,45.88,0v-29.38l-40.75-16.14Z"/>
  </g>
  <g>
    <rect class="cls-3" x="2184.66" y="1574.01" width="201.72" height="8.76"/>
    <rect class="cls-3" x="2232.28" y="1447.35" width="201.72" height="8.76"/>
    <g>
      <rect class="cls-3" x="2008.53" y="1692.49" width="667.23" height="8.76" transform="translate(-53.24 3317.71) rotate(-70.01)"/>
      <rect class="cls-3" x="1809.61" y="1692.49" width="667.23" height="8.76" transform="translate(-183.92 3131.16) rotate(-70.02)"/>
    </g>
    <rect class="cls-3" x="2043.77" y="1958.35" width="198.92" height="8.76"/>
    <g>
      <rect class="cls-5" x="2366.96" y="1363.25" width="8.76" height="667.23" transform="translate(-437.35 913.38) rotate(-20)"/>
      <rect class="cls-5" x="2565.87" y="1363.25" width="8.76" height="667.23" transform="translate(-425.36 981.41) rotate(-20)"/>
    </g>
    <rect class="cls-5" x="2470.79" y="1958.35" width="198.92" height="8.76"/>
    <rect class="cls-5" x="2419.37" y="1831.4" width="198.92" height="8.76"/>
    <rect class="cls-5" x="2374.98" y="1704.38" width="198.92" height="8.76"/>
    <rect class="cls-5" x="2327.57" y="1574.01" width="198.92" height="8.76"/>
    <rect class="cls-5" x="2279.9" y="1447.35" width="198.92" height="8.76"/>
    <path class="cls-6" d="M2545.98,1459.65s-9.85,141.25,0,181.77c9.85,40.51,50.37,166.44,50.37,166.44h31.75s-26.28-166.44-22.99-183.96c3.28-17.52,31.02-139.43,14.96-185.78-16.06-46.35-71.9-29.93-71.9-29.93l-2.19,51.46Z"/>
    <path class="cls-4" d="M2500.36,1414.02s-121.91,30.29-150.38,41.24c-28.47,10.95-37.23,64.6,42.7,219h37.23s-30.66-151.38-28.47-167.12c2.19-15.74,190.53,29.93,191.62-82.15,1.09-112.07-92.71-10.97-92.71-10.97Z"/>
    <path class="cls-3" d="M2363.48,1703.89h66.99v-29.63h-33.45c-.39,5.75-3.84,10.52-12.49,12.75-13.55,3.48-21.05,16.88-21.05,16.88Z"/>
    <path class="cls-3" d="M2561.12,1837.48h66.99v-29.63h-33.45c-.4,5.75-3.84,10.52-12.49,12.75-13.55,3.48-21.05,16.88-21.05,16.88Z"/>
    <rect class="cls-3" x="2091.24" y="1831.4" width="201.72" height="8.76"/>
    <rect class="cls-3" x="2137.49" y="1704.38" width="201.72" height="8.76"/>
    <polygon class="cls-5" points="2253.21 1381.88 2261.35 1381.88 2260.07 1389.19 2254.63 1389.02 2253.21 1381.88"/>
    <polygon class="cls-5" points="2452.04 1381.88 2460.17 1381.88 2458.89 1389.19 2453.45 1389.02 2452.04 1381.88"/>
    <g>
      <g>
        <polygon class="cls-6" points="2231.94 1099.97 2344.97 1116.04 2357.08 1083.67 2261.22 1021.64 2231.94 1099.97"/>
        <path class="cls-6" d="M2355.17,1086.67h18.5v34.75h-18.5c-2.71,0-4.92-2.2-4.92-4.92v-24.92c0-2.71,2.2-4.92,4.92-4.92Z" transform="translate(4187.71 2965.33) rotate(-159.5)"/>
        <path class="cls-6" d="M2343.44,1157.81l.73.27,14.66-36.66-13.93-5.21-9.43,23.58c-2.87,7.18.72,15.31,7.96,18.02Z"/>
      </g>
      <path class="cls-11" d="M2360.96,1139.34s-3.54-12.56-13.52-18.03c-9.98-5.47-18.03-.32-15.46,6.76,2.58,7.08,11.41,14.36,11.41,14.36l17.57-3.09Z"/>
      <g>
        <path class="cls-5" d="M2208.04,1047.73c.74-2.03-.3-4.28-2.33-5.02l-19.11-7.01c-2.03-.74-4.28.3-5.02,2.33-.74,2.03.3,4.28,2.33,5.02l19.11,7.01c2.03.74,4.28-.3,5.02-2.33Z"/>
        <path class="cls-5" d="M2204.53,1086.79c-.37-2.13-2.4-3.55-4.53-3.18l-20.05,3.5c-2.13.37-3.55,2.4-3.18,4.53.37,2.13,2.4,3.55,4.53,3.18l20.05-3.5c2.13-.37,3.55-2.4,3.18-4.53Z"/>
        <path class="cls-5" d="M2230.53,1015.96c-1.66,1.38-4.13,1.16-5.51-.5l-13.03-15.64c-1.38-1.66-1.16-4.13.5-5.51,1.66-1.38,4.13-1.16,5.51.5l13.03,15.64c1.38,1.66,1.16,4.13-.5,5.51Z"/>
      </g>
      <path class="cls-8" d="M2559.31,1202.29l57.25,13.49c6.02,1.42,10.18,6.91,9.91,13.09l-6.39,209.23-141.26-18.67s-25.77-139.39-13.21-178.99c12.56-39.61,93.7-38.16,93.7-38.16Z"/>
      <path class="cls-8" d="M2521.21,1205.46l-120.65,5.36-40.05-73.85-17.13,5.45s17.25,90.29,35.93,104.46c18.68,14.17,88.23,18.68,88.23,18.68l53.67-60.11Z"/>
      <g>
        <path class="cls-3" d="M2560.89,1170.16s18.84-7.69,23.66-22.34c4.82-14.64-5.52-22.56-.88-28.89,4.64-6.33,7.76-20.41-1.64-30.27-8.41-8.81-18.76-2.17-24.67-6.12-5.91-3.96-29.15-26.6-51.4-9.35-22.25,17.25-14.13,38.96,1.43,44.49,15.56,5.53,53.51,52.48,53.51,52.48Z"/>
        <path class="cls-11" d="M2507.39,1117.68s-6.25,51.23,11.34,62.75c17.58,11.53,38.21-17.89,43.73-19.34,5.52-1.45,11.25-9.64,11.08-16.29-.17-6.65-10.67-4.68-13.36-1.42-2.69,3.26-9.68,5.1-3.5-19.35,0,0-23.2,6.08-49.29-6.36Z"/>
      </g>
      <path class="cls-11" d="M2525.61,1179.45l-4.4,26.01s3.82,9.91,18.99,8.88c15.17-1.03,26.83-10.77,26.83-10.77l-6.02-45.15-35.4,21.04Z"/>
      <g>
        <path class="cls-11" d="M2655.92,1455.03s-1.33,15.09,8.94,15.09c7.85,0,7.49-15.09,7.49-15.09h-16.42Z"/>
        <path class="cls-8" d="M2618.3,1216.34s53.39,21.53,69.82,125.18c0,0,4.79,31.08-15.21,113.5h-16.99s-4.61-97.74-7.03-102.49c-2.42-4.75-40.02-71.87-41.07-98.24-1.05-26.37,10.48-37.95,10.48-37.95Z"/>
      </g>
      <polygon class="cls-7" points="2566.12 1196.7 2535.15 1214.26 2543.26 1225.24 2573.54 1205.65 2566.12 1196.7"/>
      <polygon class="cls-7" points="2535.15 1214.26 2522.16 1199.84 2512.96 1205.83 2524.06 1225.24 2535.15 1214.26"/>
    </g>
  </g>
</svg>