<svg xmlns="http://www.w3.org/2000/svg" xmlns:xlink="http://www.w3.org/1999/xlink" width="725.623" height="188.021" viewBox="0 0 725.623 188.021">
  <defs>
    <clipPath id="clip-path">
      <rect id="Rectangle_2" data-name="Rectangle 2" width="527.563" height="154.382" fill="none"/>
    </clipPath>
  </defs>
  <g id="Group_8" data-name="Group 8" transform="translate(-1 -0.99)">
    <g id="Group_2" data-name="Group 2" transform="translate(-263.07 1.99)">
      <g id="Group_1" data-name="Group 1" transform="translate(264.07 -1)">
        <path id="Path_1" data-name="Path 1" d="M91.924,0H95.7c2.987.1,5.876.3,8.764.6.3.1.7.1,1,.2,1.195.1,2.291.3,3.388.4,1.293.2,2.693.5,3.986.793a67.4,67.4,0,0,1,7.668,1.89c1,.3,1.89.6,2.791.9,1.391.4,2.791.9,4.084,1.391,2.1.793,4.084,1.694,5.974,2.585.793.3,1.5.7,2.292,1a89.267,89.267,0,0,1,7.971,4.485c1.792,1.1,3.584,2.292,5.278,3.486,1.293.9,2.389,1.89,3.682,2.791.6.5,1.293,1,1.89,1.6a96.683,96.683,0,0,1,16.236,17.529c.793,1.195,1.694,2.389,2.487,3.682,1.293,1.89,2.389,3.888,3.486,5.876,1.195,2.194,2.291,4.279,3.29,6.571a65.31,65.31,0,0,1,2.987,7.766c.2.6.5,1.195.7,1.89.4,1.391.9,2.889,1.293,4.377.3,1.195.6,2.389.793,3.584a23.372,23.372,0,0,1,.6,2.791c.4,1.988.7,4.084,1,6.071a101.359,101.359,0,0,1,.6,16.53l-.3,3.888c-.1.9-.2,1.89-.3,2.791a3.812,3.812,0,0,0-.1,1c-.1.7-.2,1.293-.3,1.89l-.3,1.5c-.2,1.293-.5,2.693-.793,3.986a68.856,68.856,0,0,1-1.988,7.766,72.106,72.106,0,0,1-2.791,7.864,49.412,49.412,0,0,1-1.988,4.779l-.9,1.792c-.793,1.694-1.694,3.29-2.585,4.877l-1.195,2.1a93.83,93.83,0,0,1-13.348,17.03c-.2.2-.3.4-.5.6-.4.3-.7.7-1.1,1a6.051,6.051,0,0,1-.793.793l-1.195,1.195-1.792,1.5-.4.4c-.6.4-1.1.9-1.694,1.293l-.5.5c-.6.5-1.195.9-1.694,1.391l-1.195.9c-.9.6-1.694,1.195-2.487,1.792-.9.6-1.792,1.195-2.791,1.792-.2.1-.4.3-.7.5a19,19,0,0,0-2.291,1.391c-2.1,1.195-4.182,2.292-6.277,3.388l-1.5.6a2.653,2.653,0,0,1-.5.3c-.6.3-1.293.6-1.988.9-1.5.7-3.085,1.293-4.583,1.89-1.6.6-3.183,1-4.779,1.6-.3.1-.5.1-.793.2-.793.2-1.5.5-2.291.7a7.726,7.726,0,0,0-1.5.4,11.187,11.187,0,0,0-1.6.4c-.7.2-1.391.3-2.194.5-.7.1-1.5.3-2.291.4s-1.5.3-2.194.4c-.4.1-.7.1-1,.2-.3,0-.7.1-1,.1-.2,0-.3.1-.5.1a8.887,8.887,0,0,0-1.6.2,4.926,4.926,0,0,1-1.195.1,11.259,11.259,0,0,1-1.694.2,1.474,1.474,0,0,0-.7.1c-1.1,0-2.194.1-3.388.1a.916.916,0,0,1-.5.1,22.731,22.731,0,0,0-2.585.1c-.7,0-1.5-.1-2.194-.1H91.091c-.6,0-1.1-.1-1.694-.1-1.391-.1-2.889-.2-4.279-.3-.6-.1-1.195-.1-1.89-.2-1.988-.3-3.986-.6-6.071-.9-.5-.1-1-.2-1.6-.3a8.662,8.662,0,0,1-1.6-.4c-.7-.1-1.293-.3-1.89-.4-1-.2-1.89-.5-2.889-.7-.7-.2-1.391-.4-1.988-.6a5.2,5.2,0,0,1-1.195-.4c-2.389-.793-4.681-1.5-6.972-2.389a3.64,3.64,0,0,0-.9-.4,21.741,21.741,0,0,1-2.194-1c-1.694-.7-3.388-1.5-5.082-2.292l-2.1-1.195c-.6-.3-1.1-.6-1.694-.9-.3-.2-.5-.3-.793-.5l-1.5-.9c-.3-.2-.6-.3-.9-.5-.6-.4-1.293-.9-1.89-1.293-1-.6-1.89-1.293-2.791-1.89-.7-.5-1.391-1.1-2.1-1.6-.9-.6-1.792-1.391-2.693-2.1-.2-.2-.5-.4-.7-.6a56.27,56.27,0,0,1-5.778-5.18c-.6-.6-1.195-1.195-1.89-1.792-.6-.6-1.195-1.391-1.792-1.988a96.639,96.639,0,0,1-10.654-14.239c-.5-.793-.9-1.6-1.391-2.389-.793-1.391-1.6-2.791-2.291-4.279-.1-.1-.1-.3-.2-.5a4.369,4.369,0,0,1-.4-.7,11.9,11.9,0,0,1-.5-1.1,9.468,9.468,0,0,1-.5-1,1.688,1.688,0,0,0-.2-.5c-.7-1.6-1.391-3.29-1.988-4.877a46.173,46.173,0,0,1-1.792-5.18c-.1-.2-.2-.5-.3-.793a.39.39,0,0,0-.1-.3c-.7-2.585-1.391-5.278-1.988-8.069-.5-2.389-.9-4.877-1.293-7.374,0-.6-.1-1.1-.1-1.694a42.721,42.721,0,0,1-.4-5.082c-.1-1-.2-2.1-.2-3.085v-5.18a2.183,2.183,0,0,1,.1-.793v-.6a2.52,2.52,0,0,0,.1-.793,30.459,30.459,0,0,1,.2-3.085c.1-.793.2-1.694.3-2.487s.2-1.6.3-2.291c.1-.6.1-1.195.2-1.792l.6-3.29A97.809,97.809,0,0,1,5.14,63.3c.4-1.391,1-2.693,1.391-3.986.3-.6.5-1.195.793-1.792a5.018,5.018,0,0,1,.3-.793c.3-.793.7-1.5,1-2.194.5-1.1,1-2.194,1.6-3.29.2-.4.5-.9.7-1.293.4-.7.7-1.391,1.1-1.988a14.05,14.05,0,0,1,.7-1.293,8.967,8.967,0,0,1,.6-1L15.1,42.687a14.768,14.768,0,0,0,.9-1.293A27.3,27.3,0,0,1,17.988,38.7c.1-.2.2-.3.3-.5a12.331,12.331,0,0,1,.793-1.1c1-1.293,1.988-2.487,2.987-3.682.6-.793,1.195-1.391,1.792-2.1.4-.5.793-.9,1.1-1.293,1.293-1.293,2.487-2.585,3.78-3.78.6-.6,1.293-1.195,1.89-1.792.7-.7,1.391-1.293,2.1-1.89.793-.7,1.6-1.293,2.389-1.988C36.409,19.586,37.7,18.6,39,17.7c2.1-1.6,4.377-2.987,6.571-4.377A101.252,101.252,0,0,1,55.23,8.236c1.5-.7,2.987-1.293,4.485-1.89.5-.2.9-.3,1.293-.5.2,0,.3-.1.4-.1a8.965,8.965,0,0,1,1.5-.5c.9-.4,1.792-.6,2.693-.9a17.206,17.206,0,0,1,2.194-.7,13.471,13.471,0,0,1,1.89-.5,21.3,21.3,0,0,1,2.389-.6l1.195-.3c.2,0,.4-.1.6-.1.1,0,.2-.1.3-.1.2,0,.4-.1.7-.1a1.431,1.431,0,0,1,.6-.2h.5a1.084,1.084,0,0,1,.6-.2h.4l.1-.1h.3a.37.37,0,0,1,.3-.1h.4a.282.282,0,0,0,.2-.1h.4a.282.282,0,0,0,.2-.1,4.494,4.494,0,0,1,.5-.1h.7c0-.1.1-.1.2-.1h.5a.1.1,0,0,1,.1-.1h.6c.1,0,.1-.1.2-.1h.6c0-.1.1-.1.2-.1h.6c.1,0,.1-.1.2-.1h.6a.37.37,0,0,1,.3-.1h.793a.3.3,0,0,0,.2-.1h.793a.136.136,0,0,1,.2,0,.615.615,0,0,1,.4-.1h1.1c.1-.1.2-.1.4-.1h.7c.1-.1.3,0,.5,0a.615.615,0,0,1,.4-.1h.6a1.646,1.646,0,0,1,.7,0c.333-.1.832,0,1.028-.1Z" transform="translate(0.04)" fill="#fff"/>
        <path id="Path_2" data-name="Path 2" d="M93.118,2.585H90.327a6.248,6.248,0,0,1-1.293.1h-1a13.775,13.775,0,0,1-1.89.2c-.7.1-1.391.1-2.194.2-.7.1-1.5.2-2.194.3a21.993,21.993,0,0,0-2.791.4c-1.792.3-3.486.6-5.18,1-1.5.3-2.987.7-4.485,1.1-.6.2-1.195.3-1.89.5-1.5.5-3.085,1-4.583,1.5a.775.775,0,0,1-.5.2,4.266,4.266,0,0,1-1,.4c-2.194.9-4.279,1.792-6.375,2.693a6.829,6.829,0,0,1-.7.4,1.688,1.688,0,0,1-.5.2,1.914,1.914,0,0,0-.5.3,16.164,16.164,0,0,0-2.889,1.5c-.5.3-1,.5-1.6.793-.9.5-1.694,1.1-2.585,1.6a8.967,8.967,0,0,0-1,.6c-1.293.9-2.585,1.694-3.888,2.585-.793.5-1.5,1.195-2.292,1.792a18.228,18.228,0,0,0-2.791,2.1c-.7.6-1.5,1.195-2.194,1.89a11.447,11.447,0,0,0-1.6,1.391c-1.988,1.792-3.986,3.78-5.876,5.778a14.763,14.763,0,0,0-1.1,1.391l-.6.6c-.2.2-.4.5-.6.7l-.2.2c-.6.7-1.195,1.391-1.694,2.1a17.682,17.682,0,0,0-1.293,1.694c-.3.3-.5.7-.793,1-.4.6-.793,1.1-1.195,1.694-.9,1.293-1.792,2.585-2.585,3.888-.1.1-.1.2-.2.3s-.1.2-.2.3l-.9,1.5c-.5.9-1,1.792-1.6,2.791-.6,1.1-1.1,2.194-1.694,3.388a9.468,9.468,0,0,0-.5,1,9.918,9.918,0,0,0-.5,1.1c-.4.9-.9,1.89-1.195,2.791-.3.7-.6,1.5-.9,2.194-.3.5-.4,1.1-.7,1.694-.6,1.6-1.1,3.183-1.6,4.877,0,.1-.1.3-.1.4-.2.7-.4,1.293-.6,1.89a4.494,4.494,0,0,1-.1.5,30.594,30.594,0,0,0-.793,2.987c-.1.4-.1.7-.2,1a10.728,10.728,0,0,0-.4,1.89l-.3,1.5-.3,1.792c-.3,1.391-.4,2.791-.6,4.279,0,.2-.1.5-.1.7a.764.764,0,0,1-.1.5v.5a3.812,3.812,0,0,1-.1,1c-.2,2.487-.3,5.082-.3,7.668v3.085a1.713,1.713,0,0,0,.1.7v1.694a26.728,26.728,0,0,1,.2,2.791c.1,1.195.3,2.487.4,3.682a.916.916,0,0,1,.1.5c.1,1.195.4,2.389.6,3.584.4,2.194.793,4.279,1.293,6.375.2.6.3,1.1.5,1.694l.6,2.389c.1.3.2.5.3.793l.3,1.195c.3.7.5,1.391.793,2.194a5.018,5.018,0,0,0,.3.793c.1.2.1.3.2.4,0,.2.1.3.1.5a10.541,10.541,0,0,1,.4,1,.37.37,0,0,1,.1.3,5.389,5.389,0,0,0,.4.793,4.511,4.511,0,0,0,.4,1.1c.4.9.793,1.89,1.195,2.791a11.9,11.9,0,0,0,.5,1.1c1.1,2.194,2.1,4.279,3.29,6.277a95.274,95.274,0,0,0,10.155,14.239c1.694,1.988,3.486,3.888,5.376,5.778.5.5,1,.9,1.5,1.391.4.4.9.7,1.293,1.1.6.6,1.195,1.1,1.792,1.6.7.6,1.391,1.195,2.194,1.792a4.266,4.266,0,0,0,.7.5c1,.793,1.988,1.5,2.987,2.292a23.512,23.512,0,0,0,2.585,1.694c.2.2.5.4.7.6.793.5,1.6.9,2.292,1.391a73.141,73.141,0,0,0,7.266,3.986l.6.3c.4.2.9.4,1.293.6.6.3,1.293.6,1.988.9.1.1.2.1.4.2,1.1.5,2.292,1,3.388,1.391.4.1.793.3,1.1.4a71.853,71.853,0,0,0,8.265,2.585,13.471,13.471,0,0,0,1.89.5A93.892,93.892,0,0,0,87.6,185.2c.5,0,1.1.1,1.694.1a4.113,4.113,0,0,0,1.1,0c1.1.1,2.194.1,3.388.1h3.682c.1-.1.4,0,.5,0a2.8,2.8,0,0,1,.9-.1h1.1c.1-.1.3,0,.4,0a.615.615,0,0,1,.4-.1h.5c.1-.1.4,0,.5,0a.37.37,0,0,1,.3-.1h.6c0-.1.2,0,.2,0a.342.342,0,0,0,.2-.1h.7a.37.37,0,0,1,.3-.1h.6a.37.37,0,0,1,.3-.1h.6c.1,0,.2,0,.2-.1h.6a.282.282,0,0,0,.2-.1h.7a.282.282,0,0,1,.2-.1h.4a.282.282,0,0,1,.2-.1h.5a.1.1,0,0,1,.1-.1h.4c.1,0,.1-.1.2-.1h.5c0-.1.1-.1.2-.1h.2a.37.37,0,0,1,.3-.1,5.012,5.012,0,0,1,.5-.1h.2a1.5,1.5,0,0,1,.6-.1h.2c0-.1.1-.1.2-.1h.1c.1-.1.4-.1.6-.1,0-.1.1-.1.2-.1.2,0,.4-.1.6-.1.1,0,.3-.1.4-.1a4.309,4.309,0,0,1,1.1-.2,9.572,9.572,0,0,0,1-.3,1.455,1.455,0,0,1,.7-.2h.1c.9-.2,1.694-.5,2.585-.7.793-.2,1.6-.5,2.389-.7.7-.3,1.5-.5,2.291-.793a19.686,19.686,0,0,0,2.585-1c.4-.1.7-.3,1.1-.4.5-.2,1.1-.4,1.6-.6,1.293-.5,2.585-1.195,3.78-1.694a64.439,64.439,0,0,0,5.778-2.987,91.965,91.965,0,0,0,14.239-9.959c.3-.2.6-.5.9-.7a3.986,3.986,0,0,0,.7-.6c.5-.4.9-.9,1.391-1.293a11.122,11.122,0,0,1,1.1-1c1.792-1.792,3.584-3.682,5.278-5.572,1-1,1.89-2.194,2.791-3.29.3-.3.5-.7.793-1l.9-1.195a.766.766,0,0,1,.4-.4,1.486,1.486,0,0,1,.4-.7c.1-.1.2-.3.3-.4.6-.9,1.195-1.694,1.792-2.487.4-.793.9-1.5,1.391-2.292l.9-1.5a38.408,38.408,0,0,0,1.988-3.388,7.536,7.536,0,0,1,.7-1.195,25.9,25.9,0,0,0,1.1-2.389c.3-.6.7-1.293,1-1.89.4-1,.793-1.988,1.293-2.987a5.9,5.9,0,0,1,.2-.7c.3-.7.6-1.391.9-2.194a.39.39,0,0,1,.1-.3c0-.1.1-.2.1-.3l.3-.6a2.3,2.3,0,0,1,.2-.793c.1-.1.1-.2.1-.4.1-.1.1-.2.2-.4.1-.3.2-.6.3-1,.1-.2.1-.4.2-.6s.1-.4.2-.5c.6-1.89,1.1-3.78,1.6-5.68.4-1.5.7-2.987,1-4.583.1-.4.2-.9.3-1.293.2-1.1.3-2.194.5-3.29a27.362,27.362,0,0,0,.4-2.791v-.793a.37.37,0,0,0,.1-.3c.1-.7.1-1.391.2-2.1,0-.4.1-.793.1-1.1v-1.1a12.869,12.869,0,0,0,.1-1.89v-.9a52.867,52.867,0,0,0,0-5.572,26.8,26.8,0,0,0-.2-2.889,7.708,7.708,0,0,0-.1-1.5V85c-.1-.2-.1-.5-.2-.793v-.5a1.282,1.282,0,0,0-.1-.6v-.7c-.1-.6-.2-1.293-.3-1.988-.4-2.389-.9-4.779-1.391-7.07a92.532,92.532,0,0,0-12.544-29.28,67.015,67.015,0,0,0-3.888-5.474c-1.1-1.391-2.194-2.791-3.388-4.084-.4-.5-.793-1-1.293-1.6-.6-.6-1.195-1.293-1.792-1.89-.9-1-1.89-1.89-2.791-2.791a5.742,5.742,0,0,0-.793-.7,9.606,9.606,0,0,0-1-1c-1-.9-1.89-1.694-2.889-2.487l-2.1-1.792a3.079,3.079,0,0,1-.7-.5,2.694,2.694,0,0,1-.6-.5,19.79,19.79,0,0,1-2.292-1.694l-4.485-2.987c-2.889-1.694-5.68-3.388-8.667-4.779a102.982,102.982,0,0,0-11.947-4.779c-2.1-.7-4.279-1.195-6.375-1.792-.793-.2-1.694-.4-2.585-.6-1-.2-2.1-.4-3.085-.6a7.043,7.043,0,0,0-1.293-.2c-.4-.1-.7-.1-1.1-.2-.3,0-.7-.1-1.1-.1-1.1-.2-2.291-.4-3.388-.5-3.183-.3-6.571-.4-9.959-.4h0ZM91.924,0H95.7c2.987.1,5.876.3,8.764.6.3.1.7.1,1,.2,1.195.1,2.291.3,3.388.4,1.293.2,2.693.5,3.986.793a67.4,67.4,0,0,1,7.668,1.89c1,.3,1.89.6,2.791.9,1.391.4,2.791.9,4.084,1.391,2.1.793,4.084,1.694,5.974,2.585.793.3,1.5.7,2.292,1a89.267,89.267,0,0,1,7.971,4.485c1.792,1.1,3.584,2.292,5.278,3.486,1.293.9,2.389,1.89,3.682,2.791.6.5,1.293,1,1.89,1.6a96.684,96.684,0,0,1,16.236,17.529c.793,1.195,1.694,2.389,2.487,3.682,1.293,1.89,2.389,3.888,3.486,5.876,1.195,2.194,2.291,4.279,3.29,6.571a65.31,65.31,0,0,1,2.987,7.766c.2.6.5,1.195.7,1.89.4,1.391.9,2.889,1.293,4.377.3,1.195.6,2.389.793,3.584a23.372,23.372,0,0,1,.6,2.791c.4,1.988.7,4.084,1,6.071a101.359,101.359,0,0,1,.6,16.53l-.3,3.888c-.1.9-.2,1.89-.3,2.791a3.812,3.812,0,0,0-.1,1c-.1.7-.2,1.293-.3,1.89l-.3,1.5c-.2,1.293-.5,2.693-.793,3.986a68.856,68.856,0,0,1-1.988,7.766,72.106,72.106,0,0,1-2.791,7.864,49.412,49.412,0,0,1-1.988,4.779l-.9,1.792c-.793,1.694-1.694,3.29-2.585,4.877l-1.195,2.1a93.829,93.829,0,0,1-13.348,17.03c-.2.2-.3.4-.5.6-.4.3-.7.7-1.1,1a6.051,6.051,0,0,1-.793.793l-1.195,1.195-1.792,1.5-.4.4c-.6.4-1.1.9-1.694,1.293l-.5.5c-.6.5-1.195.9-1.694,1.391l-1.195.9c-.9.6-1.694,1.195-2.487,1.792-.9.6-1.792,1.195-2.791,1.792-.2.1-.4.3-.7.5a19,19,0,0,0-2.291,1.391c-2.1,1.195-4.182,2.292-6.277,3.388l-1.5.6a2.653,2.653,0,0,1-.5.3c-.6.3-1.293.6-1.988.9-1.5.7-3.085,1.293-4.583,1.89-1.6.6-3.183,1-4.779,1.6-.3.1-.5.1-.793.2-.793.2-1.5.5-2.291.7a7.726,7.726,0,0,0-1.5.4,11.187,11.187,0,0,0-1.6.4c-.7.2-1.391.3-2.194.5-.7.1-1.5.3-2.291.4s-1.5.3-2.194.4c-.4.1-.7.1-1,.2-.3,0-.7.1-1,.1-.2,0-.3.1-.5.1a8.887,8.887,0,0,0-1.6.2,4.926,4.926,0,0,1-1.195.1,11.259,11.259,0,0,1-1.694.2,1.474,1.474,0,0,0-.7.1c-1.1,0-2.194.1-3.388.1a.916.916,0,0,1-.5.1,22.731,22.731,0,0,0-2.585.1c-.7,0-1.5-.1-2.194-.1H91.091c-.6,0-1.1-.1-1.694-.1-1.391-.1-2.889-.2-4.279-.3-.6-.1-1.195-.1-1.89-.2-1.988-.3-3.986-.6-6.071-.9-.5-.1-1-.2-1.6-.3a8.662,8.662,0,0,1-1.6-.4c-.7-.1-1.293-.3-1.89-.4-1-.2-1.89-.5-2.889-.7-.7-.2-1.391-.4-1.988-.6a5.2,5.2,0,0,1-1.195-.4c-2.389-.793-4.681-1.5-6.972-2.389a3.64,3.64,0,0,0-.9-.4,21.741,21.741,0,0,1-2.194-1c-1.694-.7-3.388-1.5-5.082-2.292l-2.1-1.195c-.6-.3-1.1-.6-1.694-.9-.3-.2-.5-.3-.793-.5l-1.5-.9c-.3-.2-.6-.3-.9-.5-.6-.4-1.293-.9-1.89-1.293-1-.6-1.89-1.293-2.791-1.89-.7-.5-1.391-1.1-2.1-1.6-.9-.6-1.792-1.391-2.693-2.1-.2-.2-.5-.4-.7-.6a56.27,56.27,0,0,1-5.778-5.18c-.6-.6-1.195-1.195-1.89-1.792-.6-.6-1.195-1.391-1.792-1.988a96.639,96.639,0,0,1-10.654-14.239c-.5-.793-.9-1.6-1.391-2.389-.793-1.391-1.6-2.791-2.291-4.279-.1-.1-.1-.3-.2-.5a4.369,4.369,0,0,1-.4-.7,11.9,11.9,0,0,1-.5-1.1,9.468,9.468,0,0,1-.5-1,1.688,1.688,0,0,0-.2-.5c-.7-1.6-1.391-3.29-1.988-4.877a46.173,46.173,0,0,1-1.792-5.18c-.1-.2-.2-.5-.3-.793a.39.39,0,0,0-.1-.3c-.7-2.585-1.391-5.278-1.988-8.069-.5-2.389-.9-4.877-1.293-7.374,0-.6-.1-1.1-.1-1.694a42.721,42.721,0,0,1-.4-5.082c-.1-1-.2-2.1-.2-3.085v-5.18a2.183,2.183,0,0,1,.1-.793v-.6a2.52,2.52,0,0,0,.1-.793,30.459,30.459,0,0,1,.2-3.085c.1-.793.2-1.694.3-2.487s.2-1.6.3-2.291c.1-.6.1-1.195.2-1.792l.6-3.29A97.809,97.809,0,0,1,5.14,63.3c.4-1.391,1-2.693,1.391-3.986.3-.6.5-1.195.793-1.792a5.018,5.018,0,0,1,.3-.793c.3-.793.7-1.5,1-2.194.5-1.1,1-2.194,1.6-3.29.2-.4.5-.9.7-1.293.4-.7.7-1.391,1.1-1.988a14.05,14.05,0,0,1,.7-1.293,8.967,8.967,0,0,1,.6-1L15.1,42.687a14.767,14.767,0,0,0,.9-1.293A27.3,27.3,0,0,1,17.988,38.7c.1-.2.2-.3.3-.5a12.331,12.331,0,0,1,.793-1.1c1-1.293,1.988-2.487,2.987-3.682.6-.793,1.195-1.391,1.792-2.1.4-.5.793-.9,1.1-1.293,1.293-1.293,2.487-2.585,3.78-3.78.6-.6,1.293-1.195,1.89-1.792.7-.7,1.391-1.293,2.1-1.89.793-.7,1.6-1.293,2.389-1.988C36.409,19.586,37.7,18.6,39,17.7c2.1-1.6,4.377-2.987,6.571-4.377A101.252,101.252,0,0,1,55.23,8.236c1.5-.7,2.987-1.293,4.485-1.89.5-.2.9-.3,1.293-.5.2,0,.3-.1.4-.1a8.965,8.965,0,0,1,1.5-.5c.9-.4,1.792-.6,2.693-.9a17.207,17.207,0,0,1,2.194-.7,13.471,13.471,0,0,1,1.89-.5,21.3,21.3,0,0,1,2.389-.6l1.195-.3c.2,0,.4-.1.6-.1.1,0,.2-.1.3-.1.2,0,.4-.1.7-.1a1.431,1.431,0,0,1,.6-.2h.5a1.084,1.084,0,0,1,.6-.2h.4l.1-.1h.3a.37.37,0,0,1,.3-.1h.4a.282.282,0,0,0,.2-.1h.4a.282.282,0,0,0,.2-.1,4.494,4.494,0,0,1,.5-.1h.7c0-.1.1-.1.2-.1h.5a.1.1,0,0,1,.1-.1h.6c.1,0,.1-.1.2-.1h.6c0-.1.1-.1.2-.1h.6c.1,0,.1-.1.2-.1h.6a.37.37,0,0,1,.3-.1h.793a.3.3,0,0,0,.2-.1h.793a.136.136,0,0,1,.2,0,.615.615,0,0,1,.4-.1h1.1c.1-.1.2-.1.4-.1h.7c.1-.1.3,0,.5,0a.615.615,0,0,1,.4-.1h.6a1.646,1.646,0,0,1,.7,0c.333-.1.832,0,1.028-.1h0Z" transform="translate(0.04)" fill="#003d6e"/>
        <path id="Path_3" data-name="Path 3" d="M93.695,20.8H92.1c-1.6.1-3.085.2-4.583.3A73.28,73.28,0,0,0,76.861,22.9c-1,.3-1.988.5-2.987.793-.7.2-1.5.5-2.291.7-.9.3-1.89.6-2.791,1-.4.1-.793.3-1.195.4-1.6.6-3.085,1.293-4.583,1.988-1.391.6-2.693,1.293-3.986,1.988-.793.5-1.694.9-2.487,1.391-1.195.793-2.389,1.6-3.584,2.291a14.551,14.551,0,0,1-1.5,1.1,43.277,43.277,0,0,0-4.779,3.682,4.973,4.973,0,0,1-.793.7,7.163,7.163,0,0,0-.9.793C43.791,40.806,42.5,42,41.3,43.293c-.9,1-1.89,1.988-2.791,3.085-.4.5-.9,1-1.293,1.5-.1.1-.2.3-.3.4-1.293,1.6-2.389,3.183-3.486,4.779-1.1,1.694-2.194,3.388-3.183,5.18l-.9,1.5a88.943,88.943,0,0,0-5.376,13.25,70.23,70.23,0,0,0-1.988,7.971,90.2,90.2,0,0,0-1.1,8.96v1.1a22.9,22.9,0,0,0-.1,2.585v1.293c0,1.391,0,2.791.1,4.084.1.793.1,1.694.2,2.585,0,.2.1.4.1.6s.1.4.1.7v.6a25.325,25.325,0,0,0,.5,2.889,27.383,27.383,0,0,0,.793,4.084c.1.4.2.9.3,1.293.4,1.5.793,3.085,1.293,4.485a27.752,27.752,0,0,0,1,3.085,13,13,0,0,1,.5,1.391c.6,1.391,1.195,2.693,1.694,4.084.5,1.1,1.1,2.1,1.6,3.183,1.195,2.291,2.585,4.583,4.084,6.874,0,.1.1.2.2.3.3.4.5.7.7,1,.2.4.5.7.7,1.1.7.793,1.293,1.694,1.988,2.585A19.237,19.237,0,0,1,38,141.495c.3.4.7.7,1,1.1.3.3.6.7.9,1l.3.3a5.22,5.22,0,0,0,.7.793c1.195,1.195,2.292,2.389,3.486,3.388l.793.793c.7.6,1.391,1.195,1.988,1.694l.3.3a1.636,1.636,0,0,1,.5.4c.3.2.6.5.9.7.793.6,1.6,1.195,2.292,1.792,1.195.793,2.292,1.5,3.486,2.292.4.3.9.6,1.293.9.2,0,.3.1.4.1a5.891,5.891,0,0,1,.5.4c.5.3,1.1.6,1.6.9,1.988,1.1,3.986,2.1,5.974,2.987a70.4,70.4,0,0,0,19.125,5.572,53.149,53.149,0,0,0,5.974.7c.5,0,1.1.1,1.6.1,1.6,0,3.085.1,4.681.1.1-.1.2,0,.3,0h.793a2.8,2.8,0,0,1,.9-.1h.4c.1-.1.4,0,.6,0a.37.37,0,0,1,.3-.1h.793c.2-.1.4,0,.5,0h.2a.37.37,0,0,1,.3-.1h.793c0-.1.1-.1.2-.1h.6a.615.615,0,0,1,.4-.1h.6c.1,0,.1-.1.2-.1h.6a.1.1,0,0,0,.1-.1h.6a.1.1,0,0,0,.1-.1h.7a.087.087,0,0,1,.1-.1h.3a.282.282,0,0,0,.2-.1h.6a1.455,1.455,0,0,1,.7-.2h.4a.1.1,0,0,1,.1-.1c.1,0,.4-.1.6-.1h.3a.1.1,0,0,0,.1-.1c.3,0,.5-.1.7-.1l1.5-.3a9.527,9.527,0,0,1,1.6-.4c.9-.2,1.694-.5,2.585-.7.2-.1.5-.2.7-.3.7-.2,1.391-.4,1.988-.6,2.791-1,5.582-2.1,8.265-3.29a62.271,62.271,0,0,0,7.168-3.986c.6-.4,1.1-.7,1.694-1.1a34.8,34.8,0,0,0,3.29-2.389,24.767,24.767,0,0,0,2.585-1.988l.3-.3c.1,0,.2-.1.3-.2.1,0,.2-.1.3-.2.2-.2.4-.3.5-.5a11.447,11.447,0,0,0,1.6-1.391c.6-.5,1.195-1.1,1.792-1.6a3.986,3.986,0,0,1,.6-.7,60.468,60.468,0,0,0,4.877-5.376,19.235,19.235,0,0,0,1.391-1.694c1.1-1.5,2.194-3.085,3.183-4.583.4-.7.793-1.293,1.195-1.89a6.831,6.831,0,0,0,.4-.7,18.8,18.8,0,0,0,1.1-1.89,35.248,35.248,0,0,0,2.194-4.279q1.351-2.835,2.389-5.68a17.919,17.919,0,0,0,.793-2.194c.5-1.694,1.1-3.388,1.5-5.18.7-2.487,1.195-5.18,1.694-7.864v-.7a1.282,1.282,0,0,0,.1-.6,11.146,11.146,0,0,0,.2-1.792c0-.1.1-.2.1-.4v-.9a16.59,16.59,0,0,0,.2-2.194c0-.7.1-1.293.1-1.988,0-1.5,0-2.987-.1-4.377V90.739c0-.5-.1-1-.1-1.5a23.982,23.982,0,0,0-.3-2.889c0-.5-.1-1-.1-1.391a20.283,20.283,0,0,1-.4-2.389c-.4-2.487-1-4.877-1.6-7.168-.4-1.5-.793-2.987-1.293-4.377-.3-1-.7-1.988-1.1-2.987a26.366,26.366,0,0,0-1-2.487,3.663,3.663,0,0,0-.3-.7,10.251,10.251,0,0,0-.7-1.5c-.5-1.1-1-2.194-1.6-3.29-.9-1.694-1.89-3.388-2.889-4.975-.3-.5-.7-1-1-1.5-.5-.6-.9-1.293-1.391-1.988-.5-.793-1.1-1.6-1.694-2.389l-.3-.3c-.3-.4-.6-.7-.9-1.1-.5-.5-.9-1.1-1.391-1.6a11.447,11.447,0,0,0-1.391-1.6c-1.1-1.195-2.194-2.292-3.388-3.388a21.152,21.152,0,0,0-2.194-2.1c-.2-.2-.4-.3-.6-.5-.6-.5-1.195-1-1.89-1.6-1.293-1-2.585-1.988-3.986-2.987-1.6-1.1-3.183-2.1-4.877-3.085s-3.486-1.988-5.278-2.889c-.4-.2-.9-.3-1.293-.5-.1-.1-.3-.1-.4-.2a4.141,4.141,0,0,1-.9-.5c-1.1-.4-2.1-.793-3.085-1.195a60.992,60.992,0,0,0-5.974-1.988,5.908,5.908,0,0,0-1.391-.4c-.7-.2-1.293-.3-1.988-.5-.793-.2-1.5-.3-2.194-.5-.5-.1-1.1-.2-1.6-.3-.3,0-.6-.1-.793-.1-.7-.1-1.391-.3-2.194-.4a8.941,8.941,0,0,1-1.694-.2c-.7-.1-1.391-.1-1.988-.2-.9-.1-1.694-.1-2.585-.2h-.5a6.6,6.6,0,0,1-1.391-.1H93.695Zm-.9-2.389h3.682c1.293.1,2.585.1,3.888.2a76.208,76.208,0,0,1,13.847,2.487c1.6.4,3.085.9,4.681,1.391,2.487.9,4.975,1.89,7.374,2.987,1.293.6,2.487,1.195,3.682,1.792,1.6.9,3.183,1.792,4.779,2.791,1.293.793,2.585,1.694,3.888,2.585.7.5,1.391,1.1,2.194,1.6.7.5,1.293,1.1,1.988,1.6,1.293,1.1,2.487,2.194,3.78,3.388.5.5,1,.9,1.5,1.391,1,1,1.988,2.1,2.987,3.183.4.6.9,1.1,1.391,1.694a11.041,11.041,0,0,1,1.391,1.694,23.727,23.727,0,0,1,1.89,2.487c1.1,1.6,2.194,3.183,3.29,4.877.4.7.9,1.5,1.293,2.292.3.4.5.9.793,1.293l.6,1.195c.3.6.6,1.1.9,1.694a24.164,24.164,0,0,1,1.293,2.889c.3.7.7,1.391,1,2.1.3,1,.7,1.89,1,2.791.4,1,.7,1.89,1,2.889.2.7.4,1.293.6,1.988a72.6,72.6,0,0,1,1.792,8.265,19.048,19.048,0,0,1,.5,3.486,7.908,7.908,0,0,1,.2,1.6,28.974,28.974,0,0,1,.3,4.181c0,.793.1,1.694.1,2.487,0,1.792,0,3.486-.1,5.278a76.574,76.574,0,0,1-12.251,37.046A22.832,22.832,0,0,1,156.74,138c-1,1.293-1.988,2.693-3.085,4.084-.3.4-.6.7-.9,1.1s-.7.793-1,1.195c-.6.6-1.1,1.293-1.694,1.89-.2.1-.3.3-.4.4a4.231,4.231,0,0,0-.7.7,12.49,12.49,0,0,1-1.195,1.195l-1.293,1.293c-1,.9-2.1,1.792-3.085,2.693-1.195,1-2.389,1.988-3.682,2.889-1.1.793-2.194,1.5-3.183,2.291a10.05,10.05,0,0,0-1.694,1.1,2.112,2.112,0,0,0-.793.5c-1.195.7-2.487,1.391-3.682,1.988a23.158,23.158,0,0,1-2.791,1.391c-1.5.793-3.085,1.391-4.583,2.1-.4.1-.7.3-1.1.4-1.6.6-3.29,1.195-4.877,1.694l-1.195.3a4.494,4.494,0,0,1-.5.1c-.1.1-.2.1-.4.2a2.541,2.541,0,0,0-.7.2c-1.195.3-2.487.6-3.78.9a2.978,2.978,0,0,0-.9.2c-1.1.2-2.1.4-3.183.5l-2.1.3c-.7.1-1.293.2-1.988.3h-.793a3.81,3.81,0,0,1-1.1.1c-.2,0-.4.1-.6.1-.793,0-1.6.1-2.487.1h-5.68c-2.194-.1-4.279-.3-6.375-.5a1.5,1.5,0,0,0-.7-.1c-1.391-.2-2.693-.4-4.084-.7-1.1-.2-2.1-.4-3.183-.7a48.679,48.679,0,0,1-6.473-1.792c-1.293-.4-2.693-.9-3.986-1.391-1.694-.7-3.388-1.391-4.975-2.194-.7-.3-1.293-.6-1.89-.9-1.5-.793-3.085-1.6-4.485-2.487a67.279,67.279,0,0,1-7.07-4.779,14.553,14.553,0,0,1-1.5-1.1c-1.391-1.1-2.791-2.389-4.181-3.682a20.117,20.117,0,0,1-2.1-1.988l-1.293-1.293c-1.195-1.293-2.291-2.585-3.486-3.888a11.835,11.835,0,0,0-1.1-1.293c-.5-.793-1.1-1.391-1.6-2.194-.5-.6-.9-1.195-1.391-1.89a33.19,33.19,0,0,1-1.988-3.085c-.4-.7-.793-1.391-1.293-2.1A39.162,39.162,0,0,1,26.1,127.56a46.644,46.644,0,0,1-3.085-7.266c-.2-.4-.3-.793-.5-1.195a5.908,5.908,0,0,1-.4-1.391,3.639,3.639,0,0,1-.4-.9c-.4-1.6-.9-3.183-1.293-4.779a45.7,45.7,0,0,1-1-5.278c-.2-1.391-.5-2.889-.6-4.279-.3-3.29-.5-6.571-.5-10.057a1.282,1.282,0,0,0,.1-.6c0-1.1.1-2.1.1-3.183.1-.9.2-1.694.3-2.585.2-1.694.4-3.29.7-4.975.5-2.487,1.1-4.975,1.792-7.374l.6-2.1a2.415,2.415,0,0,0,.2-.793c.6-1.694,1.195-3.486,1.89-5.082.4-1,.9-1.988,1.293-2.987.1-.2.2-.5.3-.7.2-.4.4-.793.6-1.293.5-.793.9-1.694,1.391-2.487a51.467,51.467,0,0,1,3.486-5.876c1.293-1.89,2.585-3.682,3.986-5.474a22.363,22.363,0,0,1,1.988-2.389c.6-.7,1.1-1.293,1.694-1.988l1.5-1.5a38.866,38.866,0,0,1,2.889-2.791A56.64,56.64,0,0,1,47.7,34.362c1.293-1,2.585-1.988,3.986-2.889.793-.5,1.6-1.1,2.487-1.6.5-.3,1.1-.7,1.6-1a31.07,31.07,0,0,1,3.085-1.694l2.389-1.195A69.694,69.694,0,0,1,71.9,21.808c1.694-.5,3.29-1,4.975-1.391.4-.1.9-.2,1.391-.3.2,0,.4-.1.6-.1.1-.1.4-.1.5-.1a1.713,1.713,0,0,1,.7-.1l.1-.1c.1,0,.4-.1.5-.1h.4a.37.37,0,0,1,.3-.1h.4a.615.615,0,0,1,.4-.1h.2a.1.1,0,0,1,.1-.1h.5c.1,0,.1-.1.2-.1h.5c.1,0,.1-.1.2-.1h.4a.37.37,0,0,1,.3-.1h.5c.1,0,.2,0,.2-.1h.6a.37.37,0,0,1,.3-.1h.4c.1-.1.3,0,.4,0s.1,0,.2-.1h.7c.1-.1.2,0,.3,0,.1-.1.2-.1.4-.1h.6a1.958,1.958,0,0,1,.793-.1h.5c.1-.1.5,0,.6,0,.1-.1.3,0,.4,0a1.958,1.958,0,0,1,.793-.1h.6Z" transform="translate(-0.341 -0.382)" fill="#003d6e"/>
        <path id="Path_4" data-name="Path 4" d="M36.037,100.764a.37.37,0,0,0-.1.3,4.87,4.87,0,0,0,.3,1.195c.2.793.4,1.5.6,2.291,0,.2.2.6.1.9s-1,.6-1.293.793c-.6.4-1.195.7-1.792,1.1-.1.1-1,.5-.9.7a.3.3,0,0,0,.2.1c.2.1.3,0,.5.1.3,0,.7.1,1,.1a5.074,5.074,0,0,1,1.195.2h.4c.3,0,.6.1,1,.1a.651.651,0,0,1,.5.2,2.8,2.8,0,0,1,.3,1.293c.2.5.3,1.1.5,1.6l.3,1.195a.211.211,0,0,0,.2.2c.3,0,.5-.793.6-1,.2-.6.4-1.1.6-1.6.1-.3.3-.6.4-.9s.1-.5.3-.7c.3-.2.793,0,1.1,0h.5c.2,0,.5.1.793.1a4.162,4.162,0,0,1,1.1.1c.4,0,.793.1,1.293.1,0-.1.2-.1.1-.3,0-.1-.1-.2-.2-.3-.5-.5-1.1-.793-1.6-1.293l-1-1c-.3-.2-.6-.4-.6-.7-.1-.2.1-.5.2-.7a25.9,25.9,0,0,1,1.1-2.389c.1-.3.2-.5.3-.793.1-.1.1-.2,0-.2-.1-.4-.793.1-1,.2a4.14,4.14,0,0,0-.9.5,8.852,8.852,0,0,1-1.293.793c-.3.2-.793.6-1.1.5-.3,0-.6-.3-.793-.5-.5-.4-.9-.793-1.391-1.195a2.694,2.694,0,0,0-.6-.5c-.3-.3-.6-.6-.9-.6h0ZM47.191,87.72c-.3.1,0,.9,0,1.195l.3.9c0,.2.1.4.1.6.1.4.2.7.3,1.1a2.357,2.357,0,0,1,.2.793c-.1.3-.7.6-.9.7-.6.4-1.195.7-1.792,1.1a4.758,4.758,0,0,0-1,.5c-.1.1-.2.1-.3.2a.1.1,0,0,1-.1.1c0,.3.9.4,1.195.4a1.961,1.961,0,0,1,.7.1,6.2,6.2,0,0,1,1.293.1,1.713,1.713,0,0,1,.7.1c.3,0,.7-.1.9.1s.2.7.3,1l.6,2.389c.1.2.1.5.2.793l.2.2c.3,0,.5-.793.6-1,.2-.6.5-1.195.7-1.792a5.956,5.956,0,0,1,.7-1.391c.3-.2,1.195.1,1.6.1h.7c.1,0,.3.1.4.1h.793a.916.916,0,0,0,.5.1h.3c.2,0,.3.1.5.1a.1.1,0,0,0,.1-.1.305.305,0,0,0-.1-.4c-.6-.5-1.1-.9-1.694-1.391a4.384,4.384,0,0,0-.7-.6c-.2-.3-.9-.7-1-1.1a2.28,2.28,0,0,1,.3-.9,24.368,24.368,0,0,1,1.1-2.291l.3-.9a.37.37,0,0,0,.1-.3c-.2-.3-.6.1-.793.2-.1,0-.2.1-.3.2-.4.2-.7.4-1.1.6a8.852,8.852,0,0,1-1.293.793c-.3.2-.6.5-.9.5s-.9-.6-1.1-.9a10.8,10.8,0,0,0-1.1-.9,2.591,2.591,0,0,1-.793-.7c-.3-.2-.4-.4-.7-.4h0ZM32.452,86.525c-.1.1-.2.1-.2.3,0,.1.1.3.1.4.1.3.2.7.3,1s.1.7.2,1c.1.4.3.793.4,1.195,0,.2.2.5.1.793a2.422,2.422,0,0,1-.793.6c-.3.2-.5.4-.793.6a4.141,4.141,0,0,0-.9.5c-.2.1-.3.2-.5.3-.1.1-1,.4-.793.7a15.008,15.008,0,0,0,3.29.4c.3.1,1.1,0,1.293.2s.2.4.3.6c0,.2.1.5.1.7a19.509,19.509,0,0,0,.7,2.585c.1.1.2.4.3.4s.1,0,.2-.1c.2-.2.2-.6.4-.793a8.965,8.965,0,0,1,.5-1.5l.3-.9a1.844,1.844,0,0,1,.4-.793c.1,0,.1-.1.2-.1h.4a3.81,3.81,0,0,1,1.1.1c.6,0,1.195.1,1.89.1.3,0,.6.1.9.1h.4a.342.342,0,0,1,.1-.2c-.1-.3-.4-.4-.6-.6-.4-.4-.9-.7-1.293-1.1a5.219,5.219,0,0,1-.793-.7,2.591,2.591,0,0,1-.793-.7.37.37,0,0,1-.1-.3c.1-.2.1-.3.2-.4.1-.3.2-.5.3-.793.3-.6.5-1.195.793-1.792.1-.3.6-1.1.5-1.293-.2-.3-.9.3-1.1.4-.3.2-.7.4-1,.6a13.273,13.273,0,0,1-1.5,1c-.2.1-.5.4-.793.4-.3-.1-.5-.4-.7-.5-.1-.1-.2-.2-.3-.2a17.608,17.608,0,0,1-1.5-1.293l-1.195-.9h0Zm25.7-11.653v.1c-.2.1.1.9.1,1.1l.6,2.1v.3a6.541,6.541,0,0,1,.3,1.1,1.491,1.491,0,0,1-.6.5c-.6.4-1.195.7-1.792,1.1-.3.1-.5.3-.793.4-.1.1-.793.4-.793.6-.1.3.5.2.7.3h.3c.2,0,.5.1.7.1.7.1,1.391.1,2.1.2a2.209,2.209,0,0,1,.793.1c.3.2.3.6.3.9.1.4.2.7.3,1.1a4.494,4.494,0,0,1,.1.5c.1.3.2.7.3,1,.1.2.1.5.2.7a.211.211,0,0,0,.2.2c.3,0,.5-.793.6-.9a9.564,9.564,0,0,1,.3-1,3.052,3.052,0,0,0,.4-1c.2-.3.4-1,.7-1.195.2-.2.793,0,1.1,0,.4,0,.7.1,1.1.1a2.83,2.83,0,0,1,.9.1,3.463,3.463,0,0,1,1,.1h.6c.1,0,.2-.2.2-.2a1.227,1.227,0,0,0-.5-.5,4.385,4.385,0,0,0-.7-.6,2.575,2.575,0,0,0-.793-.7,9.192,9.192,0,0,0-1-.9c-.1-.2-.4-.3-.5-.6a1.431,1.431,0,0,1,.2-.6c0-.1.1-.3.1-.4a23.216,23.216,0,0,0,1-2.291c.1-.1.6-.9.3-1-.2-.1-.6.2-.7.3a1.914,1.914,0,0,0-.5.3,11.914,11.914,0,0,0-1.89,1.1c-.3.1-.6.4-.9.5h-.3a1.636,1.636,0,0,1-.5-.4,2.225,2.225,0,0,0-.5-.4,18.4,18.4,0,0,0-1.6-1.391c-.3-.2-.7-.7-1.1-.793h0ZM43.313,73.677a.636.636,0,0,0,0,.6c.2.9.5,1.89.7,2.889.1.2.1.4.2.6,0,.2.1.3.1.5-.1.3-.5.4-.7.6-.2.1-.4.3-.7.5-.2.1-.5.2-.7.3a2.133,2.133,0,0,1-.6.4c-.3.2-1.293.6-1.293.9a.282.282,0,0,0,.1.2h.3a1.712,1.712,0,0,0,.7.1,3.653,3.653,0,0,1,1.1.2h.9a1.935,1.935,0,0,1,.793.1,1.708,1.708,0,0,1,.793.1c.3.2.3.7.4,1l.3,1.5c.1.4.2.7.3,1.1.1.2.1.3.2.5a.323.323,0,0,0,.3.3l.2-.2a3.638,3.638,0,0,0,.4-1.1c.3-.6.5-1.293.793-1.988a1.844,1.844,0,0,1,.4-.793c.3-.3,1.5-.1,1.89,0h.793c.2,0,.5.1.7.1.5,0,.9.1,1.391.1,0-.1.2-.2.2-.2-.1-.3-.7-.7-1-1-.2-.2-.5-.3-.7-.5-.1-.1-.2-.3-.4-.4a4.385,4.385,0,0,0-.7-.6c-.2-.2-.7-.5-.793-.793a3.542,3.542,0,0,1,.3-1,1.688,1.688,0,0,0,.2-.5c.3-.7.6-1.391.9-1.988.1-.1.6-1.1.2-1.1-.4.1-.6.4-.9.5-.7.5-1.391.793-1.988,1.293a3.8,3.8,0,0,1-1.391.7,2.306,2.306,0,0,1-.9-.793,5.574,5.574,0,0,1-.9-.7,10.764,10.764,0,0,1-1.195-1,4.37,4.37,0,0,0-.7-.4ZM69.2,61.926c-.3.2.1,1,.1,1.195l.6,2.1a1.891,1.891,0,0,1,.2.793.667.667,0,0,1,.1.6c0,.1-.1.2-.2.3a1.63,1.63,0,0,1-.7.4A27.375,27.375,0,0,1,66.913,68.7c-.1.1-.6.3-.6.5-.1.2.793.3,1,.3.3,0,.6.1.9.1h.5a1.712,1.712,0,0,0,.7.1c.4,0,1.293,0,1.6.3.2.1.3,1,.4,1.293a1.862,1.862,0,0,0,.2.7,4.87,4.87,0,0,0,.3,1.195,1.853,1.853,0,0,0,.2.793c0,.1.1.3.2.3.3,0,.6-.793.6-1a4.96,4.96,0,0,0,.4-1.1c.1-.2.2-.5.3-.7.2-.4.3-.7.5-1.1,0-.1.1-.2.2-.3.3-.2.6,0,.9,0a13.666,13.666,0,0,1,1.988.2h.9c.3,0,.5.1.793.1l.1-.1c.1,0,.1-.1.2-.1-.1-.2-.4-.4-.6-.6-.5-.5-1.1-.9-1.694-1.391a2.4,2.4,0,0,1-.5-.5c-.3-.2-.7-.4-.7-.793-.1-.3.1-.5.2-.793.3-.9.793-1.694,1.1-2.585.1-.2.6-1,.2-1.1-.2-.1-.6.3-.793.4-.1.1-.2.1-.4.2l-1.195.9a2.315,2.315,0,0,0-.7.4c-.3.1-.793.5-1.195.4-.3,0-.5-.3-.7-.5-.5-.4-1-.793-1.391-1.1l-.3-.3a2.694,2.694,0,0,1-.6-.5,1.024,1.024,0,0,0-.7-.4h0ZM54.271,60.535c0,.1-.1.1-.1.2a2.978,2.978,0,0,0,.2.9c.2.9.5,1.792.7,2.693a3.182,3.182,0,0,1,.2.793c-.1.3-.6.5-.9.7a8.668,8.668,0,0,0-1.293.793,7.535,7.535,0,0,0-1.195.7c-.1.1-.5.2-.6.4-.1.4.9.4,1.1.4h.9a1.282,1.282,0,0,0,.6.1,2.83,2.83,0,0,0,.9.1c.3,0,1,0,1.195.2.3.2.3.6.4.9a10.714,10.714,0,0,0,.4,1.792,1.431,1.431,0,0,0,.2.6,1.853,1.853,0,0,0,.2.793c.1.1.1.2.2.2.2.1.5-.793.6-.9.2-.5.3-.9.5-1.391.1-.2.2-.5.3-.793a2.609,2.609,0,0,1,.4-.9.769.769,0,0,1,.4-.2,5.688,5.688,0,0,1,1.293,0,.37.37,0,0,0,.3.1c.5,0,.9.1,1.293.1h.9c.2,0,.5.1.7.1.3-.2.2-.3-.1-.5a10.763,10.763,0,0,0-1.195-1c-.5-.4-.9-.793-1.391-1.195-.2-.2-.7-.5-.7-.793-.1-.3.3-1,.4-1.195.3-.6.5-1.1.793-1.694a.769.769,0,0,1,.2-.4,5.018,5.018,0,0,1,.3-.793v-.2c-.2-.3-.9.3-1.1.4a17.627,17.627,0,0,1-1.792,1.1,2.133,2.133,0,0,1-.6.4c-.1.1-.3.1-.4.2a.615.615,0,0,1-.4.1c-.3,0-.7-.4-1-.6-.5-.5-1.1-1-1.694-1.5a4.184,4.184,0,0,0-1.1-.7h0Zm-14.738-1.89v.1c-.3.1,0,.9.1,1.1a2.978,2.978,0,0,0,.2.9,10.714,10.714,0,0,0,.4,1.792c0,.3.2.6.1.9s-.4.4-.6.5a5.6,5.6,0,0,1-.793.5c-.1.1-.3.2-.4.3a16.988,16.988,0,0,0-2.487,1.5c0,.1,0,.2.1.2a.37.37,0,0,0,.3.1c.2,0,.5.1.7.1a30.461,30.461,0,0,1,3.085.2c.3.1.6,0,.793.2a2.383,2.383,0,0,1,.4,1.195c.1.4.1.793.2,1.195s.2.9.3,1.293c.1.3.2,1.1.4,1.195.1,0,.2,0,.2-.1.1,0,.1-.1.1-.2.1-.3.3-.5.4-.793a14.31,14.31,0,0,1,.793-1.792.769.769,0,0,1,.2-.4c.1-.3.2-.5.3-.793.1-.2.1-.4.3-.5.2-.2,1.694,0,2.1,0a1.282,1.282,0,0,1,.6.1c.793,0,1.5.1,2.292.1.1,0,.2,0,.2-.2s-.3-.4-.5-.5a2.575,2.575,0,0,0-.793-.7,2.575,2.575,0,0,0-.793-.7,8.363,8.363,0,0,1-.9-.793c-.3-.2-.793-.5-.793-.793s.2-.5.3-.793c.2-.4.3-.793.5-1.195a1.914,1.914,0,0,1,.3-.5c.1-.4.3-.7.4-1.1a1.431,1.431,0,0,0,.2-.6c.1,0,.1-.1.1-.2-.2-.3-1,.3-1.1.4a7.605,7.605,0,0,0-1.5.9c-.4.2-.793.5-1.195.7a1.431,1.431,0,0,1-.6.2c-.3,0-.6-.3-.793-.5-.6-.5-1.195-.9-1.694-1.391-.3-.2-.5-.5-.793-.7-.2-.1-.3-.3-.6-.4h0Zm40.532-9.558v.1c-.1,0-.1.1-.1.3a.9.9,0,0,0,.1.5,1.431,1.431,0,0,0,.2.6,14.76,14.76,0,0,0,.5,1.988,2.271,2.271,0,0,1,.2,1.195c-.1.3-.6.6-.9.793l-.6.3c-.4.3-.9.5-1.391.793-.1.1-.9.6-.9.7,0,.3.793.3,1,.3a15.024,15.024,0,0,0,2.1.2,6.246,6.246,0,0,1,1.5.3c.3.206.3.9.4,1.195.1.5.2.9.3,1.293.1.3.2.6.3,1,0,.2.1.7.3.793.3.1.5-.7.6-.9.2-.6.5-1.1.7-1.694a4.077,4.077,0,0,1,.793-1.6c.2-.1.5,0,.7,0,.4,0,.793.1,1.195.1.3,0,.6.1,1,.1.3.1.6,0,.9.1.2,0,.793.1.9-.1.1,0,.1-.1,0-.2l-.3-.3c-.1-.1-.3-.2-.4-.4a3.447,3.447,0,0,0-1-.7,9.606,9.606,0,0,0-1-1c-.2-.2-.6-.4-.7-.793-.1-.2.1-.4.2-.6a3.661,3.661,0,0,1,.3-.7c.2-.5.4-.9.6-1.391.1-.2.7-1.391.6-1.6-.1-.4-.9.2-1.1.3-.5.3-.9.7-1.391,1a5.39,5.39,0,0,0-.793.4,2.253,2.253,0,0,1-1.1.5c-.3,0-.6-.4-.793-.6-.6-.5-1.293-1.1-1.988-1.6a2.153,2.153,0,0,0-.9-.7h0Zm-14.64-1.5c-.3.2,0,.9.1,1.195.2.6.3,1.293.5,1.89l.3.9c0,.2.1.4.1.6-.1.2-.3.3-.5.5-.4.3-.9.5-1.293.793-.3.2-.6.3-.9.5a5.6,5.6,0,0,1-.793.5c-.1.1-.3.2-.4.3v.1c-.1.2.793.2,1,.3a11.146,11.146,0,0,1,1.792.2h1.293c.1.1.4.1.5.2.3.2.3.7.4,1.1,0,.2.1.4.1.6a3.611,3.611,0,0,1,.2,1,1.688,1.688,0,0,1,.2.5c.1.3.1.7.3.9a.211.211,0,0,0,.2.2c.2.1.5-.793.6-1,.2-.6.4-1.1.6-1.694.2-.4.3-1.1.7-1.391.1-.1.2-.1.4-.1a4.543,4.543,0,0,1,1.1.1c.5.1,1,0,1.6.1.5,0,1.1.1,1.6.1a.211.211,0,0,0,.2-.2c-.1-.3-.5-.6-.793-.793-.6-.5-1.195-1-1.89-1.6-.2-.2-.7-.5-.793-.793a.194.194,0,0,1,0-.3,6.763,6.763,0,0,1,.5-1.293c.3-.7.7-1.391,1-2.1.1-.2.3-.6.2-.793-.1-.4-.9.3-1.1.4a2.544,2.544,0,0,1-.7.4c-.4.2-.7.5-1.1.7a8.814,8.814,0,0,1-1,.7c-.1,0-.3.1-.4.1-.4,0-.793-.4-1.1-.7-.4-.3-.793-.7-1.195-1a3.079,3.079,0,0,0-.7-.5c-.3-.3-.5-.6-.793-.6h0ZM50.187,45.6c0,.1-.1.1-.1.2a3.682,3.682,0,0,0,.2,1c0,.3.1.5.1.793a.916.916,0,0,1,.1.5,86880.97,86880.97,0,0,0,.2.607c0,.3.1.6.1.793a1.508,1.508,0,0,1,.1.9,3.038,3.038,0,0,1-.9.7c-.793.4-1.5.9-2.292,1.391-.2.1-1,.5-1,.7s.793.3,1,.3a4.926,4.926,0,0,0,1.195.1c.2,0,.5.1.7.1a4.926,4.926,0,0,1,1.195.1,1.068,1.068,0,0,1,.793.2,2.967,2.967,0,0,1,.4,1,6.311,6.311,0,0,0,.3,1.391,1.282,1.282,0,0,0,.1.6c0,.2.1.3.1.5a3.34,3.34,0,0,0,.3,1.1.282.282,0,0,0,.1.2c.2.1.4-.5.5-.6a.769.769,0,0,1,.2-.4c.2-.4.3-.9.5-1.293a1.914,1.914,0,0,1,.3-.5,1.067,1.067,0,0,1,.2-.5c0-.1.1-.2.2-.4s.2-.7.5-.9a2.894,2.894,0,0,1,1.293.1,11,11,0,0,1,1.792.1c.3,0,1.89.3,1.988.1.3-.2-.5-.793-.7-1-.7-.5-1.293-1.1-1.988-1.6l-.4-.4a1.18,1.18,0,0,1-.6-.6c-.1-.294.2-.9.3-1.1l.3-.6c.1-.2.2-.3.3-.5a.615.615,0,0,1,.1-.4.775.775,0,0,0,.2-.5.769.769,0,0,0,.2-.4,2.315,2.315,0,0,1,.4-.7v-.3c-.1-.3-.9.3-1.1.4-.4.2-.7.4-1.1.6a2.653,2.653,0,0,1-.5.3,6.853,6.853,0,0,1-1.195.7c-.2.1-.3.3-.6.2-.3,0-.7-.5-1-.7-.2-.2-.5-.4-.7-.6-.3-.2-.5-.5-.793-.7a2.694,2.694,0,0,1-.6-.5,1.812,1.812,0,0,0-.7-.5ZM92.315,35.348c-.1.1-.1.2-.2.3,0,.3.2.7.2,1.1a6.493,6.493,0,0,1,.2.7c0,.2.1.4.1.6.1.4.2.7.3,1.1a2.108,2.108,0,0,1,.1,1.1c-.1.3-.793.6-1.1.793-.7.4-1.5.9-2.194,1.293-.2.1-1,.5-.9.7s.6.2.793.2a4.494,4.494,0,0,1,.5.1h.6c.2,0,.3.1.4.1H92.4a1.713,1.713,0,0,0,.7.1c.2.1.5.1.6.2.2.2.2.5.3.793.2.7.3,1.5.5,2.291,0,.2.1.4.1.7.1.2.1,1.195.4,1.195a2.417,2.417,0,0,0,.6-1.1l.3-.6a3.31,3.31,0,0,1,.4-.9c.1-.3.3-.7.4-1.1.2-.2.3-.9.6-1,.2-.1.5,0,.7,0,.6,0,1.1.1,1.694.1a7.709,7.709,0,0,0,1.5.1c.2.1,1.195.2,1.293,0v-.2c-.1-.1-.2-.2-.3-.2l-.5-.5-2.1-1.792c-.2-.1-.793-.6-.793-.793-.1-.2.1-.7.2-.9a14.114,14.114,0,0,0,.793-1.89.768.768,0,0,0,.2-.4c.1-.2.1-.3.2-.5a.769.769,0,0,1,.2-.4c0-.1,0-.2-.1-.2-.1-.3-.793.2-1,.3-.3.2-.6.3-.9.5a4.37,4.37,0,0,1-.7.4,4.369,4.369,0,0,1-.7.4c-.3.2-.5.5-.9.4-.4,0-.9-.6-1.195-.9-.3-.2-.6-.5-1-.793a6.538,6.538,0,0,1-.9-.793c-.2-.2-.5-.4-.7-.6h0Zm-15.835-.9c-.3.1.1.9.2,1.195a1.282,1.282,0,0,0,.1.6c.1.5.3,1,.4,1.6.1.3.4.9.3,1.195-.1.4-1.5,1.1-1.89,1.293a8.851,8.851,0,0,1-1.293.793,4.266,4.266,0,0,0-.7.5c-.1.3.9.3,1.1.3a6.7,6.7,0,0,1,1.391.2h.4a1.935,1.935,0,0,1,.793.1,2.28,2.28,0,0,1,.9.1c.3.2.2.6.3.793a.77.77,0,0,1,.1.4c.2.6.2,1.1.4,1.694,0,.1.1.2.1.4a2.968,2.968,0,0,0,.3.9.211.211,0,0,0,.2.2c.2.1.5-.793.5-1,.2-.5.5-1.1.7-1.6a2.853,2.853,0,0,1,.4-1,.843.843,0,0,1,.3-.6c.2-.2.793,0,1.1,0a1.1,1.1,0,0,1,.5.1h1.195a13.666,13.666,0,0,0,1.988.2.211.211,0,0,0,.2-.2,17.892,17.892,0,0,0-1.988-1.694c-.3-.3-.6-.5-.9-.793-.2-.2-.7-.5-.7-.7-.1-.4.2-.793.3-1.1a.769.769,0,0,0,.2-.4l.3-.6c.1-.2.2-.5.3-.793.1-.2.2-.3.2-.4a6.832,6.832,0,0,0,.4-.7c0-.1.1-.2,0-.4-.1-.3-.9.3-1,.4-.4.2-.7.4-1.1.6-.4.3-.793.5-1.195.793-.3.1-.7.5-1,.4a.97.97,0,0,1-.7-.4c-.2-.1-.3-.3-.5-.5l-1.195-.9a2.694,2.694,0,0,1-.6-.5c-.2-.2-.5-.5-.793-.5h0Zm-15.639-1.5a.37.37,0,0,0-.1.3c0,.2.1.3.1.5a6.493,6.493,0,0,1,.2.7,8.818,8.818,0,0,0,.4,1.391c0,.2.1.4.1.6a2.8,2.8,0,0,1,.3,1.293c-.1.3-.6.4-.793.6-.7.5-1.5.9-2.292,1.391-.1.1-.3.2-.4.3a.53.53,0,0,0-.4.2v.2c.1.2.4.1.6.1.1,0,.2.1.4.1a2.46,2.46,0,0,1,.793.1h.5a8.941,8.941,0,0,1,1.694.2c.3,0,.6-.1.7.1.3.2.3.7.4,1a24.928,24.928,0,0,0,.7,2.889c.1.1.2.4.3.4a.2.2,0,0,0,.2-.2c.2-.2.2-.5.3-.7.2-.6.5-1.1.7-1.694.1-.4.3-1.391.793-1.6a.636.636,0,0,1,.6,0h.9c.4.1.793,0,1.195.1.3,0,1.89.2,2.1,0v-.2l-.3-.3c-.2-.1-.3-.2-.5-.3l-1.5-1.195a2.694,2.694,0,0,1-.5-.6c-.3-.2-.7-.4-.793-.7a3.543,3.543,0,0,1,.4-1.1c.1-.2.2-.5.3-.7.2-.4.3-.793.5-1.195a6.2,6.2,0,0,0,.5-1.195c0-.1.1-.2,0-.2-.1-.3-.9.3-1.1.4a17.627,17.627,0,0,1-1.792,1.1,3.607,3.607,0,0,1-1.5.793c-.2,0-.7-.5-.9-.7l-1.792-1.5c-.3-.2-.6-.6-1-.7ZM96.193,22.99a15.086,15.086,0,0,1,2.1.1h.7a4.926,4.926,0,0,0,1.195.1c.5.1,1.1.1,1.694.2h.5c.3.1,1.195.1,1.5.2,0,.1.1.2.1.3a9.526,9.526,0,0,1,.4,1.6,2.978,2.978,0,0,1,.2.9.53.53,0,0,1-.2.4,4.348,4.348,0,0,1-.9.6c-.6.4-1.195.793-1.89,1.195-.1.1-1,.5-.9.7a.1.1,0,0,0,.1.1c.3.1.7.1,1.1.2.6,0,1.293.1,1.988.1.4.1,1.293,0,1.6.3a.775.775,0,0,1,.2.5,5.1,5.1,0,0,1,.3,1.1,5.2,5.2,0,0,0,.4,1.195,1.862,1.862,0,0,0,.2.7c0,.2,0,.3.1.4,0,.3,0,.7.3.7a.211.211,0,0,0,.2-.2c.2-.4.3-.7.5-1.1.3-.7.6-1.391.793-1.988a2.368,2.368,0,0,1,.6-1.1h.5a7.708,7.708,0,0,1,1.5.1h.4a6.244,6.244,0,0,0,1.391.1c.2.1,1.1.2,1.195,0,.1-.1,0-.1,0-.2l-.3-.3c-.2-.1-.3-.3-.5-.4-.2-.2-.4-.3-.6-.5-.1,0-.1-.1-.2-.2-.4-.3-.7-.6-1-.793a6.052,6.052,0,0,1-.793-.793.514.514,0,0,1-.2-.4,1.755,1.755,0,0,1,.4-.9,2.542,2.542,0,0,1,.2-.7c.1,0,.1-.1.2-.1.2-.1.4,0,.6,0,.4.1.9.2,1.293.3.9.3,1.89.5,2.791.793.4.1.9.3,1.391.4a6.754,6.754,0,0,0,1.293.4,1.379,1.379,0,0,0,.3.2,2.694,2.694,0,0,1-.5.6c-.3.4-.7.7-1,1.1-.5.7-1,1.293-1.5,1.89-.6.6-1.1,1.195-1.6,1.792-.1.2-.3.3-.4.5-.2.3-.5.5-.7.793l-.7.7c-.3.4-.5.7-.793,1.1-.1.1-.2.1-.2.2l-.4.4c-.4.5-.793.9-1.1,1.293a2.694,2.694,0,0,0-.5.6c-.2.2-.4.5-.6.7a2.694,2.694,0,0,0-.5.6c-.1.1-.2.3-.3.4-.793.9-1.6,1.792-2.291,2.693-1.6,1.694-3.085,3.486-4.583,5.278-.5.6-1.1,1.293-1.694,1.988l-.4.4a4.385,4.385,0,0,0-.6.7c-.2.2-.4.5-.6.7a2.694,2.694,0,0,0-.5.6l-.5.5c-.1.2-.3.4-.4.6l-.3.3c-1.6,1.792-3.085,3.682-4.779,5.474a7.077,7.077,0,0,1-.793,1c-.1.2-.3.3-.5.5-.5.7-1.1,1.391-1.694,2.1l-.4.4c-.1.1-.2.1-.3.2-.1.2-.2.3-.3.5-.2.2-.4.5-.6.7a1.461,1.461,0,0,0-.3.4c-.4.5-.9,1-1.293,1.5A16.006,16.006,0,0,0,84,67.831c-.3.4-.7.7-1,1.1a2.694,2.694,0,0,1-.5.6,4.637,4.637,0,0,1-.7.793,11.833,11.833,0,0,1-1.1,1.293c-.2.2-.3.5-.5.7l-.3.3a1.8,1.8,0,0,0-.4.5l-.3.3a1.261,1.261,0,0,1-.3.4l-.793.793c-.1.1-.2.3-.3.4-.7.793-1.293,1.6-1.988,2.389a4.655,4.655,0,0,0-.7.7,5.572,5.572,0,0,0-.6.793c-.2.2-.4.3-.5.5-.1.1-.2.2-.2.3l-.6.6c-.1.1-.2.3-.3.4l-.3.3a1.02,1.02,0,0,0-.4.5,5.891,5.891,0,0,1-.4.5l-.4.4c-.3.3-.5.7-.793,1-.4.4-.7.793-1,1.1-.3.4-.6.7-.9,1.1-.9,1-1.694,1.988-2.585,3.085-1.293,1.391-2.487,2.889-3.78,4.279a2.694,2.694,0,0,1-.5.6,10.764,10.764,0,0,0-1,1.195c-.9,1-1.694,1.89-2.487,2.889l-.3.3c-.1.2-.3.3-.4.5a4.385,4.385,0,0,0-.6.7l-.4.4a5.891,5.891,0,0,1-.4.5c-.9,1.1-1.792,2.194-2.791,3.29-.5.5-.9,1.1-1.391,1.6a15.114,15.114,0,0,0-1.1,1.293c-.5.6-1.1,1.195-1.694,1.89L48.1,109.6l-.5.5a3.985,3.985,0,0,1-.6.7l-.3.3a1.261,1.261,0,0,1-.3.4l-1.5,1.792c-.5.5-.9,1-1.391,1.5a2.591,2.591,0,0,1-.7.793,3.967,3.967,0,0,1-.793,1c-.2.2-.3.4-.5.6a2.694,2.694,0,0,0-.5.6c-1.391,1.5-2.585,3.085-3.986,4.583-1.293,1.5-2.585,2.987-3.78,4.485-.2.2-1.195,1.5-1.391,1.5-.3,0-.6-.9-.7-1l-.3-.6-.3-.6a9.321,9.321,0,0,1-.7-1.5,4.548,4.548,0,0,1-.6-1.195.39.39,0,0,1,.1-.3.766.766,0,0,1,.4-.4c.1,0,.3.1.4.1h.9c.9.1,1.694.2,2.585.3.2,0,.7.1.793,0,.3-.3-.5-.793-.6-1-.3-.2-.6-.5-.9-.7l-.5-.5a6.538,6.538,0,0,1-.9-.793c-.1-.1-.4-.3-.4-.5-.1-.4.3-.9.4-1.195,0-.1.1-.3.1-.4a.514.514,0,0,0,.2-.4c.1-.1.1-.3.2-.4l.3-.6c.1-.3.2-.5.3-.793.1-.2.3-.5.2-.793l-.1-.1a2.8,2.8,0,0,0-.6.3.769.769,0,0,0-.4.2,9.514,9.514,0,0,0-1.391.793c-.3.2-.6.3-.9.5a3.264,3.264,0,0,1-1,.6c-.4,0-1-.7-1.195-.9-.3-.3-.6-.5-.793-.7a2.383,2.383,0,0,1-.4-1.195,1.067,1.067,0,0,1-.2-.5c-.1-.2-.1-.5-.2-.7a19.668,19.668,0,0,1-.5-1.988,5.891,5.891,0,0,0-.2-.7c0-.2-.1-.3-.1-.4a1.836,1.836,0,0,1,.3-.9,1.431,1.431,0,0,0,.2-.6c.1-.2.2-.5.3-.7.1-.1.2-.3.3-.4a4,4,0,0,1,1.5.1,10.417,10.417,0,0,1,1.694.1c.4,0,.793.1,1.195.1h.4l.1-.1a.969.969,0,0,0-.4-.5c-.3-.3-.7-.6-1-.9a17.608,17.608,0,0,1-1.5-1.293c-.2-.1-.6-.4-.6-.7-.1-.2.1-.5.2-.7.1-.4.3-.7.4-1.1a2.653,2.653,0,0,0,.3-.5,6.3,6.3,0,0,0,.3-.7c0-.1.1-.2.2-.3a3.78,3.78,0,0,0,.3-1c0-.1,0-.2-.1-.2-.2-.1-1.1.6-1.391.7-.5.3-1,.7-1.5,1-.3.1-1.1.7-1.391.7s-.6-.4-.793-.6a.678.678,0,0,1-.4-.5.916.916,0,0,1-.1-.5c0-.4-.1-.793-.1-1.195-.1-1.293-.2-2.585-.2-3.986v-1.89a.3.3,0,0,1,.1-.2,7.128,7.128,0,0,1,1.391.1,5.712,5.712,0,0,1,1.293.1c.5,0,1,.1,1.5.1.1-.1.2-.1.2-.3s-.4-.5-.6-.6c-.2-.2-.5-.4-.7-.6-.5-.4-.9-.793-1.391-1.195a5.219,5.219,0,0,1-.793-.7c-.1-.1-.2-.2-.2-.3,0-.3.2-.5.3-.793a.39.39,0,0,1,.1-.3c0-.1.1-.3.1-.4a3.639,3.639,0,0,0,.4-.9l.6-1.195a1.92,1.92,0,0,0,.3-.793c0-.1-.2-.1-.3-.1-.2.1-.3.2-.5.3-.1.1-.3.1-.5.2s-.4.3-.6.4h-.2c-.2-.2.1-1.391.1-1.694a7.856,7.856,0,0,0,.2-1.5c.2-.9.3-1.694.5-2.585,0-.2.1-.4.1-.6a1.084,1.084,0,0,1,.2-.6.1.1,0,0,1,.1-.1,1.442,1.442,0,0,1,.9.1h1c.7.1,1.391.1,2.1.2a1.832,1.832,0,0,1,1,.2c.1,0,.1.1.2.2a4.635,4.635,0,0,1,.3,1.195,16.081,16.081,0,0,0,.5,2.194.769.769,0,0,0,.2.4c.1.2.1.5.3.5s.3-.1.3-.2a.514.514,0,0,0,.2-.4.775.775,0,0,0,.2-.5c.1-.1.1-.2.2-.4a5.074,5.074,0,0,0,.5-1.293,2.024,2.024,0,0,0,.4-.793c.1-.2.2-.5.4-.6.2-.2.6-.1.793-.1.6,0,1.1.1,1.6.1a1.988,1.988,0,0,0,.7.1c.6,0,1.195.1,1.792.1.1,0,.3,0,.3-.2,0-.1-.2-.3-.2-.4a5.063,5.063,0,0,1-.793-.6c-.7-.6-1.391-1.1-2.1-1.694-.2-.2-.7-.5-.7-.793a.39.39,0,0,1,.1-.3,4.936,4.936,0,0,1,.5-1.293c.1-.2.1-.3.2-.5a5.933,5.933,0,0,0,.4-.793c0-.1.1-.3.1-.4.1-.2.3-.5.2-.7-.1-.1-.2-.3-.4-.3s-.4.2-.6.3l-1.5.9-.3.3c-.2.1-.5.2-.7.3a.918.918,0,0,1-.7.3c-.294,0-.5-.3-.7-.5-.9-.793-1.792-1.5-2.791-2.291,0-.1-.1-.1-.2-.1-.4,0-.1.9,0,1.1a2.978,2.978,0,0,0,.2.9c.1.6.2,1.1.3,1.6a4.309,4.309,0,0,1,.2,1.1c-.1.3-1.195.9-1.5,1a17.628,17.628,0,0,1-1.792,1.1,1.914,1.914,0,0,0-.5.3,1.261,1.261,0,0,0-.4.3.282.282,0,0,1-.2-.1,31.86,31.86,0,0,1,.793-3.29,4.176,4.176,0,0,1,.3-1.1,6.594,6.594,0,0,1,.4-1.391c.6-1.89,1.195-3.682,1.89-5.474.3-.6.6-1.293.9-1.89.1-.2.1-.6.4-.793.1-.1.3,0,.5,0a7.708,7.708,0,0,1,1.5.1h.5c.5,0,1.1.1,1.694.1.1-.2.1-.3-.1-.4a5.944,5.944,0,0,0-.9-.793c-.3-.3-.7-.6-1-.9a7.819,7.819,0,0,1-.9-.9c0-.2.2-.4.2-.6.3-.5.5-1,.793-1.5l.9-1.5a1.941,1.941,0,0,1,.4-.6,9.468,9.468,0,0,1,.5-1c.5-.7.9-1.5,1.391-2.194.3-.5.6-.9.9-1.391.2-.2.3-.4.4-.5a.282.282,0,0,1,.2-.1c.1,0,.2.2.2.3a3.611,3.611,0,0,1,.2,1c.1.4.2.793.3,1.1.1.4.1.793.2,1.1.1.1.2.2.3.2,0-.1.1-.1.1-.2.2-.3.3-.7.5-1,.2-.6.5-1.195.7-1.694a3.661,3.661,0,0,1,.3-.7c.1-.3.2-.7.5-.793a1.187,1.187,0,0,1,1,0c.793,0,1.6.1,2.389.1.4,0,.793.1,1.293.1a.342.342,0,0,0,.1-.2,3.435,3.435,0,0,0-.6-.6l-.3-.3c-.2-.1-.3-.3-.5-.4-.4-.4-.9-.793-1.293-1.195-.2-.2-.6-.4-.7-.7-.1-.2,0-.4,0-.5a3.311,3.311,0,0,1,.4-.9c.1-.2.1-.3.2-.5a1.687,1.687,0,0,1,.2-.5c.1-.2.2-.5.3-.793a2.653,2.653,0,0,0,.3-.5,6.538,6.538,0,0,1,.793-.9l.9-.9c.793-.7,1.5-1.391,2.291-2.194.2-.1,1.195-1.1,1.391-1a.1.1,0,0,1,.1.1c.1.2.1.5.2.7,0,.2.1.5.1.7.1.1.1.3.2.5a2.978,2.978,0,0,0,.2.9.211.211,0,0,0,.2.2c.2-.1.3-.5.4-.7.4-.793.7-1.694,1.1-2.487.1-.3.2-.5.3-.793,0-.1.1-.2.2-.3,0-.1.1-.1.2-.2h.5a2.235,2.235,0,0,0,.793.1c.7.1,1.6.1,2.292.2a4.1,4.1,0,0,0,1.1,0c.2-.1.1-.2,0-.3-.2-.3-.6-.5-.9-.793l-.6-.6a10.764,10.764,0,0,0-1.195-1c-.1-.2-.1-.3,0-.4a1.02,1.02,0,0,1,.5-.4,1.941,1.941,0,0,0,.6-.4c1.1-.7,2.1-1.293,3.183-1.988A37.642,37.642,0,0,1,62.164,30.7c.7-.3,1.391-.7,2.194-1a3.753,3.753,0,0,1,1.1-.5,9.468,9.468,0,0,1,1-.5,3.311,3.311,0,0,0,.9-.4c.6-.2,1.1-.4,1.694-.6a3.262,3.262,0,0,1,.9-.3,2.781,2.781,0,0,1,.9,0,4.162,4.162,0,0,1,1.1.1,4.543,4.543,0,0,1,1.1.1,3.463,3.463,0,0,1,1,.1l.3.3c.1.4.2.793.3,1.293l.3,1.5c0,.3.1.5.1.793.1.2.2,1.1.5,1.1,0,.1.1,0,.1,0,.1-.1.1-.3.2-.4a6.3,6.3,0,0,0,.3-.7c.1-.2.1-.3.2-.5a.37.37,0,0,0,.1-.3,5.445,5.445,0,0,0,.5-1.1c.1-.3.3-.6.4-.9.1-.2.2-.6.4-.7.2-.2.5-.1.793-.1.5,0,.9.1,1.391.1s.9.1,1.391.1a7.708,7.708,0,0,0,1.5.1c.1,0,.2,0,.2-.1.1-.2-.6-.793-.793-.9s-.4-.3-.6-.4a6.966,6.966,0,0,0-1.293-1.1l-.6-.6-.3-.3a.1.1,0,0,1-.1-.1c0-.1,0-.2.1-.2.1-.1.4-.1.5-.1a1.282,1.282,0,0,1,.6-.1.282.282,0,0,1,.2-.1c.2,0,.4-.1.6-.1.1,0,.2-.1.3-.1h.5c.1-.1.2-.1.4-.1h.2a.764.764,0,0,1,.5-.1h.1c.1,0,.1-.1.2-.1h.4a.342.342,0,0,0,.2-.1h.6l.1-.1h.5a.282.282,0,0,0,.2-.1h.7a.1.1,0,0,0,.1-.1h.7a.1.1,0,0,0,.1-.1h.9c0-.1.2,0,.2,0a.305.305,0,0,1,.4.1,1.891,1.891,0,0,1,.2.793,6.491,6.491,0,0,1,.2.7c0,.1.1.2.1.3a.307.307,0,0,1-.1.2,4.088,4.088,0,0,1-1.1.793c-.5.3-.9.5-1.391.793a2.652,2.652,0,0,1-.5.3c-.2.1-1,.5-1,.793,0,.2,1,.2,1.195.2a5.876,5.876,0,0,1,1.391.2,3.81,3.81,0,0,1,1.1.1c.4,0,.9-.1,1.195.1a5.909,5.909,0,0,1,.4,1.391,15.881,15.881,0,0,1,.5,2.1c.1.2.2,1.1.5,1.1.1,0,.2-.1.3-.2a1.067,1.067,0,0,1,.2-.5.769.769,0,0,1,.2-.4c0-.2.1-.3.1-.5.1-.1.2-.2.2-.3.1-.2.1-.3.2-.5l.3-.6c.1-.3.4-1.1.7-1.195a1.408,1.408,0,0,1,.9,0,6.6,6.6,0,0,1,1.391.1h.4c.4,0,.7.1,1.1.1.2,0,1.195.2,1.293-.1,0-.2-1.195-1.1-1.5-1.293a4.384,4.384,0,0,0-.7-.6c-.1-.2-.3-.3-.4-.4a2.694,2.694,0,0,1-.6-.5c-.2-.2-.5-.4-.5-.7a2.609,2.609,0,0,1,.4-.9,3.661,3.661,0,0,1,.3-.7c0-.1.1-.2.1-.3a1.309,1.309,0,0,1,.5-.793Z" transform="translate(-0.44 -0.476)" fill="#003d6e"/>
        <path id="Path_5" data-name="Path 5" d="M120.59,27.97c.1.1.3.1.3.3-.1.1-.2.3-.3.4a3.778,3.778,0,0,0-.5.793,13.273,13.273,0,0,0-1,1.5,16.413,16.413,0,0,0-1,1.792,3.777,3.777,0,0,0-.5.793,1.431,1.431,0,0,0-.2.6,1.941,1.941,0,0,1-.4.6c-.1.3-.1.6-.2.9l-.3.6a4.494,4.494,0,0,1-.1.5A34.581,34.581,0,0,0,114.8,47.1a26.643,26.643,0,0,0,.3,4.181,14.68,14.68,0,0,0,.4,2.292c.1.6.2,1.1.3,1.6.2.7.3,1.5.5,2.194.1.3.2.7.3,1.1l.9,2.987c.4,1.1.7,2.194,1,3.29.2.6.4,1.195.6,1.89.5,1.391.9,2.791,1.391,4.181.3,1,.5,2.1.793,3.085.4,1.694.793,3.486,1.1,5.18.2,1.293.5,2.585.6,3.986a25.2,25.2,0,0,1,.2,4.779,24.813,24.813,0,0,1-.793,6.179c-.2.6-.3,1.195-.5,1.792A32.476,32.476,0,0,1,120.5,99a2.545,2.545,0,0,0-.4.7,1.461,1.461,0,0,0-.3.4,11.081,11.081,0,0,0-.6,1.1,14.245,14.245,0,0,1-1,1.6l-.3.3a3.985,3.985,0,0,1-.6.7c-.9,1-1.792,2.1-2.693,3.085-1.1,1.195-2.1,2.487-3.085,3.682a9.192,9.192,0,0,1-.9,1,6.966,6.966,0,0,0-1.1,1.293c-.4.5-.9,1-1.293,1.5a16.5,16.5,0,0,1-2.194,2.389c0-.3.3-.6.4-.9.2-.3.3-.5.5-.793.1-.2.2-.5.3-.7l.3-.9a6.3,6.3,0,0,0,.3-.7c.1-.2.2-.5.3-.793.1-.2.2-.3.3-.5a8.5,8.5,0,0,0,.4-1.5c.1-.3.2-.7.3-1.1.1-.6.2-1.195.3-1.694.1-.793.2-1.6.3-2.291a7.177,7.177,0,0,0,.1-1.391v-1.391a12.226,12.226,0,0,0-.1-1.89v-.9a1.5,1.5,0,0,1-.1-.7c0-.294-.1-.6-.1-.9a37.861,37.861,0,0,0-1.195-5.876c-.2-.9-.4-1.694-.6-2.585-.2-.793-.4-1.5-.6-2.291-.1-.5-.3-.9-.4-1.391-.4-1.1-.7-2.291-1.1-3.388-.1-.5-.3-.9-.4-1.391a18.526,18.526,0,0,1-.793-2.585,8.2,8.2,0,0,1-.5-1.391,5.2,5.2,0,0,0-.4-1.195l-.3-1.195c-.1-.1-.1-.2-.2-.4,0-.1-.1-.2-.1-.3-.1-.2-.1-.4-.2-.6-.2-.7-.3-1.293-.5-1.988-.3-1.293-.6-2.585-.793-3.888a31.473,31.473,0,0,1-.3-6.179c.1-.3,0-.7.1-1a8.941,8.941,0,0,1,.2-1.694,5.3,5.3,0,0,1,.1-1.293c.1-.6.2-1.1.3-1.6v-.5c.1-.1.1-.2.2-.3,0-.1.1-.2.1-.3l.6-2.1a19,19,0,0,1,1.195-2.987c.4-.793.793-1.694,1.195-2.487.793-1.195,1.694-2.487,2.585-3.682.3-.4.7-.9,1-1.391.6-.6,1.195-1.293,1.792-1.89a10.764,10.764,0,0,1,1-1.195,17.608,17.608,0,0,1,1.293-1.5c.9-1.1,1.792-2.194,2.791-3.29a.211.211,0,0,1,.2-.2c.1-.1.1-.2.2-.2.2-.2.2-.4.4-.5.6-.793,1.293-1.5,1.89-2.292.5-.6.9-1.1,1.391-1.6a10.8,10.8,0,0,1,.9-1.1m7.766,3.584a1.486,1.486,0,0,1,.7.4,18.8,18.8,0,0,1,1.89,1.1,54.941,54.941,0,0,1,6.375,4.181c.9.6,1.694,1.293,2.487,1.89.793.7,1.694,1.391,2.487,2.194a41.053,41.053,0,0,1,3.085,2.889c.793.793,1.5,1.6,2.292,2.389.2.2.4.5.6.7l.3.3c.1.3.2.9.3,1.195.1,1,.3,1.988.4,2.889a5.8,5.8,0,0,1,.1,1.293,28.612,28.612,0,0,1-1.5,13.142,15.283,15.283,0,0,1-1.1,2.194,5.955,5.955,0,0,1-.7,1.391c-.4.6-.7,1.1-1.1,1.694-.1.2-.3.4-.4.6a14.017,14.017,0,0,0-1.1,1.293c-.9,1-1.694,1.89-2.487,2.889a15.115,15.115,0,0,0-1.1,1.293,12.155,12.155,0,0,1-1.1,1.195,5.062,5.062,0,0,1-.6.793c-.7.793-1.293,1.6-1.988,2.291-.3.4-.6.7-.9,1.1-.6.7-1.195,1.391-1.792,1.988-.1.2-.3.4-.4.6l-.4.4h-.1c0-.2.2-.4.3-.6l.3-.6a1.941,1.941,0,0,1,.4-.6c.1-.2.1-.4.2-.6s.2-.3.3-.5a6.187,6.187,0,0,0,.6-1.195,23.808,23.808,0,0,0,1-3.78,20.737,20.737,0,0,0,.5-2.389c.1-.793.1-1.5.2-2.291V70.705a36.762,36.762,0,0,0-1.1-8.265c-.5-2.487-1.1-5.082-1.792-7.472-.793-2.487-1.6-5.082-2.292-7.57a24.363,24.363,0,0,1-.793-2.585,30.593,30.593,0,0,1-.793-2.987,37.567,37.567,0,0,1-.793-3.682c-.1-.6-.2-1.1-.3-1.694-.1-.4-.1-.7-.2-1.1v-.3c0-.5-.1-1-.1-1.5v-.4a6.585,6.585,0,0,1,0-1.391.342.342,0,0,0,.1-.2m28.781,28.477c.1,0,.2,0,.2.1a2.652,2.652,0,0,1,.3.5,4.96,4.96,0,0,1,.4.793,10.075,10.075,0,0,1,.793,1.5c.2.3.3.5.5.793a1.431,1.431,0,0,1,.2.6c.1.2,0,.5,0,.7a1.713,1.713,0,0,1-.1.7v.9c0,.6-.1,1.293-.1,1.988a43.613,43.613,0,0,0,.793,7.374c.6,2.585,1.391,5.082,2.1,7.57.6,1.6,1.1,3.183,1.6,4.779a65.962,65.962,0,0,1,1.988,6.375.39.39,0,0,0,.1.3,1.431,1.431,0,0,0,.2.6,1.853,1.853,0,0,0,.2.793v1a3.463,3.463,0,0,0-.1,1c0,.793-.1,1.694-.1,2.487-.1.4-.1.793-.2,1.195a3.463,3.463,0,0,1-.1,1c-.1.9-.2,1.694-.3,2.585a7.854,7.854,0,0,0-.2,1.5c-.1.4-.2.9-.3,1.391-.1.6-.3,1.195-.4,1.792-.1.4-.2.793-.3,1.1l-.6,2.389c-.1.4-.2.7-.3,1.1-.3.9-.6,1.89-.9,2.791a19.711,19.711,0,0,1-.793,2.194,60.394,60.394,0,0,1-3.183,7.266c-.4.793-.793,1.5-1.1,2.194l-.9,1.5c-.9,1.6-1.89,3.085-2.987,4.681a15.5,15.5,0,0,1-1.1,1.6s-.2.1-.2,0c-.1-.1.3-.9.4-1a21.727,21.727,0,0,0,1.1-3.584c.2-.9.3-1.792.5-2.791,0-.5.1-1.1.1-1.6v-1.195c0-.1.1-.3.1-.4a8.74,8.74,0,0,0-.1-1.6v-1.6c-.1-1.694-.4-3.29-.6-4.877-.1-.6-.3-1.1-.4-1.694-.2-.793-.4-1.694-.6-2.487l-.3-1.195c-.2-1-.5-1.988-.793-3.085-.793-2.693-1.792-5.376-2.585-8.167-.1-.1-.1-.4-.2-.6,0-.1-.1-.2-.1-.3s-.1-.2-.1-.3a1.431,1.431,0,0,1-.2-.6,3.9,3.9,0,0,1-.3-1.1c-.1-.2-.1-.3-.2-.5a6.306,6.306,0,0,1-.3-.7c-.1-.5-.3-1-.4-1.6l-.6-2.1a16.652,16.652,0,0,0-.5-2.1A5.074,5.074,0,0,0,146,90.8c-.1-1.1-.3-2.1-.3-3.183a25.575,25.575,0,0,1,0-5.474,1.282,1.282,0,0,0,.1-.6c0-.5.1-1,.1-1.5a20.738,20.738,0,0,1,.5-2.389c.1-.5.3-1,.4-1.5.2-.6.4-1.293.6-1.89.2-.5.4-1,.6-1.6a4.141,4.141,0,0,0,.5-.9c.2-.5.4-.9.6-1.293.3-.4.5-.9.793-1.293.4-.7.9-1.293,1.293-1.988l.6-.9c.4-.6.9-1.1,1.391-1.694.7-.793,1.391-1.694,2.194-2.487.4-.5.793-1,1.293-1.6a2.4,2.4,0,0,1,.5-.5m-64.534.5c.2.2-.4.9-.5,1-.6,1.1-1.195,2.291-1.792,3.388a21.163,21.163,0,0,0-1.195,3.29,26.289,26.289,0,0,0-.793,3.085,21.909,21.909,0,0,0-.4,2.487c0,.5-.1,1-.1,1.5a14.2,14.2,0,0,0-.1,1.988,13.471,13.471,0,0,0,0,1.988,15.614,15.614,0,0,0,.3,3.085,37.861,37.861,0,0,0,1.195,5.876c.1.5.3,1.1.4,1.694a1.431,1.431,0,0,1,.2.6c.1.4.3.793.4,1.195a27.753,27.753,0,0,0,1,3.085,4.453,4.453,0,0,0,.2,1c.4,1.1.793,2.389,1.195,3.486.1.5.3,1,.4,1.391.3.9.6,1.89.9,2.791.4,1.391.7,2.791,1,4.181.2,1,.5,1.988.6,2.987.1.6.3,1.293.4,1.988,0,.3.1.6.1.9a19.649,19.649,0,0,1,.2,2.389,37.948,37.948,0,0,1-.1,5.778c-.1.3-.1.6-.2.9a5.468,5.468,0,0,1-.3,1.792,13.631,13.631,0,0,1-.7,2.693,24.453,24.453,0,0,1-2.487,5.082c-.2.4-.4.793-.7,1.293a5.219,5.219,0,0,1-.7.793c-.6.6-1.195,1.293-1.694,1.89a6.663,6.663,0,0,1-1.1,1.293,25.267,25.267,0,0,1-2.194,2.585l-2.1,2.389a10.8,10.8,0,0,1-.9,1.1c-.3.3-.6.7-.9,1-.2.3-.5.6-.7.9-.4.4-.7.793-1.1,1.195-.1.2-.3.4-.4.6l-.5.5c-.1.1-.2.3-.3.4h-.2c.2-.6.6-1.1.793-1.6.4-.7.7-1.293,1.1-2.1.1-.2.2-.5.3-.793A23.539,23.539,0,0,0,82.359,139c.2-1,.3-2.1.4-3.085v-1.89c0-.7-.1-1.5-.1-2.194-.1-1.391-.2-2.791-.4-4.182a9.526,9.526,0,0,1-.4-1.6c-.1-.7-.2-1.293-.3-1.988l-.3-1.195c-.1-.3-.1-.7-.2-1.1-.2-.6-.3-1.1-.5-1.694a12.246,12.246,0,0,0-.5-1.792c-.2-1-.6-1.988-.9-2.987a7.657,7.657,0,0,1-.4-1.391l-.6-1.792a.615.615,0,0,0-.1-.4c-.3-.9-.5-1.694-.7-2.487-.3-.9-.6-1.89-.9-2.889l-.3-.9c-.4-1.5-.793-2.987-1.1-4.485a29.561,29.561,0,0,1-.7-4.181,28.473,28.473,0,0,1-.1-2.889,25.87,25.87,0,0,1,.2-3.986c0-.5.1-.9.1-1.391a28.636,28.636,0,0,1,1.293-5.18c.2-.7.5-1.293.7-1.89.2-.5.5-1,.7-1.6.2-.3.4-.7.6-1,.2-.4.5-.9.7-1.293a26.507,26.507,0,0,1,2.389-3.388c.4-.6.9-1.1,1.391-1.694.6-.7,1.293-1.5,1.988-2.291.3-.4.6-.7.9-1.1.9-1.1,1.89-2.194,2.791-3.29A33.313,33.313,0,0,0,90.487,62.9a20.834,20.834,0,0,0,1.391-1.6c.2-.2.4-.5.7-.793m46.408,20.614c.1.1-.5.9-.6,1.1-.793,1.1-1.293,2.291-1.988,3.388a3.312,3.312,0,0,1-.4.9c-.3.7-.6,1.391-.9,2.194a47.633,47.633,0,0,0-1.391,5.474c-.1.5-.1,1.1-.2,1.694a3.463,3.463,0,0,1-.1,1c-.1,1-.1,1.988-.1,2.987a38.9,38.9,0,0,0,.4,4.975c.1.6.2,1.1.3,1.694a5.908,5.908,0,0,1,.4,1.391c0,.2.1.4.1.7.7,2.693,1.6,5.376,2.389,7.971.4,1.1.7,2.1,1,3.085.5,1.391,1,2.889,1.5,4.279.3,1.293.7,2.585,1,3.888.4,1.6.793,3.183,1.1,4.877.1.3.1.7.2,1.1a41.164,41.164,0,0,1,.5,7.971,9.852,9.852,0,0,1-.2,2.389v.6c-.3,1.195-.5,2.389-.793,3.584a3.881,3.881,0,0,1-.4,1,1.227,1.227,0,0,1-.5.5,3.986,3.986,0,0,0-.7.6l-.9.6c-.793.6-1.5,1.195-2.389,1.792-1,.7-1.89,1.391-2.889,1.988-1.195.7-2.291,1.5-3.486,2.1l-.6.3a.514.514,0,0,1-.4.2.282.282,0,0,1-.2-.1v-.5a3.463,3.463,0,0,1,.1-1,2.235,2.235,0,0,1-.1-.793c0-.9-.1-1.694-.1-2.585-.1-.7-.2-1.293-.3-1.988-.2-.9-.3-1.792-.5-2.693-.2-.793-.4-1.6-.5-2.291-.2-.9-.5-1.694-.7-2.487,0-.3-.1-.5-.1-.7l-.6-2.1c-.6-1.694-1.1-3.29-1.6-4.975-.3-.7-.5-1.391-.793-2.194-.1-.3-.2-.7-.3-1.1a34.3,34.3,0,0,1-1.1-3.388c-.1-.3-.2-.7-.3-1.1a34.6,34.6,0,0,1-1.391-5.572c-.2-.793-.3-1.694-.5-2.585a27.526,27.526,0,0,1-.1-2.889c0-.3-.1-.6-.1-1V114.2a.37.37,0,0,0,.1-.3v-.793c.1-.4.1-.9.2-1.391a11.147,11.147,0,0,1,.2-1.792,18.324,18.324,0,0,1,.7-3.183c.2-.7.4-1.5.6-2.194a25.885,25.885,0,0,1,2.291-4.779c.793-1.195,1.6-2.389,2.487-3.584a2.545,2.545,0,0,0,.4-.7,15.954,15.954,0,0,1,1.195-1.391c.4-.5.793-.9,1.1-1.293.5-.6,1-1.1,1.5-1.694.793-1,1.694-2.1,2.585-3.085.6-.6,1-1.195,1.6-1.792.5-.7,1.1-1.293,1.6-1.988.1-.1.2-.3.3-.4.6-.6,1.1-1.293,1.6-1.89.2-.1.3-.3.5-.5l.3-.3m-72.7,9.861c.2.1-.4,1-.5,1.195l-1.5,2.389c-.2.4-.4.9-.6,1.293-.1.1-.1.2-.1.4a.775.775,0,0,0-.2.5,16.077,16.077,0,0,0-.793,2.1c-.2.793-.4,1.5-.6,2.291-.1.1-.1.3-.2.4a1.713,1.713,0,0,1-.1.7,12.615,12.615,0,0,0-.3,2.693,1.282,1.282,0,0,0-.1.6,3.144,3.144,0,0,0-.1,1,37.33,37.33,0,0,0,0,4.681,29.452,29.452,0,0,0,1,6.071c.4,1.792.793,3.388,1.293,5.082.5,1.792,1.1,3.486,1.6,5.18.4,1.195.793,2.389,1.1,3.486l.9,2.693c.1.6.3,1.195.4,1.89a29.927,29.927,0,0,1,.793,3.29,6.594,6.594,0,0,0,.4,1.391c.2,1.195.4,2.487.6,3.78a12.374,12.374,0,0,1,.2,1.89c.1,1.1.1,2.292.1,3.388a27.652,27.652,0,0,1-1.1,7.766c-.2.5-1,3.085-1.391,3.29a3.8,3.8,0,0,1-.9-.4,3.881,3.881,0,0,1-1-.4c-1.694-.793-3.486-1.694-5.18-2.585-1.293-.7-2.585-1.5-3.888-2.291-.2-.2-.5-.3-.7-.5-.1-.1-.3-.2-.4-.3a5.157,5.157,0,0,1-.2-1.195l-.3-1.195c-.1-.5-.2-.9-.3-1.391-.1-.7-.3-1.293-.4-1.89-.2-.793-.4-1.6-.6-2.292s-.5-1.391-.7-2.1c-.2-.5-.3-1-.5-1.6l-.6-1.792c-.3-1.293-.7-2.487-1.1-3.78-.1-.4-.3-.9-.4-1.391a14.762,14.762,0,0,1-.5-1.988,31.5,31.5,0,0,1-.9-4.377,19.831,19.831,0,0,1-.4-4.279v-1.792a34.534,34.534,0,0,1,.4-4.681c.1-.6.2-1.1.3-1.6a36.479,36.479,0,0,1,1.195-3.888,20.957,20.957,0,0,1,1.5-3.388c.3-.5.5-.9.793-1.391a6.784,6.784,0,0,1,1-1.391,9.207,9.207,0,0,1,1.1-1.6c.1-.2.2-.3.3-.5.5-.6,1-1.195,1.6-1.792.6-.793,1.293-1.6,1.988-2.389a11.567,11.567,0,0,1,1.5-1.6c.6-.7,1.195-1.391,1.792-2.194.5-.6,1.1-1.195,1.6-1.792.793-1,1.6-1.89,2.389-2.791.2-.3.5-.6.7-.9m47.211,19.82c.1.1-.5.9-.6,1.1-.2.4-.5.793-.7,1.195a4.37,4.37,0,0,0-.4.7c-.3.4-.6.9-.9,1.391a33.759,33.759,0,0,0-2.791,8.96,10.417,10.417,0,0,1-.1,1.694c0,.2-.1.5-.1.793v1c0,.6-.1,1.1-.1,1.694.1,1.694.2,3.29.4,4.877.1.5.2,1.1.3,1.6.2,1,.4,1.89.7,2.889.1.5.3,1,.4,1.5a12.245,12.245,0,0,0,.5,1.792c.2.7.5,1.5.7,2.194.1.4.3.793.4,1.1.4,1.391.9,2.693,1.293,4.084.1.3.3.6.4.9a8.965,8.965,0,0,0,.5,1.5c.2.793.5,1.6.7,2.389a1.431,1.431,0,0,1,.2.6c.1.3.2.7.3,1,.1.4.2.793.3,1.1.1.7.3,1.293.4,1.89a1.455,1.455,0,0,1,.2.7l.3,1.195a8.739,8.739,0,0,1,.4,2.1c-.2.2-.4.2-.6.3a18.475,18.475,0,0,1-2.585.7c-.6.1-1.195.3-1.694.4a59.422,59.422,0,0,1-6.179,1.195c-.5.1-1.1.1-1.6.2a4.543,4.543,0,0,1-1.1.1c-.2,0-.4.1-.6.1-.6,0-1.195.1-1.792.1-.2,0-.5.1-.7,0a2.453,2.453,0,0,1-.4-.9c-.3-.9-.6-1.89-.9-2.791-.2-.6-.4-1.1-.6-1.6-.6-1.694-1.1-3.388-1.6-4.975a2.978,2.978,0,0,0-.2-.9c-.4-1.293-.6-2.693-.9-3.986a40.614,40.614,0,0,1-.5-5.082,26.513,26.513,0,0,1,.2-3.986v-.6a12.373,12.373,0,0,1,.2-1.89,35.066,35.066,0,0,1,1.792-6.473l.9-1.792c.3-.5.5-1.1.793-1.6a7.649,7.649,0,0,0,.793-1.195,6.19,6.19,0,0,0,.7-1.1c.7-1,1.6-1.89,2.389-2.889,1.1-1.195,2.1-2.389,3.085-3.584,1.391-1.6,2.791-3.183,4.084-4.681,1.5-1.694,2.791-3.388,4.279-4.975M41.6,119.9a.342.342,0,0,0-.1.2c-.5.793-1.1,1.6-1.6,2.389a24.543,24.543,0,0,0-2.194,4.279,27.461,27.461,0,0,0-1.391,4.084c-.2.793-.3,1.6-.5,2.389a6.6,6.6,0,0,1-.1,1.391,7110.275,7110.275,0,0,0-.2.2c-.5-.793-1.1-1.6-1.5-2.389a6.189,6.189,0,0,1-.7-1.1c-.2-.3-.3-.5-.5-.793,0-.1-.2-.3-.1-.4a.823.823,0,0,1,.3-.5c.4-.5.7-.9,1.1-1.391a5.511,5.511,0,0,0,.793-.793,7.077,7.077,0,0,1,.793-1c.793-1,1.694-1.89,2.487-2.889.3-.4.7-.793,1-1.195a28.666,28.666,0,0,1,2.389-2.487M85.219,143.7v.1c-.4.7-.793,1.293-1.1,1.89a17.606,17.606,0,0,0-1,1.89,4.266,4.266,0,0,0-.4,1,16.1,16.1,0,0,0-1.195,3.085,39.185,39.185,0,0,0-1.5,8.461v3.78c0,.1.1.3,0,.4a.1.1,0,0,1-.1.1,1.282,1.282,0,0,1-.6-.1,9.659,9.659,0,0,1-1.694-.4,2.978,2.978,0,0,1-.9-.2c-.6-.2-1.195-.3-1.89-.5-1.195-.4-2.389-.7-3.584-1.195a5.018,5.018,0,0,1-.793-.3c-.2,0-.3,0-.4-.1s-.1-.1-.1-.2a1.636,1.636,0,0,1,.4-.5c.1-.1.2-.3.4-.4.9-1.1,1.792-2.194,2.693-3.183l3.29-3.888c.6-.6,1.1-1.195,1.6-1.792a6.538,6.538,0,0,1,.793-.9c.3-.4.7-.793,1-1.195l1.5-1.792a15.114,15.114,0,0,0,1.1-1.293c.4-.4.793-.9,1.293-1.391a3.876,3.876,0,0,1,.5-.7,2.244,2.244,0,0,1,.7-.7" transform="translate(-0.639 -0.58)" fill="#d1393f"/>
        <path id="Path_6" data-name="Path 6" d="M86.289,5.573c.2,0,.3,0,.4.1.1.2,0,.5,0,.7a7.178,7.178,0,0,1,.1,1.391c.1.4,0,.7.1,1a18.089,18.089,0,0,1,.2,2.291c.1.793.3,1.694.4,2.487a2.183,2.183,0,0,0,.1.793c0,.2.2.7,0,.9,0,.1-.1.1-.2.1a3.463,3.463,0,0,1-1,.1,1.282,1.282,0,0,0-.6.1h-.4a.39.39,0,0,1-.3-.1c-.1-.2,0-.6,0-.9a7.178,7.178,0,0,1-.1-1.391c-.2-1.792-.4-3.486-.6-5.18a5.051,5.051,0,0,0-.2-1.293c0-.2-.1-.6,0-.793s.6-.1.793-.1c.1-.1.3,0,.4,0a.37.37,0,0,1,.3-.1c.2,0,.4-.1.6-.1m15.835.1c.2,0,.5.1.7.1s.5,0,.6.1c.2.1.2.3.3.5a3.079,3.079,0,0,1,.5.7c.2.3.5.7.7,1,.6,1,1.195,1.89,1.89,2.889l.6.9c.1.1.4.793.6.793a.282.282,0,0,0,.2-.1,1.5,1.5,0,0,0,.1-.7c.1-.3.1-.6.2-1,.1-.9.2-1.792.3-2.791a1.282,1.282,0,0,1,.1-.6v-.6a.282.282,0,0,0,.1-.2,1.131,1.131,0,0,1,.793.1h.4a.211.211,0,0,1,.2.2c0,.3-.1.5-.1.7-.1.4-.2.9-.3,1.293s-.1.793-.2,1.195c-.2,1.1-.3,2.194-.5,3.388-.1.3-.1.7-.2,1.1,0,.4-.1.793-.1,1.195a1.1,1.1,0,0,0-.1.5c0,.1-.1.1-.1.2a1.282,1.282,0,0,1-.6-.1,1.713,1.713,0,0,1-.7-.1c-.2-.1-.3-.4-.4-.6l-.3-.6a10.05,10.05,0,0,1-1.1-1.694c-.4-.6-.793-1.1-1.195-1.694a8.966,8.966,0,0,0-.6-1c-.2-.2-.9-1.391-1-1.391a.136.136,0,0,0-.2,0,.764.764,0,0,0-.1.5c-.1.4-.1.793-.2,1.293a9.984,9.984,0,0,0-.2,1.694c0,.3-.1.5-.1.7,0,.5-.1.9-.1,1.293a.916.916,0,0,1-.1.5.1.1,0,0,1-.1.1c-.1.2-.6,0-.793,0h-.3l-.3-.3a1.431,1.431,0,0,1,.2-.6,6.027,6.027,0,0,0,.2-1.391,13.009,13.009,0,0,0,.4-1.89c.1-1,.3-1.988.4-2.889a.916.916,0,0,1,.1-.5c0-.4.1-.793.1-1.293a1.713,1.713,0,0,0,.1-.7c.1-.1.1-.2.2-.2m-7.971.1h-.5a1.99,1.99,0,0,0-.9.5,4.506,4.506,0,0,0-1.195,3.78c0,1.694.5,3.584,2.291,3.986a1.958,1.958,0,0,0,.793.1.282.282,0,0,0,.2-.1h.2a.764.764,0,0,1,.5-.1,3.69,3.69,0,0,0,1.195-1.293,5,5,0,0,0,.4-1.293c.4-1.694.1-3.986-1.195-5.082a2.706,2.706,0,0,0-1.792-.5Zm0-1a6.044,6.044,0,0,1,4.181,1.293,5.071,5.071,0,0,1,1.5,3.29,5.712,5.712,0,0,1-.1,1.293,4.864,4.864,0,0,1-4.181,4.377c-2.389.4-4.877-.3-5.974-2.487a3.638,3.638,0,0,1-.4-1.1,4.926,4.926,0,0,1-.1-1.195,2.52,2.52,0,0,1-.1-.793,5.291,5.291,0,0,1,1.5-3.388,5.593,5.593,0,0,1,1-.7,7.761,7.761,0,0,1,1.1-.4,1.282,1.282,0,0,1,.6-.1h.1a.282.282,0,0,1,.2-.1h.7ZM81.893,5.965a.39.39,0,0,1,.3.1,2.209,2.209,0,0,1,.1.793.414.414,0,0,1,.1.3.1.1,0,0,1-.1.1c-.1.1-.4.1-.6.1-.3,0-.5.1-.7.1a3.144,3.144,0,0,0-1,.1.37.37,0,0,0-.1.3,7.908,7.908,0,0,0,.2,1.6c.1.6.2,1.195.3,1.694.2,1,.4,1.89.5,2.791a6.593,6.593,0,0,0,.4,1.391c0,.2.1.3.1.5a.282.282,0,0,1-.1.2c0,.1-.1.1-.2.1-.3.1-.7.1-1.1.2-.3,0-.6.1-.9.1-.1,0-.2,0-.2-.1a.615.615,0,0,1-.1-.4,5.815,5.815,0,0,0-.2-1.293c-.2-1.5-.4-2.987-.7-4.485a5.992,5.992,0,0,1-.2-1.293c-.1-.2-.1-.4-.2-.6a.211.211,0,0,0-.2-.2h-.4c-.5.1-1,.3-1.5.4-.1,0-.3.2-.5.1a.342.342,0,0,1-.1-.2c-.1-.1,0-.2-.1-.3,0-.2-.1-.6-.1-.7.1-.2.2-.2.4-.2h.1a.282.282,0,0,1,.2-.1h.5a.087.087,0,0,1,.1-.1h.5a.342.342,0,0,0,.2-.1h.4a.342.342,0,0,0,.2-.1h.5c.1,0,.2-.1.3-.1h.1c.1,0,.4-.1.5-.1h.4a.1.1,0,0,0,.1-.1h.6a.1.1,0,0,1,.1-.1h.2a.615.615,0,0,1,.4-.1h.2a.37.37,0,0,1,.3-.1,1.282,1.282,0,0,1,.6-.1.615.615,0,0,1,.4-.1M71.963,7.678h.7a1.282,1.282,0,0,1,.6.1.342.342,0,0,1,.1.2.615.615,0,0,1,.1.4,1.961,1.961,0,0,0,.1.7v.3c0,.1-.1.1-.1.2h-.2c-.2-.1-.3-.2-.5-.3a1.144,1.144,0,0,0-.793-.3,2.871,2.871,0,0,0-2.889,1.1,4.488,4.488,0,0,0-.2,4.485,4.219,4.219,0,0,0,.793,1.195.769.769,0,0,0,.2.4,3.31,3.31,0,0,0,2.389.793h.1c.2,0,.5-.1.7-.1a3.211,3.211,0,0,0,1.391-1l.3-.3c.2-.2.3-.6.6-.6a.342.342,0,0,1,.2.1,1.958,1.958,0,0,1,.1.793c0,.2.1.4,0,.6-.1.4-1,.9-1.293,1.1a9.993,9.993,0,0,1-1.6.5,8.134,8.134,0,0,1-1.5.3,5.1,5.1,0,0,1-2.987-.7c-.2-.2-.4-.3-.6-.5a4.913,4.913,0,0,1-1.5-2.693,10.262,10.262,0,0,1-.3-1.694,5.167,5.167,0,0,1,3.486-4.485c.4-.1.9-.3,1.391-.4a.916.916,0,0,1,.5-.1h.2a.342.342,0,0,1,.2-.1h.3m49.2,2.194h1c.3,0,.4.1.6.1a9.247,9.247,0,0,1,2.791,1c.2.2,1.1.7,1,1.1a1.941,1.941,0,0,1-.4.6c-.1.2-.1.4-.2.5a.3.3,0,0,1-.2.1c-.1,0-.2,0-.2-.1a.775.775,0,0,1-.2-.5c-.2-.3-.4-.5-.6-.793a3.392,3.392,0,0,0-2.791-.7,2.109,2.109,0,0,0-1,.6,4.838,4.838,0,0,0-1.6,2.194c-.9,2.693,0,5.278,3.085,5.278h.3a5.892,5.892,0,0,0,.7-.2c.2,0,.4-.2.6-.2.1,0,.2,0,.2.1.1,0,.1.1.1.2a.823.823,0,0,1-.3.5,3.876,3.876,0,0,1-.5.7c-.2.2-.793.1-1.1.1a5.626,5.626,0,0,1-1.89-.3c-.2-.1-.3-.1-.4-.2a6.222,6.222,0,0,1-2.693-1.792,5.253,5.253,0,0,1-.5-4.877,7.014,7.014,0,0,1,.7-1.5,10.134,10.134,0,0,1,1.1-1,3.506,3.506,0,0,1,1.89-.793h.3a.3.3,0,0,1,.2-.1m-58.061.9c.1,0,.1.1.2.1a.615.615,0,0,1,.1.4c.1.2.3.4.3.6a.342.342,0,0,0-.1.2,3.78,3.78,0,0,1-1,.3,5.72,5.72,0,0,1-1.195.4,2.653,2.653,0,0,1-.5.3.1.1,0,0,0-.1.1c-.1.3.2.9.3,1.1s.1.3.2.5a2.755,2.755,0,0,0,.4.793.211.211,0,0,0,.2.2c.2,0,.4-.2.6-.3l1.5-.6c.1-.1.3-.3.5-.3a.39.39,0,0,1,.3.1c0,.2.1.3.1.5.1.1.1.2.2.4v.2a1.067,1.067,0,0,1-.5.2c-.5.2-1,.3-1.5.5-.2.1-.5.2-.7.3a.37.37,0,0,0-.1.3.615.615,0,0,1,.1.4,3.639,3.639,0,0,1,.4.9,7.063,7.063,0,0,1,.4,1c.1.2.2.3.3.5l.1.1a1.431,1.431,0,0,0,.6-.2c.4-.2.9-.4,1.293-.6a2.545,2.545,0,0,1,.7-.4h.2a.087.087,0,0,1,.1.1c.1.1.1.3.2.4s.1.3.2.5v.2c-.2.2-.4.2-.6.3-.2,0-.3.1-.5.1-.5.2-.9.4-1.391.6a6.2,6.2,0,0,0-1.195.5,3.311,3.311,0,0,0-.9.4c-.1,0-.3.2-.5.1a.3.3,0,0,1-.2-.1c-.1-.2-.1-.4-.2-.6-.1-.4-.3-.9-.4-1.293-.4-.9-.793-1.792-1.1-2.693-.4-.793-.7-1.6-1.1-2.487a6.774,6.774,0,0,1-.7-1.792c.1-.2,1-.4,1.293-.5,1.195-.6,2.487-1.1,3.682-1.694m69.117,4.084h-.5c-.2.1-.5.2-.7.3a4.7,4.7,0,0,0-1.988,2.389,4.57,4.57,0,0,0-.6,1.5,6.027,6.027,0,0,0-.2,1.391,2.548,2.548,0,0,0,2.1,2.389,1.5,1.5,0,0,0,.7.1.1.1,0,0,1,.1-.1c.2,0,.3-.1.4-.1a1.844,1.844,0,0,0,.793-.4,1.959,1.959,0,0,0,.9-.9,7.33,7.33,0,0,0,1.5-2.889,3.347,3.347,0,0,0-.1-2.194,2.656,2.656,0,0,0-2.389-1.5Zm-1.5-1.293h1.391a6.957,6.957,0,0,1,4.084,2.585,2.329,2.329,0,0,1,.6,1.1c.793,2.1-.4,4.779-1.988,5.974a6.167,6.167,0,0,1-1.988.9,5.39,5.39,0,0,1-3.29-.5,5.162,5.162,0,0,1-1.89-1.1,4.642,4.642,0,0,1-1.5-4.485,6.185,6.185,0,0,1,1.694-3.183,5.348,5.348,0,0,1,1.293-.9,4.96,4.96,0,0,1,1.1-.4h.5ZM53.19,15.268c.1,0,.1.1.2.1a3.028,3.028,0,0,1,.4.793c.1.3.3.7.4,1,.6,1.293,1.293,2.487,1.89,3.682a3.186,3.186,0,0,0,.5,1,2.68,2.68,0,0,0,.5.9.211.211,0,0,0,.2.2,1.914,1.914,0,0,0,.5-.3,7.915,7.915,0,0,0,1.6-.9c.2-.1.4-.3.6-.3.1,0,.1.1.2.1,0,.1.1.2.1.3a2.151,2.151,0,0,1,.3.7c.1.1,0,.1,0,.2a3.028,3.028,0,0,1-.793.4,3.662,3.662,0,0,0-.7.3c-.793.3-1.6.793-2.389,1.1a1.914,1.914,0,0,0-.5.3,1.261,1.261,0,0,0-.4.3h-.2l-.2-.2a1.084,1.084,0,0,1-.2-.6l-.6-1.195c-.793-1.694-1.6-3.388-2.487-4.975a9.468,9.468,0,0,1-.5-1,1.514,1.514,0,0,1-.4-.793c.1,0,.1-.1.2-.1a3.028,3.028,0,0,1,.793-.4,3.385,3.385,0,0,0,1-.6m-4.485,2.487c.4,0,.4.4.6.6a.775.775,0,0,1,.2.5c-.1.2-.793.4-1,.5-.5.3-.9.6-1.391.9a.342.342,0,0,0-.2.1v.2a1.375,1.375,0,0,0,.3.7c.2.2.3.5.5.7a3.079,3.079,0,0,0,.5.7.211.211,0,0,0,.2.2,1.261,1.261,0,0,0,.4-.3c.4-.3.9-.6,1.293-.9.2-.1.6-.5.793-.5a.7.7,0,0,1,.3.5c.1.2.4.3.3.5v.2a2.544,2.544,0,0,1-.7.4,11.079,11.079,0,0,0-1.1.6,1.486,1.486,0,0,0-.7.4v.3c.1.2.2.3.2.4l.6.9a4.37,4.37,0,0,1,.4.7c.1.1.2.4.4.5a.37.37,0,0,0,.3.1,1.461,1.461,0,0,1,.4-.3c.4-.3.9-.6,1.293-.9.2-.1.5-.5.7-.5a.282.282,0,0,0,.2.1c.1.1.1.3.2.4s.3.3.3.5c.1.2-.793.6-1,.793-.9.5-1.89,1.1-2.791,1.694-.2.1-.6.5-.793.5-.1,0-.2,0-.2-.1-.2-.1-.2-.3-.3-.4a7.536,7.536,0,0,0-.7-1.195,9.466,9.466,0,0,1-.5-1c-.5-.7-.9-1.391-1.391-2.194a10.05,10.05,0,0,1-1.1-1.694c-.4-.5-.7-1-1-1.391v-.2c0-.2,1-.7,1.195-.793,1.195-.7,2.194-1.5,3.29-2.194m92.218,1.1h.2c.1,0,.2.1.3.2a.969.969,0,0,1,.5.4c.1,0,.1.1.1.2.1.1,0,.3,0,.5a6.892,6.892,0,0,0-.2,1.391c-.2,1.1-.3,2.1-.5,3.183a3.653,3.653,0,0,1-.2,1.1v.6c0,.2.1.2.1.3.5-.2,1-.5,1.391-.7.793-.4,1.5-.793,2.292-1.293a9.516,9.516,0,0,0,1.391-.793l.6-.3a1.63,1.63,0,0,1,.7-.4c.2.1.3.2.5.3.1.1.4.2.5.4v.2a1.067,1.067,0,0,1-.2.5c-.2.3-.4.7-.6,1a8.775,8.775,0,0,1-.7,1.391c-.5.9-1,1.89-1.5,2.889,0,.1-.1.2-.1.3a4.776,4.776,0,0,1-.4.7c-.3.6-.5,1.1-.793,1.694a.282.282,0,0,1-.2.1c-.2,0-.6-.4-.793-.5s-1.1-.6-1.1-.793c-.1-.1,0-.2,0-.3l.6-.9c.5-.793,1-1.694,1.391-2.487a9.468,9.468,0,0,1,.5-1,1.067,1.067,0,0,0,.2-.5v-.1c-.1-.1-1.195.5-1.391.6-.9.5-1.792,1.1-2.791,1.6-.2.1-.4.3-.6.4-.3.1-.9.7-1.195.5a.969.969,0,0,1-.5-.4c0-.2.1-.3.1-.5.1-.3.1-.6.2-.9.2-1.1.3-2.389.5-3.584a8.171,8.171,0,0,0,.1-1.5c0-.1-.1,0-.1,0-.2.1-.3.3-.4.4a4.975,4.975,0,0,0-.7.793,10.764,10.764,0,0,0-1,1.195c-.2.3-.5.5-.7.793a2.225,2.225,0,0,1-.4.5c-.2.2-.4.7-.6.7a.136.136,0,0,1-.2,0c-.2,0-.3-.2-.4-.3a1.914,1.914,0,0,1-.5-.3.37.37,0,0,1-.1-.3,3.773,3.773,0,0,1,.7-.6c.3-.3.6-.7.9-1l5.082-5.376m-49.3,3.78c.2,0,.9-.1.9.1l-.2.2a.768.768,0,0,1-.4.2c-.2,0-.5-.1-.5-.3v-.1a.282.282,0,0,1,.2-.1m15.14,1.1c.2,0,1.1.1,1,.4l-.1.1a.37.37,0,0,1-.3.1c-.2,0-.6-.3-.6-.5v-.1M153.3,27.969h.2a1.227,1.227,0,0,1,.5.5c.1.1.2.1.3.3.1,0,.1.1.1.2-.1.1-.1.2-.2.4-.1.3-.2.6-.3,1-.1.3-.2.5-.3.793-.4,1-.7,1.988-1,2.889l-.3.9c-.1.2-.1.4-.2.6a.282.282,0,0,0,.1.2h.1l1.792-.6a1.853,1.853,0,0,0,.793-.2,23.413,23.413,0,0,0,2.791-1,5.019,5.019,0,0,0,.793-.3,4.494,4.494,0,0,0,.5-.1c.3,0,.4.2.6.4.1.1.3.2.4.4v.2c0,.1-.1.2-.2.3-.3.3-.6.7-.9,1l-3.584,4.779c-.2.3-.5.6-.7.9a2.694,2.694,0,0,1-.5.6.342.342,0,0,1-.2.1,1.461,1.461,0,0,1-.3-.4,2.694,2.694,0,0,1-.6-.5c-.1-.2-.7-.6-.7-.793v-.1c0-.1.2-.3.3-.4a11.583,11.583,0,0,1,1.1-1.1c.5-.7,1-1.391,1.6-2.1.1-.1.7-.793.7-1h-.2a4.494,4.494,0,0,0-.5.1,1.431,1.431,0,0,1-.6.2,9.876,9.876,0,0,1-1.293.4l-2.389.9c-.3.1-.5.2-.793.3a1.688,1.688,0,0,0-.5.2c-.1,0-.2-.1-.3-.1-.1-.2-.3-.3-.3-.5a.53.53,0,0,1,.2-.4l.3-.9c.4-1.1.793-2.291,1.1-3.388l.3-.9a1.431,1.431,0,0,0,.2-.6v-.1c-.2-.1-1.1.7-1.195.793-.9.7-1.792,1.5-2.693,2.194a4.654,4.654,0,0,1-.7.7h-.2a8.243,8.243,0,0,1-.9-.793.39.39,0,0,1,.1-.3,1.812,1.812,0,0,1,.7-.5,5.593,5.593,0,0,1,1-.7c.6-.4,1.1-.793,1.6-1.195a22.75,22.75,0,0,0,2.487-1.89c.7-.4,1.293-1,1.89-1.391m-118.913.6a.39.39,0,0,1,.3.1,1.984,1.984,0,0,1,.4.5,7.908,7.908,0,0,1,.793,1c.4.4.793.9,1.195,1.391.5.6,1.1,1.195,1.6,1.89a2.912,2.912,0,0,1,.793.793c.2.2.3.4.5.5a.37.37,0,0,0,.3.1l.3-.3a15.335,15.335,0,0,0,1.391-1.293c.1-.1.2-.4.4-.4a.122.122,0,0,1,.2,0c.1,0,.2.2.4.3.1.2.2.3.3.5v.2c-.1.2-.6.5-.793.7a4.638,4.638,0,0,0-.793.7c-.5.4-1.1.9-1.6,1.391-.2.2-.793.793-1,.793-.2-.1-.3-.4-.4-.5-.2-.2-.3-.4-.5-.5l-.9-1.195c-.6-.6-1.1-1.195-1.6-1.792-.793-.9-1.6-1.694-2.292-2.585-.2-.2-.6-.5-.6-.7,0-.1,0-.2.1-.2.2-.2.5-.4.7-.6l.793-.793M29.5,37.419v.2a1.844,1.844,0,0,0,.4.793l.6,1.195.3.6c.1,0,.2.1.3,0,.1,0,.2-.2.3-.3a2.244,2.244,0,0,0,.7-.7,1.461,1.461,0,0,0,.3-.4v-.2c0-.1-.1-.1-.2-.1a3.639,3.639,0,0,0-.9-.4c-.4-.2-.7-.3-1.1-.5a1.455,1.455,0,0,0-.7-.2Zm-1.195-2.987a1.749,1.749,0,0,1,.793.3l1.5.6c.9.4,1.792.7,2.585,1.1a19.689,19.689,0,0,1,2.585,1,8.965,8.965,0,0,1,1.5.5c.2.1.4.1.6.3.1,0,.2.1.1.2,0,.1-.2.3-.4.4,0,.1-.1.2-.2.3a1.8,1.8,0,0,0-.4.5c-.2.2-.3.5-.6.6-.2.1-.6-.2-.793-.3-.3-.1-.5-.2-.793-.3a2.743,2.743,0,0,0-1.1-.5.342.342,0,0,0-.2.1,1.8,1.8,0,0,0-.6.7c-.3.3-.5.6-.793.9-.1.1-.5.5-.5.7s.2.4.2.5c.3.4.5.9.793,1.293.1.2.4.6.4.793s-.2.4-.4.6c-.1.1-.2.4-.4.4-.1.1-.2,0-.3-.1-.4-.9-.793-1.792-1.293-2.693l-1.5-2.987c-.3-.5-.6-1.1-.9-1.694-.2-.3-.3-.6-.5-.9-.1-.2-.5-.7-.5-1a.282.282,0,0,1,.1-.2l.2-.2c.1-.1.2-.2.2-.3l.6-.6Zm134.151,3.085c.2,0,.2.1.3.1a1.261,1.261,0,0,0,.3.4c.2.2.3.4.5.6.1.2.4.4.6.7a.3.3,0,0,1-.1.2c-.1.2-.4.3-.5.4a7.005,7.005,0,0,1-1.1.793c-.7.6-1.391,1.1-2.1,1.694-.1.1-.3.2-.4.3-.5.4-1,.9-1.5,1.293a12.419,12.419,0,0,0-1.293,1.1,2.225,2.225,0,0,1-.5.4.136.136,0,0,1-.2,0c-.3-.2-.4-.6-.6-.793-.2-.1-.3-.3-.4-.4-.1-.2-.3-.3-.4-.4,0-.1-.1-.2,0-.3,0-.2.793-.7,1-.793.3-.2.6-.5.9-.7l1.195-.9c.7-.6,1.5-1.195,2.291-1.89a11.835,11.835,0,0,0,1.293-1.1l.7-.7m2.291,4.583a3.44,3.44,0,0,1,2.791,1.5,6.189,6.189,0,0,1,.7,1.1c.1.4.5,1.293.2,1.694a6.565,6.565,0,0,1-1.5.5.211.211,0,0,1-.2-.2c-.1-.2.1-.5.2-.7a2.379,2.379,0,0,0-.1-1.195,1.182,1.182,0,0,0-1.988-.6c-.5.5-.3,1.5-.2,2.194a2.83,2.83,0,0,1,.1.9,2.7,2.7,0,0,1-1.6,3.183,3.251,3.251,0,0,1-1.391.3h-.7a4.817,4.817,0,0,1-2.194-1.6c-.1-.2-.3-.5-.5-.793s-.793-1.6-.6-1.89c.1-.1.1-.2.2-.2.2-.1.3-.1.5-.2l.6-.3a1.067,1.067,0,0,1,.5-.2c.1,0,.2.1.3.2.1.2-.1.5-.2.7-.1.1-.1.2-.1.4a1.956,1.956,0,0,0,1.1,2.194h.793a.766.766,0,0,0,.4-.4c.6-.6.3-1.391.2-2.1a13.469,13.469,0,0,1,0-1.988,3.15,3.15,0,0,1,1.89-2.292c.3-.1.5-.1.793-.2M22.235,44.519c-.2.1-.4.1-.5.2-.3.1-.9.7-.7,1,0,.1.4.3.6.5.3.2.7.4,1,.6a8.966,8.966,0,0,0,1,.6c0,.1.2.2.3.2a.786.786,0,0,0,.3-.7.775.775,0,0,0,.2-.5c0-1.1-1.293-1.89-2.194-1.89Zm1-2.292a2.814,2.814,0,0,1,2.389,1.792,4.18,4.18,0,0,1,.1,1.195,4.494,4.494,0,0,0-.1.5.282.282,0,0,0,.1.2c.1.1.6,0,.7,0H28.61c.2-.1.5,0,.6,0H30.9c.1,0,.3,0,.3.2s-.4.6-.5.793a1.636,1.636,0,0,1-.4.5,2.315,2.315,0,0,1-.4.7c0,.1-.1.1-.2.2a4.091,4.091,0,0,1-1.1,0,.788.788,0,0,1-.4-.1h-1c-.4,0-.793-.1-1.1-.1a5.688,5.688,0,0,0-1.293,0,.387.387,0,0,0,.2.3c.793.5,1.6.9,2.292,1.391a3.385,3.385,0,0,1,1,.6v.3l-.3.3c-.1.2-.3.5-.4.7-.2.2-.2.5-.4.6a.37.37,0,0,1-.3.1c-.108,0-.2-.1-.3-.2a15.537,15.537,0,0,1-1.391-1,20.886,20.886,0,0,0-2.1-1.293,2.653,2.653,0,0,0-.5-.3,5.593,5.593,0,0,0-1-.7c-.2-.2-.5-.3-.7-.5-.3-.2-.6-.3-.9-.5l-.6-.3c-.2-.1-.5-.2-.6-.4v-.3a1.636,1.636,0,0,1,.4-.5,2.112,2.112,0,0,1,.5-.793c.2-.3.4-.7.6-1,.5-.9,1.391-2.292,2.693-2.292a.342.342,0,0,1,.2-.1Zm145.9,6.972a3.022,3.022,0,0,1,2.487,1.195,2.224,2.224,0,0,1,.4.5.37.37,0,0,1,.1.3,2.133,2.133,0,0,1,.4.6c0,.1.1.3.1.4a.916.916,0,0,1,.1.5c.1.3.2.793,0,1a7.461,7.461,0,0,1-1.6.4.211.211,0,0,1-.2-.2c-.1-.2.2-.5.3-.7a1.1,1.1,0,0,1,.1-.5,1.591,1.591,0,0,0-1.391-1.792.7.7,0,0,0-.6.3c-.793.7-.4,2.1-.4,3.085V55a3.03,3.03,0,0,1-2.1,2.389c-2.291.7-3.888-1.195-4.583-3.085-.1-.3-.4-1.1-.2-1.391a.211.211,0,0,1,.2-.2c.2-.1.3-.1.5-.2a2.637,2.637,0,0,1,.7-.2c.2-.1.3-.2.4-.2.2,0,.3.3.3.4-.1.2-.2.3-.3.5a1.255,1.255,0,0,0-.2.9,1.792,1.792,0,0,0,1.1,1.792,1.282,1.282,0,0,0,.6.1.342.342,0,0,0,.2-.1,1.188,1.188,0,0,0,.7-.7,5.375,5.375,0,0,0,.1-1.792,3.684,3.684,0,0,1,.6-2.791,4.231,4.231,0,0,1,.7-.7,3.6,3.6,0,0,1,1.293-.5h.2m-151.484,0a1.914,1.914,0,0,1,.5.3c.2.1.5.2.5.3.1.3-.3.7-.4.9a9.638,9.638,0,0,0-.793,1.391.769.769,0,0,0-.2.4.342.342,0,0,0,.1.2,5.509,5.509,0,0,0,1.1.6c.3.2.7.4,1,.6a.39.39,0,0,0,.3-.1.7.7,0,0,0,.3-.5l.6-1.195c.1-.2.2-.5.3-.7.1-.1.1-.2.2-.2a3.806,3.806,0,0,1,.9.4c.1,0,.2.1.2.3-.1.1-.2.3-.3.4a5.508,5.508,0,0,1-.793,1.293,1.92,1.92,0,0,0-.3.793.342.342,0,0,0,.1.2,6.829,6.829,0,0,0,.7.4c.4.2.793.4,1.293.6a1.244,1.244,0,0,0,.793.4c0-.1.1-.1.1-.2.2-.1.2-.3.3-.5l.6-1.195a1.492,1.492,0,0,1,.4-.9,1.431,1.431,0,0,1,.6.2c.1.1.4.2.5.4s-.4.9-.5,1.1c-.4.793-.9,1.6-1.293,2.487a11.08,11.08,0,0,0-.6,1.1.211.211,0,0,1-.2.2,5.445,5.445,0,0,1-1.1-.5,12.937,12.937,0,0,0-1.988-1.1,2.653,2.653,0,0,0-.5-.3c-1.195-.7-2.487-1.293-3.682-1.89a3.661,3.661,0,0,1-.7-.3,2.223,2.223,0,0,1-.5-.3c-.1-.108-.1-.1-.1-.2a1.261,1.261,0,0,1,.3-.4l.3-.6c.5-.9.9-1.89,1.391-2.791a3.046,3.046,0,0,1,.6-1.1m156.361,6.473a.342.342,0,0,1,.2.1,6.718,6.718,0,0,1,.4.793c.1.2.1.4.2.6a.882.882,0,0,1,.3.6c.1.1,0,.2,0,.3-.2.1-.6.2-.9.3-.4.2-.9.4-1.391.6-.6.2-1.195.5-1.792.7-.9.5-1.89.9-2.791,1.293a11.08,11.08,0,0,0-1.1.6c-.3.1-.5.3-.793.3-.1,0-.2,0-.2-.1a2.453,2.453,0,0,1-.4-.9c-.2-.3-.3-.7-.5-1v-.2c.1-.2.793-.4,1-.5s.4-.1.7-.2.5-.3.793-.4c1.1-.4,2.194-.9,3.29-1.391.7-.4,1.5-.7,2.194-1.1a5.022,5.022,0,0,0,.793-.4M15.478,59.5c-.2.1-.6,0-.793.1a3.36,3.36,0,0,0-1.694,1.792c-.1.1-.1.3-.2.4-.1.3-.3.6-.1.9a5.935,5.935,0,0,0,.793.4l3.29,1.195a11.9,11.9,0,0,0,1.1.5c.2,0,.3.1.5.1.2.1.5.2.793.3a4.494,4.494,0,0,0,.5.1h.2c0-.1.1-.2.1-.3a4.96,4.96,0,0,0,.4-1.1c.5-2.292-1.391-3.682-3.085-4.181a5.309,5.309,0,0,0-1.792-.2Zm.9-2.389a5.481,5.481,0,0,1,4.779,2.693,6.3,6.3,0,0,1,.3.7c.1.4.2.9.3,1.391a9.533,9.533,0,0,1-.793,3.29,10.228,10.228,0,0,0-.793,1.89c-.1.2-.1.5-.2.7,0,.1-.1.1-.2.1-.2.1-.4-.1-.5-.1-.5-.2-1-.5-1.391-.7-.2-.1-.5-.1-.7-.2a1.688,1.688,0,0,1-.5-.2c-1.293-.5-2.585-1-3.78-1.391a5.721,5.721,0,0,0-1.195-.4c-.2-.1-.5-.1-.7-.3a.1.1,0,0,1-.1-.1v-.3l.3-.6a7.3,7.3,0,0,0,.5-1.293,17.46,17.46,0,0,1,1.6-3.682,4.143,4.143,0,0,1,1.6-1.1,5.72,5.72,0,0,1,1.195-.4h.3ZM174.228,62.89c-.2,0-.4.1-.6.1a2.542,2.542,0,0,0-.7.2,3.88,3.88,0,0,0-1,.4,4.931,4.931,0,0,0-2.1,1.391,2.535,2.535,0,0,0,.6,3.78,4.15,4.15,0,0,0,1.988.5c0-.1.1-.1.2-.1h.4c.1,0,.1-.1.2-.1a1.853,1.853,0,0,0,.793-.2,6.8,6.8,0,0,0,2.889-1.792,2.621,2.621,0,0,0,.3-2.693,3.337,3.337,0,0,0-.5-.793,3.186,3.186,0,0,0-1-.5,3.713,3.713,0,0,0-1.5-.2h0Zm-1-2.292a4.69,4.69,0,0,1,2.585.6,4.968,4.968,0,0,1,1.6,1.6,6,6,0,0,1,1,5.376,5.362,5.362,0,0,1-5.18,3.29,4.88,4.88,0,0,1-3.986-2.1,3.259,3.259,0,0,1-.6-1.195,6.288,6.288,0,0,1-.7-2.1,11.147,11.147,0,0,1,.2-1.792,5.074,5.074,0,0,1,2.487-2.889,5.578,5.578,0,0,1,1.694-.6,1.282,1.282,0,0,1,.6-.1.1.1,0,0,1,.1-.1h.2ZM10.1,66.572a4.494,4.494,0,0,1,.5.1c.2.1.3.1.5.2a.1.1,0,0,1,.1.1v.2a3.881,3.881,0,0,1-.4,1,4.512,4.512,0,0,1-.4,1.1c0,.2-.1.4-.1.6a.211.211,0,0,0,.2.2c.5.1.9.3,1.293.4a3.893,3.893,0,0,0,1,.3c.1,0,.2-.1.3-.1a3.611,3.611,0,0,0,.2-1c.1-.3.2-.7.3-1.1.1-.2.1-.4.2-.6a.211.211,0,0,1,.2-.2c.2.1.3.1.4.2.2,0,.3.1.5.1l.1.1c.1.2-.1.6-.2.793-.2.5-.3.9-.5,1.293,0,.2-.2.5-.1.7,0,.1.1.2.2.3a4.494,4.494,0,0,0,.5.1,3.638,3.638,0,0,0,1.1.4c.4.1.7.2,1.1.3a.39.39,0,0,0,.3-.1,1.084,1.084,0,0,0,.2-.6,9.565,9.565,0,0,1,.3-1,2.653,2.653,0,0,1,.3-1.293h.2a2.978,2.978,0,0,0,.9.2.3.3,0,0,1,.1.2c0,.2-.1.4-.1.6-.1.1-.1.3-.2.5-.3,1-.7,1.988-.9,2.987-.1.2-.2.9-.4,1.1-.1.1-.2.1-.4,0a2.968,2.968,0,0,1-.9-.3c-.2-.1-.3-.1-.5-.2-.3-.1-.7-.2-1.1-.3-.3-.2-.7-.2-1.1-.4-1.293-.4-2.585-.7-3.888-1.1-.3-.1-.6-.1-.793-.2s-.4-.1-.5-.2c-.1,0-.1-.1-.1-.2s.1-.3.1-.4a1.431,1.431,0,0,0,.2-.6c.4-1,.6-2.1.9-3.085.1-.3.1-.9.4-1.1m169.806,4.877a.39.39,0,0,1,.3.1.615.615,0,0,0,.1.4c0,.3.1.5.1.793a.39.39,0,0,1-.1.3c-.793,1.195-1.694,2.291-2.585,3.486a6.888,6.888,0,0,1-1,1.391c-.1.3-1.1,1.391-1,1.6,0,.1.2.1.3.1h.3a.3.3,0,0,1,.2-.1c.2,0,.3,0,.4-.1l1.195-.3c.9-.2,1.792-.5,2.791-.7.2,0,.5-.2.7-.1a.282.282,0,0,1,.2.1,4.493,4.493,0,0,0,.1.5c0,.2.1.4.1.6a.211.211,0,0,1-.2.2c-.6.1-1.293.2-1.89.3-1.195.3-2.291.5-3.29.7-.793.2-1.6.3-2.291.5a7.364,7.364,0,0,1-1.89.4l-.1-.1a1.282,1.282,0,0,1-.1-.6.764.764,0,0,1-.1-.5.39.39,0,0,1,.1-.3c.1,0,.1-.1.2-.2.2-.2.3-.4.5-.6,1-1.293,1.89-2.693,2.889-3.986a8.813,8.813,0,0,1,.7-1c.2-.2.3-.4.5-.6v-.1c0-.1,0-.2-.1-.2h-.4c-.3.1-.7.2-1,.3a10.715,10.715,0,0,0-1.792.4,7.726,7.726,0,0,0-1.5.4,2.978,2.978,0,0,0-.9.2c-.1,0-.2.1-.3.1s-.2,0-.2-.1a4.27,4.27,0,0,1-.3-1.195c.1-.1.2-.2.3-.2h.5a.37.37,0,0,1,.3-.1h.2c.1-.1.6-.1.7-.1a.282.282,0,0,1,.2-.1h.1c.1-.1.6-.1.7-.1a.282.282,0,0,1,.2-.1.615.615,0,0,0,.4-.1,2.978,2.978,0,0,0,.9-.2c.6-.1,1.1-.2,1.6-.3a3.653,3.653,0,0,1,1.1-.2,1.431,1.431,0,0,1,.6-.2c.6-.1,1.1-.3,1.6-.4M8.016,74.054a.916.916,0,0,1,.5.1.764.764,0,0,1,.5.1.282.282,0,0,1,.2.1c.1.2-.2.793-.2,1a5.908,5.908,0,0,0-.4,1.391,4.494,4.494,0,0,0-.1.5.342.342,0,0,1,.1.2c.3.1.793.1,1,.2.5.1.9.2,1.391.3.1,0,.2,0,.2-.1.2-.1.2-.4.2-.6.1-.4.2-.9.3-1.293a1.935,1.935,0,0,1,.1-.793.342.342,0,0,1,.1-.2.916.916,0,0,1,.5.1,1.5,1.5,0,0,1,.6.1c0,.1.1.1.1.2a1.431,1.431,0,0,1-.2.6l-.3,1.5a.883.883,0,0,0-.1.7,2.023,2.023,0,0,0,1.1.3c.2,0,.4.1.7.1a5.12,5.12,0,0,0,1.293.2c.4.1.7.1,1.1.2a.211.211,0,0,1,.2.2c.1.1-.2.9-.2,1.1-.1.3-.1,1-.3,1.195a1.673,1.673,0,0,1-1-.2l-2.693-.6-2.987-.6a6.893,6.893,0,0,0-1.391-.2c-.3-.1-1.293-.2-1.391-.4s.2-.9.2-1.1a11.782,11.782,0,0,0,.4-1.792c.1-.5.1-1,.2-1.5.1-.3.1-.6.2-.793,0-.1.1-.1.1-.2m2.585,27.39c.2.1.3.3.4.4l.793.793c.2.1.3.3.5.4,0,.1.1.1.2.1l.6-.3.6-.3c.2-.1.3-.1.4-.2a.435.435,0,0,0,.3-.1c.1,0,.2,0,.2.1.1.1-.1.3-.1.4-.2.3-.3.6-.5.9-.1.2-.4.5-.3.793a2.8,2.8,0,0,0,.9,1c.1.2.4.4.5.6v.1l-.1.1c-.3,0-.6-.1-.9-.1-.3-.1-.5-.1-.793-.2h-.5c-.2.1-.2.3-.3.4s-.2.3-.3.4c-.1.2-.4,1-.6,1.1a.211.211,0,0,1-.2-.2,3.611,3.611,0,0,0-.2-1,1.673,1.673,0,0,0-.2-1c-.1-.1-.4-.1-.6-.2a5.21,5.21,0,0,1-1.1-.2.615.615,0,0,1-.4-.1c-.1-.1,0-.2.1-.2a2.193,2.193,0,0,1,.793-.5c.294-.1.793-.2.9-.6.1-.1,0-.4,0-.5v-.5a1.5,1.5,0,0,1-.1-.7.851.851,0,0,1,0-.7m166.721.793c-.3.3-1,1.195-1.293,1.195a4.494,4.494,0,0,1-.5-.1c-.4-.2-.7-.4-1.1-.6-.1,0-.2-.1-.4-.1l-.1.1c0,.2.1.3.1.4a3.186,3.186,0,0,1,.4.793.835.835,0,0,1,.3.793c0,.3-.3.5-.5.6a1.262,1.262,0,0,1-.3.4c-.1.2-.7.6-.6.793.2.3,1.89-.4,2.292-.2.3.1.5.6.7.9a.769.769,0,0,1,.2.4c.1.2.2.6.4.6a.342.342,0,0,0,.2-.1,2.83,2.83,0,0,0,.1-.9.916.916,0,0,0,.1-.5,1.2,1.2,0,0,1,.2-.793.764.764,0,0,1,.5-.1.615.615,0,0,1,.4-.1c.3-.1,1-.1,1.195-.4h-.1c0-.2-.2-.3-.4-.3a7.916,7.916,0,0,1-1.293-.7c-.1,0-.2-.1-.2-.3,0-.1.1-.3.1-.4v-.5c0-.3.1-.5.1-.793v-.2c0-.1-.1-.1-.2-.1s-.2.1-.3.2M21.432,126.063c.1,0,.2,0,.2.1.1.1.1.2.2.3l.3.6a4.141,4.141,0,0,1,.5.9v.3c-.2.1-.5.2-.7.3a4.759,4.759,0,0,0-1,.5c-.793.4-1.6.793-2.389,1.293a6.687,6.687,0,0,0-2.389,1.694,2.257,2.257,0,0,0,.793,3.29,2.77,2.77,0,0,0,1.293.2h.2a.39.39,0,0,0,.3-.1,1.853,1.853,0,0,0,.793-.2c1.1-.6,2.194-1.1,3.183-1.694l1.5-.9a1.159,1.159,0,0,1,.6-.3.342.342,0,0,0,.2.1c.1.1.1.3.2.4.1.2.3.5.4.7,0,.1-.1.2-.1.3-.2.1-.3.1-.4.2l-.6.3a4.494,4.494,0,0,1-.5.1c-.1.1-.2.2-.3.2a.768.768,0,0,1-.4.2,20.438,20.438,0,0,1-2.1,1.1c-1.6.793-3.183,1.6-4.975.5a6.219,6.219,0,0,1-1.5-1.694c-.9-1.694-1.1-3.682.4-5.082a7.983,7.983,0,0,1,1.5-1c.5-.2,1-.5,1.5-.7,1.1-.6,2.194-1.293,3.29-1.89m144.511,6.972a.1.1,0,0,1-.1.1v.1c.1.2.3.3.4.5l.9.9a3.986,3.986,0,0,0,.6.7c.1.1.2.2.3.2.1-.1.1-.2.2-.2.1-.3.9-1.5.793-1.792-.1,0-.1-.1-.2-.1-.3,0-.5-.1-.793-.1-.2,0-.5-.1-.793-.1a5.12,5.12,0,0,0-1.293-.2h0Zm-1.89-2.693a3.017,3.017,0,0,1,1,.2c.4.1.793.1,1.195.2,1.694.2,3.29.5,4.975.7h.7c.4.1.793.1,1.195.2a3.81,3.81,0,0,1,1.1.1.211.211,0,0,1,.2.2c0,.1-.4.7-.5.9-.1.1-.1.3-.2.4a1.977,1.977,0,0,1-.5.9,1.281,1.281,0,0,1-.6-.1c-.5-.1-1-.2-1.6-.3-.2,0-.5-.1-.7,0a1.02,1.02,0,0,0-.4.5c-.3.5-.5,1.1-.793,1.6a1.431,1.431,0,0,0-.2.6v.2c.1.2.3.3.5.5a11.125,11.125,0,0,1,1,1.1,1.227,1.227,0,0,1,.5.5v.2a.514.514,0,0,0-.2.4l-.3.6h-.2c-.2,0-.5-.5-.6-.6a13.746,13.746,0,0,0-1.1-1.293l-3.584-4.182a7.688,7.688,0,0,1-1.293-1.293,2.225,2.225,0,0,1-.4-.5v-.2c0-.2.2-.3.3-.5.1-.3.2-.5.3-.793.1,0,.1-.1.2-.2h0ZM26.211,134.837c.1,0,.2,0,.2.1.2.1.2.3.3.5.2.2.4.4.4.6s-.1.3-.1.5c-.1.2-.1.3-.2.5-.2.793-.4,1.694-.6,2.487-.2.7-.4,1.293-.6,1.988a5.253,5.253,0,0,1-.4,1.391,2.978,2.978,0,0,0-.2.9c0,.2.1.2.1.3a1.941,1.941,0,0,0,.6-.4,3.337,3.337,0,0,0,.793-.5c.7-.5,1.391-.9,2.1-1.391.2-.2.4-.3.6-.5.3-.1.7-.5.9-.5h.2c.1.1.2.3.3.4a1.159,1.159,0,0,1,.3.6v.2a1.914,1.914,0,0,0-.5.3,8.966,8.966,0,0,0-1,.6c-.6.3-1.195.7-1.792,1-.6.4-1.293.793-1.89,1.195-.4.3-.9.6-1.293.9a10.7,10.7,0,0,0-1.1.7c-.2.1-.3.3-.5.3h-.3a5.383,5.383,0,0,1-.6-1,1.853,1.853,0,0,1,.2-.793c.1-.2.2-.5.3-.793.3-1.195.7-2.291,1-3.486l.3-1.195c.1-.4.2-.7.3-1.1,0-.2.2-.6.1-.7,0-.1-.1-.1-.2-.1-.2.1-.3.1-.4.2a8.818,8.818,0,0,1-1,.7c-.7.5-1.5,1-2.292,1.5a5.07,5.07,0,0,1-.9.7,1.461,1.461,0,0,1-.4.3h-.1c-.1,0-.1-.1-.2-.2,0-.1-.1-.2-.2-.4a1.461,1.461,0,0,1-.3-.4v-.2a3.543,3.543,0,0,1,.793-.5,8.967,8.967,0,0,0,1-.6c.4-.3.9-.5,1.293-.793.4-.2.9-.6,1.293-.793a13.423,13.423,0,0,0,1.293-.9c.793-.5,1.6-1,2.389-1.6m135.345,1.1h.2c.3.2.4.4.7.6l.4.4v.2c-.1.2-.5.2-.7.2a.916.916,0,0,1-.5.1,2.677,2.677,0,0,0-1.391,1.391,3.16,3.16,0,0,0,.6,3.682,5.082,5.082,0,0,0,1.694,1.293c.2.1.3.1.4.2a5.327,5.327,0,0,0,1.792.4h.5a.37.37,0,0,1,.3-.1c.2-.1.3-.1.5-.2a3.377,3.377,0,0,0,1.391-1.5,4.261,4.261,0,0,0,.4-1.6c0-.3-.2-.6-.1-.9a.251.251,0,0,1,.4-.1c.2.1.3.3.4.4.1.2.5.4.5.6a.883.883,0,0,1-.1.7,5.854,5.854,0,0,1-.6,1.694c-1.195,1.988-2.889,3.584-5.582,3.183a5.891,5.891,0,0,1-2.487-1.293,5.424,5.424,0,0,1-1.694-1.988c-.9-2.194.2-4.681,1.6-6.179a5.286,5.286,0,0,1,1.391-1.195M31.822,142.906c0,.1.1.1.2.2.2.2.4.6.6.793.2.3.5.5.7.793v.2a1.02,1.02,0,0,1-.5.4c-.4.3-.7.5-1.1.793a41.658,41.658,0,0,0-4.084,3.183,12.615,12.615,0,0,0-1.391,1.1c-.2.1-.3.3-.5.4h-.2c-.2-.2-.2-.3-.3-.4a1.261,1.261,0,0,0-.3-.4c-.2-.3-.5-.5-.7-.793a.37.37,0,0,1-.1-.3.342.342,0,0,0,.1-.2l1.792-1.195a14.551,14.551,0,0,1,1.5-1.1c.6-.5,1.195-1,1.89-1.5a1.461,1.461,0,0,1,.4-.3,18.286,18.286,0,0,1,1.5-1.293,2.225,2.225,0,0,1,.5-.4m123.888.4c.3,0,.7.5.9.7.3.2.5.5.793.7a9.192,9.192,0,0,1,1,.9,2.225,2.225,0,0,1,.5.4l2.1,1.792c.2.1.4.3.6.4a7.909,7.909,0,0,0,1,.793c.1.1.5.3.6.6v.1a1.262,1.262,0,0,1-.3.4l-.5.5c-.1.2-.2.3-.3.5l-.3.3a.194.194,0,0,1-.3,0l-.7-.7a16.007,16.007,0,0,0-1.5-1.293c-1.195-1.1-2.389-2.1-3.682-3.085-.2-.2-.5-.3-.7-.5a2.225,2.225,0,0,1-.5-.4c-.1,0-.1-.1-.2-.2a.3.3,0,0,1,.1-.2c.2-.3.5-.5.7-.793.3-.3.5-.7.7-.9M34.094,145.785c.3.1.4.3.6.5a4.385,4.385,0,0,1,.6.7c.6.6,1.1,1.293,1.694,1.89a12.492,12.492,0,0,0,1.195,1.195c.2.2.4.5.6.7.1.1.4.3.4.5a.122.122,0,0,1,0,.2c-.1.2-.3.3-.4.5-.1.1-.3.3-.5.2-.2,0-.3-.3-.4-.4a5.22,5.22,0,0,0-.7-.793.969.969,0,0,0-.4-.5.194.194,0,0,0-.3,0c-.2.1-.3.3-.5.4-.2.2-.3.4-.5.5-.4.4-.793.7-1.195,1.1-.6.6-1.195,1.195-1.89,1.792-.2.2-.4.3-.6.5a3.986,3.986,0,0,1-.6.7c-.2.1-.3.3-.4.4l-.3.3c-.1,0-.1.1-.2,0-.3,0-.6-.6-.793-.793a4.232,4.232,0,0,0-.7-.7c0-.1-.1-.2,0-.3,0-.2.2-.2.3-.3a14.123,14.123,0,0,0,1.293-1.195c1-.9,2.1-1.792,3.085-2.791a9.605,9.605,0,0,0,1-1c.1-.1.3-.2.4-.4a.136.136,0,0,0,0-.2c0-.2-.2-.3-.3-.4l-.7-.7c-.2-.1-.7-.5-.7-.7s.3-.3.4-.4c.1-.2.3-.5.5-.5m118.12,3.486c-.1.1-.2.1-.3.2-.2,0-.793.4-.793.7a.342.342,0,0,1,.1.2l.5.5a1.461,1.461,0,0,1,.3.4l.6.6a5.219,5.219,0,0,1,.793.7.282.282,0,0,0,.2.1,1.513,1.513,0,0,0,.7-1.195,1.958,1.958,0,0,0-.4-1.293c-.1,0-.1-.1-.2-.2a.342.342,0,0,0-.2-.1,1.955,1.955,0,0,0-1.293-.6Zm1.1-1.988a5.074,5.074,0,0,1,1.195.2,2.44,2.44,0,0,1,1.5,2.194,1.407,1.407,0,0,1-.2,1.1c0,.2-.1.3-.1.5,0,.1,0,.2.1.2.1.1.2.1.4.1.2.1.5.1.7.2.3.1.6.1,1,.2.6.1,1.195.3,1.89.4.2.1,1.293.2,1.293.5-.1,0-.1.1-.1.2-.3.2-.6.5-.9.7l-.6.6-.3.3h-.2c-.2,0-.3-.1-.5-.1-.3-.1-.7-.2-1-.3-.4-.1-.7-.2-1.1-.3s-.793-.2-1.1-.3a2.8,2.8,0,0,0-.793-.2c-.1-.1-.2,0-.2.1l.5.5,1,1c.4.3.7.6,1.1.9.1.2.3.3.3.5.1,0,.1.1,0,.1a1.538,1.538,0,0,1-.7.7,5.741,5.741,0,0,0-.7.793h-.2c-.2,0-.4-.3-.5-.4-.4-.4-.7-.793-1.1-1.195a18.621,18.621,0,0,0-1.391-1.391c-1-1.1-1.988-2.1-3.085-3.085-.1-.1-.793-.6-.793-.793a.282.282,0,0,1,.1-.2c.1-.2.3-.3.4-.4l.6-.6a11.912,11.912,0,0,1,2.585-2.389l.9-.3h0ZM40.176,152.053c.1,0,.2.1.3.1l1.1,1.1a6.537,6.537,0,0,1,.9.793,10.8,10.8,0,0,1,1.1.9,1.261,1.261,0,0,1,.4.3c.2.1.6.4.4.7l-.3.3-.3.3a.1.1,0,0,1-.1.1c-.1,0-.2,0-.2-.1-.1,0-.2-.1-.3-.2a3.987,3.987,0,0,0-.6-.7,3.985,3.985,0,0,1-.7-.6c-.2-.2-.4-.4-.5-.4a.39.39,0,0,0-.3.1,4.551,4.551,0,0,0-.7.7c-.2.3-.5.5-.7.793-.1.1-.3.3-.2.4,0,.2.4.4.5.5a9.193,9.193,0,0,1,1,.9c.2.1.5.2.6.4a.3.3,0,0,1,.1.2.822.822,0,0,1-.3.5.766.766,0,0,1-.4.4c0,.1-.1.1-.2.1-.2-.1-.3-.3-.5-.5l-.793-.793-.5-.5a.514.514,0,0,0-.4-.2.282.282,0,0,0-.2.1,5.944,5.944,0,0,0-.793.9,6.051,6.051,0,0,1-.793.793c-.1.2-.2.3-.3.5-.1,0-.1.2,0,.2a2.4,2.4,0,0,0,.5.5l1.195.9c.2.2.4.3.5.5a.122.122,0,0,1,0,.2c0,.2-.3.3-.4.5l-.3.3h-.1c-.3,0-.7-.6-1-.793-.5-.5-1.1-1.1-1.694-1.6a2.7,2.7,0,0,1-.6-.5c-.2-.1-.9-.6-.793-.793,0-.2.3-.5.5-.6a12.156,12.156,0,0,1,1.1-1.195c.4-.5.9-.9,1.293-1.391.6-.6,1.1-1.293,1.694-1.89a13.5,13.5,0,0,1,1-1.293c.3-.3.5-.6.793-.9m107.661,0c.2.1.3.3.5.5.1.2.3.3.3.5,0,.1-.1.2-.2.3a1.914,1.914,0,0,0-.5.3c-.5.3-.793.6-1.293.9l-.4.4a.39.39,0,0,0,.1.3c0,.1.2.2.3.4a3.17,3.17,0,0,0,.5.7,4.638,4.638,0,0,0,.7.793h.2a.282.282,0,0,0,.2-.1,6.536,6.536,0,0,0,.9-.793l.9-.9c.1,0,.2-.1.3-.1.2,0,.3.3.4.5.1.1.4.3.4.5,0,.1-.1.1-.1.2l-.6.3c-.4.3-.7.6-1.1.9-.2.2-.4.3-.5.4a.194.194,0,0,0,0,.3,1.261,1.261,0,0,0,.3.4,10.8,10.8,0,0,0,.9,1.1,2.591,2.591,0,0,0,.7.793h.2a1.741,1.741,0,0,0,.7-.5,5.944,5.944,0,0,1,.9-.793c.2-.2.5-.6.7-.6s.3.3.4.5c.1.1.3.2.4.4a.282.282,0,0,1-.1.2c0,.1-.1.1-.2.2-.2.2-.4.3-.6.5-.6.4-1.195.9-1.89,1.391a9.193,9.193,0,0,1-1,.9c-.1.1-.3.3-.4.3h-.2a1.478,1.478,0,0,1-.5-.7,5.069,5.069,0,0,1-.7-.9,5.57,5.57,0,0,1-.6-.793c-.3-.3-.6-.7-1-1.1-.2-.3-.4-.5-.6-.793-.4-.5-.9-1.1-1.391-1.6a6.538,6.538,0,0,0-.793-.9c-.1-.2-.3-.3-.4-.5v-.2c0-.2.4-.4.6-.6a1.461,1.461,0,0,1,.4-.3c.7-.5,1.293-1.1,1.988-1.6a6.362,6.362,0,0,1,1.195-1.1m-5.582,4.681h.2c.2.2.3.4.5.6a5.574,5.574,0,0,0,.7.9c.793.9,1.5,1.792,2.292,2.693.5.5.9,1.1,1.391,1.6a3.76,3.76,0,0,1,.793,1c.2.2.5.4.5.6.1.1.1.2,0,.2-.4.2-.7.5-1.1.7-.2.1-.4.3-.6.4a.282.282,0,0,1-.2.1,5.18,5.18,0,0,1-.9-1.1,20.163,20.163,0,0,1-1.391-1.792c-.5-.5-.9-1.1-1.391-1.6a.282.282,0,0,0-.2-.1c0,.1-.1.1-.1.2.1.4.1.9.2,1.391a1.281,1.281,0,0,0,.1.6,4.926,4.926,0,0,0,.1,1.195c.1.6.1,1.1.2,1.694.1.3.1.6.2,1,0,.1.1.3,0,.5,0,.2-.3.4-.4.4h-.2c-.6-.3-1.195-.7-1.792-1-.793-.5-1.694-1-2.487-1.5-.2-.1-1.293-.793-1.391-.7a.1.1,0,0,0-.1.1.768.768,0,0,1,.2.4,6.72,6.72,0,0,1,.4.793c.4.793.9,1.6,1.293,2.389a9.428,9.428,0,0,1,.5,1c.1.2.3.3.3.5v.2a2.133,2.133,0,0,1-.6.4c-.1.1-.2.1-.3.2a.136.136,0,0,1-.2,0,.211.211,0,0,1-.2-.2l-.3-.6c-.2-.5-.4-.9-.6-1.391l-.6-1.5c-.5-1.1-1-2.1-1.5-3.183-.2-.4-.4-.7-.6-1.1-.1-.2-.4-.6-.3-.793,0-.3.3-.4.5-.5.1-.1.2-.1.3-.2a.37.37,0,0,1,.3-.1c.108,0,.2.1.4.2a1.832,1.832,0,0,1,.6.4c1.195.7,2.487,1.391,3.682,2.194.3.2.6.3.9.5.2.1.3.2.5.3a.1.1,0,0,0,.1-.1c.2-.1,0-1.694-.1-1.988-.1-1.195-.3-2.389-.4-3.682-.1-.3-.1-.6-.2-.9,0-.2-.1-.4,0-.5,0-.3.4-.4.6-.5a1.461,1.461,0,0,1,.4-.3m-95.2,2.1a2.575,2.575,0,0,0-.7.793l-.4.4c-.1.2-.3.4-.4.6-.793,1-1.5,1.89-2.194,2.889-.2.3-1,1.293-.9,1.5,0,.2,1,.9,1.293,1l.6.3c.3,0,.6.1.9.1a.37.37,0,0,1,.3-.1h.1c.2-.1.5-.1.7-.2a3.636,3.636,0,0,0,1.293-.9c1.195-1.195,2.292-3.085,1.391-4.681a3.5,3.5,0,0,0-.793-.9,4.79,4.79,0,0,0-1.195-.793h0Zm-1.391-2.291c.2,0,.4.3.6.4l.4.4c.4.2.7.5,1.1.7a15.335,15.335,0,0,1,2.791,2.389,4.349,4.349,0,0,1,.793,3.682c-.1.3-.3.6-.4.9a6.888,6.888,0,0,1-1,1.391,5.07,5.07,0,0,1-.9.7,5.6,5.6,0,0,1-.793.5,5.159,5.159,0,0,1-4.377-.3,3.969,3.969,0,0,1-.7-.4c-.2-.1-.3-.3-.5-.4a.282.282,0,0,0-.2.1h-.1c-.1-.1,0-.3-.2-.4a6.966,6.966,0,0,0-1.293-1.1,3.646,3.646,0,0,1-1-.7.39.39,0,0,1,.1-.3,3.776,3.776,0,0,1,.6-.7c.2-.3.5-.6.7-.9.5-.6.9-1.195,1.391-1.792.2-.3.5-.7.7-1,.4-.5.7-1,1.1-1.5.2-.4.5-.7.7-1.1.2-.2.3-.4.5-.6h0ZM59.36,165.6h.793a5.014,5.014,0,0,1,3.085,1.694.553.553,0,0,1,.2.6c0,.2-.3.4-.4.5-.2.2-.4.5-.6.6h-.3a1.2,1.2,0,0,1-.2-.793,2.112,2.112,0,0,0-.5-.793,1.271,1.271,0,0,0-2.194.2c-.2.7.4,1.5.793,1.89.793,1,1.89,2.292,1.293,3.78a2.326,2.326,0,0,1-.9,1.293c-1.5,1.293-3.388.9-4.877-.1-.3-.2-1.293-.9-1.293-1.293a15.5,15.5,0,0,1,1.1-1.6c.1,0,.3,0,.3.1.2.1.2.5.2.793a2.164,2.164,0,0,0,2.194,1.6c.2-.1.4-.1.5-.2,1.391-1.195-.7-2.889-1.195-3.78a1.818,1.818,0,0,1-.5-1.195,2.956,2.956,0,0,1,1.5-2.987,4.323,4.323,0,0,1,1-.3m5.68,1.988c.3.1.5.2.793.3.4.2.9.3,1.293.5,1.1.4,2.291.793,3.388,1.195l.9.3a.739.739,0,0,1,.6.2c.1,0,.1.1.1.3-.1.1-.1.2-.2.3a1.084,1.084,0,0,1-.2.6c-.4.3-2.194-1.1-2.487-.7a1.862,1.862,0,0,0-.2.7,3.052,3.052,0,0,0-.4,1c-.1.1-.1.3-.2.4-.4,1.293-.9,2.585-1.293,3.986-.1.4-.3.9-.4,1.293a.77.77,0,0,0-.1.4c-.1.1-.2.2-.3.2-.2,0-.4-.2-.6-.2l-.6-.3c-.3-.1-.6-.1-.793-.2-.1,0-.1-.1-.1-.2-.1-.1,0-.3.1-.5.2-.5.5-1.1.7-1.6.3-.793.5-1.6.793-2.389a13.5,13.5,0,0,1,.7-1.792c.1-.5.3-1,.4-1.5v-.2a.775.775,0,0,0-.5-.2c-.2-.1-.5-.2-.793-.3a1.943,1.943,0,0,1-1.1-.3v-.1a1.084,1.084,0,0,1,.2-.6.615.615,0,0,1,.1-.4c0-.1.1-.1.2-.1v-.1m64.632.2c-.1,0-.1.1-.1.2a.763.763,0,0,0,.1.5c0,.4.1.7.1,1.1.1.4.1.793.2,1.195a.211.211,0,0,0,.2.2c.2.1,1.391-.6,1.694-.793l.2-.2a.342.342,0,0,0-.1-.2c-.4-.4-.793-.7-1.1-1a2.244,2.244,0,0,0-.7-.7,2.652,2.652,0,0,0-.5-.3h0Zm-.1-3.183h.2c.2.1.3.3.5.4a11.583,11.583,0,0,0,1.1,1.1c.9.9,1.694,1.6,2.585,2.389.6.5,1.195,1.1,1.792,1.6.5.5,1.1.9,1.6,1.391a.342.342,0,0,1,.1.2c-.1.2-.7.4-1,.5a2.653,2.653,0,0,1-.5.3c-.2.108-.5.5-.793.4l-.5-.5-.5-.5a4.656,4.656,0,0,1-.7-.7c-.1-.1-.3-.3-.4-.3-.2-.1-.6.1-.793.2a5.6,5.6,0,0,1-.793.5,11.079,11.079,0,0,0-1.1.6l-.2.2c0,.2.1.5.1.6.1.5.1.9.2,1.293a2.978,2.978,0,0,1,.2.9.3.3,0,0,1-.1.2,2.653,2.653,0,0,1-.5.3c-.1,0-.4.3-.6.3-.1-.1-.2-.1-.2-.2v-.793a1.712,1.712,0,0,1-.1-.7c-.1-.6-.1-1-.2-1.5,0-.7-.1-1.293-.1-1.89-.2-1.1-.3-2.194-.4-3.29l-.3-1.5c0-.2-.1-.5,0-.7s.5-.3.7-.4a4.369,4.369,0,0,1,.7-.4h0ZM121.2,168.3a1.358,1.358,0,0,1,.3.2c.1.1.1.3.2.5a4.5,4.5,0,0,1,.1.5.282.282,0,0,1-.1.2c-.2.1-.5.1-.7.2-.4,0-1.988.3-2.1.6a8.331,8.331,0,0,0,.6,2.487.37.37,0,0,0,.3.1c.108,0,.2-.1.3-.1a1.067,1.067,0,0,0,.5-.2,14.488,14.488,0,0,1,1.6-.5c.1-.1.2-.1.2,0a.282.282,0,0,1,.2.1v.3a1.431,1.431,0,0,1,.2.6.39.39,0,0,1-.1.3,1.958,1.958,0,0,1-.793.1c-.4.1-.7.2-1.1.3-.2.1-.5.1-.7.3a.211.211,0,0,0-.2.2c0,.2.2.5.2.7l.6,1.792c.1.3.2.5.3.793,0,.2.3.6.2.793,0,.1-.1.1-.1.2-.2.1-.6.1-.793.2a.916.916,0,0,0-.5.1c-.2.1-.7.3-.793.2h-.1c-.1,0-.1-.1-.2-.2a8.662,8.662,0,0,0-.4-1.6c-.2-.9-.5-1.694-.7-2.693a.37.37,0,0,1-.1-.3c-.1-.2-.2-.5-.3-.7,0-.2-.1-.4-.1-.6-.2-.7-.4-1.293-.6-1.988a4.287,4.287,0,0,1-.4-1.195c.1-.2,1-.4,1.195-.4,1.1-.3,2.1-.6,3.085-.9a1.431,1.431,0,0,1,.6-.2c0-.1.1-.1.2-.1v-.1m-43.225,3.183c.4,0,.7.2,1.1.2l1.5.3a11.784,11.784,0,0,0,1.792.4c.4.1.793.1,1.293.2.3.1.7.1,1.1.2a.615.615,0,0,1,.4.1.211.211,0,0,1,.2.2c0,.2-.1.3-.1.4a1.282,1.282,0,0,0-.1.6l-.1.1a.62.62,0,0,1-.6-.1c-.4-.1-.9-.2-1.293-.3-.2,0-.3-.1-.4-.1a.211.211,0,0,0-.2.2,2.415,2.415,0,0,0-.2.793c-.1.5-.2,1-.3,1.391-.2,1.1-.4,2.194-.6,3.388,0,.2-.1.4-.1.6-.1.7-.2,1.293-.3,1.89,0,.1-.1.1-.2.2a1.861,1.861,0,0,1-.7-.2c-.2,0-.3-.1-.5-.1a2.83,2.83,0,0,1-.9-.1.342.342,0,0,1-.1-.2.667.667,0,0,1,.1-.6l.3-1.5a25.988,25.988,0,0,0,.5-2.693l.3-1.195c.1-.5.1-.9.2-1.391a1.712,1.712,0,0,0,.1-.7.39.39,0,0,0-.1-.3.615.615,0,0,1-.4-.1c-.5,0-1-.1-1.5-.1-.2-.1-.4,0-.5-.2s0-.5,0-.7c.1-.2,0-.4.3-.6m32.571.7a.282.282,0,0,0-.2.1h-.4a2.724,2.724,0,0,0-1.5,1.293,3.06,3.06,0,0,0-.5,1.694,8.941,8.941,0,0,0,.2,1.694,4.648,4.648,0,0,0,1.6,3.085,2.983,2.983,0,0,0,1.6.5h.2a.342.342,0,0,1,.2-.1,4.494,4.494,0,0,1,.5-.1,2.178,2.178,0,0,0,1-.9,3.332,3.332,0,0,0,.6-1.5,1.5,1.5,0,0,0,.1-.7v-.3a7.908,7.908,0,0,0-.2-1.6,4.951,4.951,0,0,0-1.792-2.889,3.251,3.251,0,0,0-1.391-.3h0Zm.7-1.1a4.817,4.817,0,0,1,5.082,4.583,5.692,5.692,0,0,1-.2,2.585,5.342,5.342,0,0,1-2.987,2.889,5.909,5.909,0,0,1-1.391.4,3.81,3.81,0,0,1-1.1.1,5.061,5.061,0,0,1-3.388-1.195,4.207,4.207,0,0,1-1.391-2.291c-.793-2.585-.1-4.975,2.194-6.277a4.96,4.96,0,0,1,1.1-.4,1.891,1.891,0,0,1,.793-.2h.2c0-.1.2-.1.3-.1h.4a.615.615,0,0,1,.4-.1Zm-14.444,1.792a5.958,5.958,0,0,1,2.389.3c.2.1.5.2.5.4a1.812,1.812,0,0,1-.2.7,2.357,2.357,0,0,1-.2.793c-.1.1-.2.2-.3.1-.2-.1-.3-.4-.5-.5a1.7,1.7,0,0,0-2.291-.3.9.9,0,0,0-.3,1c.1.793,1.195,1.195,1.89,1.391,1.195.6,2.291,1.1,2.585,2.693a4.543,4.543,0,0,1-.1,1.1,3.073,3.073,0,0,1-.6,1.293c-.9,1.293-3.29,1.6-4.877,1.1-.2-.1-.7-.1-.793-.4,0-.2.1-.4.1-.6.1-.3.1-1,.2-1.293a.37.37,0,0,1,.3-.1c.2,0,.4.5.5.6a2.163,2.163,0,0,0,1.792.793c.1,0,.2,0,.2-.1h.2a1.431,1.431,0,0,0,.6-.3,1.244,1.244,0,0,0,.4-.793c0-1.1-1.391-1.6-2.194-1.89a11.079,11.079,0,0,0-1.1-.6,4.057,4.057,0,0,1-1-1.195,2.415,2.415,0,0,1-.2-.793,3.009,3.009,0,0,1,1.694-3.085,1.891,1.891,0,0,1,.793-.2,4.494,4.494,0,0,0,.5-.1m-9.656,0a.916.916,0,0,0,.5.1c.3,0,.7.1,1.1.1.9,0,1.694.1,2.585.1.4,0,1.293-.1,1.391.3a.37.37,0,0,0-.1.3c0,.2,0,.6-.1.7-.1,0-.1.1-.2.1-.4-.1-.793-.1-1.293-.2a2.83,2.83,0,0,1-.9-.1c-.2,0-.6-.1-.7.1a4.187,4.187,0,0,0-.2,1.6c0,.3-.1.6-.1.9a.3.3,0,0,1,.1.2,3.776,3.776,0,0,0,1.1.1h1.694c.4.1.3.4.3.7,0,.2,0,.6-.2.7h-.4c-.4-.1-2.389-.5-2.585-.2a.615.615,0,0,0-.1.4c-.1.5,0,1-.1,1.5v1.1a.39.39,0,0,0,.1.3,4.541,4.541,0,0,0,1.195.1h1.5c.1-.1.2,0,.3,0,.2.1.1.4.1.7,0,.1,0,.4-.1.5a.1.1,0,0,1-.1.1,2.191,2.191,0,0,1-1.1-.1c-1-.1-1.988-.1-3.085-.2a4.877,4.877,0,0,1-1.195,0c0-.1-.1-.1-.1-.2v-.6c.1-.5.1-.9.2-1.293a18.72,18.72,0,0,0,.1-2.291c.1-1.1.2-2.194.2-3.29v-1.89c.1-.1.1-.2.2-.3m-13.543.5v.1c-.2,0-.4.4-.5.5-.3.5-.6.9-.9,1.391-.1.1-.2.3-.3.4,0,.1-.1.2-.1.3l.1.1c.2.1.3.1.5.2.2,0,.5.1.7.1a1.861,1.861,0,0,0,.7.2.32.32,0,0,0,.2-.3,2.49,2.49,0,0,0-.1-1.195,2.83,2.83,0,0,0-.1-.9,1.713,1.713,0,0,0-.1-.7c0-.1-.1-.1-.1-.2h0Zm.5-2.791a2.445,2.445,0,0,1,.9.2,1.068,1.068,0,0,1,.793.2c.2.2.1.9.2,1.1v1.1a3.463,3.463,0,0,1,.1,1c.1,1.391.4,2.791.5,4.182l.3,1.792c0,.3.1.7.1,1,0,.1,0,.3-.2.3s-.5-.2-.7-.2c-.3-.1-.6-.1-.793-.2-.3-.1-.5,0-.7-.1-.1-.1-.2-.2-.2-.3v-.6c0-.5-.1-1-.1-1.391-.1-.3,0-.5-.1-.7-.1-.1-.2-.2-.3-.2a11.782,11.782,0,0,0-1.792-.4,1.906,1.906,0,0,0-1.1-.2c-.2.1-.4.6-.5.793-.2.4-.5.793-.7,1.195-.1.1-.2.4-.4.5a.62.62,0,0,1-.6-.1c-.2,0-.6,0-.7-.2-.1,0-.1-.1-.1-.2a2.694,2.694,0,0,1,.5-.6l.9-1.195a12.33,12.33,0,0,1,.793-1.1c.793-1.1,1.6-2.291,2.291-3.388.3-.5.6-.9.9-1.391a3.168,3.168,0,0,1,.7-.9h0Z" transform="translate(-0.104 -0.099)" fill="#003d6e"/>
      </g>
    </g>
    <g id="Group_7" data-name="Group 7" transform="translate(199.06 17.809)">
      <g id="Group_6" data-name="Group 6" clip-path="url(#clip-path)">
        <g id="Group_5" data-name="Group 5" style="isolation: isolate">
          <g id="Group_4" data-name="Group 4">
            <g id="Group_3" data-name="Group 3" clip-path="url(#clip-path)">
              <text id="FECFile" transform="translate(0 120.238)" fill="#022340" font-size="144" font-family="GandhiSerif-Bold, Gandhi Serif" font-weight="700"><tspan x="0" y="0">F</tspan><tspan y="0" letter-spacing="-0.01em">E</tspan><tspan y="0">C</tspan><tspan y="0" letter-spacing="-0.019em">F</tspan><tspan y="0">i</tspan><tspan y="0" letter-spacing="-0.015em">l</tspan><tspan y="0">e</tspan></text>
            </g>
          </g>
        </g>
      </g>
    </g>
  </g>
</svg>
