<?xml version="1.0" encoding="UTF-8"?>
<svg id="Layer_1_copy" data-name="Layer 1 copy" xmlns="http://www.w3.org/2000/svg" viewBox="0 0 725.95 192">
  <defs>
    <style>
      .cls-1 {
        letter-spacing: -.02em;
      }

      .cls-2 {
        fill: #003d6e;
      }

      .cls-3, .cls-4 {
        fill: #fff;
      }

      .cls-5 {
        fill: #d1393f;
      }

      .cls-6 {
        letter-spacing: -.02em;
      }

      .cls-7 {
        letter-spacing: 0em;
      }

      .cls-4 {
        font-family: GandhiSerif-Bold, 'Gandhi Serif';
        font-size: 144px;
        font-weight: 700;
      }
    </style>
  </defs>
  <g>
    <path class="cls-3" d="m93.87,0h3.86c3.05.1,6,.31,8.95.61.31.1.71.1,1.02.2,1.22.1,2.34.31,3.46.41,1.32.2,2.75.51,4.07.81,2.64.51,5.29,1.12,7.83,1.93,1.02.31,1.93.61,2.85.92,1.42.41,2.85.92,4.17,1.42,2.14.81,4.17,1.73,6.1,2.64.81.31,1.53.71,2.34,1.02,2.75,1.42,5.49,2.85,8.14,4.58,1.83,1.12,3.66,2.34,5.39,3.56,1.32.92,2.44,1.93,3.76,2.85.61.51,1.32,1.02,1.93,1.63,6.2,5.19,12,11.49,16.58,17.9.81,1.22,1.73,2.44,2.54,3.76,1.32,1.93,2.44,3.97,3.56,6,1.22,2.24,2.34,4.37,3.36,6.71,1.12,2.54,2.24,5.19,3.05,7.93.2.61.51,1.22.71,1.93.41,1.42.92,2.95,1.32,4.47.31,1.22.61,2.44.81,3.66.2.92.51,1.83.61,2.85.41,2.03.71,4.17,1.02,6.2.71,5.39.81,11.19.61,16.88l-.31,3.97c-.1.92-.2,1.93-.31,2.85-.1.41-.1.71-.1,1.02-.1.71-.2,1.32-.31,1.93l-.31,1.53c-.2,1.32-.51,2.75-.81,4.07-.51,2.75-1.22,5.29-2.03,7.93-.81,2.75-1.73,5.39-2.85,8.03-.61,1.63-1.22,3.25-2.03,4.88l-.92,1.83c-.81,1.73-1.73,3.36-2.64,4.98l-1.22,2.14c-3.86,6.2-8.24,12-13.63,17.39-.2.2-.31.41-.51.61-.41.31-.71.71-1.12,1.02-.31.31-.51.61-.81.81l-1.22,1.22-1.83,1.53-.41.41c-.61.41-1.12.92-1.73,1.32l-.51.51c-.61.51-1.22.92-1.73,1.42l-1.22.92c-.92.61-1.73,1.22-2.54,1.83-.92.61-1.83,1.22-2.85,1.83-.2.1-.41.31-.71.51-.81.41-1.63.92-2.34,1.42-2.14,1.22-4.27,2.34-6.41,3.46l-1.53.61c-.1.1-.31.2-.51.31-.61.31-1.32.61-2.03.92-1.53.71-3.15,1.32-4.68,1.93-1.63.61-3.25,1.02-4.88,1.63-.31.1-.51.1-.81.2-.81.2-1.53.51-2.34.71-.51.1-1.02.2-1.53.41-.51.1-1.02.2-1.63.41-.71.2-1.42.31-2.24.51-.71.1-1.53.31-2.34.41-.81.1-1.53.31-2.24.41-.41.1-.71.1-1.02.2-.31,0-.71.1-1.02.1-.2,0-.31.1-.51.1-.51,0-1.12.1-1.63.2-.41.1-.81.1-1.22.1-.61.1-1.22.2-1.73.2-.31,0-.51,0-.71.1-1.12,0-2.24.1-3.46.1-.2.1-.31.1-.51.1-.92,0-1.73,0-2.64.1-.71,0-1.53-.1-2.24-.1h-2.03c-.61,0-1.12-.1-1.73-.1-1.42-.1-2.95-.2-4.37-.31-.61-.1-1.22-.1-1.93-.2-2.03-.31-4.07-.61-6.2-.92-.51-.1-1.02-.2-1.63-.31-.51-.1-1.12-.2-1.63-.41-.71-.1-1.32-.31-1.93-.41-1.02-.2-1.93-.51-2.95-.71-.71-.2-1.42-.41-2.03-.61-.41-.1-.81-.2-1.22-.41-2.44-.81-4.78-1.53-7.12-2.44-.31-.2-.61-.31-.92-.41-.71-.31-1.53-.61-2.24-1.02-1.73-.71-3.46-1.53-5.19-2.34l-2.14-1.22c-.61-.31-1.12-.61-1.73-.92-.31-.2-.51-.31-.81-.51l-1.53-.92c-.31-.2-.61-.31-.92-.51-.61-.41-1.32-.92-1.93-1.32-1.02-.61-1.93-1.32-2.85-1.93-.71-.51-1.42-1.12-2.14-1.63-.92-.61-1.83-1.42-2.75-2.14-.2-.2-.51-.41-.71-.61-2.03-1.53-3.97-3.36-5.9-5.29-.61-.61-1.22-1.22-1.93-1.83-.61-.61-1.22-1.42-1.83-2.03-4.17-4.58-7.73-9.46-10.88-14.54-.51-.81-.92-1.63-1.42-2.44-.81-1.42-1.63-2.85-2.34-4.37-.1-.1-.1-.31-.2-.51s-.31-.41-.41-.71c-.2-.31-.31-.71-.51-1.12-.2-.31-.31-.61-.51-1.02,0-.1-.1-.31-.2-.51-.71-1.63-1.42-3.36-2.03-4.98-.71-1.73-1.32-3.46-1.83-5.29-.1-.2-.2-.51-.31-.81,0-.1,0-.2-.1-.31-.71-2.64-1.42-5.39-2.03-8.24-.51-2.44-.92-4.98-1.32-7.53,0-.61-.1-1.12-.1-1.73-.2-1.73-.41-3.36-.41-5.19-.1-1.02-.2-2.14-.2-3.15v-5.29c0-.31,0-.51.1-.81v-.61c.1-.31.1-.61.1-.81,0-1.12.1-2.14.2-3.15.1-.81.2-1.73.31-2.54s.2-1.63.31-2.34c.1-.61.1-1.22.2-1.83l.61-3.36c.92-4.37,2.03-8.54,3.46-12.61.41-1.42,1.02-2.75,1.42-4.07.31-.61.51-1.22.81-1.83.1-.31.2-.61.31-.81.31-.81.71-1.53,1.02-2.24.51-1.12,1.02-2.24,1.63-3.36.2-.41.51-.92.71-1.32.41-.71.71-1.42,1.12-2.03.2-.51.51-.92.71-1.32.2-.41.41-.71.61-1.02l1.83-3.05c.31-.41.61-.81.92-1.32.61-.92,1.32-1.93,2.03-2.75.1-.2.2-.31.31-.51.31-.41.51-.81.81-1.12,1.02-1.32,2.03-2.54,3.05-3.76.61-.81,1.22-1.42,1.83-2.14.41-.51.81-.92,1.12-1.32,1.32-1.32,2.54-2.64,3.86-3.86.61-.61,1.32-1.22,1.93-1.83.71-.71,1.42-1.32,2.14-1.93.81-.71,1.63-1.32,2.44-2.03,1.32-1.02,2.64-2.03,3.97-2.95,2.14-1.63,4.47-3.05,6.71-4.47,3.25-1.93,6.51-3.66,9.86-5.19,1.53-.71,3.05-1.32,4.58-1.93.51-.2.92-.31,1.32-.51.2,0,.31-.1.41-.1.51-.2,1.02-.41,1.53-.51.92-.41,1.83-.61,2.75-.92.71-.31,1.53-.51,2.24-.71.61-.2,1.32-.41,1.93-.51.81-.2,1.63-.51,2.44-.61l1.22-.31c.2,0,.41-.1.61-.1.1,0,.2-.1.31-.1.2,0,.41-.1.71-.1.2-.1.41-.2.61-.2h.51c.1-.1.41-.2.61-.2h.41l.1-.1h.31c.1-.1.2-.1.31-.1h.41q.1,0,.2-.1h.41q.1,0,.2-.1c.1,0,.31-.1.51-.1h.71c0-.1.1-.1.2-.1h.51c0-.1.1-.1.1-.1h.61c.1,0,.1-.1.2-.1h.61c0-.1.1-.1.2-.1h.61c.1,0,.1-.1.2-.1h.61c.1-.1.2-.1.31-.1h.81s.1,0,.2-.1h.81c.1-.1.2,0,.2,0,.1-.1.31-.1.41-.1h1.12c.1-.1.2-.1.41-.1h.71c.1-.1.31,0,.51,0,.1-.1.31-.1.41-.1h.61c.2-.1.61,0,.71,0C93.16,0,93.67.1,93.87,0h0Z"/>
    <path class="cls-2" d="m95.09,2.64h-2.85c-.51.1-.92.1-1.32.1h-1.02c-.71.1-1.32.2-1.93.2-.71.1-1.42.1-2.24.2-.71.1-1.53.2-2.24.31-1.02.1-1.93.2-2.85.41-1.83.31-3.56.61-5.29,1.02-1.53.31-3.05.71-4.58,1.12-.61.2-1.22.31-1.93.51-1.53.51-3.15,1.02-4.68,1.53-.1.1-.31.2-.51.2-.31.2-.71.31-1.02.41-2.24.92-4.37,1.83-6.51,2.75-.31.2-.51.31-.71.41-.2.1-.41.2-.51.2-.2.1-.41.2-.51.31-1.02.41-2.03.92-2.95,1.53-.51.31-1.02.51-1.63.81-.92.51-1.73,1.12-2.64,1.63-.41.2-.71.41-1.02.61-1.32.92-2.64,1.73-3.97,2.64-.81.51-1.53,1.22-2.34,1.83-1.02.61-1.93,1.32-2.85,2.14-.71.61-1.53,1.22-2.24,1.93-.61.41-1.12.92-1.63,1.42-2.03,1.83-4.07,3.86-6,5.9-.41.51-.81.92-1.12,1.42l-.61.61c-.2.2-.41.51-.61.71l-.2.2c-.61.71-1.22,1.42-1.73,2.14-.51.61-.92,1.12-1.32,1.73-.31.31-.51.71-.81,1.02-.41.61-.81,1.12-1.22,1.73-.92,1.32-1.83,2.64-2.64,3.97-.1.1-.1.2-.2.31s-.1.2-.2.31l-.92,1.53c-.51.92-1.02,1.83-1.63,2.85-.61,1.12-1.12,2.24-1.73,3.46-.2.31-.31.61-.51,1.02s-.41.81-.51,1.12c-.41.92-.92,1.93-1.22,2.85-.31.71-.61,1.53-.92,2.24-.31.51-.41,1.12-.71,1.73-.61,1.63-1.12,3.25-1.63,4.98,0,.1-.1.31-.1.41-.2.71-.41,1.32-.61,1.93,0,.2-.1.41-.1.51-.31,1.02-.61,2.03-.81,3.05-.1.41-.1.71-.2,1.02-.2.61-.31,1.22-.41,1.93l-.31,1.53-.31,1.83c-.31,1.42-.41,2.85-.61,4.37,0,.2-.1.51-.1.71s0,.41-.1.51v.51c0,.31,0,.61-.1,1.02-.2,2.54-.31,5.19-.31,7.83v3.15c0,.2,0,.51.1.71v1.73c.1.92.2,1.93.2,2.85.1,1.22.31,2.54.41,3.76.1.2.1.31.1.51.1,1.22.41,2.44.61,3.66.41,2.24.81,4.37,1.32,6.51.2.61.31,1.12.51,1.73l.61,2.44c.1.31.2.51.31.81l.31,1.22c.31.71.51,1.42.81,2.24.1.31.2.61.31.81.1.2.1.31.2.41,0,.2.1.31.1.51.1.31.31.61.41,1.02.1.1.1.2.1.31.1.31.31.61.41.81.1.41.2.71.41,1.12.41.92.81,1.93,1.22,2.85.2.41.31.81.51,1.12,1.12,2.24,2.14,4.37,3.36,6.41,3.05,5.08,6.41,10.07,10.37,14.54,1.73,2.03,3.56,3.97,5.49,5.9.51.51,1.02.92,1.53,1.42.41.41.92.71,1.32,1.12.61.61,1.22,1.12,1.83,1.63.71.61,1.42,1.22,2.24,1.83.2.2.41.31.71.51,1.02.81,2.03,1.53,3.05,2.34.81.61,1.73,1.22,2.64,1.73.2.2.51.41.71.61.81.51,1.63.92,2.34,1.42,2.44,1.53,4.88,2.85,7.42,4.07l.61.31c.41.2.92.41,1.32.61.61.31,1.32.61,2.03.92.1.1.2.1.41.2,1.12.51,2.34,1.02,3.46,1.42.41.1.81.31,1.12.41,2.75,1.02,5.49,1.93,8.44,2.64.61.2,1.32.41,1.93.51,4.98,1.22,10.17,2.03,15.56,2.44.51,0,1.12.1,1.73.1.41.1.71,0,1.12,0,1.12.1,2.24.1,3.46.1h3.76c.1-.1.41,0,.51,0,.2-.1.71-.1.92-.1h1.12c.1-.1.31,0,.41,0,.1-.1.31-.1.41-.1h.51c.1-.1.41,0,.51,0,.1-.1.2-.1.31-.1h.61c0-.1.2,0,.2,0,.1,0,.2-.1.2-.1h.71c.1-.1.2-.1.31-.1h.61c.1-.1.2-.1.31-.1h.61c.1,0,.2,0,.2-.1h.61q.1,0,.2-.1h.71q.1-.1.2-.1h.41q.1-.1.2-.1h.51c0-.1.1-.1.1-.1h.41c.1,0,.1-.1.2-.1h.51c0-.1.1-.1.2-.1h.2c.1-.1.2-.1.31-.1s.31-.1.51-.1h.2c.2-.1.51-.1.61-.1h.2c0-.1.1-.1.2-.1h.1c.1-.1.41-.1.61-.1,0-.1.1-.1.2-.1.2,0,.41-.1.61-.1.1,0,.31-.1.41-.1.41-.1.71-.2,1.12-.2.41-.1.71-.2,1.02-.31.2-.1.41-.2.71-.2h.1c.92-.2,1.73-.51,2.64-.71.81-.2,1.63-.51,2.44-.71.71-.31,1.53-.51,2.34-.81.92-.31,1.83-.61,2.64-1.02.41-.1.71-.31,1.12-.41.51-.2,1.12-.41,1.63-.61,1.32-.51,2.64-1.22,3.86-1.73,2.03-.92,3.97-1.93,5.9-3.05,5.08-2.85,9.97-6.31,14.54-10.17.31-.2.61-.51.92-.71.31-.2.51-.41.71-.61.51-.41.92-.92,1.42-1.32.31-.31.71-.71,1.12-1.02,1.83-1.83,3.66-3.76,5.39-5.69,1.02-1.02,1.93-2.24,2.85-3.36.31-.31.51-.71.81-1.02l.92-1.22c.1-.2.2-.31.41-.41.1-.31.2-.51.41-.71.1-.1.2-.31.31-.41.61-.92,1.22-1.73,1.83-2.54.41-.81.92-1.53,1.42-2.34l.92-1.53c.71-1.12,1.42-2.24,2.03-3.46.2-.41.41-.81.71-1.22.41-.81.81-1.63,1.12-2.44.31-.61.71-1.32,1.02-1.93.41-1.02.81-2.03,1.32-3.05.1-.31.1-.51.2-.71.31-.71.61-1.42.92-2.24,0-.1,0-.2.1-.31,0-.1.1-.2.1-.31l.31-.61c0-.31.1-.51.2-.81.1-.1.1-.2.1-.41.1-.1.1-.2.2-.41.1-.31.2-.61.31-1.02.1-.2.1-.41.2-.61.1-.2.1-.41.2-.51.61-1.93,1.12-3.86,1.63-5.8.41-1.53.71-3.05,1.02-4.68.1-.41.2-.92.31-1.32.2-1.12.31-2.24.51-3.36.2-.92.31-1.93.41-2.85v-.81c.1-.1.1-.2.1-.31.1-.71.1-1.42.2-2.14,0-.41.1-.81.1-1.12v-1.12c.1-.71.1-1.32.1-1.93v-.92c.1-1.93.1-3.86,0-5.69,0-1.02-.1-2.03-.2-2.95,0-.51,0-1.02-.1-1.53v-1.02c-.1-.2-.1-.51-.2-.81v-.51c0-.2,0-.41-.1-.61v-.71c-.1-.61-.2-1.32-.31-2.03-.41-2.44-.92-4.88-1.42-7.22-2.54-10.88-6.92-20.75-12.81-29.9-1.22-1.93-2.54-3.76-3.97-5.59-1.12-1.42-2.24-2.85-3.46-4.17-.41-.51-.81-1.02-1.32-1.63-.61-.61-1.22-1.32-1.83-1.93-.92-1.02-1.93-1.93-2.85-2.85-.2-.2-.51-.51-.81-.71-.31-.41-.71-.71-1.02-1.02-1.02-.92-1.93-1.73-2.95-2.54l-2.14-1.83c-.2-.1-.51-.31-.71-.51-.2-.1-.41-.31-.61-.51-.81-.51-1.63-1.12-2.34-1.73l-4.58-3.05c-2.95-1.73-5.8-3.46-8.85-4.88-3.97-1.93-8.03-3.46-12.2-4.88-2.14-.71-4.37-1.22-6.51-1.83-.81-.2-1.73-.41-2.64-.61-1.02-.2-2.14-.41-3.15-.61-.51-.1-.92-.2-1.32-.2-.41-.1-.71-.1-1.12-.2-.31,0-.71-.1-1.12-.1-1.12-.2-2.34-.41-3.46-.51-3.25-.31-6.71-.41-10.17-.41h0Zm-1.22-2.64h3.86c3.05.1,6,.31,8.95.61.31.1.71.1,1.02.2,1.22.1,2.34.31,3.46.41,1.32.2,2.75.51,4.07.81,2.64.51,5.29,1.12,7.83,1.93,1.02.31,1.93.61,2.85.92,1.42.41,2.85.92,4.17,1.42,2.14.81,4.17,1.73,6.1,2.64.81.31,1.53.71,2.34,1.02,2.75,1.42,5.49,2.85,8.14,4.58,1.83,1.12,3.66,2.34,5.39,3.56,1.32.92,2.44,1.93,3.76,2.85.61.51,1.32,1.02,1.93,1.63,6.2,5.19,12,11.49,16.58,17.9.81,1.22,1.73,2.44,2.54,3.76,1.32,1.93,2.44,3.97,3.56,6,1.22,2.24,2.34,4.37,3.36,6.71,1.12,2.54,2.24,5.19,3.05,7.93.2.61.51,1.22.71,1.93.41,1.42.92,2.95,1.32,4.47.31,1.22.61,2.44.81,3.66.2.92.51,1.83.61,2.85.41,2.03.71,4.17,1.02,6.2.71,5.39.81,11.19.61,16.88l-.31,3.97c-.1.92-.2,1.93-.31,2.85-.1.41-.1.71-.1,1.02-.1.71-.2,1.32-.31,1.93l-.31,1.53c-.2,1.32-.51,2.75-.81,4.07-.51,2.75-1.22,5.29-2.03,7.93-.81,2.75-1.73,5.39-2.85,8.03-.61,1.63-1.22,3.25-2.03,4.88l-.92,1.83c-.81,1.73-1.73,3.36-2.64,4.98l-1.22,2.14c-3.86,6.2-8.24,12-13.63,17.39-.2.2-.31.41-.51.61-.41.31-.71.71-1.12,1.02-.31.31-.51.61-.81.81l-1.22,1.22-1.83,1.53-.41.41c-.61.41-1.12.92-1.73,1.32l-.51.51c-.61.51-1.22.92-1.73,1.42l-1.22.92c-.92.61-1.73,1.22-2.54,1.83-.92.61-1.83,1.22-2.85,1.83-.2.1-.41.31-.71.51-.81.41-1.63.92-2.34,1.42-2.14,1.22-4.27,2.34-6.41,3.46l-1.53.61c-.1.1-.31.2-.51.31-.61.31-1.32.61-2.03.92-1.53.71-3.15,1.32-4.68,1.93-1.63.61-3.25,1.02-4.88,1.63-.31.1-.51.1-.81.2-.81.2-1.53.51-2.34.71-.51.1-1.02.2-1.53.41-.51.1-1.02.2-1.63.41-.71.2-1.42.31-2.24.51-.71.1-1.53.31-2.34.41-.81.1-1.53.31-2.24.41-.41.1-.71.1-1.02.2-.31,0-.71.1-1.02.1-.2,0-.31.1-.51.1-.51,0-1.12.1-1.63.2-.41.1-.81.1-1.22.1-.61.1-1.22.2-1.73.2-.31,0-.51,0-.71.1-1.12,0-2.24.1-3.46.1-.2.1-.31.1-.51.1-.92,0-1.73,0-2.64.1-.71,0-1.53-.1-2.24-.1h-2.03c-.61,0-1.12-.1-1.73-.1-1.42-.1-2.95-.2-4.37-.31-.61-.1-1.22-.1-1.93-.2-2.03-.31-4.07-.61-6.2-.92-.51-.1-1.02-.2-1.63-.31-.51-.1-1.12-.2-1.63-.41-.71-.1-1.32-.31-1.93-.41-1.02-.2-1.93-.51-2.95-.71-.71-.2-1.42-.41-2.03-.61-.41-.1-.81-.2-1.22-.41-2.44-.81-4.78-1.53-7.12-2.44-.31-.2-.61-.31-.92-.41-.71-.31-1.53-.61-2.24-1.02-1.73-.71-3.46-1.53-5.19-2.34l-2.14-1.22c-.61-.31-1.12-.61-1.73-.92-.31-.2-.51-.31-.81-.51l-1.53-.92c-.31-.2-.61-.31-.92-.51-.61-.41-1.32-.92-1.93-1.32-1.02-.61-1.93-1.32-2.85-1.93-.71-.51-1.42-1.12-2.14-1.63-.92-.61-1.83-1.42-2.75-2.14-.2-.2-.51-.41-.71-.61-2.03-1.53-3.97-3.36-5.9-5.29-.61-.61-1.22-1.22-1.93-1.83-.61-.61-1.22-1.42-1.83-2.03-4.17-4.58-7.73-9.46-10.88-14.54-.51-.81-.92-1.63-1.42-2.44-.81-1.42-1.63-2.85-2.34-4.37-.1-.1-.1-.31-.2-.51s-.31-.41-.41-.71c-.2-.31-.31-.71-.51-1.12-.2-.31-.31-.61-.51-1.02,0-.1-.1-.31-.2-.51-.71-1.63-1.42-3.36-2.03-4.98-.71-1.73-1.32-3.46-1.83-5.29-.1-.2-.2-.51-.31-.81,0-.1,0-.2-.1-.31-.71-2.64-1.42-5.39-2.03-8.24-.51-2.44-.92-4.98-1.32-7.53,0-.61-.1-1.12-.1-1.73-.2-1.73-.41-3.36-.41-5.19-.1-1.02-.2-2.14-.2-3.15v-5.29c0-.31,0-.51.1-.81v-.61c.1-.31.1-.61.1-.81,0-1.12.1-2.14.2-3.15.1-.81.2-1.73.31-2.54s.2-1.63.31-2.34c.1-.61.1-1.22.2-1.83l.61-3.36c.92-4.37,2.03-8.54,3.46-12.61.41-1.42,1.02-2.75,1.42-4.07.31-.61.51-1.22.81-1.83.1-.31.2-.61.31-.81.31-.81.71-1.53,1.02-2.24.51-1.12,1.02-2.24,1.63-3.36.2-.41.51-.92.71-1.32.41-.71.71-1.42,1.12-2.03.2-.51.51-.92.71-1.32.2-.41.41-.71.61-1.02l1.83-3.05c.31-.41.61-.81.92-1.32.61-.92,1.32-1.93,2.03-2.75.1-.2.2-.31.31-.51.31-.41.51-.81.81-1.12,1.02-1.32,2.03-2.54,3.05-3.76.61-.81,1.22-1.42,1.83-2.14.41-.51.81-.92,1.12-1.32,1.32-1.32,2.54-2.64,3.86-3.86.61-.61,1.32-1.22,1.93-1.83.71-.71,1.42-1.32,2.14-1.93.81-.71,1.63-1.32,2.44-2.03,1.32-1.02,2.64-2.03,3.97-2.95,2.14-1.63,4.47-3.05,6.71-4.47,3.25-1.93,6.51-3.66,9.86-5.19,1.53-.71,3.05-1.32,4.58-1.93.51-.2.92-.31,1.32-.51.2,0,.31-.1.41-.1.51-.2,1.02-.41,1.53-.51.92-.41,1.83-.61,2.75-.92.71-.31,1.53-.51,2.24-.71.61-.2,1.32-.41,1.93-.51.81-.2,1.63-.51,2.44-.61l1.22-.31c.2,0,.41-.1.61-.1.1,0,.2-.1.31-.1.2,0,.41-.1.71-.1.2-.1.41-.2.61-.2h.51c.1-.1.41-.2.61-.2h.41l.1-.1h.31c.1-.1.2-.1.31-.1h.41q.1,0,.2-.1h.41q.1,0,.2-.1c.1,0,.31-.1.51-.1h.71c0-.1.1-.1.2-.1h.51c0-.1.1-.1.1-.1h.61c.1,0,.1-.1.2-.1h.61c0-.1.1-.1.2-.1h.61c.1,0,.1-.1.2-.1h.61c.1-.1.2-.1.31-.1h.81s.1,0,.2-.1h.81c.1-.1.2,0,.2,0,.1-.1.31-.1.41-.1h1.12c.1-.1.2-.1.41-.1h.71c.1-.1.31,0,.51,0,.1-.1.31-.1.41-.1h.61c.2-.1.61,0,.71,0C93.16,0,93.67.1,93.87,0h0Z"/>
    <path class="cls-2" d="m95.29,20.85h-1.63c-1.63.1-3.15.2-4.68.31-3.76.41-7.42.92-10.88,1.83-1.02.31-2.03.51-3.05.81-.71.2-1.53.51-2.34.71-.92.31-1.93.61-2.85,1.02-.41.1-.81.31-1.22.41-1.63.61-3.15,1.32-4.68,2.03-1.42.61-2.75,1.32-4.07,2.03-.81.51-1.73.92-2.54,1.42-1.22.81-2.44,1.63-3.66,2.34-.51.41-1.02.81-1.53,1.12-1.73,1.12-3.36,2.44-4.88,3.76-.31.31-.51.51-.81.71s-.61.51-.92.81c-1.22,1.12-2.54,2.34-3.76,3.66-.92,1.02-1.93,2.03-2.85,3.15-.41.51-.92,1.02-1.32,1.53-.1.1-.2.31-.31.41-1.32,1.63-2.44,3.25-3.56,4.88-1.12,1.73-2.24,3.46-3.25,5.29l-.92,1.53c-2.14,4.37-4.07,8.85-5.49,13.53-.81,2.64-1.53,5.39-2.03,8.14-.51,3.05-.92,6.1-1.12,9.15v1.12c-.1.92-.1,1.73-.1,2.64v1.32c0,1.42,0,2.85.1,4.17.1.81.1,1.73.2,2.64,0,.2.1.41.1.61s.1.41.1.71v.61c.1,1.02.31,2.03.51,2.95.2,1.42.41,2.85.81,4.17.1.41.2.92.31,1.32.41,1.53.81,3.15,1.32,4.58.31,1.12.61,2.14,1.02,3.15.2.51.41,1.02.51,1.42.61,1.42,1.22,2.75,1.73,4.17.51,1.12,1.12,2.14,1.63,3.25,1.22,2.34,2.64,4.68,4.17,7.02,0,.1.1.2.2.31.31.41.51.71.71,1.02.2.41.51.71.71,1.12.71.81,1.32,1.73,2.03,2.64.51.61,1.02,1.12,1.42,1.73.31.41.71.71,1.02,1.12.31.31.61.71.92,1.02l.31.31c.2.31.51.61.71.81,1.22,1.22,2.34,2.44,3.56,3.46l.81.81c.71.61,1.42,1.22,2.03,1.73l.31.31c.2.1.31.2.51.41.31.2.61.51.92.71.81.61,1.63,1.22,2.34,1.83,1.22.81,2.34,1.53,3.56,2.34.41.31.92.61,1.32.92.2,0,.31.1.41.1.1.1.31.2.51.41.51.31,1.12.61,1.63.92,2.03,1.12,4.07,2.14,6.1,3.05,6.1,2.75,12.51,4.68,19.53,5.69,1.93.31,3.97.61,6.1.71.51,0,1.12.1,1.63.1,1.63,0,3.15.1,4.78.1.1-.1.2,0,.31,0h.81c.2-.1.71-.1.92-.1h.41c.1-.1.41,0,.61,0,.1-.1.2-.1.31-.1h.81c.2-.1.41,0,.51,0h.2c.1-.1.2-.1.31-.1h.81c0-.1.1-.1.2-.1h.61c.1-.1.31-.1.41-.1h.61c.1,0,.1-.1.2-.1h.61s.1,0,.1-.1h.61s.1,0,.1-.1h.71q0-.1.1-.1h.31q.1,0,.2-.1h.61c.1-.1.51-.2.71-.2h.41c0-.1.1-.1.1-.1.1,0,.41-.1.61-.1h.31s.1,0,.1-.1c.31,0,.51-.1.71-.1l1.53-.31c.51-.2,1.12-.31,1.63-.41.92-.2,1.73-.51,2.64-.71.2-.1.51-.2.71-.31.71-.2,1.42-.41,2.03-.61,2.85-1.02,5.7-2.14,8.44-3.36,2.54-1.22,4.98-2.54,7.32-4.07.61-.41,1.12-.71,1.73-1.12,1.12-.71,2.24-1.53,3.36-2.44.92-.61,1.83-1.32,2.64-2.03l.31-.31c.1,0,.2-.1.31-.2.1,0,.2-.1.31-.2.2-.2.41-.31.51-.51.61-.41,1.12-.92,1.63-1.42.61-.51,1.22-1.12,1.83-1.63.2-.31.41-.51.61-.71,1.83-1.83,3.46-3.56,4.98-5.49.51-.61,1.02-1.12,1.42-1.73,1.12-1.53,2.24-3.15,3.25-4.68.41-.71.81-1.32,1.22-1.93.2-.31.31-.51.41-.71.41-.61.81-1.32,1.12-1.93.81-1.42,1.63-2.85,2.24-4.37.92-1.93,1.73-3.86,2.44-5.8.31-.71.61-1.53.81-2.24.51-1.73,1.12-3.46,1.53-5.29.71-2.54,1.22-5.29,1.73-8.03v-.71c.1-.2.1-.41.1-.61.1-.61.2-1.22.2-1.83,0-.1.1-.2.1-.41v-.92c.1-.71.2-1.53.2-2.24s.1-1.32.1-2.03c0-1.53,0-3.05-.1-4.47v-1.32c0-.51-.1-1.02-.1-1.53-.1-1.02-.1-2.03-.31-2.95,0-.51-.1-1.02-.1-1.42-.2-.81-.31-1.63-.41-2.44-.41-2.54-1.02-4.98-1.63-7.32-.41-1.53-.81-3.05-1.32-4.47-.31-1.02-.71-2.03-1.12-3.05-.31-.81-.61-1.73-1.02-2.54-.1-.31-.2-.51-.31-.71-.2-.51-.41-1.02-.71-1.53-.51-1.12-1.02-2.24-1.63-3.36-.92-1.73-1.93-3.46-2.95-5.08-.31-.51-.71-1.02-1.02-1.53-.51-.61-.92-1.32-1.42-2.03-.51-.81-1.12-1.63-1.73-2.44l-.31-.31c-.31-.41-.61-.71-.92-1.12-.51-.51-.92-1.12-1.42-1.63-.41-.61-.92-1.12-1.42-1.63-1.12-1.22-2.24-2.34-3.46-3.46-.71-.71-1.42-1.53-2.24-2.14-.2-.2-.41-.31-.61-.51-.61-.51-1.22-1.02-1.93-1.63-1.32-1.02-2.64-2.03-4.07-3.05-1.63-1.12-3.25-2.14-4.98-3.15s-3.56-2.03-5.39-2.95c-.41-.2-.92-.31-1.32-.51-.1-.1-.31-.1-.41-.2-.31-.1-.61-.31-.92-.51-1.12-.41-2.14-.81-3.15-1.22-2.03-.81-3.97-1.42-6.1-2.03-.41-.2-.92-.31-1.42-.41-.71-.2-1.32-.31-2.03-.51-.81-.2-1.53-.31-2.24-.51-.51-.1-1.12-.2-1.63-.31-.31,0-.61-.1-.81-.1-.71-.1-1.42-.31-2.24-.41-.61,0-1.22-.1-1.73-.2-.71-.1-1.42-.1-2.03-.2-.92-.1-1.73-.1-2.64-.2h-.51c-.51,0-.92,0-1.42-.1h-2.64Zm-.92-2.44h3.76c1.32.1,2.64.1,3.97.2,4.98.41,9.66,1.32,14.14,2.54,1.63.41,3.15.92,4.78,1.42,2.54.92,5.08,1.93,7.53,3.05,1.32.61,2.54,1.22,3.76,1.83,1.63.92,3.25,1.83,4.88,2.85,1.32.81,2.64,1.73,3.97,2.64.71.51,1.42,1.12,2.24,1.63.71.51,1.32,1.12,2.03,1.63,1.32,1.12,2.54,2.24,3.86,3.46.51.51,1.02.92,1.53,1.42,1.02,1.02,2.03,2.14,3.05,3.25.41.61.92,1.12,1.42,1.73.51.51,1.02,1.12,1.42,1.73.71.81,1.32,1.63,1.93,2.54,1.12,1.63,2.24,3.25,3.36,4.98.41.71.92,1.53,1.32,2.34.31.41.51.92.81,1.32l.61,1.22c.31.61.61,1.12.92,1.73.51.92.92,1.93,1.32,2.95.31.71.71,1.42,1.02,2.14.31,1.02.71,1.93,1.02,2.85.41,1.02.71,1.93,1.02,2.95.2.71.41,1.32.61,2.03.81,2.75,1.32,5.49,1.83,8.44.31,1.12.41,2.34.51,3.56.1.51.2,1.02.2,1.63.2,1.32.31,2.85.31,4.27,0,.81.1,1.73.1,2.54,0,1.83,0,3.56-.1,5.39-.92,14.24-5.39,26.75-12.51,37.83-.41.71-.81,1.32-1.32,2.03-1.02,1.32-2.03,2.75-3.15,4.17-.31.41-.61.71-.92,1.12-.31.41-.71.81-1.02,1.22-.61.61-1.12,1.32-1.73,1.93-.2.1-.31.31-.41.41-.31.2-.51.51-.71.71-.41.41-.81.92-1.22,1.22l-1.32,1.32c-1.02.92-2.14,1.83-3.15,2.75-1.22,1.02-2.44,2.03-3.76,2.95-1.12.81-2.24,1.53-3.25,2.34-.61.31-1.22.71-1.73,1.12-.31.1-.61.31-.81.51-1.22.71-2.54,1.42-3.76,2.03-.92.51-1.83,1.02-2.85,1.42-1.53.81-3.15,1.42-4.68,2.14-.41.1-.71.31-1.12.41-1.63.61-3.36,1.22-4.98,1.73l-1.22.31c-.1,0-.31.1-.51.1-.1.1-.2.1-.41.2-.2,0-.41.1-.71.2-1.22.31-2.54.61-3.86.92-.31,0-.61.1-.92.2-1.12.2-2.14.41-3.25.51l-2.14.31c-.71.1-1.32.2-2.03.31h-.81c-.31.1-.71.1-1.12.1-.2,0-.41.1-.61.1-.81,0-1.63.1-2.54.1h-5.8c-2.24-.1-4.37-.31-6.51-.51-.2-.1-.41-.1-.71-.1-1.42-.2-2.75-.41-4.17-.71-1.12-.2-2.14-.41-3.25-.71-2.24-.41-4.47-1.12-6.61-1.83-1.32-.41-2.75-.92-4.07-1.42-1.73-.71-3.46-1.42-5.08-2.24-.71-.31-1.32-.61-1.93-.92-1.53-.81-3.15-1.63-4.58-2.54-2.54-1.42-4.88-3.15-7.22-4.88-.51-.31-1.02-.71-1.53-1.12-1.42-1.12-2.85-2.44-4.27-3.76-.71-.61-1.53-1.32-2.14-2.03l-1.32-1.32c-1.22-1.32-2.34-2.64-3.56-3.97-.31-.41-.71-.92-1.12-1.32-.51-.81-1.12-1.42-1.63-2.24-.51-.61-.92-1.22-1.42-1.93-.71-1.02-1.42-2.03-2.03-3.15-.41-.71-.81-1.42-1.32-2.14-.92-1.53-1.73-3.05-2.44-4.68-1.22-2.34-2.34-4.88-3.15-7.42-.2-.41-.31-.81-.51-1.22-.2-.41-.31-.92-.41-1.42-.2-.31-.31-.61-.41-.92-.41-1.63-.92-3.25-1.32-4.88-.41-1.73-.81-3.56-1.02-5.39-.2-1.42-.51-2.95-.61-4.37-.31-3.36-.51-6.71-.51-10.27.1-.2.1-.41.1-.61,0-1.12.1-2.14.1-3.25.1-.92.2-1.73.31-2.64.2-1.73.41-3.36.71-5.08.51-2.54,1.12-5.08,1.83-7.53l.61-2.14c.1-.31.2-.51.2-.81.61-1.73,1.22-3.56,1.93-5.19.41-1.02.92-2.03,1.32-3.05.1-.2.2-.51.31-.71.2-.41.41-.81.61-1.32.51-.81.92-1.73,1.42-2.54,1.02-2.03,2.24-4.07,3.56-6s2.64-3.76,4.07-5.59c.61-.92,1.32-1.63,2.03-2.44.61-.71,1.12-1.32,1.73-2.03l1.53-1.53c.92-1.02,1.93-1.93,2.95-2.85,1.53-1.42,3.05-2.75,4.68-3.97,1.32-1.02,2.64-2.03,4.07-2.95.81-.51,1.63-1.12,2.54-1.63.51-.31,1.12-.71,1.63-1.02,1.02-.61,2.03-1.22,3.15-1.73l2.44-1.22c3.56-1.73,7.12-3.15,10.88-4.27,1.73-.51,3.36-1.02,5.08-1.42.41-.1.92-.2,1.42-.31.2,0,.41-.1.61-.1.1-.1.41-.1.51-.1.2-.1.51-.1.71-.1l.1-.1c.1,0,.41-.1.51-.1h.41c.1-.1.2-.1.31-.1h.41c.1-.1.31-.1.41-.1h.2c0-.1.1-.1.1-.1h.51c.1,0,.1-.1.2-.1h.51c.1,0,.1-.1.2-.1h.41c.1-.1.2-.1.31-.1h.51c.1,0,.2,0,.2-.1h.61c.1-.1.2-.1.31-.1h.41c.1-.1.31,0,.41,0s.1,0,.2-.1h.71c.1-.1.2,0,.31,0,.1-.1.2-.1.41-.1h.61c.1-.1.61-.1.81-.1h.51c.1-.1.51,0,.61,0,.1-.1.31,0,.41,0,.1-.1.61-.1.81-.1h.61,0Z"/>
    <path class="cls-2" d="m36.31,102.41c-.1.1-.1.2-.1.31,0,.41.2.81.31,1.22.2.81.41,1.53.61,2.34,0,.2.2.61.1.92-.1.31-1.02.61-1.32.81-.61.41-1.22.71-1.83,1.12-.1.1-1.02.51-.92.71.1.1.2.1.2.1.2.1.31,0,.51.1.31,0,.71.1,1.02.1.41,0,.81.1,1.22.2h.41c.31,0,.61.1,1.02.1.1,0,.31,0,.51.2s.31,1.02.31,1.32c.2.51.31,1.12.51,1.63l.31,1.22c0,.1.1.2.2.2.31,0,.51-.81.61-1.02.2-.61.41-1.12.61-1.63.1-.31.31-.61.41-.92.1-.31.1-.51.31-.71.31-.2.81,0,1.12,0h.51c.2,0,.51.1.81.1.41,0,.71,0,1.12.1.41,0,.81.1,1.32.1,0-.1.2-.1.1-.31,0-.1-.1-.2-.2-.31-.51-.51-1.12-.81-1.63-1.32l-1.02-1.02c-.31-.2-.61-.41-.61-.71-.1-.2.1-.51.2-.71.31-.81.71-1.63,1.12-2.44.1-.31.2-.51.31-.81.1-.1.1-.2,0-.2-.1-.41-.81.1-1.02.2-.31.1-.61.31-.92.51-.41.31-.92.61-1.32.81-.31.2-.81.61-1.12.51-.31,0-.61-.31-.81-.51-.51-.41-.92-.81-1.42-1.22-.2-.2-.41-.41-.61-.51-.31-.31-.61-.61-.92-.61h0Zm11.39-13.32c-.31.1,0,.92,0,1.22l.31.92c0,.2.1.41.1.61.1.41.2.71.31,1.12.1.2.2.61.2.81-.1.31-.71.61-.92.71-.61.41-1.22.71-1.83,1.12-.31.1-.71.31-1.02.51-.1.1-.2.1-.31.2,0,.1-.1.1-.1.1,0,.31.92.41,1.22.41.2,0,.41,0,.71.1.41,0,.81,0,1.32.1.2,0,.51,0,.71.1.31,0,.71-.1.92.1s.2.71.31,1.02l.61,2.44c.1.2.1.51.2.81l.2.2c.31,0,.51-.81.61-1.02.2-.61.51-1.22.71-1.83.2-.41.41-1.12.71-1.42.31-.2,1.22.1,1.63.1h.71c.1,0,.31.1.41.1h.81c.2.1.31.1.51.1h.31c.2,0,.31.1.51.1.1,0,.1-.1.1-.1.1-.2,0-.31-.1-.41-.61-.51-1.12-.92-1.73-1.42-.2-.2-.41-.41-.71-.61-.2-.31-.92-.71-1.02-1.12,0-.31.2-.71.31-.92.31-.81.71-1.53,1.12-2.34l.31-.92c.1-.1.1-.2.1-.31-.2-.31-.61.1-.81.2-.1,0-.2.1-.31.2-.41.2-.71.41-1.12.61-.41.31-.92.61-1.32.81-.31.2-.61.51-.92.51s-.92-.61-1.12-.92c-.31-.31-.71-.61-1.12-.92-.31-.2-.61-.41-.81-.71-.31-.2-.41-.41-.71-.41h0Zm-15.05-1.22c-.1.1-.2.1-.2.31,0,.1.1.31.1.41.1.31.2.71.31,1.02s.1.71.2,1.02c.1.41.31.81.41,1.22,0,.2.2.51.1.81-.1.2-.61.51-.81.61-.31.2-.51.41-.81.61-.31.1-.61.31-.92.51-.2.1-.31.2-.51.31-.1.1-1.02.41-.81.71.1.2,2.85.41,3.36.41.31.1,1.12,0,1.32.2s.2.41.31.61c0,.2.1.51.1.71.2.92.41,1.83.71,2.64.1.1.2.41.31.41s.1,0,.2-.1c.2-.2.2-.61.41-.81.1-.51.31-1.02.51-1.53l.31-.92c.1-.31.2-.61.41-.81.1,0,.1-.1.2-.1h.41c.41,0,.81,0,1.12.1.61,0,1.22.1,1.93.1.31,0,.61.1.92.1h.41c0-.1.1-.2.1-.2-.1-.31-.41-.41-.61-.61-.41-.41-.92-.71-1.32-1.12-.31-.2-.61-.51-.81-.71-.31-.2-.61-.41-.81-.71-.1-.1-.1-.2-.1-.31.1-.2.1-.31.2-.41.1-.31.2-.51.31-.81.31-.61.51-1.22.81-1.83.1-.31.61-1.12.51-1.32-.2-.31-.92.31-1.12.41-.31.2-.71.41-1.02.61-.51.41-1.02.71-1.53,1.02-.2.1-.51.41-.81.41-.31-.1-.51-.41-.71-.51-.1-.1-.2-.2-.31-.2-.51-.41-1.02-.81-1.53-1.32l-1.22-.92h0Zm26.24-11.9v.1c-.2.1.1.92.1,1.12l.61,2.14v.31c.1.31.31.92.31,1.12-.1.2-.41.41-.61.51-.61.41-1.22.71-1.83,1.12-.31.1-.51.31-.81.41-.1.1-.81.41-.81.61-.1.31.51.2.71.31h.31c.2,0,.51.1.71.1.71.1,1.42.1,2.14.2.2,0,.61,0,.81.1.31.2.31.61.31.92.1.41.2.71.31,1.12,0,.1.1.31.1.51.1.31.2.71.31,1.02.1.2.1.51.2.71,0,.1.1.2.2.2.31,0,.51-.81.61-.92.1-.41.2-.71.31-1.02.2-.31.31-.61.41-1.02.2-.31.41-1.02.71-1.22.2-.2.81,0,1.12,0,.41,0,.71.1,1.12.1.31,0,.61,0,.92.1.31,0,.71,0,1.02.1h.61c.1,0,.2-.2.2-.2-.1-.2-.31-.41-.51-.51-.2-.2-.41-.41-.71-.61-.2-.31-.51-.51-.81-.71-.31-.31-.61-.61-1.02-.92-.1-.2-.41-.31-.51-.61,0-.2.1-.41.2-.61,0-.1.1-.31.1-.41.41-.81.71-1.53,1.02-2.34.1-.1.61-.92.31-1.02-.2-.1-.61.2-.71.31-.2.1-.41.2-.51.31-.71.31-1.32.71-1.93,1.12-.31.1-.61.41-.92.51h-.31c-.2-.1-.31-.2-.51-.41-.1-.1-.31-.31-.51-.41-.51-.51-1.12-1.02-1.63-1.42-.31-.2-.71-.71-1.12-.81h0Zm-15.15-1.22c-.1.1-.1.41,0,.61.2.92.51,1.93.71,2.95.1.2.1.41.2.61,0,.2.1.31.1.51-.1.31-.51.41-.71.61-.2.1-.41.31-.71.51-.2.1-.51.2-.71.31-.2.2-.41.31-.61.41-.31.2-1.32.61-1.32.92q0,.1.1.2h.31c.2.1.51.1.71.1.41,0,.81.1,1.12.2h.92c.31,0,.61,0,.81.1.31,0,.71,0,.81.1.31.2.31.71.41,1.02l.31,1.53c.1.41.2.71.31,1.12.1.2.1.31.2.51,0,.1.1.31.31.31l.2-.2c.2-.31.31-.71.41-1.12.31-.61.51-1.32.81-2.03.1-.31.2-.61.41-.81.31-.31,1.53-.1,1.93,0h.81c.2,0,.51.1.71.1.51,0,.92.1,1.42.1,0-.1.2-.2.2-.2-.1-.31-.71-.71-1.02-1.02-.2-.2-.51-.31-.71-.51-.1-.1-.2-.31-.41-.41-.2-.2-.41-.41-.71-.61-.2-.2-.71-.51-.81-.81,0-.31.2-.71.31-1.02.1-.2.2-.41.2-.51.31-.71.61-1.42.92-2.03.1-.1.61-1.12.2-1.12-.41.1-.61.41-.92.51-.71.51-1.42.81-2.03,1.32-.31.2-1.02.71-1.42.71-.31-.1-.71-.51-.92-.81-.31-.2-.61-.41-.92-.71-.41-.31-.81-.61-1.22-1.02-.2-.1-.41-.31-.71-.41Zm26.44-12c-.31.2.1,1.02.1,1.22l.61,2.14c.1.2.2.51.2.81.1.2.2.41.1.61,0,.1-.1.2-.2.31-.2.2-.41.31-.71.41-.81.51-1.63,1.02-2.44,1.42-.1.1-.61.31-.61.51-.1.2.81.31,1.02.31.31,0,.61.1.92.1h.51c.2.1.51.1.71.1.41,0,1.32,0,1.63.31.2.1.31,1.02.41,1.32,0,.2.1.51.2.71.1.41.1.81.31,1.22,0,.31.1.61.2.81,0,.1.1.31.2.31.31,0,.61-.81.61-1.02.2-.41.31-.71.41-1.12.1-.2.2-.51.31-.71.2-.41.31-.71.51-1.12,0-.1.1-.2.2-.31.31-.2.61,0,.92,0,.71,0,1.32.1,2.03.2h.92c.31,0,.51.1.81.1l.1-.1c.1,0,.1-.1.2-.1-.1-.2-.41-.41-.61-.61-.51-.51-1.12-.92-1.73-1.42-.2-.1-.41-.41-.51-.51-.31-.2-.71-.41-.71-.81-.1-.31.1-.51.2-.81.31-.92.81-1.73,1.12-2.64.1-.2.61-1.02.2-1.12-.2-.1-.61.31-.81.41-.1.1-.2.1-.41.2l-1.22.92c-.2.1-.51.2-.71.41-.31.1-.81.51-1.22.41-.31,0-.51-.31-.71-.51-.51-.41-1.02-.81-1.42-1.12l-.31-.31c-.2-.1-.41-.31-.61-.51s-.41-.41-.71-.41h0Zm-15.25-1.42c0,.1-.1.1-.1.2,0,.31.1.61.2.92.2.92.51,1.83.71,2.75.1.31.2.61.2.81-.1.31-.61.51-.92.71-.41.2-.92.51-1.32.81-.41.2-.81.41-1.22.71-.1.1-.51.2-.61.41-.1.41.92.41,1.12.41h.92c.2.1.41.1.61.1.31.1.61.1.92.1s1.02,0,1.22.2c.31.2.31.61.41.92.1.61.2,1.22.41,1.83,0,.2.1.41.2.61,0,.31.1.61.2.81.1.1.1.2.2.2.2.1.51-.81.61-.92.2-.51.31-.92.51-1.42.1-.2.2-.51.31-.81s.2-.71.41-.92c.1-.1.31-.2.41-.2.2-.1,1.02,0,1.32,0,.1.1.2.1.31.1.51,0,.92.1,1.32.1h.92c.2,0,.51.1.71.1.31-.2.2-.31-.1-.51-.41-.41-.81-.71-1.22-1.02-.51-.41-.92-.81-1.42-1.22-.2-.2-.71-.51-.71-.81-.1-.31.31-1.02.41-1.22.31-.61.51-1.12.81-1.73,0-.1.1-.31.2-.41.1-.31.2-.61.31-.81v-.2c-.2-.31-.92.31-1.12.41-.61.41-1.22.81-1.83,1.12-.2.2-.41.31-.61.41-.1.1-.31.1-.41.2s-.31.1-.41.1c-.31,0-.71-.41-1.02-.61-.51-.51-1.12-1.02-1.73-1.53-.31-.2-.71-.61-1.12-.71h0Zm-15.05-1.93v.1c-.31.1,0,.92.1,1.12,0,.31.1.61.2.92.1.61.2,1.22.41,1.83,0,.31.2.61.1.92-.1.31-.41.41-.61.51-.2.2-.51.31-.81.51-.1.1-.31.2-.41.31-.41.2-2.44,1.32-2.54,1.53,0,.1,0,.2.1.2.1.1.2.1.31.1.2,0,.51.1.71.1,1.12,0,2.14.1,3.15.2.31.1.61,0,.81.2.31.31.31.81.41,1.22.1.41.1.81.2,1.22.1.41.2.92.31,1.32.1.31.2,1.12.41,1.22.1,0,.2,0,.2-.1.1,0,.1-.1.1-.2.1-.31.31-.51.41-.81.2-.61.51-1.22.81-1.83,0-.1.1-.31.2-.41.1-.31.2-.51.31-.81.1-.2.1-.41.31-.51.2-.2,1.73,0,2.14,0,.2,0,.41,0,.61.1.81,0,1.53.1,2.34.1.1,0,.2,0,.2-.2s-.31-.41-.51-.51c-.2-.31-.51-.51-.81-.71-.2-.31-.51-.51-.81-.71-.41-.31-.61-.51-.92-.81-.31-.2-.81-.51-.81-.81s.2-.51.31-.81c.2-.41.31-.81.51-1.22.1-.2.2-.41.31-.51.1-.41.31-.71.41-1.12.1-.2.2-.41.2-.61.1,0,.1-.1.1-.2-.2-.31-1.02.31-1.12.41-.51.31-1.12.51-1.53.92-.41.2-.81.51-1.22.71-.2.1-.41.2-.61.2-.31,0-.61-.31-.81-.51-.61-.51-1.22-.92-1.73-1.42-.31-.2-.51-.51-.81-.71-.2-.1-.31-.31-.61-.41h0Zm41.39-9.76v.1c-.1,0-.1.1-.1.31s0,.31.1.51c0,.2.1.41.2.61.1.71.31,1.32.51,2.03.1.2.31.92.2,1.22-.1.31-.61.61-.92.81l-.61.31c-.41.31-.92.51-1.42.81-.1.1-.92.61-.92.71,0,.31.81.31,1.02.31.71.1,1.42.2,2.14.2.41.1,1.22.1,1.53.31s.31.92.41,1.22c.1.51.2.92.31,1.32.1.31.2.61.31,1.02,0,.2.1.71.31.81.31.1.51-.71.61-.92.2-.61.51-1.12.71-1.73.1-.41.51-1.42.81-1.63.2-.1.51,0,.71,0,.41,0,.81.1,1.22.1.31,0,.61.1,1.02.1.31.1.61,0,.92.1.2,0,.81.1.92-.1.1,0,.1-.1,0-.2l-.31-.31c-.1-.1-.31-.2-.41-.41-.31-.31-.61-.51-1.02-.71-.31-.31-.61-.71-1.02-1.02-.2-.2-.61-.41-.71-.81-.1-.2.1-.41.2-.61.1-.31.2-.51.31-.71.2-.51.41-.92.61-1.42.1-.2.71-1.42.61-1.63-.1-.41-.92.2-1.12.31-.51.31-.92.71-1.42,1.02-.31.1-.61.31-.81.41-.31.2-.71.51-1.12.51-.31,0-.61-.41-.81-.61-.61-.51-1.32-1.12-2.03-1.63-.2-.2-.51-.61-.92-.71h0Zm-14.95-1.53c-.31.2,0,.92.1,1.22.2.61.31,1.32.51,1.93l.31.92c0,.2.1.41.1.61-.1.2-.31.31-.51.51-.41.31-.92.51-1.32.81-.31.2-.61.31-.92.51-.2.2-.51.31-.81.51-.1.1-.31.2-.41.31v.1c-.1.2.81.2,1.02.31.61,0,1.22.1,1.83.2h1.32c.1.1.41.1.51.2.31.2.31.71.41,1.12,0,.2.1.41.1.61.1.31.2.71.2,1.02.1.2.2.41.2.51.1.31.1.71.31.92,0,.1.1.2.2.2.2.1.51-.81.61-1.02.2-.61.41-1.12.61-1.73.2-.41.31-1.12.71-1.42.1-.1.2-.1.41-.1.31,0,.71,0,1.12.1.51.1,1.02,0,1.63.1.51,0,1.12.1,1.63.1.1,0,.2-.1.2-.2-.1-.31-.51-.61-.81-.81-.61-.51-1.22-1.02-1.93-1.63-.2-.2-.71-.51-.81-.81-.1-.1-.1-.2,0-.31.1-.41.31-.92.51-1.32.31-.71.71-1.42,1.02-2.14.1-.2.31-.61.2-.81-.1-.41-.92.31-1.12.41-.2.2-.51.31-.71.41-.41.2-.71.51-1.12.71-.31.2-.61.51-1.02.71-.1,0-.31.1-.41.1-.41,0-.81-.41-1.12-.71-.41-.31-.81-.71-1.22-1.02-.2-.2-.51-.41-.71-.51-.31-.31-.51-.61-.81-.61h0Zm-15.56-2.03c0,.1-.1.1-.1.2,0,.2.1.81.2,1.02,0,.31.1.51.1.81.1.2.1.31.1.51.1.1.1.2.1.31.1.1.1.2.1.31,0,.31.1.61.1.81.1.31.2.71.1.92-.1.2-.71.61-.92.71-.81.41-1.53.92-2.34,1.42-.2.1-1.02.51-1.02.71s.81.31,1.02.31c.41.1.81.1,1.22.1.2,0,.51.1.71.1.41,0,.81,0,1.22.1.31,0,.61,0,.81.2s.31.71.41,1.02c0,.51.2.92.31,1.42,0,.2,0,.41.1.61,0,.2.1.31.1.51.1.41.1.81.31,1.12q0,.1.1.2c.2.1.41-.51.51-.61,0-.1.1-.31.2-.41.2-.41.31-.92.51-1.32.1-.2.2-.41.31-.51,0-.2.1-.31.2-.51,0-.1.1-.2.2-.41s.2-.71.51-.92c.31-.1,1.02,0,1.32.1.61,0,1.22,0,1.83.1.31,0,1.93.31,2.03.1.31-.2-.51-.81-.71-1.02-.71-.51-1.32-1.12-2.03-1.63l-.41-.41c-.2-.1-.51-.31-.61-.61s.2-.92.31-1.12l.31-.61c.1-.2.2-.31.31-.51,0-.1,0-.31.1-.41.1-.1.2-.31.2-.51.1-.1.2-.31.2-.41.1-.2.2-.51.41-.71v-.31c-.1-.31-.92.31-1.12.41-.41.2-.71.41-1.12.61-.1.1-.31.2-.51.31-.41.31-.81.51-1.22.71-.2.1-.31.31-.61.2-.31,0-.71-.51-1.02-.71-.2-.2-.51-.41-.71-.61-.31-.2-.51-.51-.81-.71-.2-.1-.41-.31-.61-.51-.2-.2-.41-.41-.71-.51Zm43.02-10.47c-.1.1-.1.2-.2.31,0,.31.2.71.2,1.12.1.2.1.41.2.71,0,.2.1.41.1.61.1.41.2.71.31,1.12.1.31.2.81.1,1.12s-.81.61-1.12.81c-.71.41-1.53.92-2.24,1.32-.2.1-1.02.51-.92.71s.61.2.81.2.41.1.51.1h.61c.2,0,.31.1.41.1h1.32c.2.1.51.1.71.1.2.1.51.1.61.2.2.2.2.51.31.81.2.71.31,1.53.51,2.34,0,.2.1.41.1.71.1.2.1,1.22.41,1.22.2-.1.61-.92.61-1.12l.31-.61c.1-.31.2-.61.41-.92.1-.31.31-.71.41-1.12.2-.2.31-.92.61-1.02.2-.1.51,0,.71,0,.61,0,1.12.1,1.73.1.51.1,1.02.1,1.53.1.2.1,1.22.2,1.32,0v-.2c-.1-.1-.2-.2-.31-.2l-.51-.51-2.14-1.83c-.2-.1-.81-.61-.81-.81-.1-.2.1-.71.2-.92.31-.61.61-1.32.81-1.93.1-.1.2-.31.2-.41.1-.2.1-.31.2-.51,0-.1.1-.31.2-.41,0-.1,0-.2-.1-.2-.1-.31-.81.2-1.02.31-.31.2-.61.31-.92.51-.2.1-.41.31-.71.41-.2.1-.41.31-.71.41-.31.2-.51.51-.92.41-.41,0-.92-.61-1.22-.92-.31-.2-.61-.51-1.02-.81-.31-.2-.61-.51-.92-.81-.2-.2-.51-.41-.71-.61h0Zm-16.17-.92c-.31.1.1.92.2,1.22,0,.2,0,.41.1.61.1.51.31,1.02.41,1.63.1.31.41.92.31,1.22-.1.41-1.53,1.12-1.93,1.32-.41.31-.92.61-1.32.81-.2.1-.61.41-.71.51-.1.31.92.31,1.12.31.51,0,.92.1,1.42.2h.41c.31,0,.61,0,.81.1.41,0,.71,0,.92.1.31.2.2.61.31.81.1.2.1.31.1.41.2.61.2,1.12.41,1.73,0,.1.1.2.1.41.1.31.1.61.31.92,0,.1.1.2.2.2.2.1.51-.81.51-1.02.2-.51.51-1.12.71-1.63.1-.41.2-.71.41-1.02,0-.2.1-.41.31-.61.2-.2.81,0,1.12,0,.1,0,.31,0,.51.1h1.22c.71.1,1.32.2,2.03.2.1,0,.2-.1.2-.2-.1-.2-1.73-1.53-2.03-1.73-.31-.31-.61-.51-.92-.81-.2-.2-.71-.51-.71-.71-.1-.41.2-.81.31-1.12.1-.1.2-.31.2-.41l.31-.61c.1-.2.2-.51.31-.81.1-.2.2-.31.2-.41.2-.31.31-.51.41-.71,0-.1.1-.2,0-.41-.1-.31-.92.31-1.02.41-.41.2-.71.41-1.12.61-.41.31-.81.51-1.22.81-.31.1-.71.51-1.02.41-.31,0-.51-.2-.71-.41-.2-.1-.31-.31-.51-.51l-1.22-.92c-.2-.1-.41-.31-.61-.51s-.51-.51-.81-.51h0Zm-15.97-1.53c-.1.1-.1.2-.1.31,0,.2.1.31.1.51.1.2.1.41.2.71.1.41.2.92.41,1.42,0,.2.1.41.1.61.1.2.41,1.02.31,1.32-.1.31-.61.41-.81.61-.71.51-1.53.92-2.34,1.42-.1.1-.31.2-.41.31-.2,0-.31.1-.41.2v.2c.1.2.41.1.61.1.1,0,.2.1.41.1s.51,0,.81.1h.51c.61,0,1.22.1,1.73.2.31,0,.61-.1.71.1.31.2.31.71.41,1.02.2,1.02.41,2.03.71,2.95.1.1.2.41.31.41s.2-.1.2-.2c.2-.2.2-.51.31-.71.2-.61.51-1.12.71-1.73.1-.41.31-1.42.81-1.63.1-.1.41-.1.61,0h.92c.41.1.81,0,1.22.1.31,0,1.93.2,2.14,0v-.2l-.31-.31c-.2-.1-.31-.2-.51-.31l-1.53-1.22c-.2-.2-.41-.41-.51-.61-.31-.2-.71-.41-.81-.71,0-.31.31-.92.41-1.12.1-.2.2-.51.31-.71.2-.41.31-.81.51-1.22s.41-.81.51-1.22c0-.1.1-.2,0-.2-.1-.31-.92.31-1.12.41-.61.41-1.22.81-1.83,1.12-.41.31-1.12.81-1.53.81-.2,0-.71-.51-.92-.71l-1.83-1.53c-.31-.2-.61-.61-1.02-.71Zm36.1-10.17c.71,0,1.42,0,2.14.1h.71c.41.1.81.1,1.22.1.51.1,1.12.1,1.73.2h.51c.31.1,1.22.1,1.53.2,0,.1.1.2.1.31.2.51.31,1.12.41,1.63.1.31.2.61.2.92,0,.2-.1.31-.2.41-.31.31-.61.41-.92.61-.61.41-1.22.81-1.93,1.22-.1.1-1.02.51-.92.71,0,.1.1.1.1.1.31.1.71.1,1.12.2.61,0,1.32.1,2.03.1.41.1,1.32,0,1.63.31.1.1.2.31.2.51.2.41.2.71.31,1.12.1.41.2.81.41,1.22,0,.2.1.51.2.71,0,.2,0,.31.1.41,0,.31,0,.71.31.71.1,0,.2-.1.2-.2.2-.41.31-.71.51-1.12.31-.71.61-1.42.81-2.03.1-.31.31-.92.61-1.12h.51c.51,0,1.02,0,1.53.1h.41c.41.1.92.1,1.42.1.2.1,1.12.2,1.22,0,.1-.1,0-.1,0-.2l-.31-.31c-.2-.1-.31-.31-.51-.41-.2-.2-.41-.31-.61-.51-.1,0-.1-.1-.2-.2-.41-.31-.71-.61-1.02-.81-.31-.31-.61-.51-.81-.81-.1-.1-.2-.2-.2-.41,0-.31.2-.61.41-.92,0-.2.1-.41.2-.71.1,0,.1-.1.2-.1.2-.1.41,0,.61,0,.41.1.92.2,1.32.31.92.31,1.93.51,2.85.81.41.1.92.31,1.42.41.41.2.92.31,1.32.41.1.1.31.2.31.2-.1.2-.31.41-.51.61-.31.41-.71.71-1.02,1.12-.51.71-1.02,1.32-1.53,1.93-.61.61-1.12,1.22-1.63,1.83-.1.2-.31.31-.41.51-.2.31-.51.51-.71.81l-.71.71c-.31.41-.51.71-.81,1.12-.1.1-.2.1-.2.2l-.41.41c-.41.51-.81.92-1.12,1.32-.2.2-.41.41-.51.61-.2.2-.41.51-.61.71s-.41.41-.51.61c-.1.1-.2.31-.31.41-.81.92-1.63,1.83-2.34,2.75-1.63,1.73-3.15,3.56-4.68,5.39-.51.61-1.12,1.32-1.73,2.03l-.41.41c-.2.2-.41.41-.61.71-.2.2-.41.51-.61.71s-.41.41-.51.61l-.51.51c-.1.2-.31.41-.41.61l-.31.31c-1.63,1.83-3.15,3.76-4.88,5.59-.2.31-.51.71-.81,1.02-.1.2-.31.31-.51.51-.51.71-1.12,1.42-1.73,2.14l-.41.41c-.1.1-.2.1-.31.2-.1.2-.2.31-.31.51-.2.2-.41.51-.61.71-.1.1-.2.2-.31.41-.41.51-.92,1.02-1.32,1.53-.51.51-.92,1.02-1.32,1.53-.31.41-.71.71-1.02,1.12-.1.2-.31.41-.51.61-.2.31-.41.51-.71.81-.31.41-.71.92-1.12,1.32-.2.2-.31.51-.51.71l-.31.31c-.2.2-.31.31-.41.51l-.31.31c-.1.2-.2.31-.31.41l-.81.81c-.1.1-.2.31-.31.41-.71.81-1.32,1.63-2.03,2.44-.2.2-.51.41-.71.71-.2.2-.41.51-.61.81-.2.2-.41.31-.51.51-.1.1-.2.2-.2.31l-.61.61c-.1.1-.2.31-.31.41l-.31.31c-.2.1-.31.31-.41.51-.1.1-.2.31-.41.51l-.41.41c-.31.31-.51.71-.81,1.02-.41.41-.71.81-1.02,1.12-.31.41-.61.71-.92,1.12-.92,1.02-1.73,2.03-2.64,3.15-1.32,1.42-2.54,2.95-3.86,4.37-.1.2-.31.41-.51.61-.41.41-.71.81-1.02,1.22-.92,1.02-1.73,1.93-2.54,2.95l-.31.31c-.1.2-.31.31-.41.51-.2.2-.41.41-.61.71l-.41.41c-.1.1-.2.31-.41.51-.92,1.12-1.83,2.24-2.85,3.36-.51.51-.92,1.12-1.42,1.63-.41.41-.71.81-1.12,1.32-.51.61-1.12,1.22-1.73,1.93l-1.22,1.53-.51.51c-.2.31-.41.51-.61.71l-.31.31c-.1.2-.2.31-.31.41l-1.53,1.83c-.51.51-.92,1.02-1.42,1.53-.2.31-.41.61-.71.81-.2.41-.51.71-.81,1.02-.2.2-.31.41-.51.61s-.41.41-.51.61c-1.42,1.53-2.64,3.15-4.07,4.68-1.32,1.53-2.64,3.05-3.86,4.58-.2.2-1.22,1.53-1.42,1.53-.31,0-.61-.92-.71-1.02l-.31-.61-.31-.61c-.31-.51-.51-1.02-.71-1.53-.2-.41-.51-.71-.61-1.22,0-.1,0-.2.1-.31.1-.2.2-.31.41-.41.1,0,.31.1.41.1h.92c.92.1,1.73.2,2.64.31.2,0,.71.1.81,0,.31-.31-.51-.81-.61-1.02-.31-.2-.61-.51-.92-.71l-.51-.51c-.31-.2-.61-.51-.92-.81-.1-.1-.41-.31-.41-.51-.1-.41.31-.92.41-1.22,0-.1.1-.31.1-.41.1-.1.2-.2.2-.41.1-.1.1-.31.2-.41l.31-.61c.1-.31.2-.51.31-.81.1-.2.31-.51.2-.81l-.1-.1c-.2.1-.51.2-.61.31-.1,0-.31.1-.41.2-.51.2-.92.51-1.42.81-.31.2-.61.31-.92.51-.2.2-.71.51-1.02.61-.41,0-1.02-.71-1.22-.92-.31-.31-.61-.51-.81-.71-.31-.31-.31-.81-.41-1.22-.1-.2-.2-.31-.2-.51-.1-.2-.1-.51-.2-.71-.2-.71-.41-1.42-.51-2.03-.1-.31-.1-.51-.2-.71,0-.2-.1-.31-.1-.41,0-.41.2-.71.31-.92.1-.2.2-.41.2-.61.1-.2.2-.51.31-.71.1-.1.2-.31.31-.41.31-.1,1.12,0,1.53.1.51,0,1.12,0,1.73.1.41,0,.81.1,1.22.1h.41l.1-.1c-.1-.2-.2-.41-.41-.51-.31-.31-.71-.61-1.02-.92-.51-.41-1.02-.81-1.53-1.32-.2-.1-.61-.41-.61-.71-.1-.2.1-.51.2-.71.1-.41.31-.71.41-1.12.1-.1.2-.31.31-.51.1-.2.2-.41.31-.71,0-.1.1-.2.2-.31.1-.2.31-.81.31-1.02,0-.1,0-.2-.1-.2-.2-.1-1.12.61-1.42.71-.51.31-1.02.71-1.53,1.02-.31.1-1.12.71-1.42.71s-.61-.41-.81-.61c-.2-.1-.41-.31-.41-.51-.1-.2-.1-.31-.1-.51,0-.41-.1-.81-.1-1.22-.1-1.32-.2-2.64-.2-4.07v-1.93s0-.1.1-.2c.2-.1,1.12.1,1.42.1.41,0,.92,0,1.32.1.51,0,1.02.1,1.53.1.1-.1.2-.1.2-.31s-.41-.51-.61-.61c-.2-.2-.51-.41-.71-.61-.51-.41-.92-.81-1.42-1.22-.31-.2-.61-.51-.81-.71-.1-.1-.2-.2-.2-.31,0-.31.2-.51.31-.81,0-.1,0-.2.1-.31,0-.1.1-.31.1-.41.2-.31.31-.61.41-.92l.61-1.22c.1-.2.31-.51.31-.81,0-.1-.2-.1-.31-.1-.2.1-.31.2-.51.31-.1.1-.31.1-.51.2s-.41.31-.61.41h-.2c-.2-.2.1-1.42.1-1.73.1-.51.2-1.02.2-1.53.2-.92.31-1.73.51-2.64,0-.2.1-.41.1-.61s.1-.51.2-.61c0-.1.1-.1.1-.1.31-.1.61,0,.92.1h1.02c.71.1,1.42.1,2.14.2.31,0,.71,0,1.02.2.1,0,.1.1.2.2.2.31.2.81.31,1.22.2.71.2,1.53.51,2.24,0,.1.1.31.2.41.1.2.1.51.31.51s.31-.1.31-.2c.1-.1.2-.2.2-.41.1-.1.2-.31.2-.51.1-.1.1-.2.2-.41.2-.41.41-.81.51-1.32.2-.2.31-.51.41-.81.1-.2.2-.51.41-.61.2-.2.61-.1.81-.1.61,0,1.12.1,1.63.1.31.1.51.1.71.1.61,0,1.22.1,1.83.1.1,0,.31,0,.31-.2,0-.1-.2-.31-.2-.41-.31-.2-.61-.41-.81-.61-.71-.61-1.42-1.12-2.14-1.73-.2-.2-.71-.51-.71-.81,0-.1,0-.2.1-.31.1-.51.31-.92.51-1.32.1-.2.1-.31.2-.51s.31-.51.41-.81c0-.1.1-.31.1-.41.1-.2.31-.51.2-.71-.1-.1-.2-.31-.41-.31s-.41.2-.61.31l-1.53.92-.31.31c-.2.1-.51.2-.71.31-.2.2-.41.31-.71.31s-.51-.31-.71-.51c-.92-.81-1.83-1.53-2.85-2.34,0-.1-.1-.1-.2-.1-.41,0-.1.92,0,1.12,0,.31.1.61.2.92.1.61.2,1.12.31,1.63.1.31.2.81.2,1.12-.1.31-1.22.92-1.53,1.02-.61.41-1.22.81-1.83,1.12-.2.1-.41.2-.51.31-.2.1-.31.2-.41.31q-.1,0-.2-.1c-.1-.1.71-2.95.81-3.36,0-.41.2-.71.31-1.12.1-.51.2-.92.41-1.42.61-1.93,1.22-3.76,1.93-5.59.31-.61.61-1.32.92-1.93.1-.2.1-.61.41-.81.1-.1.31,0,.51,0,.51,0,1.02,0,1.53.1h.51c.51,0,1.12.1,1.73.1.1-.2.1-.31-.1-.41-.31-.31-.61-.61-.92-.81-.31-.31-.71-.61-1.02-.92-.2-.2-.81-.71-.92-.92,0-.2.2-.41.2-.61.31-.51.51-1.02.81-1.53l.92-1.53c.1-.2.2-.41.41-.61.2-.41.31-.71.51-1.02.51-.71.92-1.53,1.42-2.24.31-.51.61-.92.92-1.42.2-.2.31-.41.41-.51q.1-.1.2-.1c.1,0,.2.2.2.31.1.31.2.71.2,1.02.1.41.2.81.31,1.12.1.41.1.81.2,1.12.1.1.2.2.31.2,0-.1.1-.1.1-.2.2-.31.31-.71.51-1.02.2-.61.51-1.22.71-1.73.1-.31.2-.51.31-.71.1-.31.2-.71.51-.81.31-.2.71-.1,1.02,0,.81,0,1.63.1,2.44.1.41,0,.81.1,1.32.1,0,0,.1-.1.1-.2-.1-.2-.51-.51-.61-.61l-.31-.31c-.2-.1-.31-.31-.51-.41-.41-.41-.92-.81-1.32-1.22-.2-.2-.61-.41-.71-.71-.1-.2,0-.41,0-.51.1-.31.2-.61.41-.92.1-.2.1-.31.2-.51,0-.1.1-.31.2-.51s.2-.51.31-.81c.1-.1.2-.31.31-.51.2-.31.51-.61.81-.92l.92-.92c.81-.71,1.53-1.42,2.34-2.24.2-.1,1.22-1.12,1.42-1.02.1,0,.1.1.1.1.1.2.1.51.2.71,0,.2.1.51.1.71.1.1.1.31.2.51,0,.31.1.61.2.92,0,.1.1.2.2.2.2-.1.31-.51.41-.71.41-.81.71-1.73,1.12-2.54.1-.31.2-.51.31-.81,0-.1.1-.2.2-.31,0-.1.1-.1.2-.2h.51c.31.1.51.1.81.1.71.1,1.63.1,2.34.2.2,0,1.02.1,1.12,0,.2-.1.1-.2,0-.31-.2-.31-.61-.51-.92-.81l-.61-.61c-.41-.41-.81-.71-1.22-1.02-.1-.2-.1-.31,0-.41.1-.2.31-.31.51-.41.2-.1.41-.2.61-.41,1.12-.71,2.14-1.32,3.25-2.03,1.53-1.02,3.15-1.93,4.88-2.75.71-.31,1.42-.71,2.24-1.02.31-.2.71-.41,1.12-.51.31-.2.61-.31,1.02-.51.31-.1.61-.2.92-.41.61-.2,1.12-.41,1.73-.61.31-.1.61-.31.92-.31.31-.1.61,0,.92,0,.41,0,.71,0,1.12.1.31,0,.71,0,1.12.1.31,0,.71,0,1.02.1l.31.31c.1.41.2.81.31,1.32l.31,1.53c0,.31.1.51.1.81.1.2.2,1.12.51,1.12,0,.1.1,0,.1,0,.1-.1.1-.31.2-.41.1-.2.2-.41.31-.71.1-.2.1-.31.2-.51.1-.1.1-.2.1-.31.2-.41.41-.71.51-1.12.1-.31.31-.61.41-.92.1-.2.2-.61.41-.71.2-.2.51-.1.81-.1.51,0,.92.1,1.42.1s.92.1,1.42.1c.51.1,1.02.1,1.53.1.1,0,.2,0,.2-.1.1-.2-.61-.81-.81-.92-.2-.1-.41-.31-.61-.41-.41-.41-.81-.81-1.32-1.12l-.61-.61-.31-.31c-.1,0-.1-.1-.1-.1,0-.1,0-.2.1-.2.1-.1.41-.1.51-.1.2-.1.41-.1.61-.1q.1-.1.2-.1c.2,0,.41-.1.61-.1.1,0,.2-.1.31-.1h.51c.1-.1.2-.1.41-.1h.2c.1-.1.31-.1.51-.1h.1c.1,0,.1-.1.2-.1h.41c.1,0,.2-.1.2-.1h.61l.1-.1h.51q.1,0,.2-.1h.71s.1,0,.1-.1h.71s.1,0,.1-.1h.92c0-.1.2,0,.2,0,.2-.1.31,0,.41.1.1.2.2.51.2.81.1.2.1.41.2.71,0,.1.1.2.1.31s-.1.2-.1.2c-.2.31-.81.61-1.12.81-.51.31-.92.51-1.42.81-.1.1-.31.2-.51.31-.2.1-1.02.51-1.02.81,0,.2,1.02.2,1.22.2.51,0,1.02.1,1.42.2.41,0,.81,0,1.12.1.41,0,.92-.1,1.22.1.2.31.31,1.02.41,1.42.2.71.41,1.42.51,2.14.1.2.2,1.12.51,1.12.1,0,.2-.1.31-.2,0-.2.1-.31.2-.51,0-.1.1-.31.2-.41,0-.2.1-.31.1-.51.1-.1.2-.2.2-.31.1-.2.1-.31.2-.51l.31-.61c.1-.31.41-1.12.71-1.22.2-.1.61-.1.92,0,.51,0,.92,0,1.42.1h.41c.41,0,.71.1,1.12.1.2,0,1.22.2,1.32-.1,0-.2-1.22-1.12-1.53-1.32-.2-.2-.41-.41-.71-.61-.1-.2-.31-.31-.41-.41-.2-.1-.41-.31-.61-.51s-.51-.41-.51-.71.31-.71.41-.92c.1-.31.2-.51.31-.71,0-.1.1-.2.1-.31.1-.31.2-.61.51-.81Z"/>
    <path class="cls-5" d="m122.45,27.97c.1.1.31.1.31.31-.1.1-.2.31-.31.41-.2.31-.41.51-.51.81-.41.51-.71,1.02-1.02,1.53-.41.61-.71,1.22-1.02,1.83-.2.31-.41.51-.51.81-.1.2-.2.41-.2.61-.1.2-.2.41-.41.61-.1.31-.1.61-.2.92l-.31.61c0,.2-.1.41-.1.51-1.02,3.25-1.63,6.81-1.63,10.58,0,1.53.1,2.95.31,4.27.1.81.2,1.63.41,2.34.1.61.2,1.12.31,1.63.2.71.31,1.53.51,2.24.1.31.2.71.31,1.12l.92,3.05c.41,1.12.71,2.24,1.02,3.36.2.61.41,1.22.61,1.93.51,1.42.92,2.85,1.42,4.27.31,1.02.51,2.14.81,3.15.41,1.73.81,3.56,1.12,5.29.2,1.32.51,2.64.61,4.07.2,1.63.31,3.25.2,4.88,0,2.24-.31,4.37-.81,6.31-.2.61-.31,1.22-.51,1.83-.41,1.12-.92,2.24-1.42,3.25-.2.2-.31.51-.41.71-.1.1-.2.2-.31.41-.2.31-.41.71-.61,1.12-.31.51-.61,1.12-1.02,1.63l-.31.31c-.2.31-.41.51-.61.71-.92,1.02-1.83,2.14-2.75,3.15-1.12,1.22-2.14,2.54-3.15,3.76-.31.41-.61.71-.92,1.02-.41.41-.81.81-1.12,1.32-.41.51-.92,1.02-1.32,1.53-.2.31-2.03,2.44-2.24,2.44,0-.31.31-.61.41-.92.2-.31.31-.51.51-.81.1-.2.2-.51.31-.71l.31-.92c.1-.2.2-.41.31-.71.1-.2.2-.51.31-.81.1-.2.2-.31.31-.51.2-.51.31-1.02.41-1.53.1-.31.2-.71.31-1.12.1-.61.2-1.22.31-1.73.1-.81.2-1.63.31-2.34.1-.51.1-1.02.1-1.42v-1.42c0-.61,0-1.32-.1-1.93v-.92c-.1-.2-.1-.41-.1-.71s-.1-.61-.1-.92c-.2-2.03-.71-4.07-1.22-6-.2-.92-.41-1.73-.61-2.64-.2-.81-.41-1.53-.61-2.34-.1-.51-.31-.92-.41-1.42-.41-1.12-.71-2.34-1.12-3.46-.1-.51-.31-.92-.41-1.42-.31-.81-.61-1.73-.81-2.64-.2-.51-.41-.92-.51-1.42-.1-.41-.2-.81-.41-1.22l-.31-1.22c-.1-.1-.1-.2-.2-.41,0-.1-.1-.2-.1-.31-.1-.2-.1-.41-.2-.61-.2-.71-.31-1.32-.51-2.03-.31-1.32-.61-2.64-.81-3.97-.31-2.03-.41-4.17-.31-6.31.1-.31,0-.71.1-1.02,0-.61.1-1.22.2-1.73,0-.51,0-.92.1-1.32.1-.61.2-1.12.31-1.63v-.51c.1-.1.1-.2.2-.31,0-.1.1-.2.1-.31l.61-2.14c.31-1.02.71-2.03,1.22-3.05.41-.81.81-1.73,1.22-2.54.81-1.22,1.73-2.54,2.64-3.76.31-.41.71-.92,1.02-1.42.61-.61,1.22-1.32,1.83-1.93.31-.41.61-.81,1.02-1.22.41-.51.81-1.02,1.32-1.53.92-1.12,1.83-2.24,2.85-3.36,0-.1.1-.2.2-.2.1-.1.1-.2.2-.2.2-.2.2-.41.41-.51.61-.81,1.32-1.53,1.93-2.34.51-.61.92-1.12,1.42-1.63.31-.41.61-.81.92-1.12m7.93,3.66c.31.1.51.2.71.41.61.31,1.32.71,1.93,1.12,2.24,1.22,4.47,2.75,6.51,4.27.92.61,1.73,1.32,2.54,1.93.81.71,1.73,1.42,2.54,2.24,1.12.92,2.14,1.93,3.15,2.95.81.81,1.53,1.63,2.34,2.44.2.2.41.51.61.71l.31.31c.1.31.2.92.31,1.22.1,1.02.31,2.03.41,2.95.1.41.1.92.1,1.32.51,4.68,0,9.46-1.53,13.42-.31.81-.71,1.53-1.12,2.24-.2.51-.41,1.02-.71,1.42-.41.61-.71,1.12-1.12,1.73-.1.2-.31.41-.41.61-.41.41-.81.92-1.12,1.32-.92,1.02-1.73,1.93-2.54,2.95-.41.41-.71.81-1.12,1.32-.31.41-.71.81-1.12,1.22-.2.31-.41.61-.61.81-.71.81-1.32,1.63-2.03,2.34-.31.41-.61.71-.92,1.12-.61.71-1.22,1.42-1.83,2.03-.1.2-.31.41-.41.61l-.41.41h-.1c0-.2.2-.41.31-.61l.31-.61c.1-.2.2-.41.41-.61.1-.2.1-.41.2-.61.1-.2.2-.31.31-.51.31-.41.41-.81.61-1.22.41-1.22.81-2.54,1.02-3.86.2-.81.41-1.63.51-2.44s.1-1.53.2-2.34v-2.64c0-2.95-.51-5.8-1.12-8.44-.51-2.54-1.12-5.19-1.83-7.63-.81-2.54-1.63-5.19-2.34-7.73-.31-.92-.61-1.73-.81-2.64-.31-1.02-.61-2.03-.81-3.05-.31-1.22-.61-2.44-.81-3.76-.1-.61-.2-1.12-.31-1.73-.1-.41-.1-.71-.2-1.12v-.31c0-.51-.1-1.02-.1-1.53v-.41c0-.41-.1-.92,0-1.42,0,0,.1-.1.1-.2m29.39,29.08c.1,0,.2,0,.2.1.1.1.2.31.31.51s.31.51.41.81c.31.51.61,1.02.81,1.53.2.31.31.51.51.81.1.2.2.41.2.61.1.2,0,.51,0,.71s0,.51-.1.71v.92c0,.61-.1,1.32-.1,2.03.1,2.64.31,5.19.81,7.53.61,2.64,1.42,5.19,2.14,7.73.61,1.63,1.12,3.25,1.63,4.88.71,2.14,1.53,4.27,2.03,6.51,0,.1,0,.2.1.31,0,.2.1.41.2.61,0,.31.1.61.2.81v1.02c-.1.31-.1.71-.1,1.02,0,.81-.1,1.73-.1,2.54-.1.41-.1.81-.2,1.22,0,.31,0,.71-.1,1.02-.1.92-.2,1.73-.31,2.64-.1.51-.2,1.02-.2,1.53-.1.41-.2.92-.31,1.42-.1.61-.31,1.22-.41,1.83-.1.41-.2.81-.31,1.12l-.61,2.44c-.1.41-.2.71-.31,1.12-.31.92-.61,1.93-.92,2.85-.2.71-.51,1.53-.81,2.24-.92,2.54-2.03,5.08-3.25,7.42-.41.81-.81,1.53-1.12,2.24l-.92,1.53c-.92,1.63-1.93,3.15-3.05,4.78-.31.51-.71,1.12-1.12,1.63,0,0-.2.1-.2,0-.1-.1.31-.92.41-1.02.51-1.22.81-2.34,1.12-3.66.2-.92.31-1.83.51-2.85,0-.51.1-1.12.1-1.63v-1.22c0-.1.1-.31.1-.41,0-.51,0-1.12-.1-1.63v-1.63c-.1-1.73-.41-3.36-.61-4.98-.1-.61-.31-1.12-.41-1.73-.2-.81-.41-1.73-.61-2.54l-.31-1.22c-.2-1.02-.51-2.03-.81-3.15-.81-2.75-1.83-5.49-2.64-8.34-.1-.1-.1-.41-.2-.61,0-.1-.1-.2-.1-.31s-.1-.2-.1-.31c-.1-.2-.2-.41-.2-.61-.2-.31-.2-.71-.31-1.12-.1-.2-.1-.31-.2-.51s-.2-.41-.31-.71c-.1-.51-.31-1.02-.41-1.63l-.61-2.14c-.1-.71-.31-1.42-.51-2.14,0-.41-.1-.81-.2-1.22-.1-1.12-.31-2.14-.31-3.25-.2-1.83-.2-3.76,0-5.59.1-.2.1-.41.1-.61,0-.51.1-1.02.1-1.53.1-.81.31-1.63.51-2.44.1-.51.31-1.02.41-1.53.2-.61.41-1.32.61-1.93.2-.51.41-1.02.61-1.63.2-.31.41-.61.51-.92.2-.51.41-.92.61-1.32.31-.41.51-.92.81-1.32.41-.71.92-1.32,1.32-2.03l.61-.92c.41-.61.92-1.12,1.42-1.73.71-.81,1.42-1.73,2.24-2.54.41-.51.81-1.02,1.32-1.63.1-.1.31-.41.51-.51m-65.9.51c.2.2-.41.92-.51,1.02-.61,1.12-1.22,2.34-1.83,3.46-.51,1.12-.92,2.24-1.22,3.36-.31,1.02-.61,2.03-.81,3.15-.2.81-.31,1.73-.41,2.54,0,.51-.1,1.02-.1,1.53-.1.71-.1,1.42-.1,2.03-.1.71,0,1.32,0,2.03,0,1.02.1,2.14.31,3.15.2,2.03.71,4.07,1.22,6,.1.51.31,1.12.41,1.73.1.2.2.41.2.61.1.41.31.81.41,1.22.31,1.12.61,2.14,1.02,3.15,0,.31.1.61.2,1.02.41,1.12.81,2.44,1.22,3.56.1.51.31,1.02.41,1.42.31.92.61,1.93.92,2.85.41,1.42.71,2.85,1.02,4.27.2,1.02.51,2.03.61,3.05.1.61.31,1.32.41,2.03,0,.31.1.61.1.92.1.81.2,1.63.2,2.44.1,1.93.1,3.97-.1,5.9-.1.31-.1.61-.2.92,0,.61-.1,1.22-.31,1.83-.1.92-.41,1.83-.71,2.75-.61,1.83-1.53,3.56-2.54,5.19-.2.41-.41.81-.71,1.32-.2.31-.51.61-.71.81-.61.61-1.22,1.32-1.73,1.93-.31.51-.71.92-1.12,1.32-.71.92-1.42,1.83-2.24,2.64l-2.14,2.44c-.31.41-.61.81-.92,1.12s-.61.71-.92,1.02c-.2.31-.51.61-.71.92-.41.41-.71.81-1.12,1.22-.1.2-.31.41-.41.61l-.51.51c-.1.1-.2.31-.31.41h-.2c.2-.61.61-1.12.81-1.63.41-.71.71-1.32,1.12-2.14.1-.2.2-.51.31-.81.61-1.53.92-3.05,1.22-4.68.2-1.02.31-2.14.41-3.15v-1.93c0-.71-.1-1.53-.1-2.24-.1-1.42-.2-2.85-.41-4.27-.2-.51-.31-1.12-.41-1.63-.1-.71-.2-1.32-.31-2.03l-.31-1.22c-.1-.31-.1-.71-.2-1.12-.2-.61-.31-1.12-.51-1.73-.1-.61-.31-1.22-.51-1.83-.2-1.02-.61-2.03-.92-3.05-.2-.51-.31-.92-.41-1.42l-.61-1.83c0-.1,0-.31-.1-.41-.31-.92-.51-1.73-.71-2.54-.31-.92-.61-1.93-.92-2.95l-.31-.92c-.41-1.53-.81-3.05-1.12-4.58-.31-1.42-.61-2.85-.71-4.27-.1-1.02-.1-1.93-.1-2.95,0-1.42,0-2.85.2-4.07,0-.51.1-.92.1-1.42.31-1.83.71-3.66,1.32-5.29.2-.71.51-1.32.71-1.93.2-.51.51-1.02.71-1.63.2-.31.41-.71.61-1.02.2-.41.51-.92.71-1.32.71-1.22,1.53-2.34,2.44-3.46.41-.61.92-1.12,1.42-1.73.61-.71,1.32-1.53,2.03-2.34.31-.41.61-.71.92-1.12.92-1.12,1.93-2.24,2.85-3.36.92-.92,1.73-1.93,2.54-2.95.51-.51.92-1.02,1.42-1.63.2-.2.41-.51.71-.81m47.39,21.05c.1.1-.51.92-.61,1.12-.81,1.12-1.32,2.34-2.03,3.46-.1.31-.2.61-.41.92-.31.71-.61,1.42-.92,2.24-.61,1.83-1.02,3.66-1.42,5.59-.1.51-.1,1.12-.2,1.73,0,.31,0,.71-.1,1.02-.1,1.02-.1,2.03-.1,3.05,0,1.73.2,3.46.41,5.08.1.61.2,1.12.31,1.73.2.41.31.92.41,1.42,0,.2.1.41.1.71.71,2.75,1.63,5.49,2.44,8.14.41,1.12.71,2.14,1.02,3.15.51,1.42,1.02,2.95,1.53,4.37.31,1.32.71,2.64,1.02,3.97.41,1.63.81,3.25,1.12,4.98.1.31.1.71.2,1.12.41,2.54.61,5.29.51,8.14,0,.81,0,1.63-.2,2.44v.61c-.31,1.22-.51,2.44-.81,3.66-.1.31-.2.71-.41,1.02-.1.2-.31.41-.51.51-.31.2-.51.41-.71.61l-.92.61c-.81.61-1.53,1.22-2.44,1.83-1.02.71-1.93,1.42-2.95,2.03-1.22.71-2.34,1.53-3.56,2.14l-.61.31c-.1.1-.2.2-.41.2q-.1,0-.2-.1v-.51c0-.31,0-.71.1-1.02-.1-.31-.1-.51-.1-.81,0-.92-.1-1.73-.1-2.64-.1-.71-.2-1.32-.31-2.03-.2-.92-.31-1.83-.51-2.75-.2-.81-.41-1.63-.51-2.34-.2-.92-.51-1.73-.71-2.54,0-.31-.1-.51-.1-.71l-.61-2.14c-.61-1.73-1.12-3.36-1.63-5.08-.31-.71-.51-1.42-.81-2.24-.1-.31-.2-.71-.31-1.12-.41-1.12-.81-2.24-1.12-3.46-.1-.31-.2-.71-.31-1.12-.61-1.83-1.12-3.76-1.42-5.69-.2-.81-.31-1.73-.51-2.64-.1-.92-.1-1.93-.1-2.95,0-.31-.1-.61-.1-1.02v-1.22c.1-.1.1-.2.1-.31v-.81c.1-.41.1-.92.2-1.42,0-.61.1-1.22.2-1.83.1-1.12.41-2.14.71-3.25.2-.71.41-1.53.61-2.24.61-1.73,1.42-3.36,2.34-4.88.81-1.22,1.63-2.44,2.54-3.66.2-.2.31-.51.41-.71.41-.51.81-1.02,1.22-1.42.41-.51.81-.92,1.12-1.32.51-.61,1.02-1.12,1.53-1.73.81-1.02,1.73-2.14,2.64-3.15.61-.61,1.02-1.22,1.63-1.83.51-.71,1.12-1.32,1.63-2.03.1-.1.2-.31.31-.41.61-.61,1.12-1.32,1.63-1.93.2-.1.31-.31.51-.51l.31-.31m-74.24,10.07c.2.1-.41,1.02-.51,1.22l-1.53,2.44c-.2.41-.41.92-.61,1.32-.1.1-.1.2-.1.41-.1.1-.2.31-.2.51-.31.71-.61,1.42-.81,2.14-.2.81-.41,1.53-.61,2.34-.1.1-.1.31-.2.41,0,.2,0,.51-.1.71-.2.92-.31,1.83-.31,2.75-.1.2-.1.41-.1.61-.1.31-.1.61-.1,1.02-.1,1.53-.1,3.25,0,4.78.1,2.14.51,4.27,1.02,6.2.41,1.83.81,3.46,1.32,5.19.51,1.83,1.12,3.56,1.63,5.29.41,1.22.81,2.44,1.12,3.56l.92,2.75c.1.61.31,1.22.41,1.93.31,1.02.61,2.24.81,3.36.1.51.2.92.41,1.42.2,1.22.41,2.54.61,3.86.1.61.2,1.32.2,1.93.1,1.12.1,2.34.1,3.46,0,2.85-.41,5.49-1.12,7.93-.2.51-1.02,3.15-1.42,3.36-.2,0-.71-.31-.92-.41-.31-.1-.71-.2-1.02-.41-1.73-.81-3.56-1.73-5.29-2.64-1.32-.71-2.64-1.53-3.97-2.34-.2-.2-.51-.31-.71-.51-.1-.1-.31-.2-.41-.31-.1-.31-.2-.92-.2-1.22l-.31-1.22c-.1-.51-.2-.92-.31-1.42-.1-.71-.31-1.32-.41-1.93-.2-.81-.41-1.63-.61-2.34-.2-.71-.51-1.42-.71-2.14-.2-.51-.31-1.02-.51-1.63l-.61-1.83c-.31-1.32-.71-2.54-1.12-3.86-.1-.41-.31-.92-.41-1.42-.2-.71-.41-1.32-.51-2.03-.41-1.42-.71-2.95-.92-4.47-.31-1.42-.41-2.85-.41-4.37v-1.83c0-1.63.2-3.25.41-4.78.1-.61.2-1.12.31-1.63.41-1.42.71-2.75,1.22-3.97.41-1.22.92-2.34,1.53-3.46.31-.51.51-.92.81-1.42s.61-1.02,1.02-1.42c.31-.61.71-1.12,1.12-1.63.1-.2.2-.31.31-.51.51-.61,1.02-1.22,1.63-1.83.61-.81,1.32-1.63,2.03-2.44.41-.61,1.02-1.12,1.53-1.63.61-.71,1.22-1.42,1.83-2.24.51-.61,1.12-1.22,1.63-1.83.81-1.02,1.63-1.93,2.44-2.85.2-.31.51-.61.71-.92m48.21,20.24c.1.1-.51.92-.61,1.12-.2.41-.51.81-.71,1.22-.1.2-.31.41-.41.71-.31.41-.61.92-.92,1.42-1.32,2.85-2.34,5.9-2.85,9.15,0,.51,0,1.12-.1,1.73,0,.2-.1.51-.1.81v1.02c0,.61-.1,1.12-.1,1.73.1,1.73.2,3.36.41,4.98.1.51.2,1.12.31,1.63.2,1.02.41,1.93.71,2.95.1.51.31,1.02.41,1.53.1.61.31,1.22.51,1.83.2.71.51,1.53.71,2.24.1.41.31.81.41,1.12.41,1.42.92,2.75,1.32,4.17.1.31.31.61.41.92.1.51.31,1.02.51,1.53.2.81.51,1.63.71,2.44.1.2.2.41.2.61.1.31.2.71.31,1.02.1.41.2.81.31,1.12.1.71.31,1.32.41,1.93.1.2.2.41.2.71l.31,1.22c.1.31.51,1.93.41,2.14-.2.2-.41.2-.61.31-.81.31-1.73.51-2.64.71-.61.1-1.22.31-1.73.41-2.03.51-4.17.92-6.31,1.22-.51.1-1.12.1-1.63.2-.41.1-.81.1-1.12.1-.2,0-.41.1-.61.1-.61,0-1.22.1-1.83.1-.2,0-.51.1-.71,0-.2-.2-.31-.61-.41-.92-.31-.92-.61-1.93-.92-2.85-.2-.61-.41-1.12-.61-1.63-.61-1.73-1.12-3.46-1.63-5.08,0-.31-.1-.61-.2-.92-.41-1.32-.61-2.75-.92-4.07-.31-1.73-.41-3.36-.51-5.19,0-1.32,0-2.85.2-4.07v-.61c0-.61.1-1.32.2-1.93.41-2.34,1.02-4.47,1.83-6.61l.92-1.83c.31-.51.51-1.12.81-1.63.31-.41.61-.81.81-1.22.31-.41.51-.71.71-1.12.71-1.02,1.63-1.93,2.44-2.95,1.12-1.22,2.14-2.44,3.15-3.66,1.42-1.63,2.85-3.25,4.17-4.78,1.53-1.73,2.85-3.46,4.37-5.08m-73.43,9.25s-.1.1-.1.2c-.51.81-1.12,1.63-1.63,2.44-.92,1.42-1.63,2.85-2.24,4.37-.61,1.32-1.02,2.75-1.42,4.17-.2.81-.31,1.63-.51,2.44,0,.51,0,.92-.1,1.42,0,0,0,.1-.1.1,0,0,0,.1-.1.1-.51-.81-1.12-1.63-1.53-2.44-.31-.41-.51-.71-.71-1.12-.2-.31-.31-.51-.51-.81,0-.1-.2-.31-.1-.41,0-.2.2-.41.31-.51.41-.51.71-.92,1.12-1.42.31-.2.51-.51.81-.81.2-.31.51-.71.81-1.02.81-1.02,1.73-1.93,2.54-2.95.31-.41.71-.81,1.02-1.22.81-.81,1.53-1.83,2.44-2.54m44.54,24.31v.1c-.41.71-.81,1.32-1.12,1.93-.41.61-.71,1.32-1.02,1.93-.2.31-.31.71-.41,1.02-.51,1.02-.92,2.03-1.22,3.15-.81,2.75-1.32,5.59-1.53,8.64v3.86c0,.1.1.31,0,.41,0,.1-.1.1-.1.1-.2,0-.41,0-.61-.1-.61-.1-1.12-.2-1.73-.41-.31,0-.61-.1-.92-.2-.61-.2-1.22-.31-1.93-.51-1.22-.41-2.44-.71-3.66-1.22-.31-.1-.61-.2-.81-.31-.2,0-.31,0-.41-.1s-.1-.1-.1-.2c.1-.2.2-.31.41-.51.1-.1.2-.31.41-.41.92-1.12,1.83-2.24,2.75-3.25l3.36-3.97c.61-.61,1.12-1.22,1.63-1.83.2-.31.51-.61.81-.92.31-.41.71-.81,1.02-1.22l1.53-1.83c.41-.41.71-.81,1.12-1.32.41-.41.81-.92,1.32-1.42.2-.31.31-.51.51-.71.2-.31.41-.51.71-.71"/>
    <path class="cls-2" d="m87.97,5.59c.2,0,.31,0,.41.1.1.2,0,.51,0,.71.1.51.1,1.02.1,1.42.1.41,0,.71.1,1.02.1.81.2,1.53.2,2.34.1.81.31,1.73.41,2.54,0,.31,0,.51.1.81,0,.2.2.71,0,.92,0,.1-.1.1-.2.1-.31.1-.71.1-1.02.1-.2,0-.41,0-.61.1h-.41c-.1,0-.2,0-.31-.1-.1-.2,0-.61,0-.92-.1-.51-.1-1.02-.1-1.42-.2-1.83-.41-3.56-.61-5.29,0-.51-.1-.92-.2-1.32,0-.2-.1-.61,0-.81.1-.2.61-.1.81-.1.1-.1.31,0,.41,0,.1-.1.2-.1.31-.1.2,0,.41-.1.61-.1m16.17.1c.2,0,.51.1.71.1s.51,0,.61.1c.2.1.2.31.31.51.2.2.41.51.51.71.2.31.51.71.71,1.02.61,1.02,1.22,1.93,1.93,2.95l.61.92c.1.1.41.81.61.81q.1,0,.2-.1c.1-.2.1-.41.1-.71.1-.31.1-.61.2-1.02.1-.92.2-1.83.31-2.85,0-.2,0-.41.1-.61v-.61q.1-.1.1-.2c.2-.1.61,0,.81.1h.41c.1,0,.2.1.2.2,0,.31-.1.51-.1.71-.1.41-.2.92-.31,1.32-.1.41-.1.81-.2,1.22-.2,1.12-.31,2.24-.51,3.46-.1.31-.1.71-.2,1.12,0,.41-.1.81-.1,1.22-.1.2-.1.41-.1.51s-.1.1-.1.2c-.2,0-.41,0-.61-.1-.2,0-.51,0-.71-.1s-.31-.41-.41-.61l-.31-.61c-.41-.51-.81-1.12-1.12-1.73-.41-.61-.81-1.12-1.22-1.73-.2-.41-.41-.71-.61-1.02-.2-.2-.92-1.42-1.02-1.42-.1-.1-.2,0-.2,0-.1.1-.1.31-.1.51-.1.41-.1.81-.2,1.32-.1.61-.2,1.12-.2,1.73,0,.31-.1.51-.1.71,0,.51-.1.92-.1,1.32,0,.2,0,.31-.1.51,0,0,0,.1-.1.1-.1.2-.61,0-.81,0h-.31l-.31-.31c0-.2.1-.41.2-.61.1-.41.2-.92.2-1.42.2-.61.31-1.32.41-1.93.1-1.02.31-2.03.41-2.95,0-.2,0-.31.1-.51,0-.41.1-.81.1-1.32.1-.2.1-.51.1-.71.1-.1.1-.2.2-.2m-8.14.1h-.51c-.31.1-.61.2-.92.51-1.02.92-1.32,2.34-1.22,3.86,0,1.73.51,3.66,2.34,4.07.2.1.51.1.81.1q.1,0,.2-.1h.2c.1-.1.31-.1.51-.1.51-.31.92-.81,1.22-1.32.2-.41.31-.81.41-1.32.41-1.73.1-4.07-1.22-5.19-.51-.41-1.12-.51-1.83-.51Zm0-1.02c1.63,0,3.15.31,4.27,1.32.92.92,1.42,2.03,1.53,3.36,0,.41,0,.92-.1,1.32-.31,2.44-1.93,4.07-4.27,4.47-2.44.41-4.98-.31-6.1-2.54-.2-.31-.31-.71-.41-1.12-.1-.41-.1-.81-.1-1.22-.1-.31-.1-.61-.1-.81.1-1.32.61-2.54,1.53-3.46.31-.31.71-.51,1.02-.71.41-.2.81-.31,1.12-.41.2-.1.41-.1.61-.1h.1q.1-.1.2-.1h.71Zm-12.51,1.22c.1,0,.2,0,.31.1.1.2.1.61.1.81q.1.1.1.31s0,.1-.1.1c-.1.1-.41.1-.61.1-.31,0-.51.1-.71.1-.31,0-.81,0-1.02.1-.1.1-.1.2-.1.31,0,.61.1,1.12.2,1.63.1.61.2,1.22.31,1.73.2,1.02.41,1.93.51,2.85.1.51.2.92.41,1.42,0,.2.1.31.1.51q0,.1-.1.2c0,.1-.1.1-.2.1-.31.1-.71.1-1.12.2-.31,0-.61.1-.92.1-.1,0-.2,0-.2-.1-.1-.1-.1-.31-.1-.41,0-.41-.1-.92-.2-1.32-.2-1.53-.41-3.05-.71-4.58-.1-.41-.2-.92-.2-1.32-.1-.2-.1-.41-.2-.61,0-.1-.1-.2-.2-.2h-.41c-.51.1-1.02.31-1.53.41-.1,0-.31.2-.51.1,0,0-.1-.1-.1-.2-.1-.1,0-.2-.1-.31,0-.2-.1-.61-.1-.71.1-.2.2-.2.41-.2h.1q.1-.1.2-.1h.51q0-.1.1-.1h.51c.1,0,.2-.1.2-.1h.41c.1,0,.2-.1.2-.1h.51c.1,0,.2-.1.31-.1h.1c.1,0,.41-.1.51-.1h.41s.1,0,.1-.1h.61c0-.1.1-.1.1-.1h.2c.1-.1.31-.1.41-.1h.2c.1-.1.2-.1.31-.1.2-.1.41-.1.61-.1.1-.1.31-.1.41-.1m-10.17,1.73h.71c.2,0,.41,0,.61.1,0,0,.1.1.1.2.1.1.1.31.1.41,0,.2,0,.41.1.71v.31c0,.1-.1.1-.1.2h-.2c-.2-.1-.31-.2-.51-.31-.2-.2-.51-.31-.81-.31-1.12-.31-2.34.31-2.95,1.12-1.02,1.32-.81,3.05-.2,4.58.2.41.41.81.81,1.22,0,.1.1.31.2.41.71.61,1.42.81,2.44.81h.1c.2,0,.51-.1.71-.1.51-.2,1.02-.51,1.42-1.02l.31-.31c.2-.2.31-.61.61-.61.1,0,.2.1.2.1.1.2.1.51.1.81,0,.2.1.41,0,.61-.1.41-1.02.92-1.32,1.12-.51.2-1.12.41-1.63.51s-1.02.31-1.53.31c-1.02.1-2.24-.2-3.05-.71-.2-.2-.41-.31-.61-.51-.81-.71-1.32-1.73-1.53-2.75-.1-.61-.31-1.12-.31-1.73.1-2.14,1.63-3.86,3.56-4.58.41-.1.92-.31,1.42-.41.2-.1.31-.1.51-.1h.2s.1-.1.2-.1h.31m50.24,2.24h1.02c.31,0,.41.1.61.1,1.02.2,1.93.51,2.85,1.02.2.2,1.12.71,1.02,1.12-.1.2-.2.41-.41.61-.1.2-.1.41-.2.51s-.2.1-.2.1c-.1,0-.2,0-.2-.1-.1-.1-.2-.31-.2-.51-.2-.31-.41-.51-.61-.81-.71-.61-1.83-.92-2.85-.71-.41.1-.71.31-1.02.61-.81.61-1.32,1.42-1.63,2.24-.92,2.75,0,5.39,3.15,5.39h.31c.31-.1.51-.1.71-.2.2,0,.41-.2.61-.2.1,0,.2,0,.2.1.1,0,.1.1.1.2,0,.2-.2.41-.31.51-.2.31-.31.51-.51.71s-.81.1-1.12.1c-.71,0-1.32-.1-1.93-.31-.2-.1-.31-.1-.41-.2-1.02-.41-2.03-.92-2.75-1.83-1.02-1.53-1.12-3.15-.51-4.98.2-.51.41-1.12.71-1.53.41-.41.71-.71,1.12-1.02.51-.41,1.32-.81,1.93-.81h.31c.1-.1.2-.1.2-.1m-59.29.92c.1,0,.1.1.2.1.1.1.1.31.1.41.1.2.31.41.31.61,0,0-.1.1-.1.2-.2.1-.81.31-1.02.31-.41.2-.81.31-1.22.41-.1.1-.31.2-.51.31-.1,0-.1.1-.1.1-.1.31.2.92.31,1.12.1.2.1.31.2.51s.2.61.41.81c0,.1.1.2.2.2.2,0,.41-.2.61-.31l1.53-.61c.1-.1.31-.31.51-.31.1,0,.2,0,.31.1,0,.2.1.31.1.51.1.1.1.2.2.41v.2c-.1.1-.41.2-.51.2-.51.2-1.02.31-1.53.51-.2.1-.51.2-.71.31-.1.1-.1.2-.1.31.1.1.1.31.1.41.2.31.31.61.41.92.2.41.31.71.41,1.02.1.2.2.31.31.51l.1.1c.2,0,.41-.1.61-.2.41-.2.92-.41,1.32-.61.2-.2.51-.31.71-.41h.2q.1,0,.1.1c.1.1.1.31.2.41s.1.31.2.51v.2c-.2.2-.41.2-.61.31-.2,0-.31.1-.51.1-.51.2-.92.41-1.42.61-.41.1-.81.31-1.22.51-.31.1-.61.2-.92.41-.1,0-.31.2-.51.1,0,0-.1,0-.2-.1-.1-.2-.1-.41-.2-.61-.1-.41-.31-.92-.41-1.32-.41-.92-.81-1.83-1.12-2.75-.41-.81-.71-1.63-1.12-2.54-.1-.2-.81-1.63-.71-1.83s1.02-.41,1.32-.51c1.22-.61,2.54-1.12,3.76-1.73m70.58,4.17h-.51c-.2.1-.51.2-.71.31-.31.2-.61.41-.81.61-.61.61-.92,1.12-1.22,1.83-.31.51-.51,1.02-.61,1.53-.1.41-.2.92-.2,1.42.1,1.32.92,2.14,2.14,2.44.2.1.41.1.71.1,0-.1.1-.1.1-.1.2,0,.31-.1.41-.1.31-.1.61-.2.81-.41.41-.2.71-.51.92-.92.71-.81,1.22-1.83,1.53-2.95.2-.71.2-1.63-.1-2.24-.41-.92-1.42-1.53-2.44-1.53Zm-1.53-1.32h1.42c1.63.41,3.15,1.22,4.17,2.64.31.31.51.71.61,1.12.81,2.14-.41,4.88-2.03,6.1-.61.41-1.22.71-2.03.92-1.12.2-2.34,0-3.36-.51-.71-.2-1.32-.61-1.93-1.12-1.22-1.12-1.93-2.75-1.53-4.58.2-1.22.92-2.44,1.73-3.25.41-.41.92-.71,1.32-.92.31-.2.81-.31,1.12-.41h.51,0Zm-79.12,1.73c.1,0,.1.1.2.1.2.2.31.61.41.81.1.31.31.71.41,1.02.61,1.32,1.32,2.54,1.93,3.76.1.41.31.71.51,1.02.1.31.31.71.51.92,0,.1.1.2.2.2.2-.1.41-.2.51-.31.61-.2,1.12-.61,1.63-.92.2-.1.41-.31.61-.31.1,0,.1.1.2.1,0,.1.1.2.1.31.1.2.31.51.31.71.1.1,0,.1,0,.2-.2.2-.61.31-.81.41-.31.1-.51.2-.71.31-.81.31-1.63.81-2.44,1.12-.2.1-.41.2-.51.31-.2.1-.31.2-.41.31h-.2l-.2-.2c-.1-.1-.2-.41-.2-.61l-.61-1.22c-.81-1.73-1.63-3.46-2.54-5.08-.2-.31-.31-.61-.51-1.02-.1-.1-.41-.51-.41-.81.1,0,.1-.1.2-.1.2-.2.61-.31.81-.41.41-.1.71-.41,1.02-.61m-4.58,2.54c.41,0,.41.41.61.61.1.1.2.31.2.51-.1.2-.81.41-1.02.51-.51.31-.92.61-1.42.92-.1,0-.2.1-.2.1v.2c0,.31.2.51.31.71.2.2.31.51.51.71.1.2.31.51.51.71,0,.1.1.2.2.2.2-.1.31-.2.41-.31.41-.31.92-.61,1.32-.92.2-.1.61-.51.81-.51.2.1.31.41.31.51.1.2.41.31.31.51v.2c-.2.2-.51.31-.71.41-.41.2-.81.41-1.12.61-.31.1-.51.2-.71.41v.31c.1.2.2.31.2.41l.61.92c.1.2.31.41.41.71.1.1.2.41.41.51.1.1.2.1.31.1.1-.1.2-.2.41-.31.41-.31.92-.61,1.32-.92.2-.1.51-.51.71-.51q.1.1.2.1c.1.1.1.31.2.41.1.1.31.31.31.51.1.2-.81.61-1.02.81-.92.51-1.93,1.12-2.85,1.73-.2.1-.61.51-.81.51-.1,0-.2,0-.2-.1-.2-.1-.2-.31-.31-.41-.2-.41-.41-.81-.71-1.22-.2-.31-.31-.61-.51-1.02-.51-.71-.92-1.42-1.42-2.24-.41-.51-.81-1.12-1.12-1.73-.41-.51-.71-1.02-1.02-1.42v-.2c0-.2,1.02-.71,1.22-.81,1.22-.71,2.24-1.53,3.36-2.24m94.17,1.12h.2c.1,0,.2.1.31.2.2.1.41.2.51.41.1,0,.1.1.1.2.1.1,0,.31,0,.51-.1.51-.2.92-.2,1.42-.2,1.12-.31,2.14-.51,3.25,0,.41-.1.81-.2,1.12v.61c0,.2.1.2.1.31.51-.2,1.02-.51,1.42-.71.81-.41,1.53-.81,2.34-1.32.51-.2.92-.51,1.42-.81l.61-.31c.1-.1.51-.41.71-.41.2.1.31.2.51.31.1.1.41.2.51.41v.2c0,.2-.1.31-.2.51-.2.31-.41.71-.61,1.02-.2.51-.41.92-.71,1.42-.51.92-1.02,1.93-1.53,2.95,0,.1-.1.2-.1.31-.1.2-.2.41-.41.71-.31.61-.51,1.12-.81,1.73q-.1.1-.2.1c-.2,0-.61-.41-.81-.51s-1.12-.61-1.12-.81c-.1-.1,0-.2,0-.31l.61-.92c.51-.81,1.02-1.73,1.42-2.54.2-.41.31-.71.51-1.02.1-.2.2-.31.2-.51v-.1c-.1-.1-1.22.51-1.42.61-.92.51-1.83,1.12-2.85,1.63-.2.1-.41.31-.61.41-.31.1-.92.71-1.22.51-.2-.1-.41-.2-.51-.41,0-.2.1-.31.1-.51.1-.31.1-.61.2-.92.2-1.12.31-2.44.51-3.66,0-.2.2-1.42.1-1.53,0-.1-.1,0-.1,0-.2.1-.31.31-.41.41-.31.31-.51.51-.71.81-.41.41-.71.81-1.02,1.22-.2.31-.51.51-.71.81-.1.2-.31.41-.41.51-.2.2-.41.71-.61.71-.1.1-.2,0-.2,0-.2,0-.31-.2-.41-.31-.2-.1-.41-.2-.51-.31-.1-.1-.1-.2-.1-.31.2-.2.51-.51.71-.61.31-.31.61-.71.92-1.02l5.19-5.49m-50.34,3.86c.2,0,.92-.1.92.1l-.2.2c-.1.1-.31.2-.41.2-.2,0-.51-.1-.51-.31v-.1q.1-.1.2-.1m15.46,1.12c.2,0,1.12.1,1.02.41l-.1.1c-.1.1-.2.1-.31.1-.2,0-.61-.31-.61-.51v-.1m47.49,4.37h.2c.2.1.41.31.51.51.1.1.2.1.31.31.1,0,.1.1.1.2-.1.1-.1.2-.2.41-.1.31-.2.61-.31,1.02-.1.31-.2.51-.31.81-.41,1.02-.71,2.03-1.02,2.95l-.31.92c-.1.2-.1.41-.2.61q0,.1.1.2h.1l1.83-.61c.31,0,.61-.1.81-.2,1.02-.31,1.93-.61,2.85-1.02.31-.1.61-.2.81-.31.2,0,.41-.1.51-.1.31,0,.41.2.61.41.1.1.31.2.41.41v.2c0,.1-.1.2-.2.31-.31.31-.61.71-.92,1.02l-3.66,4.88c-.2.31-.51.61-.71.92-.1.2-.31.41-.51.61,0,0-.1.1-.2.1-.1-.1-.2-.2-.31-.41-.2-.1-.41-.31-.61-.51-.1-.2-.71-.61-.71-.81v-.1c0-.1.2-.31.31-.41.41-.41.71-.81,1.12-1.12.51-.71,1.02-1.42,1.63-2.14.1-.1.71-.81.71-1.02h-.2c-.2,0-.41.1-.51.1-.2.1-.41.2-.61.2-.51.2-.92.31-1.32.41l-2.44.92c-.31.1-.51.2-.81.31-.1,0-.31.1-.51.2-.1,0-.2-.1-.31-.1-.1-.2-.31-.31-.31-.51s.1-.31.2-.41l.31-.92c.41-1.12.81-2.34,1.12-3.46l.31-.92c.1-.2.2-.41.2-.61v-.1c-.2-.1-1.12.71-1.22.81-.92.71-1.83,1.53-2.75,2.24-.2.2-.51.61-.71.71h-.2c-.2-.1-.81-.71-.92-.81,0-.1,0-.2.1-.31.2-.2.41-.41.71-.51.31-.31.71-.51,1.02-.71.61-.41,1.12-.81,1.63-1.22.92-.61,1.73-1.22,2.54-1.93.71-.41,1.32-1.02,1.93-1.42m-121.43.61c.1,0,.2,0,.31.1s.31.31.41.51c.31.31.51.61.81,1.02.41.41.81.92,1.22,1.42.51.61,1.12,1.22,1.63,1.93.31.2.61.51.81.81.2.2.31.41.51.51.1.1.2.1.31.1l.31-.31c.51-.41.92-.81,1.42-1.32.1-.1.2-.41.41-.41q.1-.1.2,0c.1,0,.2.2.41.31.1.2.2.31.31.51v.2c-.1.2-.61.51-.81.71-.31.2-.51.41-.81.71-.51.41-1.12.92-1.63,1.42-.2.2-.81.81-1.02.81-.2-.1-.31-.41-.41-.51-.2-.2-.31-.41-.51-.51l-.92-1.22c-.61-.61-1.12-1.22-1.63-1.83-.81-.92-1.63-1.73-2.34-2.64-.2-.2-.61-.51-.61-.71,0-.1,0-.2.1-.2.2-.2.51-.41.71-.61l.81-.81m-4.98,9.05v.2c.1.31.2.61.41.81l.61,1.22.31.61c.1,0,.2.1.31,0,.1,0,.2-.2.31-.31.31-.2.51-.41.71-.71.1-.1.2-.2.31-.41v-.2c0-.1-.1-.1-.2-.1-.31-.2-.61-.31-.92-.41-.41-.2-.71-.31-1.12-.51-.2-.1-.41-.2-.71-.2Zm-1.22-3.05c.31,0,.61.2.81.31l1.53.61c.92.41,1.83.71,2.64,1.12.92.31,1.83.61,2.64,1.02.51.1,1.02.31,1.53.51.2.1.41.1.61.31.1,0,.2.1.1.2,0,.1-.2.31-.41.41,0,.1-.1.2-.2.31-.2.2-.31.31-.41.51-.2.2-.31.51-.61.61-.2.1-.61-.2-.81-.31-.31-.1-.51-.2-.81-.31-.31-.2-.81-.51-1.12-.51-.1,0-.2.1-.2.1-.31.2-.51.51-.61.71-.31.31-.51.61-.81.92-.1.1-.51.51-.51.71s.2.41.2.51c.31.41.51.92.81,1.32.1.2.41.61.41.81s-.2.41-.41.61c-.1.1-.2.41-.41.41-.1.1-.2,0-.31-.1-.41-.92-.81-1.83-1.32-2.75l-1.53-3.05c-.31-.51-.61-1.12-.92-1.73-.2-.31-.31-.61-.51-.92-.1-.2-.51-.71-.51-1.02q0-.1.1-.2l.2-.2c.1-.1.2-.2.2-.31,0,0,.61-.61.61-.61Zm136.99,3.15c.2,0,.2.1.31.1.1.2.2.31.31.41.2.2.31.41.51.61.1.2.41.41.61.71,0,0,0,.1-.1.2-.1.2-.41.31-.51.41-.41.31-.71.61-1.12.81-.71.61-1.42,1.12-2.14,1.73-.1.1-.31.2-.41.31-.51.41-1.02.92-1.53,1.32s-.92.71-1.32,1.12c-.1.1-.31.31-.51.41-.1.1-.2,0-.2,0-.31-.2-.41-.61-.61-.81-.2-.1-.31-.31-.41-.41-.1-.2-.31-.31-.41-.41,0-.1-.1-.2,0-.31,0-.2.81-.71,1.02-.81.31-.2.61-.51.92-.71l1.22-.92c.71-.61,1.53-1.22,2.34-1.93.41-.31.92-.71,1.32-1.12l.71-.71m2.34,4.68c1.22,0,2.14.61,2.85,1.53.31.41.51.71.71,1.12.1.41.51,1.32.2,1.73-.1.1-1.32.51-1.53.51-.1,0-.2-.1-.2-.2-.1-.2.1-.51.2-.71.1-.41,0-.92-.1-1.22-.31-.92-1.32-1.32-2.03-.61-.51.51-.31,1.53-.2,2.24.1.31.1.61.1.92.31,1.63-.41,2.64-1.63,3.25-.41.2-.92.31-1.42.31h-.71c-.81-.2-1.63-.92-2.24-1.63-.1-.2-.31-.51-.51-.81s-.81-1.63-.61-1.93c.1-.1.1-.2.2-.2.2-.1.31-.1.51-.2l.61-.31c.2-.1.31-.2.51-.2.1,0,.2.1.31.2.1.2-.1.51-.2.71-.1.1-.1.2-.1.41-.2.92.31,1.93,1.12,2.24h.81c.2-.1.31-.2.41-.41.61-.61.31-1.42.2-2.14,0-.61-.1-1.42,0-2.03.1-1.02,1.02-1.93,1.93-2.34.31-.1.51-.1.81-.2m-145.53,2.44c-.2.1-.41.1-.51.2-.31.1-.92.71-.71,1.02,0,.1.41.31.61.51.31.2.71.41,1.02.61.31.2.61.41,1.02.61,0,.1.2.2.31.2.2-.1.31-.41.31-.71.1-.1.2-.31.2-.51,0-1.12-1.32-1.93-2.24-1.93Zm1.02-2.34c1.02.1,2.14.81,2.44,1.83.1.31.1.71.1,1.22,0,.1-.1.31-.1.51q0,.1.1.2c.1.1.61,0,.71,0h2.24c.2-.1.51,0,.61,0h1.73c.1,0,.31,0,.31.2s-.41.61-.51.81-.2.31-.41.51c-.1.2-.2.51-.41.71,0,.1-.1.1-.2.2-.2.1-.81,0-1.12,0-.1,0-.2,0-.41-.1h-1.02c-.41,0-.81-.1-1.12-.1-.2,0-1.22-.1-1.32,0,0,.2.2.31.2.31.81.51,1.63.92,2.34,1.42.31.1.81.41,1.02.61v.31l-.31.31c-.1.2-.31.51-.41.71-.2.2-.2.51-.41.61-.1.1-.2.1-.31.1s-.2-.1-.31-.2c-.51-.31-1.02-.71-1.42-1.02-.71-.51-1.42-.92-2.14-1.32-.1-.1-.31-.2-.51-.31-.31-.31-.71-.51-1.02-.71-.2-.2-.51-.31-.71-.51-.31-.2-.61-.31-.92-.51l-.61-.31c-.2-.1-.51-.2-.61-.41v-.31c.1-.2.2-.31.41-.51.1-.31.31-.61.51-.81.2-.31.41-.71.61-1.02.51-.92,1.42-2.34,2.75-2.34,0,0,.1-.1.2-.1Zm148.99,7.12c1.12,0,1.83.41,2.54,1.22.1.1.31.31.41.51.1.1.1.2.1.31.2.2.31.41.41.61,0,.1.1.31.1.41.1.2.1.31.1.51.1.31.2.81,0,1.02-.1.1-1.42.41-1.63.41-.1,0-.2-.1-.2-.2-.1-.2.2-.51.31-.71,0-.1,0-.31.1-.51.1-.81-.51-1.83-1.42-1.83-.2,0-.51.1-.61.31-.81.71-.41,2.14-.41,3.15v.71c-.2,1.22-1.02,2.03-2.14,2.44-2.34.71-3.97-1.22-4.68-3.15-.1-.31-.41-1.12-.2-1.42,0-.1.1-.2.2-.2.2-.1.31-.1.51-.2.31-.1.51-.2.71-.2.2-.1.31-.2.41-.2.2,0,.31.31.31.41-.1.2-.2.31-.31.51s-.31.61-.2.92c0,.81.41,1.63,1.12,1.83.2.1.41.1.61.1.1,0,.2-.1.2-.1.31-.1.61-.41.71-.71.2-.51.1-1.22.1-1.83-.1-1.12,0-2.14.61-2.85.2-.31.51-.51.71-.71.41-.2.92-.51,1.32-.51h.2m-154.69,0c.2.1.41.2.51.31.2.1.51.2.51.31.1.31-.31.71-.41.92-.31.51-.61.92-.81,1.42-.1.1-.2.31-.2.41s.1.2.1.2c.31.31.81.41,1.12.61.31.2.71.41,1.02.61.1,0,.2,0,.31-.1.2-.1.31-.41.31-.51l.61-1.22c.1-.2.2-.51.31-.71.1-.1.1-.2.2-.2s.81.31.92.41c.1,0,.2.1.2.31-.1.1-.2.31-.31.41-.2.51-.51.92-.81,1.32-.1.2-.31.51-.31.81,0,.1.1.2.1.2.31.2.51.31.71.41.41.2.81.41,1.32.61.2.2.51.41.81.41,0-.1.1-.1.1-.2.2-.1.2-.31.31-.51l.61-1.22c0-.2.2-.81.41-.92.2,0,.41.1.61.2.1.1.41.2.51.41s-.41.92-.51,1.12c-.41.81-.92,1.63-1.32,2.54-.2.31-.41.71-.61,1.12,0,.1-.1.2-.2.2-.2,0-.92-.41-1.12-.51-.61-.41-1.32-.81-2.03-1.12-.1-.1-.31-.2-.51-.31-1.22-.71-2.54-1.32-3.76-1.93-.31-.1-.51-.2-.71-.31s-.41-.2-.51-.31-.1-.1-.1-.2c.1-.2.2-.31.31-.41l.31-.61c.51-.92.92-1.93,1.42-2.85.1-.31.31-.81.61-1.12m159.67,6.61c.1,0,.2.1.2.1.2.31.31.61.41.81.1.2.1.41.2.61.2.2.31.41.31.61.1.1,0,.2,0,.31-.2.1-.61.2-.92.31-.41.2-.92.41-1.42.61-.61.2-1.22.51-1.83.71-.92.51-1.93.92-2.85,1.32-.41.2-.81.41-1.12.61-.31.1-.51.31-.81.31-.1,0-.2,0-.2-.1-.2-.2-.31-.61-.41-.92-.2-.31-.31-.71-.51-1.02v-.2c.1-.2.81-.41,1.02-.51s.41-.1.71-.2c.31-.1.51-.31.81-.41,1.12-.41,2.24-.92,3.36-1.42.71-.41,1.53-.71,2.24-1.12.2-.1.51-.2.81-.41m-161.91,3.86c-.2.1-.61,0-.81.1-.81.41-1.42,1.02-1.73,1.83-.1.1-.1.31-.2.41-.1.31-.31.61-.1.92.1.1.61.31.81.41l3.36,1.22c.31.2.71.31,1.12.51.2,0,.31.1.51.1.2.1.51.2.81.31.1,0,.31.1.51.1h.2c0-.1.1-.2.1-.31.2-.41.31-.71.41-1.12.51-2.34-1.42-3.76-3.15-4.27-.61-.2-1.12-.2-1.83-.2Zm.92-2.44c2.03,0,3.86,1.02,4.88,2.75.1.2.2.41.31.71.1.41.2.92.31,1.42,0,1.12-.41,2.34-.81,3.36-.31.61-.61,1.22-.81,1.93-.1.2-.1.51-.2.71,0,.1-.1.1-.2.1-.2.1-.41-.1-.51-.1-.51-.2-1.02-.51-1.42-.71-.2-.1-.51-.1-.71-.2-.1,0-.31-.1-.51-.2-1.32-.51-2.64-1.02-3.86-1.42-.41-.2-.81-.31-1.22-.41-.2-.1-.51-.1-.71-.31,0,0-.1,0-.1-.1v-.31l.31-.61c.2-.41.41-.92.51-1.32.41-1.22.92-2.64,1.63-3.76.51-.51,1.02-.92,1.63-1.12.41-.2.81-.31,1.22-.41,0,0,.31,0,.31,0Zm161.19,5.9c-.2,0-.41.1-.61.1s-.41.1-.71.2c-.31.1-.71.2-1.02.41-.81.31-1.53.71-2.14,1.42-1.02,1.22-.71,3.05.61,3.86.51.31,1.32.51,2.03.51,0-.1.1-.1.2-.1h.41c.1,0,.1-.1.2-.1.31,0,.61-.1.81-.2,1.12-.41,2.14-.92,2.95-1.83.61-.81.71-1.73.31-2.75-.1-.31-.31-.51-.51-.81-.31-.2-.61-.41-1.02-.51-.41-.2-1.02-.2-1.53-.2h0Zm-1.02-2.34c.92,0,1.83.1,2.64.61.61.41,1.22.92,1.63,1.63,1.02,1.32,1.73,3.66,1.02,5.49-.71,2.14-3.05,3.36-5.29,3.36-1.63.1-3.15-.92-4.07-2.14-.31-.41-.51-.81-.61-1.22-.31-.61-.61-1.32-.71-2.14,0-.61.1-1.22.2-1.83.31-1.22,1.42-2.34,2.54-2.95.61-.31,1.12-.51,1.73-.61.2-.1.41-.1.61-.1,0,0,0-.1.1-.1h.2,0Zm-166.58,6.1c.2,0,.41.1.51.1.2.1.31.1.51.2,0,0,.1,0,.1.1v.2c-.1.31-.2.71-.41,1.02-.1.41-.2.71-.41,1.12,0,.2-.1.41-.1.61,0,.1.1.2.2.2.51.1.92.31,1.32.41.31.1.71.31,1.02.31.1,0,.2-.1.31-.1.1-.31.2-.71.2-1.02.1-.31.2-.71.31-1.12.1-.2.1-.41.2-.61,0-.1.1-.2.2-.2.2.1.31.1.41.2.2,0,.31.1.51.1l.1.1c.1.2-.1.61-.2.81-.2.51-.31.92-.51,1.32,0,.2-.2.51-.1.71,0,.1.1.2.2.31.1,0,.31.1.51.1.31.2.71.31,1.12.41s.71.2,1.12.31c.1,0,.2,0,.31-.1.1-.1.2-.41.2-.61.1-.41.2-.71.31-1.02,0-.31.1-1.12.31-1.32h.2c.31.1.61.2.92.2.1.1.1.2.1.2,0,.2-.1.41-.1.61-.1.1-.1.31-.2.51-.31,1.02-.71,2.03-.92,3.05-.1.2-.2.92-.41,1.12-.1.1-.2.1-.41,0-.31,0-.61-.2-.92-.31-.2-.1-.31-.1-.51-.2-.31-.1-.71-.2-1.12-.31-.31-.2-.71-.2-1.12-.41-1.32-.41-2.64-.71-3.97-1.12-.31-.1-.61-.1-.81-.2s-.41-.1-.51-.2c-.1,0-.1-.1-.1-.2s.1-.31.1-.41c.1-.2.2-.41.2-.61.41-1.02.61-2.14.92-3.15.1-.31.1-.92.41-1.12m173.4,4.98c.1,0,.2,0,.31.1,0,.1,0,.31.1.41,0,.31.1.51.1.81,0,.1,0,.2-.1.31-.81,1.22-1.73,2.34-2.64,3.56-.31.51-.61,1.02-1.02,1.42-.1.31-1.12,1.42-1.02,1.63,0,.1.2.1.31.1h.31c.1-.1.2-.1.2-.1.2,0,.31,0,.41-.1l1.22-.31c.92-.2,1.83-.51,2.85-.71.2,0,.51-.2.71-.1q.1,0,.2.1c0,.2.1.41.1.51,0,.2.1.41.1.61,0,.1-.1.2-.2.2-.61.1-1.32.2-1.93.31-1.22.31-2.34.51-3.36.71-.81.2-1.63.31-2.34.51-.31.1-1.73.51-1.93.41l-.1-.1c-.1-.2-.1-.41-.1-.61-.1-.1-.1-.31-.1-.51,0-.1,0-.2.1-.31.1,0,.1-.1.2-.2.2-.2.31-.41.51-.61,1.02-1.32,1.93-2.75,2.95-4.07.2-.41.51-.71.71-1.02.2-.2.31-.41.51-.61v-.1c0-.1,0-.2-.1-.2h-.41c-.31.1-.71.2-1.02.31-.61.1-1.22.2-1.83.41-.51.1-1.02.2-1.53.41-.31,0-.61.1-.92.2-.1,0-.2.1-.31.1s-.2,0-.2-.1c-.1-.1-.31-1.02-.31-1.22.1-.1.2-.2.31-.2h.51c.1-.1.2-.1.31-.1h.2c.1-.1.61-.1.71-.1q.1-.1.2-.1h.1c.1-.1.61-.1.71-.1q.1-.1.2-.1c.1,0,.31,0,.41-.1.31,0,.61-.1.92-.2.61-.1,1.12-.2,1.63-.31.31-.1.71-.2,1.12-.2.2-.1.41-.2.61-.2.61-.1,1.12-.31,1.63-.41m-175.53,2.64c.2,0,.31,0,.51.1.2,0,.41,0,.51.1q.1,0,.2.1c.1.2-.2.81-.2,1.02-.2.41-.31.92-.41,1.42,0,.1-.1.31-.1.51,0,0,.1.1.1.2.31.1.81.1,1.02.2.51.1.92.2,1.42.31.1,0,.2,0,.2-.1.2-.1.2-.41.2-.61.1-.41.2-.92.31-1.32,0-.31,0-.61.1-.81,0-.1.1-.2.1-.2.2,0,.31,0,.51.1.1,0,.41,0,.61.1,0,.1.1.1.1.2,0,.2-.1.41-.2.61l-.31,1.53c-.1.2-.2.51-.1.71.2.2.81.31,1.12.31.2,0,.41.1.71.1.41.1.81.2,1.32.2.41.1.71.1,1.12.2.1,0,.2.1.2.2.1.1-.2.92-.2,1.12-.1.31-.1,1.02-.31,1.22-.31.1-.81-.1-1.02-.2l-2.75-.61-3.05-.61c-.51-.1-.92-.2-1.42-.2-.31-.1-1.32-.2-1.42-.41-.1-.2.2-.92.2-1.12.2-.61.31-1.22.41-1.83.1-.51.1-1.02.2-1.53.1-.31.1-.61.2-.81,0-.1.1-.1.1-.2m2.64,27.97c.2.1.31.31.41.41l.81.81c.2.1.31.31.51.41,0,.1.1.1.2.1l.61-.31.61-.31c.2-.1.31-.1.41-.2q.2,0,.31-.1c.1,0,.2,0,.2.1.1.1-.1.31-.1.41-.2.31-.31.61-.51.92-.1.2-.41.51-.31.81.1.31.61.81.92,1.02.1.2.41.41.51.61v.1l-.1.1c-.31,0-.61-.1-.92-.1-.31-.1-.51-.1-.81-.2h-.51c-.2.1-.2.31-.31.41s-.2.31-.31.41c-.1.2-.41,1.02-.61,1.12-.1,0-.2-.1-.2-.2,0-.31-.1-.71-.2-1.02,0-.31,0-.81-.2-1.02-.1-.1-.41-.1-.61-.2-.31,0-.71-.1-1.12-.2-.1,0-.31,0-.41-.1-.1-.1,0-.2.1-.2.2-.2.51-.41.81-.51s.81-.2.92-.61c.1-.1,0-.41,0-.51v-.51c-.1-.2-.1-.41-.1-.71-.1-.2-.1-.41,0-.71m170.25.81c-.31.31-1.02,1.22-1.32,1.22-.2,0-.41-.1-.51-.1-.41-.2-.71-.41-1.12-.61-.1,0-.2-.1-.41-.1l-.1.1c0,.2.1.31.1.41.2.31.31.51.41.81.2.2.41.51.31.81,0,.31-.31.51-.51.61-.1.2-.2.31-.31.41-.1.2-.71.61-.61.81.2.31,1.93-.41,2.34-.2.31.1.51.61.71.92.1.1.2.31.2.41.1.2.2.61.41.61.1,0,.2-.1.2-.1.1-.31.1-.61.1-.92.1-.2.1-.31.1-.51s0-.61.2-.81c.1-.1.31-.1.51-.1.1-.1.31-.1.41-.1.31-.1,1.02-.1,1.22-.41h-.1c0-.2-.2-.31-.41-.31-.41-.2-.92-.41-1.32-.71-.1,0-.2-.1-.2-.31,0-.1.1-.31.1-.41v-.51c0-.31.1-.51.1-.81v-.2c0-.1-.1-.1-.2-.1s-.2.1-.31.2m-159.16,24.31c.1,0,.2,0,.2.1.1.1.1.2.2.31l.31.61c.2.31.41.61.51.92v.31c-.2.1-.51.2-.71.31-.31.1-.71.31-1.02.51-.81.41-1.63.81-2.44,1.32-.81.41-1.83.92-2.44,1.73-.92,1.02-.31,2.75.81,3.36.41.2.81.2,1.32.2h.2c.1,0,.2,0,.31-.1.31,0,.61-.1.81-.2,1.12-.61,2.24-1.12,3.25-1.73l1.53-.92c.1-.1.41-.31.61-.31,0,0,.1.1.2.1.1.1.1.31.2.41.1.2.31.51.41.71,0,.1-.1.2-.1.31-.2.1-.31.1-.41.2l-.61.31c-.1,0-.31.1-.51.1-.1.1-.2.2-.31.2-.1.1-.31.2-.41.2-.71.41-1.42.81-2.14,1.12-1.63.81-3.25,1.63-5.08.51-.61-.41-1.12-1.12-1.53-1.73-.92-1.73-1.12-3.76.41-5.19.41-.41,1.02-.71,1.53-1.02.51-.2,1.02-.51,1.53-.71,1.12-.61,2.24-1.32,3.36-1.93m147.57,7.12c0,.1-.1.1-.1.1v.1c.1.2.31.31.41.51l.92.92c.2.31.41.51.61.71.1.1.2.2.31.2.1-.1.1-.2.2-.2.1-.31.92-1.53.81-1.83-.1,0-.1-.1-.2-.1-.31,0-.51-.1-.81-.1-.2,0-.51-.1-.81-.1-.41-.1-.81-.2-1.32-.2h0Zm-1.93-2.75c.41,0,.71.1,1.02.2.41.1.81.1,1.22.2,1.73.2,3.36.51,5.08.71h.71c.41.1.81.1,1.22.2.41,0,.81,0,1.12.1.1,0,.2.1.2.2s-.41.71-.51.92c-.1.1-.1.31-.2.41-.1.31-.31.81-.51.92-.2,0-.41,0-.61-.1-.51-.1-1.02-.2-1.63-.31-.2,0-.51-.1-.71,0s-.31.31-.41.51c-.31.51-.51,1.12-.81,1.63-.1.2-.2.41-.2.61v.2c.1.2.31.31.51.51.31.31.71.71,1.02,1.12.2.1.41.31.51.51v.2c-.1.1-.2.2-.2.41l-.31.61h-.2c-.2,0-.51-.51-.61-.61-.41-.51-.71-.92-1.12-1.32l-3.66-4.27c-.51-.41-.92-.81-1.32-1.32-.1-.1-.31-.31-.41-.51v-.2c0-.2.2-.31.31-.51.1-.31.2-.51.31-.81.1,0,.1-.1.2-.2h0Zm-140.75,4.58c.1,0,.2,0,.2.1.2.1.2.31.31.51.2.2.41.41.41.61s-.1.31-.1.51c-.1.2-.1.31-.2.51-.2.81-.41,1.73-.61,2.54-.2.71-.41,1.32-.61,2.03-.1.51-.2,1.02-.41,1.42-.1.31-.2.61-.2.92,0,.2.1.2.1.31.2-.1.41-.2.61-.41.31-.1.51-.31.81-.51.71-.51,1.42-.92,2.14-1.42.2-.2.41-.31.61-.51.31-.1.71-.51.92-.51h.2c.1.1.2.31.31.41.1.1.31.41.31.61v.2c-.2.1-.41.2-.51.31-.41.2-.71.41-1.02.61-.61.31-1.22.71-1.83,1.02-.61.41-1.32.81-1.93,1.22-.41.31-.92.61-1.32.92-.41.2-.81.51-1.12.71-.2.1-.31.31-.51.31h-.31c-.1-.1-.61-.92-.61-1.02,0-.31.1-.61.2-.81s.2-.51.31-.81c.31-1.22.71-2.34,1.02-3.56l.31-1.22c.1-.41.2-.71.31-1.12,0-.2.2-.61.1-.71,0-.1-.1-.1-.2-.1-.2.1-.31.1-.41.2-.31.2-.61.51-1.02.71-.71.51-1.53,1.02-2.34,1.53-.31.31-.61.51-.92.71-.1.1-.2.2-.41.31h-.1c-.1,0-.1-.1-.2-.2,0-.1-.1-.2-.2-.41-.1-.1-.2-.2-.31-.41v-.2c.2-.2.61-.41.81-.51.41-.2.71-.41,1.02-.61.41-.31.92-.51,1.32-.81.41-.2.92-.61,1.32-.81.51-.31.92-.61,1.32-.92.81-.51,1.63-1.02,2.44-1.63m138.21,1.12h.2c.31.2.41.41.71.61l.41.41v.2c-.1.2-.51.2-.71.2-.2.1-.31.1-.51.1-.61.2-1.12.81-1.42,1.42-.71,1.22-.31,2.85.61,3.76.51.61,1.12,1.02,1.73,1.32.2.1.31.1.41.2.51.2,1.22.41,1.83.41h.51c.1-.1.2-.1.31-.1.2-.1.31-.1.51-.2.61-.31,1.12-.92,1.42-1.53.2-.51.41-1.02.41-1.63,0-.31-.2-.61-.1-.92.1-.2.31-.2.41-.1.2.1.31.31.41.41.1.2.51.41.51.61.1.2,0,.51-.1.71-.1.61-.31,1.12-.61,1.73-1.22,2.03-2.95,3.66-5.7,3.25-.92-.2-1.83-.71-2.54-1.32-.81-.61-1.32-1.22-1.73-2.03-.92-2.24.2-4.78,1.63-6.31.41-.51.92-.92,1.42-1.22m-132.51,7.12c0,.1.1.1.2.2.2.2.41.61.61.81.2.31.51.51.71.81v.2c-.1.2-.31.31-.51.41-.41.31-.71.51-1.12.81-1.42,1.02-2.85,2.03-4.17,3.25-.51.31-.92.71-1.42,1.12-.2.1-.31.31-.51.41h-.2c-.2-.2-.2-.31-.31-.41-.1-.2-.2-.31-.31-.41-.2-.31-.51-.51-.71-.81-.1-.1-.1-.2-.1-.31,0,0,.1-.1.1-.2l1.83-1.22c.51-.41,1.02-.81,1.53-1.12.61-.51,1.22-1.02,1.93-1.53.1-.1.2-.2.41-.31.51-.41.92-.92,1.53-1.32.1-.1.31-.31.51-.41m126.51.41c.31,0,.71.51.92.71.31.2.51.51.81.71.41.31.71.61,1.02.92.2.1.41.31.51.41l2.14,1.83c.2.1.41.31.61.41.31.31.61.51,1.02.81.1.1.51.31.61.61v.1c-.1.2-.2.31-.31.41l-.51.51c-.1.2-.2.31-.31.51l-.31.31c-.1.1-.2.1-.31,0l-.71-.71c-.51-.51-1.02-.92-1.53-1.32-1.22-1.12-2.44-2.14-3.76-3.15-.2-.2-.51-.31-.71-.51-.2-.1-.41-.31-.51-.41-.1,0-.1-.1-.2-.2,0,0,0-.1.1-.2.2-.31.51-.51.71-.81.31-.31.51-.71.71-.92m-124.18,2.54c.31.1.41.31.61.51.2.2.41.41.61.71.61.61,1.12,1.32,1.73,1.93.41.41.81.92,1.22,1.22.2.2.41.51.61.71.1.1.41.31.41.51q.1.1,0,.2c-.1.2-.31.31-.41.51-.1.1-.31.31-.51.2-.2,0-.31-.31-.41-.41-.2-.31-.51-.61-.71-.81-.1-.2-.2-.41-.41-.51-.1-.1-.2-.1-.31,0-.2.1-.31.31-.51.41-.2.2-.31.41-.51.51-.41.41-.81.71-1.22,1.12-.61.61-1.22,1.22-1.93,1.83-.2.2-.41.31-.61.51-.2.31-.41.51-.61.71-.2.1-.31.31-.41.41l-.31.31c-.1,0-.1.1-.2,0-.31,0-.61-.61-.81-.81-.2-.31-.51-.51-.71-.71,0-.1-.1-.2,0-.31,0-.2.2-.2.31-.31.51-.41.92-.81,1.32-1.22,1.02-.92,2.14-1.83,3.15-2.85.31-.31.71-.61,1.02-1.02.1-.1.31-.2.41-.41,0,0,.1-.1,0-.2,0-.2-.2-.31-.31-.41l-.71-.71c-.2-.1-.71-.51-.71-.71s.31-.31.41-.41c.1-.2.31-.51.51-.51m120.62,3.56c-.1.1-.2.1-.31.2-.2,0-.81.41-.81.71,0,0,.1.1.1.2l.51.51c.1.1.2.2.31.41l.61.61c.31.2.61.51.81.71q.1.1.2.1c.41-.31.71-.71.71-1.22.1-.51-.2-.92-.41-1.32-.1,0-.1-.1-.2-.2,0,0-.1-.1-.2-.1-.41-.31-.71-.61-1.32-.61h0Zm1.12-2.03c.41,0,.81.1,1.22.2.81.31,1.53,1.22,1.53,2.24.1.41,0,.81-.2,1.12,0,.2-.1.31-.1.51,0,.1,0,.2.1.2.1.1.2.1.41.1.2.1.51.1.71.2.31.1.61.1,1.02.2.61.1,1.22.31,1.93.41.2.1,1.32.2,1.32.51-.1,0-.1.1-.1.2-.31.2-.61.51-.92.71l-.61.61-.31.31h-.2c-.2,0-.31-.1-.51-.1-.31-.1-.71-.2-1.02-.31-.41-.1-.71-.2-1.12-.31-.41-.1-.81-.2-1.12-.31s-.61-.2-.81-.2c-.1-.1-.2,0-.2.1l.51.51,1.02,1.02c.41.31.71.61,1.12.92.1.2.31.31.31.51.1,0,.1.1,0,.1-.1.31-.41.51-.71.71-.2.2-.51.51-.71.81h-.2c-.2,0-.41-.31-.51-.41-.41-.41-.71-.81-1.12-1.22-.41-.51-.92-.92-1.42-1.42-1.02-1.12-2.03-2.14-3.15-3.15-.1-.1-.81-.61-.81-.81q0-.1.1-.2c.1-.2.31-.31.41-.41l.61-.61c.81-.81,1.63-1.93,2.64-2.44l.92-.31h0Zm-115.53,4.88c.1,0,.2.1.31.1l1.12,1.12c.31.2.61.51.92.81.41.31.81.61,1.12.92.2.1.31.2.41.31.2.1.61.41.41.71l-.31.31-.31.31c0,.1-.1.1-.1.1-.1,0-.2,0-.2-.1-.1,0-.2-.1-.31-.2-.2-.31-.41-.51-.61-.71-.31-.2-.51-.41-.71-.61-.2-.2-.41-.41-.51-.41s-.2,0-.31.1c-.2.1-.41.41-.71.71-.2.31-.51.51-.71.81-.1.1-.31.31-.2.41,0,.2.41.41.51.51.41.31.71.61,1.02.92.2.1.51.2.61.41.1.1.1.2.1.2,0,.2-.2.41-.31.51-.1.2-.2.31-.41.41,0,.1-.1.1-.2.1-.2-.1-.31-.31-.51-.51l-.81-.81-.51-.51c-.1-.1-.2-.2-.41-.2q-.1,0-.2.1c-.31.31-.61.61-.81.92-.31.31-.51.61-.81.81-.1.2-.2.31-.31.51-.1,0-.1.2,0,.2.1.2.41.41.51.51l1.22.92c.2.2.41.31.51.51q.1.1,0,.2c0,.2-.31.31-.41.51l-.31.31h-.1c-.31,0-.71-.61-1.02-.81-.51-.51-1.12-1.12-1.73-1.63-.2-.1-.41-.31-.61-.51-.2-.1-.92-.61-.81-.81,0-.2.31-.51.51-.61.31-.41.71-.81,1.12-1.22.41-.51.92-.92,1.32-1.42.61-.61,1.12-1.32,1.73-1.93.31-.51.71-.92,1.02-1.32.31-.31.51-.61.81-.92m109.94,0c.2.1.31.31.51.51.1.2.31.31.31.51,0,.1-.1.2-.2.31-.2.1-.41.2-.51.31-.51.31-.81.61-1.32.92l-.41.41c0,.1,0,.2.1.31,0,.1.2.2.31.41s.31.51.51.71c.2.31.41.51.71.81h.2q.1,0,.2-.1c.31-.2.61-.51.92-.81l.92-.92c.1,0,.2-.1.31-.1.2,0,.31.31.41.51.1.1.41.31.41.51,0,.1-.1.1-.1.2l-.61.31c-.41.31-.71.61-1.12.92-.2.2-.41.31-.51.41-.1.1-.1.2,0,.31.1.2.2.31.31.41.31.41.61.81.92,1.12.2.31.41.61.71.81h.2c.31-.1.51-.31.71-.51.31-.31.61-.61.92-.81.2-.2.51-.61.71-.61s.31.31.41.51c.1.1.31.2.41.41q0,.1-.1.2c0,.1-.1.1-.2.2-.2.2-.41.31-.61.51-.61.41-1.22.92-1.93,1.42-.31.31-.61.61-1.02.92-.1.1-.31.31-.41.31h-.2c-.31-.2-.41-.51-.51-.71-.31-.31-.51-.61-.71-.92-.2-.2-.41-.51-.61-.81-.31-.31-.61-.71-1.02-1.12-.2-.31-.41-.51-.61-.81-.41-.51-.92-1.12-1.42-1.63-.2-.31-.51-.61-.81-.92-.1-.2-.31-.31-.41-.51v-.2c0-.2.41-.41.61-.61.1-.1.2-.2.41-.31.71-.51,1.32-1.12,2.03-1.63.41-.41.71-.81,1.22-1.12m-5.7,4.78h.2c.2.2.31.41.51.61.2.31.41.61.71.92.81.92,1.53,1.83,2.34,2.75.51.51.92,1.12,1.42,1.63.31.31.61.61.81,1.02.2.2.51.41.51.61.1.1.1.2,0,.2-.41.2-.71.51-1.12.71-.2.1-.41.31-.61.41q-.1.1-.2.1c-.2-.1-.81-.92-.92-1.12-.51-.61-1.02-1.22-1.42-1.83-.51-.51-.92-1.12-1.42-1.63q-.1-.1-.2-.1c0,.1-.1.1-.1.2.1.41.1.92.2,1.42,0,.2,0,.41.1.61,0,.41,0,.81.1,1.22.1.61.1,1.12.2,1.73.1.31.1.61.2,1.02,0,.1.1.31,0,.51,0,.2-.31.41-.41.41h-.2c-.61-.31-1.22-.71-1.83-1.02-.81-.51-1.73-1.02-2.54-1.53-.2-.1-1.32-.81-1.42-.71-.1,0-.1.1-.1.1.1.1.2.31.2.41.2.31.31.61.41.81.41.81.92,1.63,1.32,2.44.2.41.41.71.51,1.02.1.2.31.31.31.51v.2c-.2.2-.41.31-.61.41-.1.1-.2.1-.31.2,0,0-.1.1-.2,0-.1,0-.2-.1-.2-.2l-.31-.61c-.2-.51-.41-.92-.61-1.42l-.61-1.53c-.51-1.12-1.02-2.14-1.53-3.25-.2-.41-.41-.71-.61-1.12-.1-.2-.41-.61-.31-.81,0-.31.31-.41.51-.51.1-.1.2-.1.31-.2.1-.1.2-.1.31-.1s.2.1.41.2.41.2.61.41c1.22.71,2.54,1.42,3.76,2.24.31.2.61.31.92.51.2.1.31.2.51.31,0,0,.1,0,.1-.1.2-.1,0-1.73-.1-2.03-.1-1.22-.31-2.44-.41-3.76-.1-.31-.1-.61-.2-.92,0-.2-.1-.41,0-.51,0-.31.41-.41.61-.51.1-.1.2-.2.41-.31m-97.22,2.14c-.31.2-.51.51-.71.81l-.41.41c-.1.2-.31.41-.41.61-.81,1.02-1.53,1.93-2.24,2.95-.2.31-1.02,1.32-.92,1.53,0,.2,1.02.92,1.32,1.02l.61.31c.31,0,.61.1.92.1.1-.1.2-.1.31-.1h.1c.2-.1.51-.1.71-.2.51-.2.92-.51,1.32-.92,1.22-1.22,2.34-3.15,1.42-4.78-.2-.31-.51-.71-.81-.92-.41-.31-.71-.61-1.22-.81h0Zm-1.42-2.34c.2,0,.41.31.61.41l.41.41c.41.2.71.51,1.12.71.92.71,2.03,1.42,2.85,2.44s1.12,2.44.81,3.76c-.1.31-.31.61-.41.92-.31.51-.61,1.02-1.02,1.42-.31.31-.61.51-.92.71-.2.2-.51.31-.81.51-1.42.51-3.15.51-4.47-.31-.31-.1-.51-.31-.71-.41-.2-.1-.31-.31-.51-.41q-.1,0-.2.1h-.1c-.1-.1,0-.31-.2-.41-.41-.41-.81-.81-1.32-1.12-.2-.1-.92-.51-1.02-.71,0-.1,0-.2.1-.31.1-.2.41-.51.61-.71.2-.31.51-.61.71-.92.51-.61.92-1.22,1.42-1.83.2-.31.51-.71.71-1.02.41-.51.71-1.02,1.12-1.53.2-.41.51-.71.71-1.12.2-.2.31-.41.51-.61h0Zm13.93,9.15h.81c1.02.1,2.44.81,3.15,1.73.1.1.31.31.2.61,0,.2-.31.41-.41.51-.2.2-.41.51-.61.61h-.31c-.2-.2-.2-.61-.2-.81-.1-.31-.31-.61-.51-.81-.61-.71-1.83-.81-2.24.2-.2.71.41,1.53.81,1.93.81,1.02,1.93,2.34,1.32,3.86-.2.51-.41,1.02-.92,1.32-1.53,1.32-3.46.92-4.98-.1-.31-.2-1.32-.92-1.32-1.32,0-.1,1.02-1.53,1.12-1.63.1,0,.31,0,.31.1.2.1.2.51.2.81.31,1.02,1.12,1.63,2.24,1.63.2-.1.41-.1.51-.2,1.42-1.22-.71-2.95-1.22-3.86-.31-.41-.51-.71-.51-1.22-.2-1.22.51-2.54,1.53-3.05.31-.2.71-.2,1.02-.31m5.8,2.03c.31.1.51.2.81.31.41.2.92.31,1.32.51,1.12.41,2.34.81,3.46,1.22l.92.31c.2,0,.41,0,.61.2.1,0,.1.1.1.31-.1.1-.1.2-.2.31,0,.2-.1.51-.2.61-.41.31-2.24-1.12-2.54-.71-.1.2-.2.51-.2.71-.2.31-.31.61-.41,1.02-.1.1-.1.31-.2.41-.41,1.32-.92,2.64-1.32,4.07-.1.41-.31.92-.41,1.32-.1.2-.1.31-.1.41-.1.1-.2.2-.31.2-.2,0-.41-.2-.61-.2l-.61-.31c-.31-.1-.61-.1-.81-.2-.1,0-.1-.1-.1-.2-.1-.1,0-.31.1-.51.2-.51.51-1.12.71-1.63.31-.81.51-1.63.81-2.44.2-.61.41-1.22.71-1.83.1-.51.31-1.02.41-1.53v-.2c-.1-.1-.31-.2-.51-.2-.2-.1-.51-.2-.81-.31-.31,0-.92-.1-1.12-.31v-.1c0-.2.1-.51.2-.61,0-.1,0-.31.1-.41,0-.1.1-.1.2-.1v-.1m66,.2c-.1,0-.1.1-.1.2,0,.2,0,.41.1.51,0,.41.1.71.1,1.12.1.41.1.81.2,1.22,0,.1.1.2.2.2.2.1,1.42-.61,1.73-.81l.2-.2c0-.1-.1-.2-.1-.2-.41-.41-.81-.71-1.12-1.02-.2-.31-.41-.51-.71-.71-.1-.1-.31-.2-.51-.31h0Zm-.1-3.25h.2c.2.1.31.31.51.41.41.41.71.81,1.12,1.12.92.92,1.73,1.63,2.64,2.44.61.51,1.22,1.12,1.83,1.63.51.51,1.12.92,1.63,1.42,0,0,.1.1.1.2-.1.2-.71.41-1.02.51-.1.1-.31.2-.51.31s-.51.51-.81.41l-.51-.51-.51-.51c-.2-.2-.51-.41-.71-.71-.1-.1-.31-.31-.41-.31-.2-.1-.61.1-.81.2-.2.2-.51.31-.81.51-.41.2-.81.41-1.12.61l-.2.2c0,.2.1.51.1.61.1.51.1.92.2,1.32.1.31.2.61.2.92,0,0,0,.1-.1.2s-.31.2-.51.31c-.1,0-.41.31-.61.31-.1-.1-.2-.1-.2-.2v-.81c-.1-.2-.1-.51-.1-.71-.1-.61-.1-1.02-.2-1.53,0-.71-.1-1.32-.1-1.93-.2-1.12-.31-2.24-.41-3.36l-.31-1.53c0-.2-.1-.51,0-.71s.51-.31.71-.41c.2-.1.41-.31.71-.41h0Zm-8.54,3.76q.2.1.31.2c.1.1.1.31.2.51,0,.1.1.31.1.51q0,.1-.1.2c-.2.1-.51.1-.71.2-.41,0-2.03.31-2.14.61-.1.2.41,2.24.61,2.54.1.1.2.1.31.1s.2-.1.31-.1c.2,0,.31-.1.51-.2.61-.2,1.12-.41,1.63-.51.1-.1.2-.1.2,0q.1,0,.2.1v.31c.1.2.2.41.2.61,0,.1,0,.2-.1.31-.2.1-.51.1-.81.1-.41.1-.71.2-1.12.31-.2.1-.51.1-.71.31-.1,0-.2.1-.2.2,0,.2.2.51.2.71l.61,1.83c.1.31.2.51.31.81,0,.2.31.61.2.81,0,.1-.1.1-.1.2-.2.1-.61.1-.81.2-.2,0-.31,0-.51.1s-.71.31-.81.2h-.1c-.1,0-.1-.1-.2-.2-.1-.51-.2-1.12-.41-1.63-.2-.92-.51-1.73-.71-2.75-.1-.1-.1-.2-.1-.31-.1-.2-.2-.51-.31-.71,0-.2-.1-.41-.1-.61-.2-.71-.41-1.32-.61-2.03-.1-.2-.41-.92-.41-1.22.1-.2,1.02-.41,1.22-.41,1.12-.31,2.14-.61,3.15-.92.2-.1.41-.2.61-.2,0-.1.1-.1.2-.1v-.1m-44.14,3.25c.41,0,.71.2,1.12.2l1.53.31c.61.2,1.22.31,1.83.41.41.1.81.1,1.32.2.31.1.71.1,1.12.2.1,0,.31,0,.41.1.1,0,.2.1.2.2,0,.2-.1.31-.1.41-.1.2-.1.41-.1.61l-.1.1c-.2.1-.51,0-.61-.1-.41-.1-.92-.2-1.32-.31-.2,0-.31-.1-.41-.1s-.2.1-.2.2c-.1.31-.2.51-.2.81-.1.51-.2,1.02-.31,1.42-.2,1.12-.41,2.24-.61,3.46,0,.2-.1.41-.1.61-.1.71-.2,1.32-.31,1.93,0,.1-.1.1-.2.2-.2,0-.51-.1-.71-.2-.2,0-.31-.1-.51-.1-.31,0-.61,0-.92-.1,0,0-.1-.1-.1-.2-.1-.2,0-.41.1-.61l.31-1.53c.2-.92.41-1.83.51-2.75l.31-1.22c.1-.51.1-.92.2-1.42.1-.2.1-.51.1-.71,0-.1,0-.2-.1-.31-.1,0-.31,0-.41-.1-.51,0-1.02-.1-1.53-.1-.2-.1-.41,0-.51-.2s0-.51,0-.71c.1-.2,0-.41.31-.61m33.26.71q-.1,0-.2.1h-.41c-.61.2-1.22.71-1.53,1.32-.31.41-.51,1.12-.51,1.73s.1,1.22.2,1.73c.2,1.12.61,2.44,1.63,3.15.51.31,1.02.51,1.63.51h.2s.1-.1.2-.1.31-.1.51-.1c.41-.2.81-.51,1.02-.92.31-.41.51-.92.61-1.53.1-.2.1-.41.1-.71v-.31c0-.61-.1-1.12-.2-1.63-.31-1.12-.81-2.24-1.83-2.95-.41-.2-.92-.31-1.42-.31h0Zm.71-1.12c2.95,0,4.88,1.83,5.19,4.68.1.92.1,1.83-.2,2.64-.51,1.32-1.73,2.44-3.05,2.95-.41.2-.92.31-1.42.41-.31.1-.71.1-1.12.1-1.32,0-2.54-.41-3.46-1.22-.71-.61-1.22-1.42-1.42-2.34-.81-2.64-.1-5.08,2.24-6.41.41-.2.71-.31,1.12-.41.2-.1.51-.2.81-.2h.2c0-.1.2-.1.31-.1h.41c.1-.1.31-.1.41-.1Zm-14.75,1.83c.92,0,1.73,0,2.44.31.2.1.51.2.51.41s-.1.51-.2.71c0,.2-.1.61-.2.81-.1.1-.2.2-.31.1-.2-.1-.31-.41-.51-.51-.51-.61-1.63-.92-2.34-.31-.31.2-.41.61-.31,1.02.1.81,1.22,1.22,1.93,1.42,1.22.61,2.34,1.12,2.64,2.75,0,.31,0,.71-.1,1.12-.1.51-.31.92-.61,1.32-.92,1.32-3.36,1.63-4.98,1.12-.2-.1-.71-.1-.81-.41,0-.2.1-.41.1-.61.1-.31.1-1.02.2-1.32.1-.1.2-.1.31-.1.2,0,.41.51.51.61.51.61,1.12.81,1.83.81.1,0,.2,0,.2-.1h.2c.31-.1.51-.2.61-.31.2-.2.41-.51.41-.81,0-1.12-1.42-1.63-2.24-1.93-.31-.2-.71-.41-1.12-.61-.41-.31-.71-.71-1.02-1.22-.1-.31-.2-.51-.2-.81-.2-1.42.61-2.54,1.73-3.15.2-.1.51-.2.81-.2.2,0,.41-.1.51-.1m-9.86,0c.2.1.31.1.51.1.31,0,.71.1,1.12.1.92,0,1.73.1,2.64.1.41,0,1.32-.1,1.42.31-.1.1-.1.2-.1.31,0,.2,0,.61-.1.71-.1,0-.1.1-.2.1-.41-.1-.81-.1-1.32-.2-.31,0-.61,0-.92-.1-.2,0-.61-.1-.71.1-.2.2-.2,1.32-.2,1.63s-.1.61-.1.92c.1.1.1.2.1.2.2.1.81.1,1.12.1h1.73c.41.1.31.41.31.71,0,.2,0,.61-.2.71h-.41c-.41-.1-2.44-.51-2.64-.2-.1.1-.1.31-.1.41-.1.51,0,1.02-.1,1.53v1.12c0,.1,0,.2.1.31.2.1.92.1,1.22.1h1.53c.1-.1.2,0,.31,0,.2.1.1.41.1.71,0,.1,0,.41-.1.51,0,0,0,.1-.1.1-.1.1-.92,0-1.12-.1-1.02-.1-2.03-.1-3.15-.2-.2,0-1.02.1-1.22,0,0-.1-.1-.1-.1-.2v-.61c.1-.51.1-.92.2-1.32.1-.81.1-1.63.1-2.34.1-1.12.2-2.24.2-3.36v-1.93c.1-.1.1-.2.2-.31m-13.83.51v.1c-.2,0-.41.41-.51.51-.31.51-.61.92-.92,1.42-.1.1-.2.31-.31.41,0,.1-.1.2-.1.31l.1.1c.2.1.31.1.51.2.2,0,.51.1.71.1.2.1.51.2.71.2q.2-.1.2-.31c.1-.41,0-.81-.1-1.22,0-.31,0-.61-.1-.92,0-.2,0-.51-.1-.71,0-.1-.1-.1-.1-.2h0Zm.51-2.85c.41,0,.61.1.92.2.31,0,.61,0,.81.2.2.2.1.92.2,1.12v1.12c.1.31.1.71.1,1.02.1,1.42.41,2.85.51,4.27l.31,1.83c0,.31.1.71.1,1.02,0,.1,0,.31-.2.31s-.51-.2-.71-.2c-.31-.1-.61-.1-.81-.2-.31-.1-.51,0-.71-.1-.1-.1-.2-.2-.2-.31v-.61c0-.51-.1-1.02-.1-1.42-.1-.31,0-.51-.1-.71-.1-.1-.2-.2-.31-.2-.61-.2-1.22-.31-1.83-.41-.2-.1-.81-.31-1.12-.2-.2.1-.41.61-.51.81-.2.41-.51.81-.71,1.22-.1.1-.2.41-.41.51-.2.1-.51,0-.61-.1-.2,0-.61,0-.71-.2-.1,0-.1-.1-.1-.2.1-.2.31-.41.51-.61l.92-1.22c.31-.41.51-.81.81-1.12.81-1.12,1.63-2.34,2.34-3.46.31-.51.61-.92.92-1.42.2-.31.41-.71.71-.92h0Z"/>
  </g>
  <text class="cls-4" transform="translate(209.89 143.95)"><tspan x="0" y="0">F</tspan><tspan class="cls-7" x="83.81" y="0">E</tspan><tspan x="170.35" y="0">C</tspan><tspan class="cls-1" x="271.44" y="0">F</tspan><tspan x="352.37" y="0">i</tspan><tspan class="cls-6" x="395.85" y="0">l</tspan><tspan x="438.33" y="0">e</tspan></text>
</svg>