<?xml version="1.0" encoding="UTF-8"?>
<svg id="Layer_2" data-name="Layer 2" xmlns="http://www.w3.org/2000/svg" viewBox="0 0 32 32">
  <defs>
    <style>
      .cls-1 {
        fill: #fff;
      }

      .cls-2 {
        fill: #112e51;
      }
    </style>
  </defs>
  <g id="Layer_1-2" data-name="Layer 1">
    <g>
      <g>
        <path class="cls-1" d="M16,31c-8.27,0-15-6.73-15-15S7.73,1,16,1s15,6.73,15,15-6.73,15-15,15Z"/>
        <path class="cls-2" d="M16,2c7.72,0,14,6.28,14,14s-6.28,14-14,14S2,23.72,2,16,8.28,2,16,2M16,0C7.16,0,0,7.16,0,16s7.16,16,16,16,16-7.16,16-16S24.84,0,16,0h0Z"/>
      </g>
      <circle class="cls-2" cx="16" cy="16" r="12"/>
      <path class="cls-1" d="M16.04,23.14c-.69,0-1.35-.09-1.99-.28s-1.21-.46-1.72-.83c-.51-.37-.91-.82-1.2-1.36-.3-.54-.45-1.17-.45-1.89h2.48c.03.45.16.85.41,1.18.25.33.58.58,1,.76s.91.27,1.46.27c.81,0,1.45-.19,1.91-.56s.69-.85.69-1.42c0-.37-.09-.7-.28-.97-.19-.27-.47-.48-.86-.62-.39-.14-.88-.22-1.48-.22h-1.72v-1.86h1.46c.76,0,1.36-.16,1.79-.49.43-.33.65-.77.65-1.33,0-.5-.19-.92-.56-1.26-.37-.34-.93-.5-1.68-.5-.61,0-1.15.12-1.62.37-.48.25-.78.68-.92,1.29h-2.48c.09-.89.36-1.61.8-2.17s1.02-.97,1.73-1.24c.71-.26,1.5-.4,2.39-.4.94,0,1.78.15,2.51.46s1.31.73,1.74,1.27c.42.54.63,1.17.63,1.88,0,.66-.18,1.24-.54,1.73-.36.49-.89.85-1.6,1.1.79.27,1.42.66,1.89,1.19.47.53.71,1.18.71,1.97s-.21,1.45-.65,2.04c-.43.59-1.03,1.05-1.8,1.38-.77.33-1.68.5-2.71.5Z"/>
    </g>
  </g>
</svg>