<?xml version="1.0" encoding="UTF-8"?>
<svg id="Layer_2" data-name="Layer 2" xmlns="http://www.w3.org/2000/svg" viewBox="0 0 32 32">
  <defs>
    <style>
      .cls-1 {
        fill: #fff;
      }

      .cls-2 {
        fill: #112e51;
      }
    </style>
  </defs>
  <g id="Layer_1-2" data-name="Layer 1">
    <g>
      <g>
        <path class="cls-1" d="M16,31c-8.27,0-15-6.73-15-15S7.73,1,16,1s15,6.73,15,15-6.73,15-15,15Z"/>
        <path class="cls-2" d="M16,2c7.72,0,14,6.28,14,14s-6.28,14-14,14S2,23.72,2,16,8.28,2,16,2M16,0C7.16,0,0,7.16,0,16s7.16,16,16,16,16-7.16,16-16S24.84,0,16,0h0Z"/>
      </g>
      <circle class="cls-2" cx="16" cy="16" r="12"/>
      <path class="cls-1" d="M11.15,22.86v-2.22c0-.73.11-1.34.33-1.85.22-.51.55-.94.99-1.29.44-.35.98-.65,1.65-.9l2.66-1.02c.58-.23,1.01-.52,1.29-.86.28-.34.42-.76.42-1.26s-.18-.92-.54-1.27c-.36-.34-.88-.52-1.56-.52s-1.19.16-1.62.49-.69.79-.75,1.42h-2.62c.02-.89.25-1.62.69-2.21.44-.59,1.03-1.02,1.77-1.31.74-.29,1.57-.44,2.5-.44.87,0,1.66.17,2.37.5s1.27.79,1.69,1.38c.42.59.62,1.28.62,2.07,0,.67-.12,1.25-.37,1.76-.24.51-.61.95-1.1,1.33-.49.38-1.12.72-1.87,1.01l-2.68,1.04c-.52.2-.9.42-1.13.67-.23.24-.35.56-.35.96v.38h7.42v2.16h-9.78Z"/>
    </g>
  </g>
</svg>