<?xml version="1.0" standalone="no"?>
<!DOCTYPE svg PUBLIC "-//W3C//DTD SVG 20010904//EN"
 "http://www.w3.org/TR/2001/REC-SVG-20010904/DTD/svg10.dtd">
<svg version="1.0" xmlns="http://www.w3.org/2000/svg"
 width="586.000000pt" height="428.000000pt" viewBox="0 0 586.000000 428.000000"
 preserveAspectRatio="xMidYMid meet">

<g transform="translate(0.000000,428.000000) scale(0.100000,-0.100000)"
fill="#000000" stroke="none">
<path d="M1377 2955 c-49 -17 -82 -47 -107 -100 -16 -33 -20 -62 -20 -148 l0
-107 563 2 562 3 0 180 0 180 -480 2 c-386 2 -488 0 -518 -12z m107 -134 c25
-27 17 -64 -16 -75 -34 -12 -58 6 -58 44 0 18 7 30 23 38 30 15 32 15 51 -7z
m193 -11 c10 -20 10 -29 -1 -45 -16 -24 -51 -31 -72 -15 -17 15 -18 62 -2 78
20 20 61 10 75 -18z m179 5 c31 -48 -15 -101 -62 -70 -26 17 -33 62 -12 83 20
20 56 14 74 -13z"/>
<path d="M3380 2785 l0 -185 563 2 562 3 0 100 c-1 122 -6 144 -48 191 -65 75
-54 74 -594 74 l-483 0 0 -185z"/>
<path d="M1492 2065 c-6 -14 -18 -25 -27 -25 -21 0 -19 -13 5 -28 11 -7 20
-21 20 -32 0 -21 15 -27 25 -10 3 6 18 10 32 10 22 0 24 3 19 24 -3 14 -2 28
4 31 19 11 10 25 -15 25 -14 0 -28 7 -31 15 -9 22 -19 18 -32 -10z"/>
<path d="M4433 2013 c-7 -2 -13 -11 -13 -19 0 -19 -85 -56 -114 -48 -30 7 -75
-40 -60 -63 14 -22 -17 -107 -40 -111 -12 -3 -16 -15 -16 -48 0 -36 3 -44 19
-44 22 0 54 -74 45 -107 -8 -29 30 -67 59 -59 33 8 117 -25 117 -46 0 -28 80
-26 87 2 7 27 92 65 114 51 13 -7 23 -3 44 19 24 25 26 32 15 45 -10 12 -10
21 -2 38 7 12 16 34 22 50 5 15 16 27 25 27 24 0 21 76 -3 82 -25 7 -63 87
-55 116 8 30 -32 65 -65 57 -38 -9 -100 14 -106 41 -5 18 -13 24 -34 23 -15 0
-33 -3 -39 -6z m113 -207 c38 -38 44 -77 19 -126 -17 -32 -61 -60 -95 -60 -34
0 -78 28 -95 60 -25 49 -19 88 19 126 28 28 42 34 76 34 34 0 48 -6 76 -34z"/>
<path d="M1495 1591 c-3 -11 -15 -23 -26 -26 -24 -8 -24 -17 1 -33 11 -7 20
-21 20 -33 0 -18 2 -19 21 -6 11 8 29 13 39 10 16 -4 19 0 18 23 -1 16 2 38 7
48 7 16 5 18 -13 14 -12 -4 -26 0 -33 8 -16 19 -27 18 -34 -5z"/>
<path d="M4149 1423 c-7 -22 -24 -35 -71 -56 -41 -18 -65 -24 -72 -17 -19 19
-44 10 -75 -25 -36 -41 -34 -37 -20 -68 16 -35 -21 -140 -53 -147 -21 -5 -23
-11 -23 -65 0 -56 1 -60 25 -63 20 -2 29 -14 48 -63 18 -47 21 -63 12 -74 -16
-19 -6 -46 30 -80 26 -25 32 -27 58 -16 24 10 35 9 73 -8 24 -11 51 -21 59
-21 9 0 21 -13 27 -30 10 -28 15 -30 63 -30 47 0 52 2 61 28 12 33 124 91 142
73 20 -20 43 -11 76 29 31 38 31 41 15 65 -13 20 -14 28 -4 40 6 8 18 34 25
57 9 31 18 44 36 48 22 5 24 11 24 65 0 58 -1 60 -27 63 -16 2 -28 8 -28 13 0
6 -12 35 -26 66 -22 45 -25 60 -15 75 14 22 -5 57 -45 83 -23 15 -28 15 -48 2
-17 -11 -27 -12 -41 -4 -11 6 -37 16 -59 22 -30 9 -42 19 -46 36 -5 21 -12 24
-58 27 -50 3 -53 2 -63 -25z m141 -235 c108 -56 108 -213 -1 -268 -49 -25 -90
-25 -140 0 -53 27 -79 72 -79 135 0 65 28 110 83 135 55 25 83 25 137 -2z"/>
<path d="M1500 1131 c0 -7 -12 -23 -26 -36 -25 -23 -25 -24 -5 -35 12 -6 21
-20 21 -30 0 -22 15 -27 26 -9 3 6 17 8 31 4 24 -6 25 -4 20 24 -4 17 -2 33 3
36 17 11 11 25 -12 25 -12 0 -30 7 -40 17 -11 10 -18 12 -18 4z"/>
<path d="M727 622 c-10 -10 -17 -22 -17 -25 0 -4 988 -7 2195 -7 1457 0 2195
3 2195 10 0 6 5 10 11 10 5 0 7 -5 4 -10 -3 -5 -1 -10 4 -10 17 0 13 20 -5 27
-9 3 -20 0 -25 -8 -6 -10 -9 -10 -9 -1 0 6 -5 12 -11 12 -5 0 -7 -4 -4 -10 4
-6 -32 -10 -99 -10 -87 0 -106 3 -106 15 0 12 23 15 123 18 95 2 81 3 -66 5
-123 1 -186 -1 -182 -8 3 -5 1 -10 -6 -10 -7 0 -9 -3 -6 -6 4 -4 12 -2 19 3
16 13 108 16 108 4 0 -5 -10 -7 -22 -4 -18 4 -20 3 -8 -6 10 -7 -83 -10 -318
-9 -182 0 -332 4 -332 9 0 4 12 10 28 12 15 3 5 3 -23 1 -63 -4 -65 -4 -35
-14 14 -4 -662 -8 -1502 -9 -1321 -1 -1527 1 -1522 14 3 7 13 16 22 18 10 3
-76 5 -189 6 -188 1 -207 -1 -222 -17z m383 -1 c0 -5 -10 -11 -22 -15 -33 -8
-46 -6 -23 4 16 7 17 9 3 9 -9 1 -20 -3 -23 -9 -7 -11 -110 -10 -143 2 -14 5
-21 4 -17 -1 3 -6 -29 -9 -80 -8 -65 1 -82 5 -70 13 18 13 375 18 375 5z"/>
<path d="M758 613 c7 -3 16 -2 19 1 4 3 -2 6 -13 5 -11 0 -14 -3 -6 -6z"/>
<path d="M838 613 c7 -3 16 -2 19 1 4 3 -2 6 -13 5 -11 0 -14 -3 -6 -6z"/>
<path d="M928 613 c7 -3 16 -2 19 1 4 3 -2 6 -13 5 -11 0 -14 -3 -6 -6z"/>
<path d="M1166 625 c4 -8 8 -15 10 -15 2 0 4 7 4 15 0 8 -4 15 -10 15 -5 0 -7
-7 -4 -15z"/>
<path d="M1196 625 c4 -8 8 -15 10 -15 2 0 4 7 4 15 0 8 -4 15 -10 15 -5 0 -7
-7 -4 -15z"/>
<path d="M1330 633 c0 -20 183 -23 1404 -21 l1251 3 -1300 5 c-715 4 -1312 10
-1327 14 -17 5 -28 4 -28 -1z"/>
<path d="M4393 633 c9 -2 25 -2 35 0 9 3 1 5 -18 5 -19 0 -27 -2 -17 -5z"/>
<path d="M4450 632 c0 -18 20 -24 36 -11 12 9 20 9 39 -1 22 -12 46 -8 33 5
-11 12 -108 18 -108 7z"/>
<path d="M4248 623 c12 -2 30 -2 40 0 9 3 -1 5 -23 4 -22 0 -30 -2 -17 -4z"/>
<path d="M4323 623 c9 -2 25 -2 35 0 9 3 1 5 -18 5 -19 0 -27 -2 -17 -5z"/>
<path d="M1288 613 c7 -3 16 -2 19 1 4 3 -2 6 -13 5 -11 0 -14 -3 -6 -6z"/>
<path d="M4033 613 c9 -2 23 -2 30 0 6 3 -1 5 -18 5 -16 0 -22 -2 -12 -5z"/>
<path d="M4938 613 c23 -2 59 -2 80 0 20 2 1 4 -43 4 -44 0 -61 -2 -37 -4z"/>
</g>
</svg>
